# MagicaVoxel @ Ephtracy

# group
o 

# material
mtllib house-1-piece-18.mtl
usemtl palette

# normals
vn -1 0 0
vn 1 0 0
vn 0 0 1
vn 0 0 -1
vn 0 -1 0
vn 0 1 0

# texcoords
vt 0.505859 0.5
vt 0.958984 0.5
vt 0.994141 0.5

# verts
v 1.5 0.6 -1.1
v 1.5 0.6 -1.3
v 1.5 1.1 -1.1
v 1.5 1.1 -1.3
v 1.6 0.5 -1.1
v 1.6 0.5 -1.3
v 1.6 0.6 -1.1
v 1.6 0.6 -1.3
v 1.6 1.1 -1.1
v 1.6 1.1 -1.3
v 1.6 1.2 -1.1
v 1.6 1.2 -1.3
v 2.2 0.5 -1.1
v 2.2 0.5 -1.2
v 2.2 1.2 -1.1
v 2.2 1.2 -1.2
v 1.7 0.5 -1.1
v 1.7 0.5 -1.2
v 1.7 0.7 -1.2
v 1.7 0.8 -1.2
v 1.7 1 -1.2
v 1.7 1.1 -1.2
v 1.7 1.2 -1.1
v 1.7 1.2 -1.2
v 2.3 0.5 -1.1
v 2.3 0.5 -1.3
v 2.3 0.6 -1.1
v 2.3 0.6 -1.3
v 2.3 1.1 -1.1
v 2.3 1.1 -1.3
v 2.3 1.2 -1.1
v 2.3 1.2 -1.3
v 2.4 0.6 -1.1
v 2.4 0.6 -1.3
v 2.4 1.1 -1.1
v 2.4 1.1 -1.3
v 1.5 0.6 -1.1
v 1.5 1.1 -1.1
v 1.6 0.5 -1.1
v 1.6 0.6 -1.1
v 1.6 1.1 -1.1
v 1.6 1.2 -1.1
v 1.7 0.5 -1.1
v 1.7 1.2 -1.1
v 2.2 0.5 -1.1
v 2.2 1.2 -1.1
v 2.3 0.5 -1.1
v 2.3 0.6 -1.1
v 2.3 1.1 -1.1
v 2.3 1.2 -1.1
v 2.4 0.6 -1.1
v 2.4 1.1 -1.1
v 1.7 0.5 -1.2
v 1.7 0.7 -1.2
v 1.7 0.8 -1.2
v 1.7 1 -1.2
v 1.7 1.1 -1.2
v 1.7 1.2 -1.2
v 1.8 0.7 -1.2
v 1.8 0.8 -1.2
v 1.8 0.9 -1.2
v 1.8 1 -1.2
v 1.8 1.1 -1.2
v 1.8 1.2 -1.2
v 1.9 0.5 -1.2
v 1.9 0.6 -1.2
v 1.9 0.8 -1.2
v 1.9 0.9 -1.2
v 1.9 1 -1.2
v 1.9 1.1 -1.2
v 1.9 1.2 -1.2
v 2 0.5 -1.2
v 2 0.6 -1.2
v 2 0.7 -1.2
v 2 0.9 -1.2
v 2 1 -1.2
v 2 1.1 -1.2
v 2.1 0.6 -1.2
v 2.1 0.7 -1.2
v 2.1 1 -1.2
v 2.1 1.1 -1.2
v 2.2 0.5 -1.2
v 2.2 1.2 -1.2
v 1.5 0.6 -1.3
v 1.5 1.1 -1.3
v 1.6 0.5 -1.3
v 1.6 0.6 -1.3
v 1.6 1.1 -1.3
v 1.6 1.2 -1.3
v 1.7 0.5 -1.3
v 1.7 0.7 -1.3
v 1.7 0.8 -1.3
v 1.7 1 -1.3
v 1.7 1.1 -1.3
v 1.7 1.2 -1.3
v 1.8 0.7 -1.3
v 1.8 0.8 -1.3
v 1.8 0.9 -1.3
v 1.8 1 -1.3
v 1.8 1.1 -1.3
v 1.8 1.2 -1.3
v 1.9 0.5 -1.3
v 1.9 0.6 -1.3
v 1.9 0.8 -1.3
v 1.9 0.9 -1.3
v 1.9 1 -1.3
v 1.9 1.1 -1.3
v 1.9 1.2 -1.3
v 2 0.5 -1.3
v 2 0.6 -1.3
v 2 0.7 -1.3
v 2 0.9 -1.3
v 2 1 -1.3
v 2 1.1 -1.3
v 2.1 0.6 -1.3
v 2.1 0.7 -1.3
v 2.1 1 -1.3
v 2.1 1.1 -1.3
v 2.2 0.5 -1.3
v 2.2 1.2 -1.3
v 2.3 0.5 -1.3
v 2.3 0.6 -1.3
v 2.3 1.1 -1.3
v 2.3 1.2 -1.3
v 2.4 0.6 -1.3
v 2.4 1.1 -1.3
v 1.6 0.5 -1.1
v 1.7 0.5 -1.1
v 2.2 0.5 -1.1
v 2.3 0.5 -1.1
v 1.7 0.5 -1.2
v 1.9 0.5 -1.2
v 2 0.5 -1.2
v 2.2 0.5 -1.2
v 1.6 0.5 -1.3
v 1.7 0.5 -1.3
v 1.9 0.5 -1.3
v 2 0.5 -1.3
v 2.2 0.5 -1.3
v 2.3 0.5 -1.3
v 1.5 0.6 -1.1
v 1.6 0.6 -1.1
v 2.3 0.6 -1.1
v 2.4 0.6 -1.1
v 1.5 0.6 -1.3
v 1.6 0.6 -1.3
v 2.3 0.6 -1.3
v 2.4 0.6 -1.3
v 1.5 1.1 -1.1
v 1.6 1.1 -1.1
v 2.3 1.1 -1.1
v 2.4 1.1 -1.1
v 1.5 1.1 -1.3
v 1.6 1.1 -1.3
v 2.3 1.1 -1.3
v 2.4 1.1 -1.3
v 1.6 1.2 -1.1
v 1.7 1.2 -1.1
v 2.2 1.2 -1.1
v 2.3 1.2 -1.1
v 1.7 1.2 -1.2
v 1.8 1.2 -1.2
v 1.9 1.2 -1.2
v 2.2 1.2 -1.2
v 1.6 1.2 -1.3
v 1.7 1.2 -1.3
v 1.8 1.2 -1.3
v 1.9 1.2 -1.3
v 2.2 1.2 -1.3
v 2.3 1.2 -1.3

# faces
f 3/1/1 2/1/1 1/1/1
f 4/1/1 2/1/1 3/1/1
f 7/1/1 6/1/1 5/1/1
f 8/1/1 6/1/1 7/1/1
f 11/1/1 10/1/1 9/1/1
f 12/1/1 10/1/1 11/1/1
f 15/1/1 14/1/1 13/1/1
f 16/1/1 14/1/1 15/1/1
f 17/1/2 18/1/2 19/1/2
f 17/1/2 19/1/2 20/1/2
f 17/1/2 20/1/2 21/1/2
f 17/1/2 21/1/2 22/1/2
f 17/1/2 22/1/2 23/1/2
f 23/1/2 22/1/2 24/1/2
f 25/1/2 26/1/2 27/1/2
f 27/1/2 26/1/2 28/1/2
f 29/1/2 30/1/2 31/1/2
f 31/1/2 30/1/2 32/1/2
f 33/1/2 34/1/2 35/1/2
f 35/1/2 34/1/2 36/1/2
f 40/1/3 38/1/3 37/1/3
f 41/1/3 38/1/3 40/1/3
f 43/1/3 40/1/3 39/1/3
f 43/1/3 42/1/3 41/1/3
f 43/1/3 41/1/3 40/1/3
f 44/1/3 42/1/3 43/1/3
f 47/1/3 46/1/3 45/1/3
f 48/1/3 46/1/3 47/1/3
f 49/1/3 46/1/3 48/1/3
f 50/1/3 46/1/3 49/1/3
f 51/1/3 49/1/3 48/1/3
f 52/1/3 49/1/3 51/1/3
f 59/3/3 54/3/3 53/3/3
f 59/2/3 55/2/3 54/2/3
f 60/3/3 56/3/3 55/3/3
f 60/2/3 55/2/3 59/2/3
f 61/3/3 56/3/3 60/3/3
f 62/2/3 57/2/3 56/2/3
f 62/3/3 56/3/3 61/3/3
f 63/3/3 58/3/3 57/3/3
f 63/2/3 57/2/3 62/2/3
f 64/3/3 58/3/3 63/3/3
f 65/3/3 59/3/3 53/3/3
f 65/3/3 60/3/3 59/3/3
f 66/3/3 60/3/3 65/3/3
f 67/2/3 61/2/3 60/2/3
f 67/3/3 60/3/3 66/3/3
f 68/3/3 62/3/3 61/3/3
f 68/2/3 61/2/3 67/2/3
f 68/3/3 63/3/3 62/3/3
f 69/3/3 63/3/3 68/3/3
f 70/2/3 64/2/3 63/2/3
f 70/3/3 63/3/3 69/3/3
f 71/2/3 64/2/3 70/2/3
f 72/2/3 66/2/3 65/2/3
f 73/3/3 67/3/3 66/3/3
f 73/2/3 66/2/3 72/2/3
f 73/3/3 68/3/3 67/3/3
f 74/3/3 68/3/3 73/3/3
f 75/2/3 69/2/3 68/2/3
f 75/3/3 68/3/3 74/3/3
f 76/3/3 71/3/3 70/3/3
f 76/2/3 69/2/3 75/2/3
f 76/3/3 70/3/3 69/3/3
f 77/3/3 71/3/3 76/3/3
f 78/2/3 74/2/3 73/2/3
f 78/3/3 73/3/3 72/3/3
f 79/3/3 75/3/3 74/3/3
f 79/2/3 74/2/3 78/2/3
f 79/3/3 76/3/3 75/3/3
f 80/2/3 77/2/3 76/2/3
f 80/3/3 76/3/3 79/3/3
f 81/3/3 71/3/3 77/3/3
f 81/2/3 77/2/3 80/2/3
f 82/3/3 80/3/3 79/3/3
f 82/3/3 78/3/3 72/3/3
f 82/3/3 81/3/3 80/3/3
f 82/3/3 79/3/3 78/3/3
f 83/3/3 71/3/3 81/3/3
f 83/3/3 81/3/3 82/3/3
f 84/1/4 85/1/4 87/1/4
f 87/1/4 85/1/4 88/1/4
f 86/1/4 87/1/4 90/1/4
f 88/1/4 89/1/4 90/1/4
f 87/1/4 88/1/4 90/1/4
f 90/1/4 89/1/4 91/1/4
f 91/1/4 89/1/4 92/1/4
f 92/1/4 89/1/4 93/1/4
f 93/1/4 89/1/4 94/1/4
f 94/1/4 89/1/4 95/1/4
f 90/3/4 91/3/4 96/3/4
f 91/2/4 92/2/4 96/2/4
f 92/3/4 93/3/4 97/3/4
f 96/2/4 92/2/4 97/2/4
f 97/3/4 93/3/4 98/3/4
f 93/2/4 94/2/4 99/2/4
f 98/3/4 93/3/4 99/3/4
f 94/3/4 95/3/4 100/3/4
f 99/2/4 94/2/4 100/2/4
f 100/3/4 95/3/4 101/3/4
f 90/3/4 96/3/4 102/3/4
f 96/3/4 97/3/4 102/3/4
f 102/3/4 97/3/4 103/3/4
f 97/2/4 98/2/4 104/2/4
f 103/3/4 97/3/4 104/3/4
f 98/3/4 99/3/4 105/3/4
f 104/2/4 98/2/4 105/2/4
f 99/3/4 100/3/4 105/3/4
f 105/3/4 100/3/4 106/3/4
f 100/2/4 101/2/4 107/2/4
f 106/3/4 100/3/4 107/3/4
f 107/2/4 101/2/4 108/2/4
f 102/2/4 103/2/4 109/2/4
f 103/3/4 104/3/4 110/3/4
f 109/2/4 103/2/4 110/2/4
f 104/3/4 105/3/4 110/3/4
f 110/3/4 105/3/4 111/3/4
f 105/2/4 106/2/4 112/2/4
f 111/3/4 105/3/4 112/3/4
f 107/3/4 108/3/4 113/3/4
f 112/2/4 106/2/4 113/2/4
f 106/3/4 107/3/4 113/3/4
f 113/3/4 108/3/4 114/3/4
f 110/2/4 111/2/4 115/2/4
f 109/3/4 110/3/4 115/3/4
f 111/3/4 112/3/4 116/3/4
f 115/2/4 111/2/4 116/2/4
f 112/3/4 113/3/4 116/3/4
f 113/2/4 114/2/4 117/2/4
f 116/3/4 113/3/4 117/3/4
f 114/3/4 108/3/4 118/3/4
f 117/2/4 114/2/4 118/2/4
f 116/3/4 117/3/4 119/3/4
f 109/3/4 115/3/4 119/3/4
f 117/3/4 118/3/4 119/3/4
f 115/3/4 116/3/4 119/3/4
f 118/3/4 108/3/4 120/3/4
f 119/3/4 118/3/4 120/3/4
f 119/1/4 120/1/4 121/1/4
f 121/1/4 120/1/4 122/1/4
f 122/1/4 120/1/4 123/1/4
f 123/1/4 120/1/4 124/1/4
f 122/1/4 123/1/4 125/1/4
f 125/1/4 123/1/4 126/1/4
f 131/1/5 128/1/5 127/1/5
f 134/1/5 130/1/5 129/1/5
f 135/1/5 131/1/5 127/1/5
f 136/3/5 132/3/5 131/3/5
f 136/1/5 131/1/5 135/1/5
f 137/2/5 133/2/5 132/2/5
f 137/3/5 132/3/5 136/3/5
f 138/3/5 134/3/5 133/3/5
f 138/2/5 133/2/5 137/2/5
f 139/1/5 130/1/5 134/1/5
f 139/3/5 134/3/5 138/3/5
f 140/1/5 130/1/5 139/1/5
f 145/1/5 142/1/5 141/1/5
f 146/1/5 142/1/5 145/1/5
f 147/1/5 144/1/5 143/1/5
f 148/1/5 144/1/5 147/1/5
f 149/1/6 150/1/6 153/1/6
f 153/1/6 150/1/6 154/1/6
f 151/1/6 152/1/6 155/1/6
f 155/1/6 152/1/6 156/1/6
f 157/1/6 158/1/6 161/1/6
f 159/1/6 160/1/6 164/1/6
f 157/1/6 161/1/6 165/1/6
f 161/3/6 162/3/6 166/3/6
f 165/1/6 161/1/6 166/1/6
f 162/2/6 163/2/6 167/2/6
f 166/3/6 162/3/6 167/3/6
f 163/3/6 164/3/6 168/3/6
f 167/2/6 163/2/6 168/2/6
f 164/1/6 160/1/6 169/1/6
f 168/3/6 164/3/6 169/3/6
f 169/1/6 160/1/6 170/1/6
