# MagicaVoxel @ Ephtracy

# group
o 

# material
mtllib DestroyedHouse-2.mtl
usemtl palette

# normals
vn -1 0 0
vn 1 0 0
vn 0 0 1
vn 0 0 -1
vn 0 -1 0
vn 0 1 0

# texcoords
vt 0.591797 0.5
vt 0.634766 0.5
vt 0.650391 0.5
vt 0.654297 0.5
vt 0.724609 0.5
vt 0.974609 0.5
vt 0.982422 0.5

# verts
v -2.1 2.2 1
v -2.1 2.2 0.9
v -2.1 2.2 -0.6
v -2.1 2.2 -1.1
v -2.1 2.3 -0.6
v -2.1 2.3 -0.7
v -2.1 2.4 -0.7
v -2.1 2.4 -0.8
v -2.1 2.5 -0.8
v -2.1 2.5 -0.9
v -2.1 2.6 -0.9
v -2.1 2.6 -1
v -2.1 2.7 -1
v -2.1 2.7 -1.1
v -2.1 3.2 1
v -2.1 3.2 0.9
v -2.1 3.3 1
v -2.1 3.3 0.9
v -2.1 3.3 -1.1
v 2.1 2.2 1
v 2.1 2.2 0.9
v 2.1 2.2 -1.1
v 2.1 3.2 1
v 2.1 3.2 0.9
v 2.1 3.3 1
v 2.1 3.3 0.9
v 2.1 3.3 -1.1
v -2.1 2.2 1
v -2.1 3.2 1
v -2.1 3.3 1
v -2 2.2 1
v -2 2.4 1
v -2 3.2 1
v -2 3.3 1
v -1.9 2.3 1
v -1.9 2.4 1
v -1.9 3.1 1
v -1.9 3.2 1
v -1.8 2.2 1
v -1.8 2.3 1
v -1.8 3 1
v -1.8 3.1 1
v -1.7 2.9 1
v -1.7 3 1
v -1.6 2.8 1
v -1.6 2.9 1
v -1.5 2.7 1
v -1.5 2.8 1
v -1.4 2.6 1
v -1.4 2.7 1
v -1.3 2.5 1
v -1.3 2.6 1
v -1.2 2.4 1
v -1.2 2.5 1
v -1.1 2.3 1
v -1.1 2.4 1
v -1 2.2 1
v -1 2.3 1
v -0.9 3.2 1
v -0.9 3.3 1
v -0.8 3.1 1
v -0.8 3.2 1
v -0.8 3.3 1
v -0.7 3 1
v -0.7 3.1 1
v -0.6 2.9 1
v -0.6 3 1
v -0.6 3.2 1
v -0.6 3.3 1
v -0.5 2.8 1
v -0.5 2.9 1
v -0.5 3.1 1
v -0.5 3.2 1
v -0.4 2.7 1
v -0.4 2.8 1
v -0.4 3 1
v -0.4 3.1 1
v -0.3 2.6 1
v -0.3 2.7 1
v -0.3 2.9 1
v -0.3 3 1
v -0.2 2.5 1
v -0.2 2.6 1
v -0.2 2.8 1
v -0.2 2.9 1
v -0.0999999 2.4 1
v -0.0999999 2.5 1
v -0.0999999 2.7 1
v -0.0999999 2.8 1
v 0 2.3 1
v 0 2.4 1
v 0 2.6 1
v 0 2.7 1
v 0.0999999 2.2 1
v 0.0999999 2.3 1
v 0.0999999 2.5 1
v 0.0999999 2.6 1
v 0.2 2.4 1
v 0.2 2.5 1
v 0.3 2.3 1
v 0.3 2.4 1
v 0.4 2.2 1
v 0.4 2.3 1
v 0.6 3.2 1
v 0.6 3.3 1
v 0.8 3.2 1
v 0.8 3.3 1
v 2 2.2 1
v 2 3.2 1
v 2 3.3 1
v 2.1 2.2 1
v 2.1 3.2 1
v 2.1 3.3 1
v -2.1 2.2 -1.1
v -2.1 2.7 -1.1
v -2.1 3.3 -1.1
v -2 2.2 -1.1
v -2 2.7 -1.1
v 2.1 2.2 -1.1
v 2.1 3.3 -1.1
v -2.1 2.2 1
v -2 2.2 1
v -1.8 2.2 1
v -1 2.2 1
v 0.0999999 2.2 1
v 0.4 2.2 1
v 2 2.2 1
v 2.1 2.2 1
v -2.1 2.2 0.9
v -2 2.2 0.9
v -1.8 2.2 0.9
v -1 2.2 0.9
v 0.0999999 2.2 0.9
v 0.4 2.2 0.9
v 2 2.2 0.9
v 2.1 2.2 0.9
v -2.1 2.2 -0.6
v -2 2.2 -0.6
v -2.1 2.2 -1.1
v -2 2.2 -1.1
v 2.1 2.2 -1.1
v -2.1 3.3 1
v -2 3.3 1
v -0.9 3.3 1
v -0.8 3.3 1
v -0.6 3.3 1
v 0.6 3.3 1
v 0.8 3.3 1
v 2 3.3 1
v 2.1 3.3 1
v -2.1 3.3 0.9
v -2 3.3 0.9
v -0.9 3.3 0.9
v -0.8 3.3 0.9
v -0.6 3.3 0.9
v 0.6 3.3 0.9
v 0.8 3.3 0.9
v 2 3.3 0.9
v 2.1 3.3 0.9
v -2.1 3.3 -1.1
v 2.1 3.3 -1.1

# faces
f 5/6/1 3/6/1 2/6/1
f 5/7/1 4/7/1 3/7/1
f 6/7/1 4/7/1 5/7/1
f 7/6/1 6/6/1 5/6/1
f 7/7/1 4/7/1 6/7/1
f 8/7/1 4/7/1 7/7/1
f 9/6/1 8/6/1 7/6/1
f 9/7/1 4/7/1 8/7/1
f 10/7/1 4/7/1 9/7/1
f 11/6/1 10/6/1 9/6/1
f 11/7/1 4/7/1 10/7/1
f 12/7/1 4/7/1 11/7/1
f 13/6/1 12/6/1 11/6/1
f 13/7/1 4/7/1 12/7/1
f 14/7/1 4/7/1 13/7/1
f 15/5/1 2/5/1 1/5/1
f 16/6/1 5/6/1 2/6/1
f 16/5/1 2/5/1 15/5/1
f 16/6/1 7/6/1 5/6/1
f 16/6/1 14/6/1 13/6/1
f 16/6/1 13/6/1 11/6/1
f 16/6/1 11/6/1 9/6/1
f 16/6/1 9/6/1 7/6/1
f 17/4/1 16/4/1 15/4/1
f 18/6/1 14/6/1 16/6/1
f 18/4/1 16/4/1 17/4/1
f 19/6/1 14/6/1 18/6/1
f 20/5/2 21/5/2 23/5/2
f 21/6/2 22/6/2 24/6/2
f 23/5/2 21/5/2 24/5/2
f 23/4/2 24/4/2 25/4/2
f 24/6/2 22/6/2 26/6/2
f 25/4/2 24/4/2 26/4/2
f 26/6/2 22/6/2 27/6/2
f 31/5/3 29/5/3 28/5/3
f 32/5/3 29/5/3 31/5/3
f 33/4/3 30/4/3 29/4/3
f 33/5/3 29/5/3 32/5/3
f 34/4/3 30/4/3 33/4/3
f 35/3/3 32/3/3 31/3/3
f 36/1/3 33/1/3 32/1/3
f 36/3/3 32/3/3 35/3/3
f 37/1/3 33/1/3 36/1/3
f 38/2/3 34/2/3 33/2/3
f 38/1/3 33/1/3 37/1/3
f 39/3/3 35/3/3 31/3/3
f 40/1/3 37/1/3 36/1/3
f 40/3/3 35/3/3 39/3/3
f 40/1/3 36/1/3 35/1/3
f 41/1/3 37/1/3 40/1/3
f 42/2/3 38/2/3 37/2/3
f 42/1/3 37/1/3 41/1/3
f 43/1/3 41/1/3 40/1/3
f 43/1/3 40/1/3 39/1/3
f 44/2/3 42/2/3 41/2/3
f 44/1/3 41/1/3 43/1/3
f 45/1/3 43/1/3 39/1/3
f 46/2/3 44/2/3 43/2/3
f 46/1/3 43/1/3 45/1/3
f 47/1/3 45/1/3 39/1/3
f 48/2/3 46/2/3 45/2/3
f 48/1/3 45/1/3 47/1/3
f 49/1/3 47/1/3 39/1/3
f 50/2/3 48/2/3 47/2/3
f 50/1/3 47/1/3 49/1/3
f 51/1/3 49/1/3 39/1/3
f 52/2/3 50/2/3 49/2/3
f 52/1/3 49/1/3 51/1/3
f 53/1/3 51/1/3 39/1/3
f 54/2/3 52/2/3 51/2/3
f 54/1/3 51/1/3 53/1/3
f 55/1/3 53/1/3 39/1/3
f 56/2/3 54/2/3 53/2/3
f 56/1/3 53/1/3 55/1/3
f 57/1/3 55/1/3 39/1/3
f 58/2/3 56/2/3 55/2/3
f 58/1/3 55/1/3 57/1/3
f 59/2/3 34/2/3 38/2/3
f 59/2/3 56/2/3 58/2/3
f 59/2/3 58/2/3 57/2/3
f 59/2/3 38/2/3 42/2/3
f 59/2/3 54/2/3 56/2/3
f 59/2/3 52/2/3 54/2/3
f 59/2/3 50/2/3 52/2/3
f 59/2/3 48/2/3 50/2/3
f 59/2/3 46/2/3 48/2/3
f 59/2/3 44/2/3 46/2/3
f 59/2/3 42/2/3 44/2/3
f 60/2/3 34/2/3 59/2/3
f 61/2/3 59/2/3 57/2/3
f 62/1/3 60/1/3 59/1/3
f 62/2/3 59/2/3 61/2/3
f 63/1/3 60/1/3 62/1/3
f 64/2/3 61/2/3 57/2/3
f 65/1/3 62/1/3 61/1/3
f 65/2/3 61/2/3 64/2/3
f 66/2/3 64/2/3 57/2/3
f 67/1/3 65/1/3 64/1/3
f 67/2/3 64/2/3 66/2/3
f 68/1/3 62/1/3 65/1/3
f 68/1/3 65/1/3 67/1/3
f 68/4/3 63/4/3 62/4/3
f 69/4/3 63/4/3 68/4/3
f 70/2/3 66/2/3 57/2/3
f 71/1/3 67/1/3 66/1/3
f 71/2/3 66/2/3 70/2/3
f 71/1/3 68/1/3 67/1/3
f 72/1/3 68/1/3 71/1/3
f 73/2/3 69/2/3 68/2/3
f 73/1/3 68/1/3 72/1/3
f 74/2/3 70/2/3 57/2/3
f 75/1/3 72/1/3 71/1/3
f 75/2/3 70/2/3 74/2/3
f 75/1/3 71/1/3 70/1/3
f 76/1/3 72/1/3 75/1/3
f 77/2/3 73/2/3 72/2/3
f 77/1/3 72/1/3 76/1/3
f 78/2/3 74/2/3 57/2/3
f 79/1/3 76/1/3 75/1/3
f 79/2/3 74/2/3 78/2/3
f 79/1/3 75/1/3 74/1/3
f 80/1/3 76/1/3 79/1/3
f 81/2/3 77/2/3 76/2/3
f 81/1/3 76/1/3 80/1/3
f 82/2/3 78/2/3 57/2/3
f 83/1/3 80/1/3 79/1/3
f 83/2/3 78/2/3 82/2/3
f 83/1/3 79/1/3 78/1/3
f 84/1/3 80/1/3 83/1/3
f 85/2/3 81/2/3 80/2/3
f 85/1/3 80/1/3 84/1/3
f 86/2/3 82/2/3 57/2/3
f 87/1/3 84/1/3 83/1/3
f 87/2/3 82/2/3 86/2/3
f 87/1/3 83/1/3 82/1/3
f 88/1/3 84/1/3 87/1/3
f 89/2/3 85/2/3 84/2/3
f 89/1/3 84/1/3 88/1/3
f 90/2/3 86/2/3 57/2/3
f 91/1/3 88/1/3 87/1/3
f 91/2/3 86/2/3 90/2/3
f 91/1/3 87/1/3 86/1/3
f 92/1/3 88/1/3 91/1/3
f 93/2/3 89/2/3 88/2/3
f 93/1/3 88/1/3 92/1/3
f 94/2/3 90/2/3 57/2/3
f 95/1/3 92/1/3 91/1/3
f 95/2/3 90/2/3 94/2/3
f 95/1/3 91/1/3 90/1/3
f 96/1/3 92/1/3 95/1/3
f 97/2/3 93/2/3 92/2/3
f 97/1/3 92/1/3 96/1/3
f 98/1/3 96/1/3 95/1/3
f 98/1/3 95/1/3 94/1/3
f 99/2/3 97/2/3 96/2/3
f 99/1/3 96/1/3 98/1/3
f 100/1/3 98/1/3 94/1/3
f 101/2/3 99/2/3 98/2/3
f 101/1/3 98/1/3 100/1/3
f 102/1/3 100/1/3 94/1/3
f 103/2/3 101/2/3 100/2/3
f 103/1/3 100/1/3 102/1/3
f 104/2/3 69/2/3 73/2/3
f 104/2/3 101/2/3 103/2/3
f 104/2/3 103/2/3 102/2/3
f 104/2/3 73/2/3 77/2/3
f 104/2/3 99/2/3 101/2/3
f 104/2/3 97/2/3 99/2/3
f 104/2/3 93/2/3 97/2/3
f 104/2/3 77/2/3 81/2/3
f 104/2/3 89/2/3 93/2/3
f 104/2/3 85/2/3 89/2/3
f 104/2/3 81/2/3 85/2/3
f 105/2/3 69/2/3 104/2/3
f 106/2/3 104/2/3 102/2/3
f 106/4/3 105/4/3 104/4/3
f 107/4/3 105/4/3 106/4/3
f 108/2/3 106/2/3 102/2/3
f 108/2/3 107/2/3 106/2/3
f 109/2/3 107/2/3 108/2/3
f 110/2/3 107/2/3 109/2/3
f 111/5/3 109/5/3 108/5/3
f 112/4/3 110/4/3 109/4/3
f 112/5/3 109/5/3 111/5/3
f 113/4/3 110/4/3 112/4/3
f 114/7/4 115/7/4 117/7/4
f 115/6/4 116/6/4 118/6/4
f 117/7/4 115/7/4 118/7/4
f 117/6/4 118/6/4 119/6/4
f 118/6/4 116/6/4 120/6/4
f 119/6/4 118/6/4 120/6/4
f 129/5/5 122/5/5 121/5/5
f 130/3/5 123/3/5 122/3/5
f 130/5/5 122/5/5 129/5/5
f 131/1/5 124/1/5 123/1/5
f 131/3/5 123/3/5 130/3/5
f 132/2/5 125/2/5 124/2/5
f 132/1/5 124/1/5 131/1/5
f 133/1/5 126/1/5 125/1/5
f 133/2/5 125/2/5 132/2/5
f 134/2/5 127/2/5 126/2/5
f 134/1/5 126/1/5 133/1/5
f 135/5/5 128/5/5 127/5/5
f 135/2/5 127/2/5 134/2/5
f 136/5/5 128/5/5 135/5/5
f 137/6/5 134/6/5 133/6/5
f 137/6/5 130/6/5 129/6/5
f 137/6/5 136/6/5 135/6/5
f 137/6/5 135/6/5 134/6/5
f 137/6/5 133/6/5 132/6/5
f 137/6/5 132/6/5 131/6/5
f 137/6/5 131/6/5 130/6/5
f 138/6/5 136/6/5 137/6/5
f 139/7/5 138/7/5 137/7/5
f 140/6/5 136/6/5 138/6/5
f 140/7/5 138/7/5 139/7/5
f 141/6/5 136/6/5 140/6/5
f 142/4/6 143/4/6 151/4/6
f 143/2/6 144/2/6 152/2/6
f 151/4/6 143/4/6 152/4/6
f 144/1/6 145/1/6 153/1/6
f 152/2/6 144/2/6 153/2/6
f 145/4/6 146/4/6 154/4/6
f 153/1/6 145/1/6 154/1/6
f 146/2/6 147/2/6 155/2/6
f 154/4/6 146/4/6 155/4/6
f 147/4/6 148/4/6 156/4/6
f 155/2/6 147/2/6 156/2/6
f 148/2/6 149/2/6 157/2/6
f 156/4/6 148/4/6 157/4/6
f 149/4/6 150/4/6 158/4/6
f 157/2/6 149/2/6 158/2/6
f 158/4/6 150/4/6 159/4/6
f 156/6/6 157/6/6 160/6/6
f 151/6/6 152/6/6 160/6/6
f 158/6/6 159/6/6 160/6/6
f 157/6/6 158/6/6 160/6/6
f 155/6/6 156/6/6 160/6/6
f 154/6/6 155/6/6 160/6/6
f 153/6/6 154/6/6 160/6/6
f 152/6/6 153/6/6 160/6/6
f 160/6/6 159/6/6 161/6/6
