# MagicaVoxel @ Ephtracy

# group
o 

# material
mtllib DestroyedHouse-1.mtl
usemtl palette

# normals
vn -1 0 0
vn 1 0 0
vn 0 0 1
vn 0 0 -1
vn 0 -1 0
vn 0 1 0

# texcoords
vt 0.591797 0.5
vt 0.634766 0.5
vt 0.654297 0.5
vt 0.724609 0.5
vt 0.974609 0.5

# verts
v -2.1 2 1
v -2.1 2 0.9
v -2.1 2 -1.1
v -2.1 2.1 1
v -2.1 2.1 0.9
v -2.1 3.3 1
v -2.1 3.3 0.9
v -2.1 3.4 1
v -2.1 3.4 0.9
v -2.1 3.4 -1.1
v 2.1 2 1
v 2.1 2 0.9
v 2.1 2 -1.1
v 2.1 2.1 1
v 2.1 2.1 0.9
v 2.1 3.3 1
v 2.1 3.3 0.9
v 2.1 3.4 1
v 2.1 3.4 0.9
v 2.1 3.4 -1.1
v -2.1 2 1
v -2.1 2.1 1
v -2.1 3.3 1
v -2.1 3.4 1
v -2 2 1
v -2 2.1 1
v -2 3 1
v -2 3.3 1
v -2 3.4 1
v -1.9 2.9 1
v -1.9 3 1
v -1.9 3.2 1
v -1.9 3.3 1
v -1.8 2.8 1
v -1.8 2.9 1
v -1.8 3.1 1
v -1.8 3.2 1
v -1.7 2.7 1
v -1.7 2.8 1
v -1.7 3 1
v -1.7 3.1 1
v -1.6 2.6 1
v -1.6 2.7 1
v -1.6 2.9 1
v -1.6 3 1
v -1.5 2.5 1
v -1.5 2.6 1
v -1.5 2.8 1
v -1.5 2.9 1
v -1.4 2.4 1
v -1.4 2.5 1
v -1.4 2.7 1
v -1.4 2.8 1
v -1.3 2.3 1
v -1.3 2.4 1
v -1.3 2.6 1
v -1.3 2.7 1
v -1.2 2.2 1
v -1.2 2.3 1
v -1.2 2.5 1
v -1.2 2.6 1
v -1.1 2.1 1
v -1.1 2.2 1
v -1.1 2.4 1
v -1.1 2.5 1
v -1 2 1
v -1 2.1 1
v -1 2.3 1
v -1 2.4 1
v -0.9 2.2 1
v -0.9 2.3 1
v -0.8 2 1
v -0.8 2.1 1
v -0.8 2.2 1
v -0.8 3.3 1
v -0.8 3.4 1
v -0.6 2 1
v -0.6 2.1 1
v -0.6 3.3 1
v -0.6 3.4 1
v 0.6 2 1
v 0.6 2.1 1
v 0.6 3.3 1
v 0.6 3.4 1
v 0.8 2 1
v 0.8 2.1 1
v 0.8 3.3 1
v 0.8 3.4 1
v 2 2 1
v 2 2.1 1
v 2 3.3 1
v 2 3.4 1
v 2.1 2 1
v 2.1 2.1 1
v 2.1 3.3 1
v 2.1 3.4 1
v -2.1 2 -1.1
v -2.1 3.4 -1.1
v 2.1 2 -1.1
v 2.1 3.4 -1.1
v -2.1 2 1
v -2 2 1
v -1 2 1
v -0.8 2 1
v -0.6 2 1
v 0.6 2 1
v 0.8 2 1
v 2 2 1
v 2.1 2 1
v -2.1 2 0.9
v -2 2 0.9
v -1 2 0.9
v -0.8 2 0.9
v -0.6 2 0.9
v 0.6 2 0.9
v 0.8 2 0.9
v 2 2 0.9
v 2.1 2 0.9
v -2.1 2 -1.1
v 2.1 2 -1.1
v -2.1 3.4 1
v -2 3.4 1
v -0.8 3.4 1
v -0.6 3.4 1
v 0.6 3.4 1
v 0.8 3.4 1
v 2 3.4 1
v 2.1 3.4 1
v -2.1 3.4 0.9
v -2 3.4 0.9
v -0.8 3.4 0.9
v -0.6 3.4 0.9
v 0.6 3.4 0.9
v 0.8 3.4 0.9
v 2 3.4 0.9
v 2.1 3.4 0.9
v -2.1 3.4 -1.1
v 2.1 3.4 -1.1

# faces
f 4/3/1 2/3/1 1/3/1
f 5/5/1 3/5/1 2/5/1
f 5/3/1 2/3/1 4/3/1
f 6/4/1 5/4/1 4/4/1
f 7/5/1 3/5/1 5/5/1
f 7/4/1 5/4/1 6/4/1
f 8/3/1 7/3/1 6/3/1
f 9/5/1 3/5/1 7/5/1
f 9/3/1 7/3/1 8/3/1
f 10/5/1 3/5/1 9/5/1
f 11/3/2 12/3/2 14/3/2
f 12/5/2 13/5/2 15/5/2
f 14/3/2 12/3/2 15/3/2
f 14/4/2 15/4/2 16/4/2
f 15/5/2 13/5/2 17/5/2
f 16/4/2 15/4/2 17/4/2
f 16/3/2 17/3/2 18/3/2
f 17/5/2 13/5/2 19/5/2
f 18/3/2 17/3/2 19/3/2
f 19/5/2 13/5/2 20/5/2
f 25/3/3 22/3/3 21/3/3
f 26/4/3 23/4/3 22/4/3
f 26/3/3 22/3/3 25/3/3
f 27/4/3 23/4/3 26/4/3
f 28/3/3 24/3/3 23/3/3
f 28/4/3 23/4/3 27/4/3
f 29/3/3 24/3/3 28/3/3
f 30/2/3 27/2/3 26/2/3
f 30/2/3 26/2/3 25/2/3
f 31/1/3 28/1/3 27/1/3
f 31/2/3 27/2/3 30/2/3
f 32/1/3 28/1/3 31/1/3
f 33/2/3 29/2/3 28/2/3
f 33/1/3 28/1/3 32/1/3
f 34/2/3 30/2/3 25/2/3
f 35/1/3 32/1/3 31/1/3
f 35/2/3 30/2/3 34/2/3
f 35/1/3 31/1/3 30/1/3
f 36/1/3 32/1/3 35/1/3
f 37/2/3 33/2/3 32/2/3
f 37/1/3 32/1/3 36/1/3
f 38/2/3 34/2/3 25/2/3
f 39/1/3 36/1/3 35/1/3
f 39/2/3 34/2/3 38/2/3
f 39/1/3 35/1/3 34/1/3
f 40/1/3 36/1/3 39/1/3
f 41/2/3 37/2/3 36/2/3
f 41/1/3 36/1/3 40/1/3
f 42/2/3 38/2/3 25/2/3
f 43/1/3 40/1/3 39/1/3
f 43/2/3 38/2/3 42/2/3
f 43/1/3 39/1/3 38/1/3
f 44/1/3 40/1/3 43/1/3
f 45/2/3 41/2/3 40/2/3
f 45/1/3 40/1/3 44/1/3
f 46/2/3 42/2/3 25/2/3
f 47/1/3 44/1/3 43/1/3
f 47/2/3 42/2/3 46/2/3
f 47/1/3 43/1/3 42/1/3
f 48/1/3 44/1/3 47/1/3
f 49/2/3 45/2/3 44/2/3
f 49/1/3 44/1/3 48/1/3
f 50/2/3 46/2/3 25/2/3
f 51/1/3 48/1/3 47/1/3
f 51/2/3 46/2/3 50/2/3
f 51/1/3 47/1/3 46/1/3
f 52/1/3 48/1/3 51/1/3
f 53/2/3 49/2/3 48/2/3
f 53/1/3 48/1/3 52/1/3
f 54/2/3 50/2/3 25/2/3
f 55/1/3 52/1/3 51/1/3
f 55/2/3 50/2/3 54/2/3
f 55/1/3 51/1/3 50/1/3
f 56/1/3 52/1/3 55/1/3
f 57/2/3 53/2/3 52/2/3
f 57/1/3 52/1/3 56/1/3
f 58/2/3 54/2/3 25/2/3
f 59/1/3 56/1/3 55/1/3
f 59/2/3 54/2/3 58/2/3
f 59/1/3 55/1/3 54/1/3
f 60/1/3 56/1/3 59/1/3
f 61/2/3 57/2/3 56/2/3
f 61/1/3 56/1/3 60/1/3
f 62/2/3 58/2/3 25/2/3
f 63/1/3 60/1/3 59/1/3
f 63/2/3 58/2/3 62/2/3
f 63/1/3 59/1/3 58/1/3
f 64/1/3 60/1/3 63/1/3
f 65/2/3 61/2/3 60/2/3
f 65/1/3 60/1/3 64/1/3
f 66/2/3 62/2/3 25/2/3
f 67/1/3 64/1/3 63/1/3
f 67/2/3 62/2/3 66/2/3
f 67/1/3 63/1/3 62/1/3
f 68/1/3 64/1/3 67/1/3
f 69/2/3 65/2/3 64/2/3
f 69/1/3 64/1/3 68/1/3
f 70/1/3 68/1/3 67/1/3
f 70/1/3 67/1/3 66/1/3
f 71/2/3 69/2/3 68/2/3
f 71/1/3 68/1/3 70/1/3
f 72/1/3 70/1/3 66/1/3
f 73/1/3 70/1/3 72/1/3
f 74/2/3 71/2/3 70/2/3
f 74/1/3 70/1/3 73/1/3
f 75/2/3 33/2/3 37/2/3
f 75/2/3 71/2/3 74/2/3
f 75/2/3 29/2/3 33/2/3
f 75/2/3 37/2/3 41/2/3
f 75/2/3 41/2/3 45/2/3
f 75/2/3 69/2/3 71/2/3
f 75/2/3 65/2/3 69/2/3
f 75/2/3 45/2/3 49/2/3
f 75/2/3 61/2/3 65/2/3
f 75/2/3 57/2/3 61/2/3
f 75/2/3 53/2/3 57/2/3
f 75/2/3 49/2/3 53/2/3
f 76/2/3 29/2/3 75/2/3
f 77/3/3 73/3/3 72/3/3
f 78/2/3 74/2/3 73/2/3
f 78/3/3 73/3/3 77/3/3
f 78/2/3 75/2/3 74/2/3
f 79/3/3 76/3/3 75/3/3
f 79/2/3 75/2/3 78/2/3
f 80/3/3 76/3/3 79/3/3
f 81/2/3 78/2/3 77/2/3
f 81/2/3 79/2/3 78/2/3
f 81/2/3 80/2/3 79/2/3
f 82/2/3 80/2/3 81/2/3
f 83/2/3 80/2/3 82/2/3
f 84/2/3 80/2/3 83/2/3
f 85/3/3 82/3/3 81/3/3
f 86/2/3 83/2/3 82/2/3
f 86/3/3 82/3/3 85/3/3
f 87/3/3 84/3/3 83/3/3
f 87/2/3 83/2/3 86/2/3
f 88/3/3 84/3/3 87/3/3
f 89/2/3 86/2/3 85/2/3
f 89/2/3 87/2/3 86/2/3
f 89/2/3 88/2/3 87/2/3
f 90/2/3 88/2/3 89/2/3
f 91/2/3 88/2/3 90/2/3
f 92/2/3 88/2/3 91/2/3
f 93/3/3 90/3/3 89/3/3
f 94/4/3 91/4/3 90/4/3
f 94/3/3 90/3/3 93/3/3
f 95/3/3 92/3/3 91/3/3
f 95/4/3 91/4/3 94/4/3
f 96/3/3 92/3/3 95/3/3
f 97/5/4 98/5/4 99/5/4
f 99/5/4 98/5/4 100/5/4
f 110/3/5 102/3/5 101/3/5
f 111/2/5 103/2/5 102/2/5
f 111/3/5 102/3/5 110/3/5
f 112/1/5 104/1/5 103/1/5
f 112/2/5 103/2/5 111/2/5
f 113/3/5 105/3/5 104/3/5
f 113/1/5 104/1/5 112/1/5
f 114/2/5 106/2/5 105/2/5
f 114/3/5 105/3/5 113/3/5
f 115/3/5 107/3/5 106/3/5
f 115/2/5 106/2/5 114/2/5
f 116/2/5 108/2/5 107/2/5
f 116/3/5 107/3/5 115/3/5
f 117/3/5 109/3/5 108/3/5
f 117/2/5 108/2/5 116/2/5
f 118/3/5 109/3/5 117/3/5
f 119/5/5 116/5/5 115/5/5
f 119/5/5 111/5/5 110/5/5
f 119/5/5 118/5/5 117/5/5
f 119/5/5 117/5/5 116/5/5
f 119/5/5 115/5/5 114/5/5
f 119/5/5 114/5/5 113/5/5
f 119/5/5 113/5/5 112/5/5
f 119/5/5 112/5/5 111/5/5
f 120/5/5 118/5/5 119/5/5
f 121/3/6 122/3/6 129/3/6
f 122/2/6 123/2/6 130/2/6
f 129/3/6 122/3/6 130/3/6
f 123/3/6 124/3/6 131/3/6
f 130/2/6 123/2/6 131/2/6
f 124/2/6 125/2/6 132/2/6
f 131/3/6 124/3/6 132/3/6
f 125/3/6 126/3/6 133/3/6
f 132/2/6 125/2/6 133/2/6
f 126/2/6 127/2/6 134/2/6
f 133/3/6 126/3/6 134/3/6
f 127/3/6 128/3/6 135/3/6
f 134/2/6 127/2/6 135/2/6
f 135/3/6 128/3/6 136/3/6
f 133/5/6 134/5/6 137/5/6
f 129/5/6 130/5/6 137/5/6
f 135/5/6 136/5/6 137/5/6
f 134/5/6 135/5/6 137/5/6
f 132/5/6 133/5/6 137/5/6
f 131/5/6 132/5/6 137/5/6
f 130/5/6 131/5/6 137/5/6
f 137/5/6 136/5/6 138/5/6
