# MagicaVoxel @ Ephtracy

# group
o 

# material
mtllib house-1_v3-57.mtl
usemtl palette

# normals
vn -1 0 0
vn 1 0 0
vn 0 0 1
vn 0 0 -1
vn 0 -1 0
vn 0 1 0

# texcoords
vt 0.892578 0.5
vt 0.916016 0.5
vt 0.919922 0.5
vt 0.923828 0.5
vt 0.978516 0.5

# verts
v -2 1.2 2.1
v -2 1.2 1.8
v -2 1.3 2.1
v -2 1.3 2
v -2 1.4 2.2
v -2 1.4 2.1
v -2 1.4 2
v -2 1.5 2.2
v -2 1.5 2.1
v -2 1.5 2
v -2 1.6 2.1
v -2 1.6 2
v -2 1.6 1.9
v -2 1.7 2
v -2 1.7 1.9
v -2 1.7 1.8
v -2 1.8 1.9
v -2 1.8 1.8
v -1 1.2 2.1
v -1 1.2 1.8
v -1 1.3 2.1
v -1 1.3 2
v -1 1.4 2.2
v -1 1.4 2.1
v -1 1.4 2
v -1 1.5 2.2
v -1 1.5 2.1
v -1 1.5 2
v -1 1.6 2.1
v -1 1.6 2
v -1 1.6 1.9
v -1 1.7 2
v -1 1.7 1.9
v -1 1.7 1.8
v -1 1.8 1.9
v -1 1.8 1.8
v -2 1.4 2.2
v -2 1.5 2.2
v -1 1.4 2.2
v -1 1.5 2.2
v -2 1.2 2.1
v -2 1.3 2.1
v -2 1.4 2.1
v -2 1.5 2.1
v -2 1.6 2.1
v -1.9 1.2 2.1
v -1.9 1.3 2.1
v -1.7 1.2 2.1
v -1.7 1.3 2.1
v -1.5 1.2 2.1
v -1.5 1.3 2.1
v -1.3 1.2 2.1
v -1.3 1.3 2.1
v -1 1.2 2.1
v -1 1.3 2.1
v -1 1.4 2.1
v -1 1.5 2.1
v -1 1.6 2.1
v -2 1.6 2
v -2 1.7 2
v -1 1.6 2
v -1 1.7 2
v -2 1.7 1.9
v -2 1.8 1.9
v -1 1.7 1.9
v -1 1.8 1.9
v -2 1.2 1.8
v -2 1.7 1.8
v -2 1.8 1.8
v -1 1.2 1.8
v -1 1.7 1.8
v -1 1.8 1.8
v -2 1.2 2.1
v -1.9 1.2 2.1
v -1.7 1.2 2.1
v -1.5 1.2 2.1
v -1.3 1.2 2.1
v -1 1.2 2.1
v -1.9 1.2 2
v -1.7 1.2 2
v -1.5 1.2 2
v -1.3 1.2 2
v -2 1.2 1.8
v -1 1.2 1.8
v -2 1.4 2.2
v -1 1.4 2.2
v -2 1.4 2.1
v -1 1.4 2.1
v -2 1.5 2.2
v -1 1.5 2.2
v -2 1.5 2.1
v -1 1.5 2.1
v -2 1.6 2.1
v -1 1.6 2.1
v -2 1.6 2
v -1 1.6 2
v -2 1.7 2
v -1 1.7 2
v -2 1.7 1.9
v -1 1.7 1.9
v -2 1.8 1.9
v -1 1.8 1.9
v -2 1.8 1.8
v -1 1.8 1.8

# faces
f 3/4/1 2/4/1 1/4/1
f 4/4/1 2/4/1 3/4/1
f 6/3/1 4/3/1 3/3/1
f 7/4/1 2/4/1 4/4/1
f 7/3/1 4/3/1 6/3/1
f 8/5/1 6/5/1 5/5/1
f 9/4/1 7/4/1 6/4/1
f 9/5/1 6/5/1 8/5/1
f 10/4/1 2/4/1 7/4/1
f 10/4/1 7/4/1 9/4/1
f 11/5/1 10/5/1 9/5/1
f 12/4/1 2/4/1 10/4/1
f 12/5/1 10/5/1 11/5/1
f 13/4/1 2/4/1 12/4/1
f 14/5/1 13/5/1 12/5/1
f 15/4/1 2/4/1 13/4/1
f 15/5/1 13/5/1 14/5/1
f 16/4/1 2/4/1 15/4/1
f 17/5/1 16/5/1 15/5/1
f 18/5/1 16/5/1 17/5/1
f 19/4/2 20/4/2 21/4/2
f 21/4/2 20/4/2 22/4/2
f 21/3/2 22/3/2 24/3/2
f 22/4/2 20/4/2 25/4/2
f 24/3/2 22/3/2 25/3/2
f 23/5/2 24/5/2 26/5/2
f 24/4/2 25/4/2 27/4/2
f 26/5/2 24/5/2 27/5/2
f 25/4/2 20/4/2 28/4/2
f 27/4/2 25/4/2 28/4/2
f 27/5/2 28/5/2 29/5/2
f 28/4/2 20/4/2 30/4/2
f 29/5/2 28/5/2 30/5/2
f 30/4/2 20/4/2 31/4/2
f 30/5/2 31/5/2 32/5/2
f 31/4/2 20/4/2 33/4/2
f 32/5/2 31/5/2 33/5/2
f 33/4/2 20/4/2 34/4/2
f 33/5/2 34/5/2 35/5/2
f 35/5/2 34/5/2 36/5/2
f 39/5/3 38/5/3 37/5/3
f 40/5/3 38/5/3 39/5/3
f 46/4/3 42/4/3 41/4/3
f 47/3/3 43/3/3 42/3/3
f 47/4/3 42/4/3 46/4/3
f 48/1/3 47/1/3 46/1/3
f 49/3/3 43/3/3 47/3/3
f 49/1/3 47/1/3 48/1/3
f 50/4/3 49/4/3 48/4/3
f 51/3/3 43/3/3 49/3/3
f 51/4/3 49/4/3 50/4/3
f 52/2/3 51/2/3 50/2/3
f 53/3/3 43/3/3 51/3/3
f 53/2/3 51/2/3 52/2/3
f 54/4/3 53/4/3 52/4/3
f 55/3/3 43/3/3 53/3/3
f 55/4/3 53/4/3 54/4/3
f 56/3/3 43/3/3 55/3/3
f 57/5/3 45/5/3 44/5/3
f 58/5/3 45/5/3 57/5/3
f 61/5/3 60/5/3 59/5/3
f 62/5/3 60/5/3 61/5/3
f 65/5/3 64/5/3 63/5/3
f 66/5/3 64/5/3 65/5/3
f 67/4/4 68/4/4 70/4/4
f 68/5/4 69/5/4 71/5/4
f 70/4/4 68/4/4 71/4/4
f 71/5/4 69/5/4 72/5/4
f 79/4/5 74/4/5 73/4/5
f 79/1/5 75/1/5 74/1/5
f 80/4/5 76/4/5 75/4/5
f 80/1/5 75/1/5 79/1/5
f 81/2/5 77/2/5 76/2/5
f 81/4/5 76/4/5 80/4/5
f 82/4/5 78/4/5 77/4/5
f 82/2/5 77/2/5 81/2/5
f 83/4/5 81/4/5 80/4/5
f 83/4/5 80/4/5 79/4/5
f 83/4/5 82/4/5 81/4/5
f 83/4/5 79/4/5 73/4/5
f 84/4/5 78/4/5 82/4/5
f 84/4/5 82/4/5 83/4/5
f 87/5/5 86/5/5 85/5/5
f 88/5/5 86/5/5 87/5/5
f 89/5/6 90/5/6 91/5/6
f 91/5/6 90/5/6 92/5/6
f 93/5/6 94/5/6 95/5/6
f 95/5/6 94/5/6 96/5/6
f 97/5/6 98/5/6 99/5/6
f 99/5/6 98/5/6 100/5/6
f 101/5/6 102/5/6 103/5/6
f 103/5/6 102/5/6 104/5/6
