# MagicaVoxel @ Ephtracy

# group
o 

# material
mtllib house-1_v3-5.mtl
usemtl palette

# normals
vn -1 0 0
vn 1 0 0
vn 0 0 1
vn 0 0 -1
vn 0 -1 0
vn 0 1 0

# texcoords
vt 0.865234 0.5
vt 0.896484 0.5
vt 0.927734 0.5
vt 0.931641 0.5

# verts
v 2.2 4.7 0.3
v 2.2 4.7 -0.3
v 2.2 4.8 0.3
v 2.2 4.8 -0.3
v 2.3 3.8 0.3
v 2.3 3.8 0.2
v 2.3 3.8 -0.3
v 2.3 3.9 0.3
v 2.3 3.9 0.2
v 2.3 4 0.2
v 2.3 4 0.1
v 2.3 4.1 0.3
v 2.3 4.1 0.2
v 2.3 4.1 -0.1
v 2.3 4.1 -0.3
v 2.3 4.2 0.3
v 2.3 4.2 0.2
v 2.3 4.2 0
v 2.3 4.2 -0.1
v 2.3 4.2 -0.2
v 2.3 4.2 -0.3
v 2.3 4.3 0.2
v 2.3 4.3 0.1
v 2.3 4.3 0
v 2.3 4.3 -0.1
v 2.3 4.3 -0.2
v 2.3 4.4 0.3
v 2.3 4.4 0.2
v 2.3 4.4 0
v 2.3 4.4 -0.1
v 2.3 4.4 -0.3
v 2.3 4.5 0.3
v 2.3 4.5 0.2
v 2.3 4.5 0.1
v 2.3 4.5 0
v 2.3 4.5 -0.1
v 2.3 4.5 -0.3
v 2.3 4.6 0.3
v 2.3 4.6 -0.3
v 2.3 4.7 0.4
v 2.3 4.7 0.3
v 2.3 4.7 -0.3
v 2.3 4.7 -0.4
v 2.3 4.8 0.4
v 2.3 4.8 0.3
v 2.3 4.8 -0.3
v 2.3 4.8 -0.4
v 2.9 3.8 0.3
v 2.9 3.8 0.2
v 2.9 3.8 -0.3
v 2.9 3.9 0.3
v 2.9 3.9 0.2
v 2.9 4.2 -0.2
v 2.9 4.2 -0.3
v 2.9 4.3 -0.2
v 2.9 4.3 -0.3
v 2.9 4.6 0.3
v 2.9 4.6 -0.3
v 2.9 4.7 0.4
v 2.9 4.7 0.3
v 2.9 4.7 -0.3
v 2.9 4.7 -0.4
v 2.9 4.8 0.4
v 2.9 4.8 0.3
v 2.9 4.8 -0.3
v 2.9 4.8 -0.4
v 3 4.7 0.3
v 3 4.7 -0.3
v 3 4.8 0.3
v 3 4.8 -0.3
v 2.3 4.7 0.4
v 2.3 4.8 0.4
v 2.9 4.7 0.4
v 2.9 4.8 0.4
v 2.2 4.7 0.3
v 2.2 4.8 0.3
v 2.3 3.8 0.3
v 2.3 3.9 0.3
v 2.3 4.1 0.3
v 2.3 4.2 0.3
v 2.3 4.4 0.3
v 2.3 4.5 0.3
v 2.3 4.6 0.3
v 2.3 4.7 0.3
v 2.3 4.8 0.3
v 2.4 3.9 0.3
v 2.4 4 0.3
v 2.4 4.1 0.3
v 2.4 4.2 0.3
v 2.5 3.8 0.3
v 2.5 3.9 0.3
v 2.5 4.2 0.3
v 2.5 4.3 0.3
v 2.5 4.4 0.3
v 2.5 4.5 0.3
v 2.5 4.6 0.3
v 2.6 3.9 0.3
v 2.6 4 0.3
v 2.6 4.1 0.3
v 2.6 4.3 0.3
v 2.6 4.4 0.3
v 2.7 3.8 0.3
v 2.7 3.9 0.3
v 2.7 4.2 0.3
v 2.7 4.3 0.3
v 2.7 4.5 0.3
v 2.7 4.6 0.3
v 2.8 4 0.3
v 2.8 4.1 0.3
v 2.8 4.3 0.3
v 2.8 4.4 0.3
v 2.9 3.8 0.3
v 2.9 3.9 0.3
v 2.9 4.6 0.3
v 2.9 4.7 0.3
v 2.9 4.8 0.3
v 3 4.7 0.3
v 3 4.8 0.3
v 2.2 4.7 -0.3
v 2.2 4.8 -0.3
v 2.3 3.8 -0.3
v 2.3 4.1 -0.3
v 2.3 4.2 -0.3
v 2.3 4.4 -0.3
v 2.3 4.5 -0.3
v 2.3 4.6 -0.3
v 2.3 4.7 -0.3
v 2.3 4.8 -0.3
v 2.4 4.1 -0.3
v 2.4 4.2 -0.3
v 2.4 4.4 -0.3
v 2.4 4.5 -0.3
v 2.6 4.1 -0.3
v 2.6 4.2 -0.3
v 2.7 4.2 -0.3
v 2.7 4.3 -0.3
v 2.8 4.1 -0.3
v 2.8 4.2 -0.3
v 2.9 3.8 -0.3
v 2.9 4.2 -0.3
v 2.9 4.3 -0.3
v 2.9 4.6 -0.3
v 2.9 4.7 -0.3
v 2.9 4.8 -0.3
v 3 4.7 -0.3
v 3 4.8 -0.3
v 2.3 4.7 -0.4
v 2.3 4.8 -0.4
v 2.9 4.7 -0.4
v 2.9 4.8 -0.4
v 2.3 3.8 0.3
v 2.5 3.8 0.3
v 2.7 3.8 0.3
v 2.9 3.8 0.3
v 2.3 3.8 0.2
v 2.5 3.8 0.2
v 2.7 3.8 0.2
v 2.9 3.8 0.2
v 2.3 3.8 -0.3
v 2.9 3.8 -0.3
v 2.3 4.7 0.4
v 2.9 4.7 0.4
v 2.2 4.7 0.3
v 2.3 4.7 0.3
v 2.9 4.7 0.3
v 3 4.7 0.3
v 2.2 4.7 -0.3
v 2.3 4.7 -0.3
v 2.9 4.7 -0.3
v 3 4.7 -0.3
v 2.3 4.7 -0.4
v 2.9 4.7 -0.4
v 2.3 4.8 0.4
v 2.9 4.8 0.4
v 2.2 4.8 0.3
v 2.3 4.8 0.3
v 2.9 4.8 0.3
v 3 4.8 0.3
v 2.2 4.8 -0.3
v 2.3 4.8 -0.3
v 2.9 4.8 -0.3
v 3 4.8 -0.3
v 2.3 4.8 -0.4
v 2.9 4.8 -0.4

# faces
f 3/2/1 2/2/1 1/2/1
f 4/2/1 2/2/1 3/2/1
f 8/4/1 6/4/1 5/4/1
f 9/3/1 7/3/1 6/3/1
f 9/4/1 6/4/1 8/4/1
f 10/3/1 9/3/1 8/3/1
f 10/3/1 7/3/1 9/3/1
f 11/3/1 7/3/1 10/3/1
f 12/3/1 10/3/1 8/3/1
f 13/4/1 11/4/1 10/4/1
f 13/3/1 10/3/1 12/3/1
f 14/3/1 7/3/1 11/3/1
f 15/3/1 7/3/1 14/3/1
f 16/4/1 13/4/1 12/4/1
f 17/4/1 11/4/1 13/4/1
f 17/4/1 13/4/1 16/4/1
f 18/3/1 14/3/1 11/3/1
f 19/4/1 15/4/1 14/4/1
f 19/3/1 14/3/1 18/3/1
f 20/4/1 15/4/1 19/4/1
f 21/4/1 15/4/1 20/4/1
f 22/4/1 11/4/1 17/4/1
f 22/3/1 17/3/1 16/3/1
f 23/3/1 18/3/1 11/3/1
f 23/4/1 11/4/1 22/4/1
f 24/4/1 19/4/1 18/4/1
f 24/3/1 18/3/1 23/3/1
f 24/4/1 20/4/1 19/4/1
f 25/4/1 20/4/1 24/4/1
f 26/3/1 21/3/1 20/3/1
f 26/4/1 20/4/1 25/4/1
f 27/3/1 22/3/1 16/3/1
f 27/3/1 23/3/1 22/3/1
f 28/3/1 23/3/1 27/3/1
f 29/4/1 25/4/1 24/4/1
f 29/4/1 24/4/1 23/4/1
f 30/3/1 26/3/1 25/3/1
f 30/4/1 25/4/1 29/4/1
f 31/3/1 21/3/1 26/3/1
f 31/3/1 26/3/1 30/3/1
f 32/4/1 28/4/1 27/4/1
f 33/3/1 23/3/1 28/3/1
f 33/4/1 28/4/1 32/4/1
f 34/4/1 29/4/1 23/4/1
f 34/3/1 23/3/1 33/3/1
f 35/3/1 30/3/1 29/3/1
f 35/4/1 29/4/1 34/4/1
f 36/4/1 31/4/1 30/4/1
f 36/3/1 30/3/1 35/3/1
f 37/4/1 31/4/1 36/4/1
f 38/3/1 34/3/1 33/3/1
f 38/3/1 33/3/1 32/3/1
f 38/3/1 37/3/1 36/3/1
f 38/3/1 36/3/1 35/3/1
f 38/3/1 35/3/1 34/3/1
f 39/3/1 37/3/1 38/3/1
f 41/1/1 39/1/1 38/1/1
f 42/1/1 39/1/1 41/1/1
f 44/2/1 41/2/1 40/2/1
f 45/2/1 41/2/1 44/2/1
f 46/2/1 43/2/1 42/2/1
f 47/2/1 43/2/1 46/2/1
f 48/4/2 49/4/2 51/4/2
f 49/3/2 50/3/2 52/3/2
f 51/4/2 49/4/2 52/4/2
f 51/3/2 52/3/2 53/3/2
f 52/3/2 50/3/2 53/3/2
f 53/3/2 50/3/2 54/3/2
f 51/3/2 53/3/2 55/3/2
f 53/4/2 54/4/2 55/4/2
f 55/4/2 54/4/2 56/4/2
f 51/3/2 55/3/2 57/3/2
f 55/3/2 56/3/2 57/3/2
f 57/3/2 56/3/2 58/3/2
f 57/1/2 58/1/2 60/1/2
f 60/1/2 58/1/2 61/1/2
f 59/2/2 60/2/2 63/2/2
f 63/2/2 60/2/2 64/2/2
f 61/2/2 62/2/2 65/2/2
f 65/2/2 62/2/2 66/2/2
f 67/2/2 68/2/2 69/2/2
f 69/2/2 68/2/2 70/2/2
f 73/2/3 72/2/3 71/2/3
f 74/2/3 72/2/3 73/2/3
f 84/2/3 76/2/3 75/2/3
f 85/2/3 76/2/3 84/2/3
f 86/4/3 78/4/3 77/4/3
f 86/3/3 79/3/3 78/3/3
f 87/3/3 79/3/3 86/3/3
f 88/4/3 80/4/3 79/4/3
f 88/3/3 79/3/3 87/3/3
f 89/3/3 81/3/3 80/3/3
f 89/4/3 80/4/3 88/4/3
f 90/4/3 87/4/3 86/4/3
f 90/4/3 86/4/3 77/4/3
f 91/4/3 87/4/3 90/4/3
f 92/3/3 81/3/3 89/3/3
f 92/3/3 88/3/3 87/3/3
f 92/3/3 89/3/3 88/3/3
f 93/3/3 81/3/3 92/3/3
f 94/4/3 82/4/3 81/4/3
f 94/3/3 81/3/3 93/3/3
f 95/3/3 83/3/3 82/3/3
f 95/4/3 82/4/3 94/4/3
f 96/1/3 84/1/3 83/1/3
f 96/3/3 83/3/3 95/3/3
f 97/4/3 87/4/3 91/4/3
f 97/3/3 91/3/3 90/3/3
f 98/3/3 92/3/3 87/3/3
f 98/4/3 87/4/3 97/4/3
f 99/3/3 92/3/3 98/3/3
f 100/3/3 94/3/3 93/3/3
f 100/3/3 95/3/3 94/3/3
f 100/4/3 93/4/3 92/4/3
f 101/3/3 95/3/3 100/3/3
f 102/3/3 98/3/3 97/3/3
f 102/3/3 97/3/3 90/3/3
f 103/3/3 98/3/3 102/3/3
f 104/3/3 92/3/3 99/3/3
f 104/4/3 101/4/3 100/4/3
f 104/4/3 100/4/3 92/4/3
f 105/4/3 101/4/3 104/4/3
f 106/4/3 96/4/3 95/4/3
f 106/3/3 95/3/3 101/3/3
f 107/1/3 84/1/3 96/1/3
f 107/4/3 96/4/3 106/4/3
f 108/3/3 98/3/3 103/3/3
f 108/4/3 99/4/3 98/4/3
f 109/3/3 105/3/3 104/3/3
f 109/4/3 99/4/3 108/4/3
f 109/3/3 104/3/3 99/3/3
f 110/4/3 101/4/3 105/4/3
f 110/3/3 105/3/3 109/3/3
f 111/3/3 107/3/3 106/3/3
f 111/4/3 101/4/3 110/4/3
f 111/3/3 106/3/3 101/3/3
f 112/4/3 103/4/3 102/4/3
f 113/3/3 110/3/3 109/3/3
f 113/4/3 103/4/3 112/4/3
f 113/3/3 109/3/3 108/3/3
f 113/3/3 111/3/3 110/3/3
f 113/3/3 108/3/3 103/3/3
f 114/1/3 84/1/3 107/1/3
f 114/3/3 111/3/3 113/3/3
f 114/3/3 107/3/3 111/3/3
f 115/1/3 84/1/3 114/1/3
f 117/2/3 116/2/3 115/2/3
f 118/2/3 116/2/3 117/2/3
f 119/2/4 120/2/4 127/2/4
f 127/2/4 120/2/4 128/2/4
f 121/3/4 122/3/4 129/3/4
f 122/4/4 123/4/4 129/4/4
f 123/3/4 124/3/4 130/3/4
f 129/4/4 123/4/4 130/4/4
f 124/4/4 125/4/4 131/4/4
f 130/3/4 124/3/4 131/3/4
f 125/3/4 126/3/4 132/3/4
f 131/4/4 125/4/4 132/4/4
f 130/3/4 131/3/4 133/3/4
f 121/3/4 129/3/4 133/3/4
f 131/3/4 132/3/4 133/3/4
f 129/3/4 130/3/4 133/3/4
f 133/3/4 132/3/4 134/3/4
f 133/4/4 134/4/4 135/4/4
f 134/3/4 132/3/4 135/3/4
f 135/3/4 132/3/4 136/3/4
f 121/3/4 133/3/4 137/3/4
f 133/4/4 135/4/4 137/4/4
f 135/4/4 136/4/4 137/4/4
f 137/4/4 136/4/4 138/4/4
f 121/3/4 137/3/4 139/3/4
f 137/3/4 138/3/4 139/3/4
f 138/4/4 136/4/4 140/4/4
f 139/3/4 138/3/4 140/3/4
f 136/3/4 132/3/4 141/3/4
f 140/4/4 136/4/4 141/4/4
f 132/3/4 126/3/4 142/3/4
f 141/3/4 132/3/4 142/3/4
f 126/1/4 127/1/4 142/1/4
f 142/1/4 127/1/4 143/1/4
f 143/2/4 144/2/4 145/2/4
f 145/2/4 144/2/4 146/2/4
f 147/2/4 148/2/4 149/2/4
f 149/2/4 148/2/4 150/2/4
f 155/4/5 152/4/5 151/4/5
f 156/3/5 153/3/5 152/3/5
f 156/4/5 152/4/5 155/4/5
f 157/4/5 154/4/5 153/4/5
f 157/3/5 153/3/5 156/3/5
f 158/4/5 154/4/5 157/4/5
f 159/3/5 156/3/5 155/3/5
f 159/3/5 157/3/5 156/3/5
f 159/3/5 158/3/5 157/3/5
f 160/3/5 158/3/5 159/3/5
f 164/2/5 162/2/5 161/2/5
f 165/2/5 162/2/5 164/2/5
f 167/2/5 164/2/5 163/2/5
f 168/2/5 164/2/5 167/2/5
f 169/2/5 166/2/5 165/2/5
f 170/2/5 166/2/5 169/2/5
f 171/2/5 169/2/5 168/2/5
f 172/2/5 169/2/5 171/2/5
f 173/2/6 174/2/6 176/2/6
f 176/2/6 174/2/6 177/2/6
f 175/2/6 176/2/6 179/2/6
f 177/2/6 178/2/6 179/2/6
f 176/2/6 177/2/6 179/2/6
f 179/2/6 178/2/6 180/2/6
f 180/2/6 178/2/6 181/2/6
f 181/2/6 178/2/6 182/2/6
f 180/2/6 181/2/6 183/2/6
f 183/2/6 181/2/6 184/2/6
