# MagicaVoxel @ Ephtracy

# group
o 

# material
mtllib house-1_v3-2.mtl
usemtl palette

# normals
vn -1 0 0
vn 1 0 0
vn 0 0 1
vn 0 0 -1
vn 0 -1 0
vn 0 1 0

# texcoords
vt 0.919922 0.5
vt 0.923828 0.5
vt 0.978516 0.5

# verts
v -0.8 3.6 0.5
v -0.8 3.6 0.4
v -0.8 3.6 0.3
v -0.8 3.6 -0.3
v -0.8 3.6 -0.4
v -0.8 3.6 -0.5
v -0.8 3.7 0.5
v -0.8 3.7 0.4
v -0.8 3.7 0.3
v -0.8 3.7 0.2
v -0.8 3.7 -0.2
v -0.8 3.7 -0.3
v -0.8 3.7 -0.4
v -0.8 3.7 -0.5
v -0.8 3.8 0.4
v -0.8 3.8 0.3
v -0.8 3.8 0.2
v -0.8 3.8 0.1
v -0.8 3.8 -0.1
v -0.8 3.8 -0.2
v -0.8 3.8 -0.3
v -0.8 3.8 -0.4
v -0.8 3.9 0.3
v -0.8 3.9 0.2
v -0.8 3.9 0.1
v -0.8 3.9 -0.1
v -0.8 3.9 -0.2
v -0.8 3.9 -0.3
v -0.8 4 0.2
v -0.8 4 0.1
v -0.8 4 -0.1
v -0.8 4 -0.2
v -0.8 4.1 0.1
v -0.8 4.1 -0.1
v 0 3.6 0.5
v 0 3.6 0.4
v 0 3.6 -0.4
v 0 3.6 -0.5
v 0 3.7 0.5
v 0 3.7 0.4
v 0 3.7 0.3
v 0 3.7 -0.3
v 0 3.7 -0.4
v 0 3.7 -0.5
v 0 3.8 0.4
v 0 3.8 0.3
v 0 3.8 0.2
v 0 3.8 -0.2
v 0 3.8 -0.3
v 0 3.8 -0.4
v 0 3.9 0.3
v 0 3.9 0.2
v 0 3.9 0.1
v 0 3.9 -0.1
v 0 3.9 -0.2
v 0 3.9 -0.3
v 0 4 0.2
v 0 4 0.1
v 0 4 -0.1
v 0 4 -0.2
v 0 4.1 0.1
v 0 4.1 -0.1
v -0.8 3.6 0.5
v -0.8 3.7 0.5
v 0 3.6 0.5
v 0 3.7 0.5
v -0.8 3.7 0.4
v -0.8 3.8 0.4
v 0 3.7 0.4
v 0 3.8 0.4
v -0.8 3.8 0.3
v -0.8 3.9 0.3
v 0 3.8 0.3
v 0 3.9 0.3
v -0.8 3.9 0.2
v -0.8 4 0.2
v 0 3.9 0.2
v 0 4 0.2
v -0.8 4 0.1
v -0.8 4.1 0.1
v 0 4 0.1
v 0 4.1 0.1
v -0.8 4 -0.1
v -0.8 4.1 -0.1
v 0 4 -0.1
v 0 4.1 -0.1
v -0.8 3.9 -0.2
v -0.8 4 -0.2
v 0 3.9 -0.2
v 0 4 -0.2
v -0.8 3.8 -0.3
v -0.8 3.9 -0.3
v 0 3.8 -0.3
v 0 3.9 -0.3
v -0.8 3.7 -0.4
v -0.8 3.8 -0.4
v 0 3.7 -0.4
v 0 3.8 -0.4
v -0.8 3.6 -0.5
v -0.8 3.7 -0.5
v 0 3.6 -0.5
v 0 3.7 -0.5
v -0.8 3.6 0.5
v 0 3.6 0.5
v -0.8 3.6 0.4
v -0.7 3.6 0.4
v 0 3.6 0.4
v -0.8 3.6 0.3
v -0.7 3.6 0.3
v -0.8 3.6 -0.3
v -0.7 3.6 -0.3
v -0.8 3.6 -0.4
v -0.7 3.6 -0.4
v 0 3.6 -0.4
v -0.8 3.6 -0.5
v 0 3.6 -0.5
v -0.8 3.7 0.5
v 0 3.7 0.5
v -0.8 3.7 0.4
v 0 3.7 0.4
v -0.8 3.7 -0.4
v 0 3.7 -0.4
v -0.8 3.7 -0.5
v 0 3.7 -0.5
v -0.8 3.8 0.4
v 0 3.8 0.4
v -0.8 3.8 0.3
v 0 3.8 0.3
v -0.8 3.8 -0.3
v 0 3.8 -0.3
v -0.8 3.8 -0.4
v 0 3.8 -0.4
v -0.8 3.9 0.3
v 0 3.9 0.3
v -0.8 3.9 0.2
v 0 3.9 0.2
v -0.8 3.9 -0.2
v 0 3.9 -0.2
v -0.8 3.9 -0.3
v 0 3.9 -0.3
v -0.8 4 0.2
v 0 4 0.2
v -0.8 4 0.1
v 0 4 0.1
v -0.8 4 -0.1
v 0 4 -0.1
v -0.8 4 -0.2
v 0 4 -0.2
v -0.8 4.1 0.1
v 0 4.1 0.1
v -0.8 4.1 -0.1
v 0 4.1 -0.1

# faces
f 7/3/1 2/3/1 1/3/1
f 8/1/1 3/1/1 2/1/1
f 8/3/1 2/3/1 7/3/1
f 9/2/1 4/2/1 3/2/1
f 9/1/1 3/1/1 8/1/1
f 10/2/1 4/2/1 9/2/1
f 11/2/1 4/2/1 10/2/1
f 12/1/1 5/1/1 4/1/1
f 12/2/1 4/2/1 11/2/1
f 13/3/1 6/3/1 5/3/1
f 13/1/1 5/1/1 12/1/1
f 14/3/1 6/3/1 13/3/1
f 15/3/1 9/3/1 8/3/1
f 16/1/1 10/1/1 9/1/1
f 16/3/1 9/3/1 15/3/1
f 17/2/1 11/2/1 10/2/1
f 17/1/1 10/1/1 16/1/1
f 18/2/1 11/2/1 17/2/1
f 19/2/1 11/2/1 18/2/1
f 20/1/1 12/1/1 11/1/1
f 20/2/1 11/2/1 19/2/1
f 21/3/1 13/3/1 12/3/1
f 21/1/1 12/1/1 20/1/1
f 22/3/1 13/3/1 21/3/1
f 23/3/1 17/3/1 16/3/1
f 24/1/1 18/1/1 17/1/1
f 24/3/1 17/3/1 23/3/1
f 25/2/1 19/2/1 18/2/1
f 25/1/1 18/1/1 24/1/1
f 26/1/1 20/1/1 19/1/1
f 26/2/1 19/2/1 25/2/1
f 27/3/1 21/3/1 20/3/1
f 27/1/1 20/1/1 26/1/1
f 28/3/1 21/3/1 27/3/1
f 29/3/1 25/3/1 24/3/1
f 30/1/1 26/1/1 25/1/1
f 30/3/1 25/3/1 29/3/1
f 31/3/1 27/3/1 26/3/1
f 31/1/1 26/1/1 30/1/1
f 32/3/1 27/3/1 31/3/1
f 33/3/1 31/3/1 30/3/1
f 34/3/1 31/3/1 33/3/1
f 35/3/2 36/3/2 39/3/2
f 36/2/2 37/2/2 40/2/2
f 39/3/2 36/3/2 40/3/2
f 40/2/2 37/2/2 41/2/2
f 41/2/2 37/2/2 42/2/2
f 37/3/2 38/3/2 43/3/2
f 42/2/2 37/2/2 43/2/2
f 43/3/2 38/3/2 44/3/2
f 40/3/2 41/3/2 45/3/2
f 41/2/2 42/2/2 46/2/2
f 45/3/2 41/3/2 46/3/2
f 46/2/2 42/2/2 47/2/2
f 47/2/2 42/2/2 48/2/2
f 42/3/2 43/3/2 49/3/2
f 48/2/2 42/2/2 49/2/2
f 49/3/2 43/3/2 50/3/2
f 46/3/2 47/3/2 51/3/2
f 47/2/2 48/2/2 52/2/2
f 51/3/2 47/3/2 52/3/2
f 52/2/2 48/2/2 53/2/2
f 53/2/2 48/2/2 54/2/2
f 48/3/2 49/3/2 55/3/2
f 54/2/2 48/2/2 55/2/2
f 55/3/2 49/3/2 56/3/2
f 52/3/2 53/3/2 57/3/2
f 53/2/2 54/2/2 58/2/2
f 57/3/2 53/3/2 58/3/2
f 54/3/2 55/3/2 59/3/2
f 58/2/2 54/2/2 59/2/2
f 59/3/2 55/3/2 60/3/2
f 58/3/2 59/3/2 61/3/2
f 61/3/2 59/3/2 62/3/2
f 65/3/3 64/3/3 63/3/3
f 66/3/3 64/3/3 65/3/3
f 69/3/3 68/3/3 67/3/3
f 70/3/3 68/3/3 69/3/3
f 73/3/3 72/3/3 71/3/3
f 74/3/3 72/3/3 73/3/3
f 77/3/3 76/3/3 75/3/3
f 78/3/3 76/3/3 77/3/3
f 81/3/3 80/3/3 79/3/3
f 82/3/3 80/3/3 81/3/3
f 83/3/4 84/3/4 85/3/4
f 85/3/4 84/3/4 86/3/4
f 87/3/4 88/3/4 89/3/4
f 89/3/4 88/3/4 90/3/4
f 91/3/4 92/3/4 93/3/4
f 93/3/4 92/3/4 94/3/4
f 95/3/4 96/3/4 97/3/4
f 97/3/4 96/3/4 98/3/4
f 99/3/4 100/3/4 101/3/4
f 101/3/4 100/3/4 102/3/4
f 105/3/5 104/3/5 103/3/5
f 106/3/5 104/3/5 105/3/5
f 107/3/5 104/3/5 106/3/5
f 108/1/5 106/1/5 105/1/5
f 109/2/5 107/2/5 106/2/5
f 109/1/5 106/1/5 108/1/5
f 110/2/5 109/2/5 108/2/5
f 111/2/5 107/2/5 109/2/5
f 111/2/5 109/2/5 110/2/5
f 112/1/5 111/1/5 110/1/5
f 113/2/5 107/2/5 111/2/5
f 113/1/5 111/1/5 112/1/5
f 114/2/5 107/2/5 113/2/5
f 115/3/5 113/3/5 112/3/5
f 115/3/5 114/3/5 113/3/5
f 116/3/5 114/3/5 115/3/5
f 117/3/6 118/3/6 119/3/6
f 119/3/6 118/3/6 120/3/6
f 121/3/6 122/3/6 123/3/6
f 123/3/6 122/3/6 124/3/6
f 125/3/6 126/3/6 127/3/6
f 127/3/6 126/3/6 128/3/6
f 129/3/6 130/3/6 131/3/6
f 131/3/6 130/3/6 132/3/6
f 133/3/6 134/3/6 135/3/6
f 135/3/6 134/3/6 136/3/6
f 137/3/6 138/3/6 139/3/6
f 139/3/6 138/3/6 140/3/6
f 141/3/6 142/3/6 143/3/6
f 143/3/6 142/3/6 144/3/6
f 145/3/6 146/3/6 147/3/6
f 147/3/6 146/3/6 148/3/6
f 149/3/6 150/3/6 151/3/6
f 151/3/6 150/3/6 152/3/6
