# MagicaVoxel @ Ephtracy

# group
o 

# material
mtllib house-1_v3-51.mtl
usemtl palette

# normals
vn -1 0 0
vn 1 0 0
vn 0 0 1
vn 0 0 -1
vn 0 -1 0
vn 0 1 0

# texcoords
vt 0.271484 0.5
vt 0.505859 0.5
vt 0.892578 0.5
vt 0.916016 0.5
vt 0.919922 0.5
vt 0.923828 0.5
vt 0.958984 0.5
vt 0.994141 0.5

# verts
v -2.9 1.5 -0.4
v -2.9 1.5 -0.9
v -2.9 1.6 -0.3
v -2.9 1.6 -0.4
v -2.9 1.6 -0.9
v -2.9 1.6 -1
v -2.9 1.8 -0.3
v -2.9 1.8 -0.4
v -2.9 1.8 -0.9
v -2.9 1.8 -1
v -2.8 1.2 -0.2
v -2.8 1.2 -0.3
v -2.8 1.2 -0.5
v -2.8 1.2 -0.8
v -2.8 1.2 -1
v -2.8 1.2 -1.1
v -2.8 1.3 -0.3
v -2.8 1.3 -0.4
v -2.8 1.3 -0.5
v -2.8 1.3 -0.6
v -2.8 1.3 -0.7
v -2.8 1.3 -0.8
v -2.8 1.3 -1
v -2.8 1.3 -1.1
v -2.8 1.4 -0.2
v -2.8 1.4 -0.4
v -2.8 1.4 -0.6
v -2.8 1.4 -0.7
v -2.8 1.4 -1
v -2.8 1.4 -1.1
v -2.8 1.5 -0.2
v -2.8 1.5 -0.4
v -2.8 1.5 -0.9
v -2.8 1.5 -1.1
v -2.8 1.6 -0.3
v -2.8 1.6 -0.4
v -2.8 1.6 -0.5
v -2.8 1.6 -0.6
v -2.8 1.6 -0.8
v -2.8 1.6 -0.9
v -2.8 1.6 -1
v -2.8 1.7 -0.5
v -2.8 1.7 -0.6
v -2.8 1.7 -0.7
v -2.8 1.7 -0.8
v -2.8 1.7 -0.9
v -2.8 1.8 -0.2
v -2.8 1.8 -0.3
v -2.8 1.8 -0.4
v -2.8 1.8 -0.6
v -2.8 1.8 -0.7
v -2.8 1.8 -0.9
v -2.8 1.8 -1
v -2.8 1.8 -1.1
v -2.7 1.3 -0.2
v -2.7 1.3 -0.4
v -2.7 1.3 -0.6
v -2.7 1.3 -0.7
v -2.7 1.3 -1
v -2.7 1.3 -1.1
v -2.7 1.4 -0.2
v -2.7 1.4 -0.4
v -2.7 1.4 -0.6
v -2.7 1.4 -0.7
v -2.7 1.4 -1
v -2.7 1.4 -1.1
v -2.7 1.5 -0.2
v -2.7 1.5 -0.4
v -2.7 1.5 -0.9
v -2.7 1.5 -1.1
v -2.7 1.6 -0.3
v -2.7 1.6 -0.4
v -2.7 1.6 -0.5
v -2.7 1.6 -0.6
v -2.7 1.6 -0.8
v -2.7 1.6 -0.9
v -2.7 1.6 -1
v -2.7 1.7 -0.5
v -2.7 1.7 -0.6
v -2.7 1.7 -0.7
v -2.7 1.7 -0.8
v -2.7 1.7 -0.9
v -2.7 1.8 -0.2
v -2.7 1.8 -0.3
v -2.7 1.8 -0.4
v -2.7 1.8 -0.6
v -2.7 1.8 -0.7
v -2.7 1.8 -0.9
v -2.7 1.8 -1
v -2.7 1.8 -1.1
v -2.6 1.2 -0.2
v -2.6 1.2 -1.1
v -2.6 1.3 -0.2
v -2.6 1.3 -1.1
v -2.8 1.2 -0.2
v -2.8 1.4 -0.2
v -2.8 1.5 -0.2
v -2.8 1.8 -0.2
v -2.7 1.2 -0.2
v -2.7 1.3 -0.2
v -2.7 1.4 -0.2
v -2.7 1.5 -0.2
v -2.7 1.8 -0.2
v -2.6 1.2 -0.2
v -2.6 1.3 -0.2
v -2.9 1.6 -0.3
v -2.9 1.8 -0.3
v -2.8 1.6 -0.3
v -2.8 1.8 -0.3
v -2.9 1.5 -0.4
v -2.9 1.6 -0.4
v -2.8 1.5 -0.4
v -2.8 1.6 -0.4
v -2.9 1.6 -0.9
v -2.9 1.8 -0.9
v -2.8 1.6 -0.9
v -2.8 1.7 -0.9
v -2.8 1.8 -0.9
v -2.9 1.6 -0.4
v -2.9 1.8 -0.4
v -2.8 1.6 -0.4
v -2.8 1.8 -0.4
v -2.9 1.5 -0.9
v -2.9 1.6 -0.9
v -2.8 1.5 -0.9
v -2.8 1.6 -0.9
v -2.9 1.6 -1
v -2.9 1.8 -1
v -2.8 1.6 -1
v -2.8 1.8 -1
v -2.8 1.2 -1.1
v -2.8 1.3 -1.1
v -2.8 1.4 -1.1
v -2.8 1.5 -1.1
v -2.8 1.8 -1.1
v -2.7 1.2 -1.1
v -2.7 1.3 -1.1
v -2.7 1.4 -1.1
v -2.7 1.5 -1.1
v -2.7 1.8 -1.1
v -2.6 1.2 -1.1
v -2.6 1.3 -1.1
v -2.8 1.2 -0.2
v -2.7 1.2 -0.2
v -2.6 1.2 -0.2
v -2.8 1.2 -0.3
v -2.7 1.2 -0.3
v -2.8 1.2 -0.5
v -2.7 1.2 -0.5
v -2.8 1.2 -0.8
v -2.7 1.2 -0.8
v -2.8 1.2 -1
v -2.7 1.2 -1
v -2.8 1.2 -1.1
v -2.7 1.2 -1.1
v -2.6 1.2 -1.1
v -2.9 1.5 -0.4
v -2.8 1.5 -0.4
v -2.9 1.5 -0.9
v -2.8 1.5 -0.9
v -2.9 1.6 -0.3
v -2.8 1.6 -0.3
v -2.9 1.6 -0.4
v -2.8 1.6 -0.4
v -2.9 1.6 -0.9
v -2.8 1.6 -0.9
v -2.9 1.6 -1
v -2.8 1.6 -1
v -2.7 1.3 -0.2
v -2.6 1.3 -0.2
v -2.7 1.3 -0.4
v -2.7 1.3 -0.6
v -2.7 1.3 -0.7
v -2.7 1.3 -1
v -2.7 1.3 -1.1
v -2.6 1.3 -1.1
v -2.9 1.6 -0.4
v -2.8 1.6 -0.4
v -2.8 1.6 -0.5
v -2.8 1.6 -0.6
v -2.8 1.6 -0.8
v -2.9 1.6 -0.9
v -2.8 1.6 -0.9
v -2.8 1.8 -0.2
v -2.7 1.8 -0.2
v -2.9 1.8 -0.3
v -2.8 1.8 -0.3
v -2.7 1.8 -0.3
v -2.9 1.8 -0.4
v -2.8 1.8 -0.4
v -2.7 1.8 -0.4
v -2.8 1.8 -0.6
v -2.7 1.8 -0.6
v -2.8 1.8 -0.7
v -2.7 1.8 -0.7
v -2.9 1.8 -0.9
v -2.8 1.8 -0.9
v -2.7 1.8 -0.9
v -2.9 1.8 -1
v -2.8 1.8 -1
v -2.7 1.8 -1
v -2.8 1.8 -1.1
v -2.7 1.8 -1.1

# faces
f 4/2/1 2/2/1 1/2/1
f 5/2/1 2/2/1 4/2/1
f 7/2/1 4/2/1 3/2/1
f 8/2/1 4/2/1 7/2/1
f 9/2/1 6/2/1 5/2/1
f 10/2/1 6/2/1 9/2/1
f 17/6/1 12/6/1 11/6/1
f 17/3/1 13/3/1 12/3/1
f 18/3/1 13/3/1 17/3/1
f 19/6/1 14/6/1 13/6/1
f 19/3/1 13/3/1 18/3/1
f 20/6/1 14/6/1 19/6/1
f 21/6/1 14/6/1 20/6/1
f 22/4/1 15/4/1 14/4/1
f 22/6/1 14/6/1 21/6/1
f 23/3/1 16/3/1 15/3/1
f 23/4/1 15/4/1 22/4/1
f 24/3/1 16/3/1 23/3/1
f 25/6/1 18/6/1 17/6/1
f 25/6/1 17/6/1 11/6/1
f 26/3/1 19/3/1 18/3/1
f 26/6/1 18/6/1 25/6/1
f 26/3/1 20/3/1 19/3/1
f 27/6/1 21/6/1 20/6/1
f 27/3/1 20/3/1 26/3/1
f 28/3/1 22/3/1 21/3/1
f 28/6/1 21/6/1 27/6/1
f 28/3/1 23/3/1 22/3/1
f 29/6/1 24/6/1 23/6/1
f 29/3/1 23/3/1 28/3/1
f 30/6/1 24/6/1 29/6/1
f 31/5/1 27/5/1 26/5/1
f 31/5/1 26/5/1 25/5/1
f 31/5/1 30/5/1 29/5/1
f 31/5/1 29/5/1 28/5/1
f 31/5/1 28/5/1 27/5/1
f 32/5/1 30/5/1 31/5/1
f 33/5/1 30/5/1 32/5/1
f 34/5/1 30/5/1 33/5/1
f 35/6/1 32/6/1 31/6/1
f 36/6/1 32/6/1 35/6/1
f 40/6/1 34/6/1 33/6/1
f 41/6/1 34/6/1 40/6/1
f 42/8/1 37/8/1 36/8/1
f 42/7/1 38/7/1 37/7/1
f 43/8/1 39/8/1 38/8/1
f 43/7/1 38/7/1 42/7/1
f 44/8/1 39/8/1 43/8/1
f 45/7/1 40/7/1 39/7/1
f 45/8/1 39/8/1 44/8/1
f 46/7/1 40/7/1 45/7/1
f 47/6/1 35/6/1 31/6/1
f 48/6/1 35/6/1 47/6/1
f 49/8/1 42/8/1 36/8/1
f 49/8/1 43/8/1 42/8/1
f 50/7/1 44/7/1 43/7/1
f 50/8/1 43/8/1 49/8/1
f 51/8/1 45/8/1 44/8/1
f 51/7/1 44/7/1 50/7/1
f 51/8/1 46/8/1 45/8/1
f 52/8/1 46/8/1 51/8/1
f 53/6/1 34/6/1 41/6/1
f 54/6/1 34/6/1 53/6/1
f 55/6/2 56/6/2 61/6/2
f 56/3/2 57/3/2 62/3/2
f 61/6/2 56/6/2 62/6/2
f 57/6/2 58/6/2 63/6/2
f 62/3/2 57/3/2 63/3/2
f 58/3/2 59/3/2 64/3/2
f 63/6/2 58/6/2 64/6/2
f 59/6/2 60/6/2 65/6/2
f 64/3/2 59/3/2 65/3/2
f 65/6/2 60/6/2 66/6/2
f 63/5/2 64/5/2 67/5/2
f 61/5/2 62/5/2 67/5/2
f 65/5/2 66/5/2 67/5/2
f 64/5/2 65/5/2 67/5/2
f 62/5/2 63/5/2 67/5/2
f 67/5/2 66/5/2 68/5/2
f 68/5/2 66/5/2 69/5/2
f 69/5/2 66/5/2 70/5/2
f 67/6/2 68/6/2 71/6/2
f 68/2/2 69/2/2 72/2/2
f 71/6/2 68/6/2 72/6/2
f 72/2/2 69/2/2 73/2/2
f 73/2/2 69/2/2 74/2/2
f 74/2/2 69/2/2 75/2/2
f 69/6/2 70/6/2 76/6/2
f 75/2/2 69/2/2 76/2/2
f 76/6/2 70/6/2 77/6/2
f 72/8/2 73/8/2 78/8/2
f 73/7/2 74/7/2 78/7/2
f 74/8/2 75/8/2 79/8/2
f 78/7/2 74/7/2 79/7/2
f 79/8/2 75/8/2 80/8/2
f 75/7/2 76/7/2 81/7/2
f 80/8/2 75/8/2 81/8/2
f 76/2/2 77/2/2 82/2/2
f 81/7/2 76/7/2 82/7/2
f 67/6/2 71/6/2 83/6/2
f 71/2/2 72/2/2 84/2/2
f 83/6/2 71/6/2 84/6/2
f 72/8/2 78/8/2 85/8/2
f 84/2/2 72/2/2 85/2/2
f 78/8/2 79/8/2 85/8/2
f 79/7/2 80/7/2 86/7/2
f 85/8/2 79/8/2 86/8/2
f 80/8/2 81/8/2 87/8/2
f 86/7/2 80/7/2 87/7/2
f 81/8/2 82/8/2 87/8/2
f 82/2/2 77/2/2 88/2/2
f 87/8/2 82/8/2 88/8/2
f 77/6/2 70/6/2 89/6/2
f 88/2/2 77/2/2 89/2/2
f 89/6/2 70/6/2 90/6/2
f 91/1/2 92/1/2 93/1/2
f 93/1/2 92/1/2 94/1/2
f 99/6/3 96/6/3 95/6/3
f 100/6/3 96/6/3 99/6/3
f 101/5/3 97/5/3 96/5/3
f 101/6/3 96/6/3 100/6/3
f 102/6/3 98/6/3 97/6/3
f 102/5/3 97/5/3 101/5/3
f 103/6/3 98/6/3 102/6/3
f 104/1/3 100/1/3 99/1/3
f 105/1/3 100/1/3 104/1/3
f 108/2/3 107/2/3 106/2/3
f 109/2/3 107/2/3 108/2/3
f 112/2/3 111/2/3 110/2/3
f 113/2/3 111/2/3 112/2/3
f 116/2/3 115/2/3 114/2/3
f 117/2/3 115/2/3 116/2/3
f 118/2/3 115/2/3 117/2/3
f 119/2/4 120/2/4 121/2/4
f 121/2/4 120/2/4 122/2/4
f 123/2/4 124/2/4 125/2/4
f 125/2/4 124/2/4 126/2/4
f 127/2/4 128/2/4 129/2/4
f 129/2/4 128/2/4 130/2/4
f 131/3/4 132/3/4 136/3/4
f 132/6/4 133/6/4 137/6/4
f 136/3/4 132/3/4 137/3/4
f 133/5/4 134/5/4 138/5/4
f 137/6/4 133/6/4 138/6/4
f 134/6/4 135/6/4 139/6/4
f 138/5/4 134/5/4 139/5/4
f 139/6/4 135/6/4 140/6/4
f 136/1/4 137/1/4 141/1/4
f 141/1/4 137/1/4 142/1/4
f 146/6/5 144/6/5 143/6/5
f 147/1/5 145/1/5 144/1/5
f 147/6/5 144/6/5 146/6/5
f 148/3/5 147/3/5 146/3/5
f 149/1/5 145/1/5 147/1/5
f 149/3/5 147/3/5 148/3/5
f 150/6/5 149/6/5 148/6/5
f 151/1/5 145/1/5 149/1/5
f 151/6/5 149/6/5 150/6/5
f 152/4/5 151/4/5 150/4/5
f 153/1/5 145/1/5 151/1/5
f 153/4/5 151/4/5 152/4/5
f 154/3/5 153/3/5 152/3/5
f 155/1/5 145/1/5 153/1/5
f 155/3/5 153/3/5 154/3/5
f 156/1/5 145/1/5 155/1/5
f 159/2/5 158/2/5 157/2/5
f 160/2/5 158/2/5 159/2/5
f 163/2/5 162/2/5 161/2/5
f 164/2/5 162/2/5 163/2/5
f 167/2/5 166/2/5 165/2/5
f 168/2/5 166/2/5 167/2/5
f 169/1/6 170/1/6 171/1/6
f 171/1/6 170/1/6 172/1/6
f 172/1/6 170/1/6 173/1/6
f 173/1/6 170/1/6 174/1/6
f 174/1/6 170/1/6 175/1/6
f 175/1/6 170/1/6 176/1/6
f 177/2/6 178/2/6 179/2/6
f 177/2/6 179/2/6 180/2/6
f 177/2/6 180/2/6 181/2/6
f 177/2/6 181/2/6 182/2/6
f 182/2/6 181/2/6 183/2/6
f 184/6/6 185/6/6 187/6/6
f 187/6/6 185/6/6 188/6/6
f 186/2/6 187/2/6 189/2/6
f 187/2/6 188/2/6 189/2/6
f 189/2/6 188/2/6 190/2/6
f 190/2/6 188/2/6 191/2/6
f 190/8/6 191/8/6 192/8/6
f 192/8/6 191/8/6 193/8/6
f 192/7/6 193/7/6 194/7/6
f 194/7/6 193/7/6 195/7/6
f 194/8/6 195/8/6 197/8/6
f 197/8/6 195/8/6 198/8/6
f 196/2/6 197/2/6 199/2/6
f 197/2/6 198/2/6 199/2/6
f 199/2/6 198/2/6 200/2/6
f 200/2/6 198/2/6 201/2/6
f 200/6/6 201/6/6 202/6/6
f 202/6/6 201/6/6 203/6/6
