# MagicaVoxel @ Ephtracy

# group
o 

# material
mtllib house-1_v3-16.mtl
usemtl palette

# normals
vn -1 0 0
vn 1 0 0
vn 0 0 1
vn 0 0 -1
vn 0 -1 0
vn 0 1 0

# texcoords
vt 0.919922 0.5
vt 0.923828 0.5
vt 0.978516 0.5

# verts
v -0.8 2.7 0.1
v -0.8 2.7 -0.8
v -0.8 2.7 -0.9
v -0.8 2.7 -1.2
v -0.8 2.7 -1.3
v -0.8 2.7 -1.4
v -0.8 2.8 -0.7
v -0.8 2.8 -0.8
v -0.8 2.8 -0.9
v -0.8 2.8 -1.1
v -0.8 2.8 -1.2
v -0.8 2.8 -1.3
v -0.8 2.8 -1.4
v -0.8 2.9 -0.6
v -0.8 2.9 -0.7
v -0.8 2.9 -0.8
v -0.8 2.9 -1
v -0.8 2.9 -1.1
v -0.8 2.9 -1.2
v -0.8 2.9 -1.3
v -0.8 3 -0.5
v -0.8 3 -0.6
v -0.8 3 -0.7
v -0.8 3 -0.9
v -0.8 3 -1
v -0.8 3 -1.1
v -0.8 3 -1.2
v -0.8 3.1 -0.4
v -0.8 3.1 -0.5
v -0.8 3.1 -0.6
v -0.8 3.1 -0.8
v -0.8 3.1 -0.9
v -0.8 3.1 -1
v -0.8 3.1 -1.1
v -0.8 3.2 -0.3
v -0.8 3.2 -0.4
v -0.8 3.2 -0.5
v -0.8 3.2 -0.7
v -0.8 3.2 -0.8
v -0.8 3.2 -0.9
v -0.8 3.2 -1
v -0.8 3.3 0.1
v -0.8 3.3 -0.3
v -0.8 3.3 -0.4
v -0.8 3.3 -0.7
v -0.8 3.3 -0.8
v -0.8 3.3 -0.9
v 0.1 2.7 0.1
v 0.1 2.7 -1.3
v 0.1 2.7 -1.4
v 0.1 2.8 -1.2
v 0.1 2.8 -1.3
v 0.1 2.8 -1.4
v 0.1 2.9 -1.1
v 0.1 2.9 -1.2
v 0.1 2.9 -1.3
v 0.1 3 -1
v 0.1 3 -1.1
v 0.1 3 -1.2
v 0.1 3.1 -0.9
v 0.1 3.1 -1
v 0.1 3.1 -1.1
v 0.1 3.2 -0.8
v 0.1 3.2 -0.9
v 0.1 3.2 -1
v 0.1 3.3 0.1
v 0.1 3.3 -0.8
v 0.1 3.3 -0.9
v -0.8 2.7 0.1
v -0.8 3.3 0.1
v 0.1 2.7 0.1
v 0.1 3.3 0.1
v -0.8 3.2 -0.9
v -0.8 3.3 -0.9
v 0.1 3.2 -0.9
v 0.1 3.3 -0.9
v -0.8 3.1 -1
v -0.8 3.2 -1
v 0.1 3.1 -1
v 0.1 3.2 -1
v -0.8 3 -1.1
v -0.8 3.1 -1.1
v 0.1 3 -1.1
v 0.1 3.1 -1.1
v -0.8 2.9 -1.2
v -0.8 3 -1.2
v 0.1 2.9 -1.2
v 0.1 3 -1.2
v -0.8 2.8 -1.3
v -0.8 2.9 -1.3
v 0.1 2.8 -1.3
v 0.1 2.9 -1.3
v -0.8 2.7 -1.4
v -0.8 2.8 -1.4
v 0.1 2.7 -1.4
v 0.1 2.8 -1.4
v -0.8 2.7 0.1
v 0.1 2.7 0.1
v -0.8 2.7 -0.8
v 0 2.7 -0.8
v -0.8 2.7 -0.9
v 0 2.7 -0.9
v -0.8 2.7 -1.2
v -0.7 2.7 -1.2
v -0.8 2.7 -1.3
v -0.7 2.7 -1.3
v 0.1 2.7 -1.3
v -0.8 2.7 -1.4
v 0.1 2.7 -1.4
v -0.8 2.8 -1.3
v 0.1 2.8 -1.3
v -0.8 2.8 -1.4
v 0.1 2.8 -1.4
v -0.8 2.9 -1.2
v 0.1 2.9 -1.2
v -0.8 2.9 -1.3
v 0.1 2.9 -1.3
v -0.8 3 -1.1
v 0.1 3 -1.1
v -0.8 3 -1.2
v 0.1 3 -1.2
v -0.8 3.1 -1
v 0.1 3.1 -1
v -0.8 3.1 -1.1
v 0.1 3.1 -1.1
v -0.8 3.2 -0.9
v 0.1 3.2 -0.9
v -0.8 3.2 -1
v 0.1 3.2 -1
v -0.8 3.3 0.1
v 0.1 3.3 0.1
v -0.8 3.3 -0.3
v 0 3.3 -0.3
v -0.8 3.3 -0.4
v 0 3.3 -0.4
v -0.8 3.3 -0.7
v -0.7 3.3 -0.7
v -0.8 3.3 -0.8
v -0.7 3.3 -0.8
v 0.1 3.3 -0.8
v -0.8 3.3 -0.9
v 0.1 3.3 -0.9

# faces
f 7/2/1 2/2/1 1/2/1
f 8/3/1 3/3/1 2/3/1
f 8/2/1 2/2/1 7/2/1
f 9/2/1 4/2/1 3/2/1
f 9/3/1 3/3/1 8/3/1
f 10/2/1 4/2/1 9/2/1
f 11/1/1 5/1/1 4/1/1
f 11/2/1 4/2/1 10/2/1
f 12/3/1 6/3/1 5/3/1
f 12/1/1 5/1/1 11/1/1
f 13/3/1 6/3/1 12/3/1
f 14/2/1 7/2/1 1/2/1
f 15/3/1 8/3/1 7/3/1
f 15/2/1 7/2/1 14/2/1
f 16/2/1 10/2/1 9/2/1
f 16/3/1 8/3/1 15/3/1
f 16/2/1 9/2/1 8/2/1
f 17/2/1 10/2/1 16/2/1
f 18/1/1 11/1/1 10/1/1
f 18/2/1 10/2/1 17/2/1
f 19/3/1 12/3/1 11/3/1
f 19/1/1 11/1/1 18/1/1
f 20/3/1 12/3/1 19/3/1
f 21/2/1 14/2/1 1/2/1
f 22/3/1 15/3/1 14/3/1
f 22/2/1 14/2/1 21/2/1
f 23/2/1 17/2/1 16/2/1
f 23/3/1 15/3/1 22/3/1
f 23/2/1 16/2/1 15/2/1
f 24/2/1 17/2/1 23/2/1
f 25/1/1 18/1/1 17/1/1
f 25/2/1 17/2/1 24/2/1
f 26/3/1 19/3/1 18/3/1
f 26/1/1 18/1/1 25/1/1
f 27/3/1 19/3/1 26/3/1
f 28/2/1 21/2/1 1/2/1
f 29/3/1 22/3/1 21/3/1
f 29/2/1 21/2/1 28/2/1
f 30/2/1 24/2/1 23/2/1
f 30/3/1 22/3/1 29/3/1
f 30/2/1 23/2/1 22/2/1
f 31/2/1 24/2/1 30/2/1
f 32/1/1 25/1/1 24/1/1
f 32/2/1 24/2/1 31/2/1
f 33/3/1 26/3/1 25/3/1
f 33/1/1 25/1/1 32/1/1
f 34/3/1 26/3/1 33/3/1
f 35/2/1 28/2/1 1/2/1
f 36/3/1 29/3/1 28/3/1
f 36/2/1 28/2/1 35/2/1
f 37/2/1 31/2/1 30/2/1
f 37/3/1 29/3/1 36/3/1
f 37/2/1 30/2/1 29/2/1
f 38/2/1 31/2/1 37/2/1
f 39/1/1 32/1/1 31/1/1
f 39/2/1 31/2/1 38/2/1
f 40/3/1 33/3/1 32/3/1
f 40/1/1 32/1/1 39/1/1
f 41/3/1 33/3/1 40/3/1
f 42/2/1 35/2/1 1/2/1
f 43/3/1 36/3/1 35/3/1
f 43/2/1 35/2/1 42/2/1
f 44/2/1 38/2/1 37/2/1
f 44/3/1 36/3/1 43/3/1
f 44/2/1 37/2/1 36/2/1
f 45/1/1 39/1/1 38/1/1
f 45/2/1 38/2/1 44/2/1
f 46/3/1 40/3/1 39/3/1
f 46/1/1 39/1/1 45/1/1
f 47/3/1 40/3/1 46/3/1
f 48/2/2 49/2/2 51/2/2
f 49/3/2 50/3/2 52/3/2
f 51/2/2 49/2/2 52/2/2
f 52/3/2 50/3/2 53/3/2
f 48/2/2 51/2/2 54/2/2
f 51/3/2 52/3/2 55/3/2
f 54/2/2 51/2/2 55/2/2
f 55/3/2 52/3/2 56/3/2
f 48/2/2 54/2/2 57/2/2
f 54/3/2 55/3/2 58/3/2
f 57/2/2 54/2/2 58/2/2
f 58/3/2 55/3/2 59/3/2
f 48/2/2 57/2/2 60/2/2
f 57/3/2 58/3/2 61/3/2
f 60/2/2 57/2/2 61/2/2
f 61/3/2 58/3/2 62/3/2
f 48/2/2 60/2/2 63/2/2
f 60/3/2 61/3/2 64/3/2
f 63/2/2 60/2/2 64/2/2
f 64/3/2 61/3/2 65/3/2
f 48/2/2 63/2/2 66/2/2
f 63/3/2 64/3/2 67/3/2
f 66/2/2 63/2/2 67/2/2
f 67/3/2 64/3/2 68/3/2
f 71/2/3 70/2/3 69/2/3
f 72/2/3 70/2/3 71/2/3
f 73/3/4 74/3/4 75/3/4
f 75/3/4 74/3/4 76/3/4
f 77/3/4 78/3/4 79/3/4
f 79/3/4 78/3/4 80/3/4
f 81/3/4 82/3/4 83/3/4
f 83/3/4 82/3/4 84/3/4
f 85/3/4 86/3/4 87/3/4
f 87/3/4 86/3/4 88/3/4
f 89/3/4 90/3/4 91/3/4
f 91/3/4 90/3/4 92/3/4
f 93/3/4 94/3/4 95/3/4
f 95/3/4 94/3/4 96/3/4
f 99/2/5 98/2/5 97/2/5
f 100/2/5 98/2/5 99/2/5
f 101/3/5 100/3/5 99/3/5
f 102/2/5 98/2/5 100/2/5
f 102/3/5 100/3/5 101/3/5
f 103/2/5 102/2/5 101/2/5
f 104/2/5 102/2/5 103/2/5
f 105/1/5 104/1/5 103/1/5
f 106/2/5 102/2/5 104/2/5
f 106/1/5 104/1/5 105/1/5
f 107/2/5 98/2/5 102/2/5
f 107/2/5 102/2/5 106/2/5
f 108/3/5 106/3/5 105/3/5
f 108/3/5 107/3/5 106/3/5
f 109/3/5 107/3/5 108/3/5
f 110/3/6 111/3/6 112/3/6
f 112/3/6 111/3/6 113/3/6
f 114/3/6 115/3/6 116/3/6
f 116/3/6 115/3/6 117/3/6
f 118/3/6 119/3/6 120/3/6
f 120/3/6 119/3/6 121/3/6
f 122/3/6 123/3/6 124/3/6
f 124/3/6 123/3/6 125/3/6
f 126/3/6 127/3/6 128/3/6
f 128/3/6 127/3/6 129/3/6
f 130/2/6 131/2/6 132/2/6
f 132/2/6 131/2/6 133/2/6
f 132/3/6 133/3/6 134/3/6
f 133/2/6 131/2/6 135/2/6
f 134/3/6 133/3/6 135/3/6
f 134/2/6 135/2/6 136/2/6
f 136/2/6 135/2/6 137/2/6
f 136/1/6 137/1/6 138/1/6
f 137/2/6 135/2/6 139/2/6
f 138/1/6 137/1/6 139/1/6
f 135/2/6 131/2/6 140/2/6
f 139/2/6 135/2/6 140/2/6
f 138/3/6 139/3/6 141/3/6
f 139/3/6 140/3/6 141/3/6
f 141/3/6 140/3/6 142/3/6
