# MagicaVoxel @ Ephtracy

# group
o 

# material
mtllib house-1_v3-15.mtl
usemtl palette

# normals
vn -1 0 0
vn 1 0 0
vn 0 0 1
vn 0 0 -1
vn 0 -1 0
vn 0 1 0

# texcoords
vt 0.923828 0.5
vt 0.978516 0.5

# verts
v 0.1 2.7 0.1
v 0.1 2.7 -1.3
v 0.1 2.7 -1.4
v 0.1 2.8 -1.2
v 0.1 2.8 -1.3
v 0.1 2.8 -1.4
v 0.1 2.9 -1.1
v 0.1 2.9 -1.2
v 0.1 2.9 -1.3
v 0.1 3 -1
v 0.1 3 -1.1
v 0.1 3 -1.2
v 0.1 3.1 -0.9
v 0.1 3.1 -1
v 0.1 3.1 -1.1
v 0.1 3.2 -0.8
v 0.1 3.2 -0.9
v 0.1 3.2 -1
v 0.1 3.3 0.1
v 0.1 3.3 -0.8
v 0.1 3.3 -0.9
v 1.2 2.7 0.1
v 1.2 2.7 -1.3
v 1.2 2.7 -1.4
v 1.2 2.8 -1.2
v 1.2 2.8 -1.3
v 1.2 2.8 -1.4
v 1.2 2.9 -1.1
v 1.2 2.9 -1.2
v 1.2 2.9 -1.3
v 1.2 3 -1
v 1.2 3 -1.1
v 1.2 3 -1.2
v 1.2 3.1 -0.9
v 1.2 3.1 -1
v 1.2 3.1 -1.1
v 1.2 3.2 -0.8
v 1.2 3.2 -0.9
v 1.2 3.2 -1
v 1.2 3.3 0.1
v 1.2 3.3 -0.8
v 1.2 3.3 -0.9
v 0.1 2.7 0.1
v 0.1 3.3 0.1
v 1.2 2.7 0.1
v 1.2 3.3 0.1
v 0.1 3.2 -0.9
v 0.1 3.3 -0.9
v 1.2 3.2 -0.9
v 1.2 3.3 -0.9
v 0.1 3.1 -1
v 0.1 3.2 -1
v 1.2 3.1 -1
v 1.2 3.2 -1
v 0.1 3 -1.1
v 0.1 3.1 -1.1
v 1.2 3 -1.1
v 1.2 3.1 -1.1
v 0.1 2.9 -1.2
v 0.1 3 -1.2
v 1.2 2.9 -1.2
v 1.2 3 -1.2
v 0.1 2.8 -1.3
v 0.1 2.9 -1.3
v 1.2 2.8 -1.3
v 1.2 2.9 -1.3
v 0.1 2.7 -1.4
v 0.1 2.8 -1.4
v 1.2 2.7 -1.4
v 1.2 2.8 -1.4
v 0.1 2.7 0.1
v 1.2 2.7 0.1
v 0.1 2.7 -1.3
v 1.2 2.7 -1.3
v 0.1 2.7 -1.4
v 1.2 2.7 -1.4
v 0.1 2.8 -1.3
v 1.2 2.8 -1.3
v 0.1 2.8 -1.4
v 1.2 2.8 -1.4
v 0.1 2.9 -1.2
v 1.2 2.9 -1.2
v 0.1 2.9 -1.3
v 1.2 2.9 -1.3
v 0.1 3 -1.1
v 1.2 3 -1.1
v 0.1 3 -1.2
v 1.2 3 -1.2
v 0.1 3.1 -1
v 1.2 3.1 -1
v 0.1 3.1 -1.1
v 1.2 3.1 -1.1
v 0.1 3.2 -0.9
v 1.2 3.2 -0.9
v 0.1 3.2 -1
v 1.2 3.2 -1
v 0.1 3.3 0.1
v 1.2 3.3 0.1
v 0.1 3.3 -0.8
v 1.2 3.3 -0.8
v 0.1 3.3 -0.9
v 1.2 3.3 -0.9

# faces
f 4/1/1 2/1/1 1/1/1
f 5/2/1 3/2/1 2/2/1
f 5/1/1 2/1/1 4/1/1
f 6/2/1 3/2/1 5/2/1
f 7/1/1 4/1/1 1/1/1
f 8/2/1 5/2/1 4/2/1
f 8/1/1 4/1/1 7/1/1
f 9/2/1 5/2/1 8/2/1
f 10/1/1 7/1/1 1/1/1
f 11/2/1 8/2/1 7/2/1
f 11/1/1 7/1/1 10/1/1
f 12/2/1 8/2/1 11/2/1
f 13/1/1 10/1/1 1/1/1
f 14/2/1 11/2/1 10/2/1
f 14/1/1 10/1/1 13/1/1
f 15/2/1 11/2/1 14/2/1
f 16/1/1 13/1/1 1/1/1
f 17/2/1 14/2/1 13/2/1
f 17/1/1 13/1/1 16/1/1
f 18/2/1 14/2/1 17/2/1
f 19/1/1 16/1/1 1/1/1
f 20/2/1 17/2/1 16/2/1
f 20/1/1 16/1/1 19/1/1
f 21/2/1 17/2/1 20/2/1
f 22/1/2 23/1/2 25/1/2
f 23/2/2 24/2/2 26/2/2
f 25/1/2 23/1/2 26/1/2
f 26/2/2 24/2/2 27/2/2
f 22/1/2 25/1/2 28/1/2
f 25/2/2 26/2/2 29/2/2
f 28/1/2 25/1/2 29/1/2
f 29/2/2 26/2/2 30/2/2
f 22/1/2 28/1/2 31/1/2
f 28/2/2 29/2/2 32/2/2
f 31/1/2 28/1/2 32/1/2
f 32/2/2 29/2/2 33/2/2
f 22/1/2 31/1/2 34/1/2
f 31/2/2 32/2/2 35/2/2
f 34/1/2 31/1/2 35/1/2
f 35/2/2 32/2/2 36/2/2
f 22/1/2 34/1/2 37/1/2
f 34/2/2 35/2/2 38/2/2
f 37/1/2 34/1/2 38/1/2
f 38/2/2 35/2/2 39/2/2
f 22/1/2 37/1/2 40/1/2
f 37/2/2 38/2/2 41/2/2
f 40/1/2 37/1/2 41/1/2
f 41/2/2 38/2/2 42/2/2
f 45/1/3 44/1/3 43/1/3
f 46/1/3 44/1/3 45/1/3
f 47/2/4 48/2/4 49/2/4
f 49/2/4 48/2/4 50/2/4
f 51/2/4 52/2/4 53/2/4
f 53/2/4 52/2/4 54/2/4
f 55/2/4 56/2/4 57/2/4
f 57/2/4 56/2/4 58/2/4
f 59/2/4 60/2/4 61/2/4
f 61/2/4 60/2/4 62/2/4
f 63/2/4 64/2/4 65/2/4
f 65/2/4 64/2/4 66/2/4
f 67/2/4 68/2/4 69/2/4
f 69/2/4 68/2/4 70/2/4
f 73/1/5 72/1/5 71/1/5
f 74/1/5 72/1/5 73/1/5
f 75/2/5 74/2/5 73/2/5
f 76/2/5 74/2/5 75/2/5
f 77/2/6 78/2/6 79/2/6
f 79/2/6 78/2/6 80/2/6
f 81/2/6 82/2/6 83/2/6
f 83/2/6 82/2/6 84/2/6
f 85/2/6 86/2/6 87/2/6
f 87/2/6 86/2/6 88/2/6
f 89/2/6 90/2/6 91/2/6
f 91/2/6 90/2/6 92/2/6
f 93/2/6 94/2/6 95/2/6
f 95/2/6 94/2/6 96/2/6
f 97/1/6 98/1/6 99/1/6
f 99/1/6 98/1/6 100/1/6
f 99/2/6 100/2/6 101/2/6
f 101/2/6 100/2/6 102/2/6
