# MagicaVoxel @ Ephtracy

# group
o 

# material
mtllib house-1_v3-110.mtl
usemtl palette

# normals
vn -1 0 0
vn 1 0 0
vn 0 0 1
vn 0 0 -1
vn 0 -1 0
vn 0 1 0

# texcoords
vt 0.505859 0.5
vt 0.529297 0.5
vt 0.892578 0.5
vt 0.916016 0.5
vt 0.923828 0.5
vt 0.958984 0.5
vt 0.994141 0.5

# verts
v -1.6 0 2.2
v -1.6 0 1.4
v -1.6 0.3 2.2
v -1.6 0.3 2.1
v -1.6 0.3 1.4
v -1.6 0.4 2.2
v -1.6 0.4 2.1
v -1.6 0.4 2
v -1.6 0.7 2.2
v -1.6 0.7 2
v -1.6 0.7 1.4
v -1 0.4 2.2
v -1 0.4 2.1
v -1 0.5 2.1
v -1 0.7 2.2
v -1 0.7 2.1
v -1.5 0.4 2.2
v -1.5 0.4 2.1
v -1.5 0.7 2.2
v -1.5 0.7 2.1
v -0.9 0.4 2.2
v -0.9 0.4 2.1
v -0.9 0.5 2.2
v -0.9 0.5 2.1
v -0.8 0.5 2.2
v -0.8 0.5 2.1
v -0.8 0.7 2.2
v -0.8 0.7 2.1
v -0.7 0 2.2
v -0.7 0 1.4
v -0.7 0.3 2.2
v -0.7 0.3 2.1
v -0.7 0.3 1.4
v -0.7 0.7 2.1
v -0.7 0.7 1.4
v -1.6 0 2.2
v -1.6 0.3 2.2
v -1.6 0.4 2.2
v -1.6 0.7 2.2
v -1.5 0.4 2.2
v -1.5 0.7 2.2
v -1 0.4 2.2
v -1 0.7 2.2
v -0.9 0.4 2.2
v -0.9 0.5 2.2
v -0.8 0.5 2.2
v -0.8 0.7 2.2
v -0.7 0 2.2
v -0.7 0.3 2.2
v -1.6 0.3 2.1
v -1.6 0.4 2.1
v -1.5 0.4 2.1
v -1.5 0.7 2.1
v -1.4 0.3 2.1
v -1.4 0.4 2.1
v -1.4 0.5 2.1
v -1.4 0.6 2.1
v -1.3 0.3 2.1
v -1.3 0.4 2.1
v -1.2 0.4 2.1
v -1.2 0.5 2.1
v -1.2 0.6 2.1
v -1.1 0.3 2.1
v -1.1 0.4 2.1
v -1 0.3 2.1
v -1 0.4 2.1
v -1 0.5 2.1
v -1 0.7 2.1
v -0.9 0.4 2.1
v -0.9 0.5 2.1
v -0.8 0.5 2.1
v -0.8 0.7 2.1
v -0.7 0.3 2.1
v -0.7 0.7 2.1
v -1.6 0 1.4
v -1.6 0.3 1.4
v -1.6 0.7 1.4
v -0.7 0 1.4
v -0.7 0.3 1.4
v -0.7 0.7 1.4
v -1.6 0 2.2
v -0.7 0 2.2
v -1.6 0 1.4
v -0.7 0 1.4
v -1.6 0.4 2.2
v -1.5 0.4 2.2
v -1 0.4 2.2
v -0.9 0.4 2.2
v -1.6 0.4 2.1
v -1.5 0.4 2.1
v -1 0.4 2.1
v -0.9 0.4 2.1
v -0.9 0.5 2.2
v -0.8 0.5 2.2
v -0.9 0.5 2.1
v -0.8 0.5 2.1
v -1.6 0.3 2.2
v -0.7 0.3 2.2
v -1.6 0.3 2.1
v -1.4 0.3 2.1
v -1.3 0.3 2.1
v -1.1 0.3 2.1
v -1 0.3 2.1
v -0.7 0.3 2.1
v -1.6 0.7 2.2
v -1.5 0.7 2.2
v -1 0.7 2.2
v -0.8 0.7 2.2
v -1.5 0.7 2.1
v -1 0.7 2.1
v -0.8 0.7 2.1
v -0.7 0.7 2.1
v -1.6 0.7 2
v -1.5 0.7 2
v -1 0.7 2
v -0.8 0.7 2
v -1.6 0.7 1.4
v -0.7 0.7 1.4

# faces
f 3/2/1 2/2/1 1/2/1
f 4/2/1 2/2/1 3/2/1
f 5/2/1 2/2/1 4/2/1
f 7/5/1 5/5/1 4/5/1
f 8/5/1 5/5/1 7/5/1
f 9/1/1 7/1/1 6/1/1
f 9/1/1 8/1/1 7/1/1
f 10/5/1 5/5/1 8/5/1
f 10/1/1 8/1/1 9/1/1
f 11/5/1 5/5/1 10/5/1
f 14/1/1 13/1/1 12/1/1
f 15/1/1 14/1/1 12/1/1
f 16/1/1 14/1/1 15/1/1
f 17/1/2 18/1/2 19/1/2
f 19/1/2 18/1/2 20/1/2
f 21/1/2 22/1/2 23/1/2
f 23/1/2 22/1/2 24/1/2
f 25/1/2 26/1/2 27/1/2
f 27/1/2 26/1/2 28/1/2
f 29/2/2 30/2/2 31/2/2
f 31/2/2 30/2/2 32/2/2
f 32/2/2 30/2/2 33/2/2
f 32/5/2 33/5/2 34/5/2
f 34/5/2 33/5/2 35/5/2
f 40/1/3 39/1/3 38/1/3
f 41/1/3 39/1/3 40/1/3
f 44/1/3 43/1/3 42/1/3
f 45/1/3 43/1/3 44/1/3
f 46/1/3 43/1/3 45/1/3
f 47/1/3 43/1/3 46/1/3
f 48/2/3 37/2/3 36/2/3
f 49/2/3 37/2/3 48/2/3
f 52/5/3 51/5/3 50/5/3
f 54/5/3 52/5/3 50/5/3
f 55/7/3 53/7/3 52/7/3
f 55/5/3 52/5/3 54/5/3
f 56/7/3 53/7/3 55/7/3
f 57/7/3 53/7/3 56/7/3
f 58/3/3 55/3/3 54/3/3
f 59/7/3 56/7/3 55/7/3
f 59/3/3 55/3/3 58/3/3
f 60/4/3 59/4/3 58/4/3
f 60/7/3 56/7/3 59/7/3
f 61/6/3 57/6/3 56/6/3
f 61/7/3 56/7/3 60/7/3
f 62/7/3 53/7/3 57/7/3
f 62/6/3 57/6/3 61/6/3
f 63/4/3 60/4/3 58/4/3
f 64/6/3 61/6/3 60/6/3
f 64/4/3 60/4/3 63/4/3
f 65/3/3 64/3/3 63/3/3
f 66/6/3 61/6/3 64/6/3
f 66/3/3 64/3/3 65/3/3
f 67/7/3 62/7/3 61/7/3
f 67/6/3 61/6/3 66/6/3
f 68/7/3 53/7/3 62/7/3
f 68/7/3 62/7/3 67/7/3
f 69/5/3 66/5/3 65/5/3
f 71/5/3 70/5/3 69/5/3
f 73/5/3 69/5/3 65/5/3
f 73/5/3 72/5/3 71/5/3
f 73/5/3 71/5/3 69/5/3
f 74/5/3 72/5/3 73/5/3
f 75/2/4 76/2/4 78/2/4
f 76/5/4 77/5/4 79/5/4
f 78/2/4 76/2/4 79/2/4
f 79/5/4 77/5/4 80/5/4
f 83/2/5 82/2/5 81/2/5
f 84/2/5 82/2/5 83/2/5
f 89/1/5 86/1/5 85/1/5
f 90/1/5 86/1/5 89/1/5
f 91/1/5 88/1/5 87/1/5
f 92/1/5 88/1/5 91/1/5
f 95/1/5 94/1/5 93/1/5
f 96/1/5 94/1/5 95/1/5
f 97/2/6 98/2/6 99/2/6
f 99/2/6 98/2/6 100/2/6
f 100/2/6 98/2/6 101/2/6
f 101/2/6 98/2/6 102/2/6
f 102/2/6 98/2/6 103/2/6
f 103/2/6 98/2/6 104/2/6
f 105/1/6 106/1/6 109/1/6
f 107/1/6 108/1/6 110/1/6
f 110/1/6 108/1/6 111/1/6
f 105/1/6 109/1/6 113/1/6
f 109/7/6 110/7/6 114/7/6
f 113/1/6 109/1/6 114/1/6
f 110/1/6 111/1/6 115/1/6
f 114/7/6 110/7/6 115/7/6
f 111/5/6 112/5/6 116/5/6
f 115/1/6 111/1/6 116/1/6
f 114/5/6 115/5/6 117/5/6
f 113/5/6 114/5/6 117/5/6
f 115/5/6 116/5/6 117/5/6
f 116/5/6 112/5/6 118/5/6
f 117/5/6 116/5/6 118/5/6
