# MagicaVoxel @ Ephtracy

# group
o 

# material
mtllib house-1_v3-10.mtl
usemtl palette

# normals
vn -1 0 0
vn 1 0 0
vn 0 0 1
vn 0 0 -1
vn 0 -1 0
vn 0 1 0

# texcoords
vt 0.923828 0.5
vt 0.978516 0.5

# verts
v 1.3 3.3 -0.1
v 1.3 3.3 -0.7
v 1.3 3.3 -0.8
v 1.3 3.4 -0.6
v 1.3 3.4 -0.7
v 1.3 3.4 -0.8
v 1.3 3.5 -0.5
v 1.3 3.5 -0.6
v 1.3 3.5 -0.7
v 1.3 3.6 -0.1
v 1.3 3.6 -0.5
v 1.3 3.6 -0.6
v 2.1 3.3 -0.1
v 2.1 3.3 -0.7
v 2.1 3.3 -0.8
v 2.1 3.4 -0.6
v 2.1 3.4 -0.7
v 2.1 3.4 -0.8
v 2.1 3.5 -0.5
v 2.1 3.5 -0.6
v 2.1 3.5 -0.7
v 2.1 3.6 -0.1
v 2.1 3.6 -0.5
v 2.1 3.6 -0.6
v 1.3 3.3 -0.1
v 1.3 3.6 -0.1
v 2.1 3.3 -0.1
v 2.1 3.6 -0.1
v 1.3 3.5 -0.6
v 1.3 3.6 -0.6
v 2.1 3.5 -0.6
v 2.1 3.6 -0.6
v 1.3 3.4 -0.7
v 1.3 3.5 -0.7
v 2.1 3.4 -0.7
v 2.1 3.5 -0.7
v 1.3 3.3 -0.8
v 1.3 3.4 -0.8
v 2.1 3.3 -0.8
v 2.1 3.4 -0.8
v 1.3 3.3 -0.1
v 2.1 3.3 -0.1
v 1.3 3.3 -0.7
v 2.1 3.3 -0.7
v 1.3 3.3 -0.8
v 2.1 3.3 -0.8
v 1.3 3.4 -0.7
v 2.1 3.4 -0.7
v 1.3 3.4 -0.8
v 2.1 3.4 -0.8
v 1.3 3.5 -0.6
v 2.1 3.5 -0.6
v 1.3 3.5 -0.7
v 2.1 3.5 -0.7
v 1.3 3.6 -0.1
v 2.1 3.6 -0.1
v 1.3 3.6 -0.5
v 2.1 3.6 -0.5
v 1.3 3.6 -0.6
v 2.1 3.6 -0.6

# faces
f 4/1/1 2/1/1 1/1/1
f 5/2/1 3/2/1 2/2/1
f 5/1/1 2/1/1 4/1/1
f 6/2/1 3/2/1 5/2/1
f 7/1/1 4/1/1 1/1/1
f 8/2/1 5/2/1 4/2/1
f 8/1/1 4/1/1 7/1/1
f 9/2/1 5/2/1 8/2/1
f 10/1/1 7/1/1 1/1/1
f 11/2/1 8/2/1 7/2/1
f 11/1/1 7/1/1 10/1/1
f 12/2/1 8/2/1 11/2/1
f 13/1/2 14/1/2 16/1/2
f 14/2/2 15/2/2 17/2/2
f 16/1/2 14/1/2 17/1/2
f 17/2/2 15/2/2 18/2/2
f 13/1/2 16/1/2 19/1/2
f 16/2/2 17/2/2 20/2/2
f 19/1/2 16/1/2 20/1/2
f 20/2/2 17/2/2 21/2/2
f 13/1/2 19/1/2 22/1/2
f 19/2/2 20/2/2 23/2/2
f 22/1/2 19/1/2 23/1/2
f 23/2/2 20/2/2 24/2/2
f 27/1/3 26/1/3 25/1/3
f 28/1/3 26/1/3 27/1/3
f 29/2/4 30/2/4 31/2/4
f 31/2/4 30/2/4 32/2/4
f 33/2/4 34/2/4 35/2/4
f 35/2/4 34/2/4 36/2/4
f 37/2/4 38/2/4 39/2/4
f 39/2/4 38/2/4 40/2/4
f 43/1/5 42/1/5 41/1/5
f 44/1/5 42/1/5 43/1/5
f 45/2/5 44/2/5 43/2/5
f 46/2/5 44/2/5 45/2/5
f 47/2/6 48/2/6 49/2/6
f 49/2/6 48/2/6 50/2/6
f 51/2/6 52/2/6 53/2/6
f 53/2/6 52/2/6 54/2/6
f 55/1/6 56/1/6 57/1/6
f 57/1/6 56/1/6 58/1/6
f 57/2/6 58/2/6 59/2/6
f 59/2/6 58/2/6 60/2/6
