# MagicaVoxel @ Ephtracy

# group
o 

# material
mtllib house-1_v3-92.mtl
usemtl palette

# normals
vn -1 0 0
vn 1 0 0
vn 0 0 1
vn 0 0 -1
vn 0 -1 0
vn 0 1 0

# texcoords
vt 0.271484 0.5
vt 0.521484 0.5
vt 0.529297 0.5
vt 0.892578 0.5
vt 0.916016 0.5
vt 0.923828 0.5

# verts
v -0.7 0 2.2
v -0.7 0 1.4
v -0.7 0 1.3
v -0.7 0.1 1.4
v -0.7 0.1 1.3
v -0.7 0.3 2.2
v -0.7 0.3 2.1
v -0.7 0.3 2
v -0.7 0.3 1.4
v -0.7 0.4 2.1
v -0.7 0.4 2
v -0.7 0.7 2.1
v -0.7 0.7 1.4
v 0.1 0.1 1.4
v 0.1 0.1 1.3
v 0.1 0.3 1.4
v 0.1 0.7 1.4
v 0.1 0.7 1.3
v 0 0.3 2.1
v 0 0.3 2
v 0 0.3 1.5
v 0 0.4 2.1
v 0 0.4 2
v 0 0.4 1.7
v 0 0.4 1.6
v 0 0.5 1.7
v 0 0.5 1.6
v 0 0.6 1.9
v 0 0.6 1.7
v 0 0.7 2.1
v 0 0.7 1.9
v 0 0.7 1.7
v 0 0.7 1.5
v 0.1 0 2.2
v 0.1 0 1.5
v 0.1 0.1 1.5
v 0.1 0.3 2.2
v 0.1 0.3 1.5
v 0.2 0 1.5
v 0.2 0 1.4
v 0.2 0 1.3
v 0.2 0.1 1.5
v 0.2 0.1 1.4
v 0.2 0.1 1.3
v 0.2 0.7 1.5
v 0.2 0.7 1.3
v -0.7 0 2.2
v -0.7 0.3 2.2
v 0.1 0 2.2
v 0.1 0.3 2.2
v -0.7 0.3 2.1
v -0.7 0.4 2.1
v -0.7 0.7 2.1
v -0.6 0.4 2.1
v -0.6 0.5 2.1
v -0.5 0.3 2.1
v -0.5 0.4 2.1
v -0.4 0.4 2.1
v -0.4 0.5 2.1
v -0.3 0.3 2.1
v -0.3 0.4 2.1
v -0.3 0.6 2.1
v -0.3 0.7 2.1
v -0.2 0.4 2.1
v -0.2 0.5 2.1
v -0.1 0.4 2.1
v -0.1 0.5 2.1
v -0.1 0.6 2.1
v -0.1 0.7 2.1
v 0 0.3 2.1
v 0 0.4 2.1
v 0 0.7 2.1
v 0 0.3 1.5
v 0 0.7 1.5
v 0.1 0 1.5
v 0.1 0.1 1.5
v 0.1 0.3 1.5
v 0.1 0.7 1.5
v 0.2 0 1.5
v 0.2 0.1 1.5
v 0.2 0.7 1.5
v -0.7 0.1 1.4
v -0.7 0.3 1.4
v -0.7 0.7 1.4
v 0.1 0.1 1.4
v 0.1 0.3 1.4
v 0.1 0.7 1.4
v -0.7 0 1.3
v -0.7 0.1 1.3
v 0.1 0.1 1.3
v 0.1 0.7 1.3
v 0.2 0 1.3
v 0.2 0.1 1.3
v 0.2 0.7 1.3
v -0.7 0 2.2
v 0.1 0 2.2
v 0.1 0 1.5
v 0.2 0 1.5
v -0.7 0 1.4
v 0.2 0 1.4
v -0.7 0 1.3
v 0.2 0 1.3
v -0.7 0.1 1.4
v 0.1 0.1 1.4
v -0.7 0.1 1.3
v 0.1 0.1 1.3
v -0.7 0.3 2.2
v 0.1 0.3 2.2
v -0.7 0.3 2.1
v -0.5 0.3 2.1
v -0.3 0.3 2.1
v 0 0.3 2.1
v 0 0.3 2
v 0 0.3 1.5
v 0.1 0.3 1.5
v -0.7 0.7 2.1
v -0.3 0.7 2.1
v -0.1 0.7 2.1
v 0 0.7 2.1
v -0.3 0.7 2
v -0.1 0.7 2
v -0.1 0.7 1.9
v 0 0.7 1.9
v -0.1 0.7 1.7
v 0 0.7 1.7
v 0 0.7 1.5
v 0.1 0.7 1.5
v 0.2 0.7 1.5
v -0.7 0.7 1.4
v 0.1 0.7 1.4
v 0.1 0.7 1.3
v 0.2 0.7 1.3

# faces
f 4/3/1 2/3/1 1/3/1
f 4/1/1 3/1/1 2/1/1
f 5/1/1 3/1/1 4/1/1
f 6/3/1 4/3/1 1/3/1
f 7/3/1 4/3/1 6/3/1
f 8/3/1 4/3/1 7/3/1
f 9/3/1 4/3/1 8/3/1
f 10/5/1 8/5/1 7/5/1
f 11/6/1 9/6/1 8/6/1
f 11/5/1 8/5/1 10/5/1
f 12/6/1 11/6/1 10/6/1
f 13/6/1 9/6/1 11/6/1
f 13/6/1 11/6/1 12/6/1
f 16/2/1 15/2/1 14/2/1
f 17/2/1 15/2/1 16/2/1
f 18/2/1 15/2/1 17/2/1
f 19/4/2 20/4/2 22/4/2
f 20/6/2 21/6/2 23/6/2
f 22/4/2 20/4/2 23/4/2
f 23/6/2 21/6/2 24/6/2
f 24/6/2 21/6/2 25/6/2
f 22/6/2 23/6/2 26/6/2
f 23/6/2 24/6/2 26/6/2
f 24/5/2 25/5/2 26/5/2
f 25/6/2 21/6/2 27/6/2
f 26/5/2 25/5/2 27/5/2
f 22/6/2 26/6/2 28/6/2
f 26/6/2 27/6/2 28/6/2
f 28/6/2 27/6/2 29/6/2
f 22/6/2 28/6/2 30/6/2
f 28/5/2 29/5/2 31/5/2
f 30/6/2 28/6/2 31/6/2
f 29/6/2 27/6/2 32/6/2
f 31/5/2 29/5/2 32/5/2
f 27/6/2 21/6/2 33/6/2
f 32/6/2 27/6/2 33/6/2
f 34/3/2 35/3/2 36/3/2
f 34/3/2 36/3/2 37/3/2
f 37/3/2 36/3/2 38/3/2
f 39/3/2 40/3/2 42/3/2
f 40/1/2 41/1/2 43/1/2
f 42/3/2 40/3/2 43/3/2
f 43/1/2 41/1/2 44/1/2
f 42/2/2 43/2/2 45/2/2
f 43/2/2 44/2/2 45/2/2
f 45/2/2 44/2/2 46/2/2
f 49/3/3 48/3/3 47/3/3
f 50/3/3 48/3/3 49/3/3
f 54/5/3 52/5/3 51/5/3
f 54/6/3 53/6/3 52/6/3
f 55/6/3 53/6/3 54/6/3
f 56/5/3 54/5/3 51/5/3
f 57/4/3 55/4/3 54/4/3
f 57/5/3 54/5/3 56/5/3
f 58/6/3 57/6/3 56/6/3
f 58/4/3 55/4/3 57/4/3
f 59/6/3 53/6/3 55/6/3
f 59/4/3 55/4/3 58/4/3
f 60/6/3 58/6/3 56/6/3
f 60/6/3 59/6/3 58/6/3
f 61/6/3 59/6/3 60/6/3
f 62/6/3 53/6/3 59/6/3
f 62/6/3 59/6/3 61/6/3
f 63/6/3 53/6/3 62/6/3
f 64/4/3 61/4/3 60/4/3
f 64/6/3 62/6/3 61/6/3
f 65/6/3 62/6/3 64/6/3
f 66/4/3 64/4/3 60/4/3
f 66/5/3 65/5/3 64/5/3
f 67/6/3 62/6/3 65/6/3
f 67/5/3 65/5/3 66/5/3
f 68/4/3 63/4/3 62/4/3
f 68/6/3 62/6/3 67/6/3
f 69/4/3 63/4/3 68/4/3
f 70/4/3 66/4/3 60/4/3
f 71/6/3 67/6/3 66/6/3
f 71/4/3 66/4/3 70/4/3
f 71/6/3 68/6/3 67/6/3
f 71/6/3 69/6/3 68/6/3
f 72/6/3 69/6/3 71/6/3
f 77/6/3 74/6/3 73/6/3
f 78/6/3 74/6/3 77/6/3
f 79/3/3 76/3/3 75/3/3
f 80/2/3 77/2/3 76/2/3
f 80/3/3 76/3/3 79/3/3
f 80/2/3 78/2/3 77/2/3
f 81/2/3 78/2/3 80/2/3
f 82/3/4 83/3/4 85/3/4
f 83/6/4 84/6/4 86/6/4
f 85/3/4 83/3/4 86/3/4
f 86/6/4 84/6/4 87/6/4
f 88/1/4 89/1/4 90/1/4
f 88/1/4 90/1/4 92/1/4
f 90/2/4 91/2/4 93/2/4
f 92/1/4 90/1/4 93/1/4
f 93/2/4 91/2/4 94/2/4
f 97/3/5 96/3/5 95/3/5
f 99/3/5 97/3/5 95/3/5
f 99/3/5 98/3/5 97/3/5
f 100/3/5 98/3/5 99/3/5
f 101/1/5 100/1/5 99/1/5
f 102/1/5 100/1/5 101/1/5
f 103/1/6 104/1/6 105/1/6
f 105/1/6 104/1/6 106/1/6
f 107/3/6 108/3/6 109/3/6
f 109/3/6 108/3/6 110/3/6
f 110/3/6 108/3/6 111/3/6
f 111/3/6 108/3/6 112/3/6
f 112/3/6 108/3/6 113/3/6
f 113/3/6 108/3/6 114/3/6
f 114/3/6 108/3/6 115/3/6
f 116/6/6 117/6/6 120/6/6
f 117/4/6 118/4/6 120/4/6
f 118/6/6 119/6/6 121/6/6
f 120/4/6 118/4/6 121/4/6
f 120/6/6 121/6/6 122/6/6
f 121/6/6 119/6/6 122/6/6
f 122/6/6 119/6/6 123/6/6
f 120/6/6 122/6/6 124/6/6
f 122/5/6 123/5/6 124/5/6
f 124/5/6 123/5/6 125/5/6
f 124/6/6 125/6/6 126/6/6
f 116/6/6 120/6/6 129/6/6
f 124/6/6 126/6/6 129/6/6
f 126/6/6 127/6/6 129/6/6
f 120/6/6 124/6/6 129/6/6
f 127/2/6 128/2/6 130/2/6
f 129/6/6 127/6/6 130/6/6
f 130/2/6 128/2/6 131/2/6
f 131/2/6 128/2/6 132/2/6
