# MagicaVoxel @ Ephtracy

# group
o 

# material
mtllib house-1_v3-102.mtl
usemtl palette

# normals
vn -1 0 0
vn 1 0 0
vn 0 0 1
vn 0 0 -1
vn 0 -1 0
vn 0 1 0

# texcoords
vt 0.271484 0.5
vt 0.505859 0.5
vt 0.529297 0.5
vt 0.892578 0.5
vt 0.916016 0.5
vt 0.923828 0.5
vt 0.958984 0.5
vt 0.994141 0.5

# verts
v -2.9 0 0.9
v -2.9 0 0.1
v -2.9 0.3 0.9
v -2.9 0.3 0.1
v -2.9 0.4 0.8
v -2.9 0.4 0.7
v -2.9 0.5 0.7
v -2.9 0.5 0.6
v -2.9 0.7 0.8
v -2.9 0.7 0.6
v -2.8 0.3 0.9
v -2.8 0.3 0.5
v -2.8 0.3 0.3
v -2.8 0.3 0.1
v -2.8 0.4 0.9
v -2.8 0.4 0.8
v -2.8 0.4 0.7
v -2.8 0.4 0.5
v -2.8 0.4 0.4
v -2.8 0.4 0.3
v -2.8 0.4 0.1
v -2.8 0.5 0.9
v -2.8 0.5 0.8
v -2.8 0.5 0.7
v -2.8 0.5 0.6
v -2.8 0.5 0.5
v -2.8 0.5 0.4
v -2.8 0.5 0.3
v -2.8 0.6 0.6
v -2.8 0.6 0.5
v -2.8 0.6 0.4
v -2.8 0.6 0.3
v -2.8 0.6 0.1
v -2.8 0.7 0.9
v -2.8 0.7 0.8
v -2.8 0.7 0.6
v -2.8 0.7 0.5
v -2.8 0.7 0.3
v -2.8 0.7 0.1
v -2.7 0.1 0.9
v -2.7 0.1 0.1
v -2.7 0.3 0.9
v -2.7 0.3 0.5
v -2.7 0.3 0.3
v -2.7 0.3 0.1
v -2.7 0.4 0.9
v -2.7 0.4 0.8
v -2.7 0.4 0.5
v -2.7 0.4 0.4
v -2.7 0.4 0.3
v -2.7 0.4 0.1
v -2.7 0.5 0.9
v -2.7 0.5 0.8
v -2.7 0.5 0.6
v -2.7 0.5 0.5
v -2.7 0.5 0.4
v -2.7 0.5 0.3
v -2.7 0.6 0.6
v -2.7 0.6 0.5
v -2.7 0.6 0.4
v -2.7 0.6 0.3
v -2.7 0.6 0.1
v -2.7 0.7 0.9
v -2.7 0.7 0.8
v -2.7 0.7 0.5
v -2.7 0.7 0.3
v -2.7 0.7 0.1
v -2.3 0 0.9
v -2.3 0 0.1
v -2.3 0.1 0.9
v -2.3 0.1 0.1
v -2.9 0 0.9
v -2.9 0.3 0.9
v -2.8 0.3 0.9
v -2.8 0.4 0.9
v -2.8 0.5 0.9
v -2.8 0.7 0.9
v -2.7 0 0.9
v -2.7 0.1 0.9
v -2.7 0.3 0.9
v -2.7 0.4 0.9
v -2.7 0.5 0.9
v -2.7 0.7 0.9
v -2.3 0 0.9
v -2.3 0.1 0.9
v -2.9 0.4 0.8
v -2.9 0.7 0.8
v -2.8 0.4 0.8
v -2.8 0.5 0.8
v -2.8 0.7 0.8
v -2.9 0.4 0.7
v -2.9 0.5 0.7
v -2.8 0.4 0.7
v -2.8 0.5 0.7
v -2.9 0.5 0.6
v -2.9 0.7 0.6
v -2.8 0.5 0.6
v -2.8 0.6 0.6
v -2.8 0.7 0.6
v -2.9 0 0.1
v -2.9 0.3 0.1
v -2.8 0.3 0.1
v -2.8 0.4 0.1
v -2.8 0.6 0.1
v -2.8 0.7 0.1
v -2.7 0 0.1
v -2.7 0.1 0.1
v -2.7 0.3 0.1
v -2.7 0.4 0.1
v -2.7 0.6 0.1
v -2.7 0.7 0.1
v -2.3 0 0.1
v -2.3 0.1 0.1
v -2.9 0 0.9
v -2.7 0 0.9
v -2.3 0 0.9
v -2.9 0 0.1
v -2.7 0 0.1
v -2.3 0 0.1
v -2.9 0.4 0.8
v -2.8 0.4 0.8
v -2.9 0.4 0.7
v -2.8 0.4 0.7
v -2.9 0.5 0.7
v -2.8 0.5 0.7
v -2.9 0.5 0.6
v -2.8 0.5 0.6
v -2.7 0.1 0.9
v -2.3 0.1 0.9
v -2.7 0.1 0.1
v -2.3 0.1 0.1
v -2.9 0.3 0.9
v -2.8 0.3 0.9
v -2.8 0.3 0.5
v -2.8 0.3 0.3
v -2.9 0.3 0.1
v -2.8 0.3 0.1
v -2.8 0.7 0.9
v -2.7 0.7 0.9
v -2.9 0.7 0.8
v -2.8 0.7 0.8
v -2.7 0.7 0.8
v -2.9 0.7 0.6
v -2.8 0.7 0.6
v -2.8 0.7 0.5
v -2.7 0.7 0.5
v -2.8 0.7 0.3
v -2.7 0.7 0.3
v -2.8 0.7 0.1
v -2.7 0.7 0.1

# faces
f 3/3/1 2/3/1 1/3/1
f 4/3/1 2/3/1 3/3/1
f 7/2/1 6/2/1 5/2/1
f 9/2/1 7/2/1 5/2/1
f 9/2/1 8/2/1 7/2/1
f 10/2/1 8/2/1 9/2/1
f 15/6/1 12/6/1 11/6/1
f 16/6/1 12/6/1 15/6/1
f 17/6/1 12/6/1 16/6/1
f 18/5/1 13/5/1 12/5/1
f 18/6/1 12/6/1 17/6/1
f 19/5/1 13/5/1 18/5/1
f 20/6/1 14/6/1 13/6/1
f 20/5/1 13/5/1 19/5/1
f 21/6/1 14/6/1 20/6/1
f 22/7/1 16/7/1 15/7/1
f 23/7/1 16/7/1 22/7/1
f 24/6/1 18/6/1 17/6/1
f 25/6/1 18/6/1 24/6/1
f 26/4/1 19/4/1 18/4/1
f 26/6/1 18/6/1 25/6/1
f 27/5/1 21/5/1 20/5/1
f 27/4/1 19/4/1 26/4/1
f 27/5/1 20/5/1 19/5/1
f 28/5/1 21/5/1 27/5/1
f 29/4/1 26/4/1 25/4/1
f 29/4/1 27/4/1 26/4/1
f 30/4/1 27/4/1 29/4/1
f 31/6/1 28/6/1 27/6/1
f 31/4/1 27/4/1 30/4/1
f 32/5/1 21/5/1 28/5/1
f 32/6/1 28/6/1 31/6/1
f 33/5/1 21/5/1 32/5/1
f 34/8/1 23/8/1 22/8/1
f 35/8/1 23/8/1 34/8/1
f 36/6/1 30/6/1 29/6/1
f 37/4/1 31/4/1 30/4/1
f 37/6/1 30/6/1 36/6/1
f 37/4/1 32/4/1 31/4/1
f 38/6/1 33/6/1 32/6/1
f 38/4/1 32/4/1 37/4/1
f 39/6/1 33/6/1 38/6/1
f 40/3/2 41/3/2 42/3/2
f 42/3/2 41/3/2 43/3/2
f 43/3/2 41/3/2 44/3/2
f 44/3/2 41/3/2 45/3/2
f 42/6/2 43/6/2 46/6/2
f 46/6/2 43/6/2 47/6/2
f 43/5/2 44/5/2 48/5/2
f 47/6/2 43/6/2 48/6/2
f 48/5/2 44/5/2 49/5/2
f 44/6/2 45/6/2 50/6/2
f 49/5/2 44/5/2 50/5/2
f 50/6/2 45/6/2 51/6/2
f 46/7/2 47/7/2 52/7/2
f 47/6/2 48/6/2 53/6/2
f 52/7/2 47/7/2 53/7/2
f 53/6/2 48/6/2 54/6/2
f 48/4/2 49/4/2 55/4/2
f 54/6/2 48/6/2 55/6/2
f 49/5/2 50/5/2 56/5/2
f 55/4/2 49/4/2 56/4/2
f 50/5/2 51/5/2 56/5/2
f 56/5/2 51/5/2 57/5/2
f 53/6/2 54/6/2 58/6/2
f 54/4/2 55/4/2 58/4/2
f 55/4/2 56/4/2 58/4/2
f 58/4/2 56/4/2 59/4/2
f 56/6/2 57/6/2 60/6/2
f 59/4/2 56/4/2 60/4/2
f 57/5/2 51/5/2 61/5/2
f 60/6/2 57/6/2 61/6/2
f 61/5/2 51/5/2 62/5/2
f 52/8/2 53/8/2 63/8/2
f 58/6/2 59/6/2 64/6/2
f 63/8/2 53/8/2 64/8/2
f 53/6/2 58/6/2 64/6/2
f 59/4/2 60/4/2 65/4/2
f 64/6/2 59/6/2 65/6/2
f 60/4/2 61/4/2 65/4/2
f 61/6/2 62/6/2 66/6/2
f 65/4/2 61/4/2 66/4/2
f 66/6/2 62/6/2 67/6/2
f 68/1/2 69/1/2 70/1/2
f 70/1/2 69/1/2 71/1/2
f 74/3/3 73/3/3 72/3/3
f 78/3/3 74/3/3 72/3/3
f 79/3/3 74/3/3 78/3/3
f 80/6/3 75/6/3 74/6/3
f 80/3/3 74/3/3 79/3/3
f 81/7/3 76/7/3 75/7/3
f 81/6/3 75/6/3 80/6/3
f 82/8/3 77/8/3 76/8/3
f 82/7/3 76/7/3 81/7/3
f 83/8/3 77/8/3 82/8/3
f 84/1/3 79/1/3 78/1/3
f 85/1/3 79/1/3 84/1/3
f 88/2/3 87/2/3 86/2/3
f 89/2/3 87/2/3 88/2/3
f 90/2/3 87/2/3 89/2/3
f 91/2/4 92/2/4 93/2/4
f 93/2/4 92/2/4 94/2/4
f 95/2/4 96/2/4 97/2/4
f 97/2/4 96/2/4 98/2/4
f 98/2/4 96/2/4 99/2/4
f 100/3/4 101/3/4 102/3/4
f 100/3/4 102/3/4 106/3/4
f 106/3/4 102/3/4 107/3/4
f 102/6/4 103/6/4 108/6/4
f 107/3/4 102/3/4 108/3/4
f 103/5/4 104/5/4 109/5/4
f 108/6/4 103/6/4 109/6/4
f 104/6/4 105/6/4 110/6/4
f 109/5/4 104/5/4 110/5/4
f 110/6/4 105/6/4 111/6/4
f 106/1/4 107/1/4 112/1/4
f 112/1/4 107/1/4 113/1/4
f 117/3/5 115/3/5 114/3/5
f 118/1/5 116/1/5 115/1/5
f 118/3/5 115/3/5 117/3/5
f 119/1/5 116/1/5 118/1/5
f 122/2/5 121/2/5 120/2/5
f 123/2/5 121/2/5 122/2/5
f 126/2/5 125/2/5 124/2/5
f 127/2/5 125/2/5 126/2/5
f 128/1/6 129/1/6 130/1/6
f 130/1/6 129/1/6 131/1/6
f 132/3/6 133/3/6 134/3/6
f 132/3/6 134/3/6 135/3/6
f 132/3/6 135/3/6 136/3/6
f 136/3/6 135/3/6 137/3/6
f 138/8/6 139/8/6 141/8/6
f 141/8/6 139/8/6 142/8/6
f 140/2/6 141/2/6 143/2/6
f 141/6/6 142/6/6 144/6/6
f 143/2/6 141/2/6 144/2/6
f 144/6/6 142/6/6 145/6/6
f 145/6/6 142/6/6 146/6/6
f 145/4/6 146/4/6 147/4/6
f 147/4/6 146/4/6 148/4/6
f 147/6/6 148/6/6 149/6/6
f 149/6/6 148/6/6 150/6/6
