# MagicaVoxel @ Ephtracy

# group
o 

# material
mtllib house-1_v3-23.mtl
usemtl palette

# normals
vn -1 0 0
vn 1 0 0
vn 0 0 1
vn 0 0 -1
vn 0 -1 0
vn 0 1 0

# texcoords
vt 0.892578 0.5
vt 0.916016 0.5
vt 0.923828 0.5
vt 0.978516 0.5

# verts
v -3 2.7 0.9
v -3 2.7 0.8
v -3 2.8 0.9
v -3 2.8 0.8
v -3 2.8 0.7
v -3 2.9 0.8
v -3 2.9 0.7
v -3 2.9 0.6
v -3 3 0.7
v -3 3 0.6
v -3 3 0.5
v -3 3.1 0.6
v -3 3.1 0.5
v -3 3.1 0.4
v -3 3.2 0.5
v -3 3.2 0.4
v -3 3.2 0.3
v -3 3.3 0.4
v -3 3.3 0.3
v -2.8 2.7 0.8
v -2.8 2.7 0.2
v -2.8 2.7 0.1
v -2.8 2.8 0.8
v -2.8 2.8 0.7
v -2.8 2.8 0.4
v -2.8 2.8 0.2
v -2.8 2.9 0.7
v -2.8 2.9 0.6
v -2.8 2.9 0.4
v -2.8 2.9 0.3
v -2.8 2.9 0.2
v -2.8 3 0.6
v -2.8 3 0.5
v -2.8 3 0.3
v -2.8 3 0.1
v -2.8 3.1 0.5
v -2.8 3.1 0.4
v -2.8 3.2 0.4
v -2.8 3.2 0.3
v -2.8 3.3 0.3
v -2.8 3.3 0.1
v -1.8 2.7 0.9
v -1.8 2.7 0.8
v -1.8 2.7 0.1
v -1.8 2.8 0.9
v -1.8 2.8 0.8
v -1.8 2.8 0.7
v -1.8 2.9 0.8
v -1.8 2.9 0.7
v -1.8 2.9 0.6
v -1.8 3 0.7
v -1.8 3 0.6
v -1.8 3 0.5
v -1.8 3.1 0.6
v -1.8 3.1 0.5
v -1.8 3.1 0.4
v -1.8 3.2 0.5
v -1.8 3.2 0.4
v -1.8 3.2 0.3
v -1.8 3.3 0.4
v -1.8 3.3 0.3
v -1.8 3.3 0.1
v -3 2.7 0.9
v -3 2.8 0.9
v -1.8 2.7 0.9
v -1.8 2.8 0.9
v -3 2.8 0.8
v -3 2.9 0.8
v -1.8 2.8 0.8
v -1.8 2.9 0.8
v -3 2.9 0.7
v -3 3 0.7
v -1.8 2.9 0.7
v -1.8 3 0.7
v -3 3 0.6
v -3 3.1 0.6
v -1.8 3 0.6
v -1.8 3.1 0.6
v -3 3.1 0.5
v -3 3.2 0.5
v -1.8 3.1 0.5
v -1.8 3.2 0.5
v -3 3.2 0.4
v -3 3.3 0.4
v -1.8 3.2 0.4
v -1.8 3.3 0.4
v -3 2.7 0.8
v -3 2.8 0.8
v -2.8 2.7 0.8
v -2.8 2.8 0.8
v -3 2.8 0.7
v -3 2.9 0.7
v -2.8 2.8 0.7
v -2.8 2.9 0.7
v -3 2.9 0.6
v -3 3 0.6
v -2.8 2.9 0.6
v -2.8 3 0.6
v -3 3 0.5
v -3 3.1 0.5
v -2.8 3 0.5
v -2.8 3.1 0.5
v -3 3.1 0.4
v -3 3.2 0.4
v -2.8 3.1 0.4
v -2.8 3.2 0.4
v -3 3.2 0.3
v -3 3.3 0.3
v -2.8 3.2 0.3
v -2.8 3.3 0.3
v -2.8 2.7 0.1
v -2.8 3 0.1
v -2.8 3.3 0.1
v -2.7 2.7 0.1
v -2.7 3 0.1
v -1.8 2.7 0.1
v -1.8 3.3 0.1
v -3 2.7 0.9
v -1.8 2.7 0.9
v -3 2.7 0.8
v -2.8 2.7 0.8
v -1.8 2.7 0.8
v -2.8 2.7 0.2
v -2.7 2.7 0.2
v -2.8 2.7 0.1
v -2.7 2.7 0.1
v -1.8 2.7 0.1
v -3 2.8 0.8
v -2.8 2.8 0.8
v -3 2.8 0.7
v -2.8 2.8 0.7
v -3 2.9 0.7
v -2.8 2.9 0.7
v -3 2.9 0.6
v -2.8 2.9 0.6
v -3 3 0.6
v -2.8 3 0.6
v -3 3 0.5
v -2.8 3 0.5
v -3 3.1 0.5
v -2.8 3.1 0.5
v -3 3.1 0.4
v -2.8 3.1 0.4
v -3 3.2 0.4
v -2.8 3.2 0.4
v -3 3.2 0.3
v -2.8 3.2 0.3
v -3 2.8 0.9
v -1.8 2.8 0.9
v -3 2.8 0.8
v -1.8 2.8 0.8
v -3 2.9 0.8
v -1.8 2.9 0.8
v -3 2.9 0.7
v -1.8 2.9 0.7
v -3 3 0.7
v -1.8 3 0.7
v -3 3 0.6
v -1.8 3 0.6
v -3 3.1 0.6
v -1.8 3.1 0.6
v -3 3.1 0.5
v -1.8 3.1 0.5
v -3 3.2 0.5
v -1.8 3.2 0.5
v -3 3.2 0.4
v -1.8 3.2 0.4
v -3 3.3 0.4
v -1.8 3.3 0.4
v -3 3.3 0.3
v -2.8 3.3 0.3
v -1.8 3.3 0.3
v -2.8 3.3 0.1
v -1.8 3.3 0.1

# faces
f 3/4/1 2/4/1 1/4/1
f 4/4/1 2/4/1 3/4/1
f 6/4/1 5/4/1 4/4/1
f 7/4/1 5/4/1 6/4/1
f 9/4/1 8/4/1 7/4/1
f 10/4/1 8/4/1 9/4/1
f 12/4/1 11/4/1 10/4/1
f 13/4/1 11/4/1 12/4/1
f 15/4/1 14/4/1 13/4/1
f 16/4/1 14/4/1 15/4/1
f 18/4/1 17/4/1 16/4/1
f 19/4/1 17/4/1 18/4/1
f 23/3/1 21/3/1 20/3/1
f 24/3/1 21/3/1 23/3/1
f 25/3/1 21/3/1 24/3/1
f 26/1/1 22/1/1 21/1/1
f 26/3/1 21/3/1 25/3/1
f 27/3/1 25/3/1 24/3/1
f 28/3/1 25/3/1 27/3/1
f 29/2/1 26/2/1 25/2/1
f 29/3/1 25/3/1 28/3/1
f 30/2/1 26/2/1 29/2/1
f 31/1/1 22/1/1 26/1/1
f 31/2/1 26/2/1 30/2/1
f 32/3/1 30/3/1 29/3/1
f 32/3/1 29/3/1 28/3/1
f 33/3/1 30/3/1 32/3/1
f 34/1/1 31/1/1 30/1/1
f 34/3/1 30/3/1 33/3/1
f 35/1/1 22/1/1 31/1/1
f 35/1/1 31/1/1 34/1/1
f 36/3/1 34/3/1 33/3/1
f 36/3/1 35/3/1 34/3/1
f 37/3/1 35/3/1 36/3/1
f 38/3/1 35/3/1 37/3/1
f 39/3/1 35/3/1 38/3/1
f 40/3/1 35/3/1 39/3/1
f 41/3/1 35/3/1 40/3/1
f 42/4/2 43/4/2 45/4/2
f 43/3/2 44/3/2 46/3/2
f 45/4/2 43/4/2 46/4/2
f 46/3/2 44/3/2 47/3/2
f 46/4/2 47/4/2 48/4/2
f 47/3/2 44/3/2 49/3/2
f 48/4/2 47/4/2 49/4/2
f 49/3/2 44/3/2 50/3/2
f 49/4/2 50/4/2 51/4/2
f 50/3/2 44/3/2 52/3/2
f 51/4/2 50/4/2 52/4/2
f 52/3/2 44/3/2 53/3/2
f 52/4/2 53/4/2 54/4/2
f 53/3/2 44/3/2 55/3/2
f 54/4/2 53/4/2 55/4/2
f 55/3/2 44/3/2 56/3/2
f 55/4/2 56/4/2 57/4/2
f 56/3/2 44/3/2 58/3/2
f 57/4/2 56/4/2 58/4/2
f 58/3/2 44/3/2 59/3/2
f 58/4/2 59/4/2 60/4/2
f 59/3/2 44/3/2 61/3/2
f 60/4/2 59/4/2 61/4/2
f 61/3/2 44/3/2 62/3/2
f 65/4/3 64/4/3 63/4/3
f 66/4/3 64/4/3 65/4/3
f 69/4/3 68/4/3 67/4/3
f 70/4/3 68/4/3 69/4/3
f 73/4/3 72/4/3 71/4/3
f 74/4/3 72/4/3 73/4/3
f 77/4/3 76/4/3 75/4/3
f 78/4/3 76/4/3 77/4/3
f 81/4/3 80/4/3 79/4/3
f 82/4/3 80/4/3 81/4/3
f 85/4/3 84/4/3 83/4/3
f 86/4/3 84/4/3 85/4/3
f 87/4/4 88/4/4 89/4/4
f 89/4/4 88/4/4 90/4/4
f 91/4/4 92/4/4 93/4/4
f 93/4/4 92/4/4 94/4/4
f 95/4/4 96/4/4 97/4/4
f 97/4/4 96/4/4 98/4/4
f 99/4/4 100/4/4 101/4/4
f 101/4/4 100/4/4 102/4/4
f 103/4/4 104/4/4 105/4/4
f 105/4/4 104/4/4 106/4/4
f 107/4/4 108/4/4 109/4/4
f 109/4/4 108/4/4 110/4/4
f 111/1/4 112/1/4 114/1/4
f 112/3/4 113/3/4 115/3/4
f 114/1/4 112/1/4 115/1/4
f 114/3/4 115/3/4 116/3/4
f 115/3/4 113/3/4 117/3/4
f 116/3/4 115/3/4 117/3/4
f 120/4/5 119/4/5 118/4/5
f 121/4/5 119/4/5 120/4/5
f 122/4/5 119/4/5 121/4/5
f 123/3/5 122/3/5 121/3/5
f 124/3/5 122/3/5 123/3/5
f 125/1/5 124/1/5 123/1/5
f 126/3/5 122/3/5 124/3/5
f 126/1/5 124/1/5 125/1/5
f 127/3/5 122/3/5 126/3/5
f 130/4/5 129/4/5 128/4/5
f 131/4/5 129/4/5 130/4/5
f 134/4/5 133/4/5 132/4/5
f 135/4/5 133/4/5 134/4/5
f 138/4/5 137/4/5 136/4/5
f 139/4/5 137/4/5 138/4/5
f 142/4/5 141/4/5 140/4/5
f 143/4/5 141/4/5 142/4/5
f 146/4/5 145/4/5 144/4/5
f 147/4/5 145/4/5 146/4/5
f 148/4/6 149/4/6 150/4/6
f 150/4/6 149/4/6 151/4/6
f 152/4/6 153/4/6 154/4/6
f 154/4/6 153/4/6 155/4/6
f 156/4/6 157/4/6 158/4/6
f 158/4/6 157/4/6 159/4/6
f 160/4/6 161/4/6 162/4/6
f 162/4/6 161/4/6 163/4/6
f 164/4/6 165/4/6 166/4/6
f 166/4/6 165/4/6 167/4/6
f 168/4/6 169/4/6 170/4/6
f 170/4/6 169/4/6 171/4/6
f 171/4/6 169/4/6 172/4/6
f 171/3/6 172/3/6 173/3/6
f 173/3/6 172/3/6 174/3/6
