# MagicaVoxel @ Ephtracy

# group
o 

# material
mtllib house-1_v3-104.mtl
usemtl palette

# normals
vn -1 0 0
vn 1 0 0
vn 0 0 1
vn 0 0 -1
vn 0 -1 0
vn 0 1 0

# texcoords
vt 0.271484 0.5
vt 0.505859 0.5
vt 0.529297 0.5
vt 0.923828 0.5
vt 0.958984 0.5
vt 0.994141 0.5

# verts
v -2.9 0 -0.7
v -2.9 0 -1.5
v -2.9 0.3 -0.7
v -2.9 0.3 -1.5
v -2.9 0.4 -0.7
v -2.9 0.4 -0.8
v -2.9 0.4 -1.3
v -2.9 0.4 -1.4
v -2.9 0.5 -1.4
v -2.9 0.5 -1.5
v -2.9 0.7 -0.7
v -2.9 0.7 -0.8
v -2.9 0.7 -1.3
v -2.9 0.7 -1.5
v -2.8 0.3 -0.7
v -2.8 0.3 -1.5
v -2.8 0.4 -0.7
v -2.8 0.4 -0.8
v -2.8 0.4 -1.1
v -2.8 0.4 -1.3
v -2.8 0.4 -1.4
v -2.8 0.5 -0.9
v -2.8 0.5 -1.1
v -2.8 0.5 -1.3
v -2.8 0.5 -1.4
v -2.8 0.5 -1.5
v -2.8 0.6 -0.9
v -2.8 0.6 -1.1
v -2.8 0.7 -0.8
v -2.8 0.7 -1.3
v -2.7 0.1 -0.7
v -2.7 0.1 -1.2
v -2.7 0.3 -0.7
v -2.7 0.3 -1.2
v -2.7 0.4 -0.8
v -2.7 0.4 -1.1
v -2.7 0.4 -1.2
v -2.7 0.5 -0.9
v -2.7 0.5 -1.1
v -2.7 0.5 -1.2
v -2.7 0.6 -0.9
v -2.7 0.6 -1.1
v -2.7 0.7 -0.7
v -2.7 0.7 -0.8
v -2.7 0.7 -1.2
v -2.3 0 -0.7
v -2.3 0 -1.2
v -2.3 0 -1.5
v -2.3 0.1 -0.7
v -2.3 0.1 -1.2
v -2.3 0.7 -1.2
v -2.3 0.7 -1.5
v -2.9 0 -0.7
v -2.9 0.3 -0.7
v -2.9 0.4 -0.7
v -2.9 0.7 -0.7
v -2.8 0.3 -0.7
v -2.8 0.4 -0.7
v -2.8 0.7 -0.7
v -2.7 0 -0.7
v -2.7 0.1 -0.7
v -2.7 0.3 -0.7
v -2.7 0.7 -0.7
v -2.3 0 -0.7
v -2.3 0.1 -0.7
v -2.7 0.1 -1.2
v -2.7 0.3 -1.2
v -2.7 0.4 -1.2
v -2.7 0.5 -1.2
v -2.7 0.7 -1.2
v -2.3 0.1 -1.2
v -2.3 0.7 -1.2
v -2.9 0.4 -1.3
v -2.9 0.7 -1.3
v -2.8 0.4 -1.3
v -2.8 0.5 -1.3
v -2.8 0.7 -1.3
v -2.9 0.4 -0.8
v -2.9 0.7 -0.8
v -2.8 0.4 -0.8
v -2.8 0.7 -0.8
v -2.9 0.4 -1.4
v -2.9 0.5 -1.4
v -2.8 0.4 -1.4
v -2.8 0.5 -1.4
v -2.9 0 -1.5
v -2.9 0.3 -1.5
v -2.9 0.5 -1.5
v -2.9 0.7 -1.5
v -2.8 0.3 -1.5
v -2.8 0.5 -1.5
v -2.8 0.7 -1.5
v -2.7 0 -1.5
v -2.7 0.3 -1.5
v -2.3 0 -1.5
v -2.3 0.7 -1.5
v -2.9 0 -0.7
v -2.7 0 -0.7
v -2.3 0 -0.7
v -2.7 0 -1.2
v -2.3 0 -1.2
v -2.9 0 -1.5
v -2.7 0 -1.5
v -2.3 0 -1.5
v -2.9 0.4 -0.7
v -2.8 0.4 -0.7
v -2.9 0.4 -0.8
v -2.8 0.4 -0.8
v -2.9 0.4 -1.3
v -2.8 0.4 -1.3
v -2.9 0.4 -1.4
v -2.8 0.4 -1.4
v -2.9 0.5 -1.4
v -2.8 0.5 -1.4
v -2.9 0.5 -1.5
v -2.8 0.5 -1.5
v -2.7 0.1 -0.7
v -2.3 0.1 -0.7
v -2.7 0.1 -1.2
v -2.3 0.1 -1.2
v -2.9 0.3 -0.7
v -2.8 0.3 -0.7
v -2.9 0.3 -1.5
v -2.8 0.3 -1.5
v -2.9 0.7 -0.7
v -2.8 0.7 -0.7
v -2.7 0.7 -0.7
v -2.9 0.7 -0.8
v -2.8 0.7 -0.8
v -2.7 0.7 -0.8
v -2.7 0.7 -1.2
v -2.3 0.7 -1.2
v -2.9 0.7 -1.3
v -2.8 0.7 -1.3
v -2.7 0.7 -1.3
v -2.9 0.7 -1.5
v -2.8 0.7 -1.5
v -2.3 0.7 -1.5

# faces
f 3/3/1 2/3/1 1/3/1
f 4/3/1 2/3/1 3/3/1
f 9/2/1 8/2/1 7/2/1
f 11/2/1 6/2/1 5/2/1
f 12/2/1 6/2/1 11/2/1
f 13/2/1 10/2/1 9/2/1
f 13/2/1 9/2/1 7/2/1
f 14/2/1 10/2/1 13/2/1
f 17/4/1 16/4/1 15/4/1
f 18/4/1 16/4/1 17/4/1
f 19/4/1 16/4/1 18/4/1
f 20/4/1 16/4/1 19/4/1
f 21/4/1 16/4/1 20/4/1
f 22/6/1 19/6/1 18/6/1
f 23/5/1 20/5/1 19/5/1
f 23/6/1 19/6/1 22/6/1
f 24/5/1 20/5/1 23/5/1
f 25/4/1 16/4/1 21/4/1
f 26/4/1 16/4/1 25/4/1
f 27/6/1 22/6/1 18/6/1
f 27/5/1 23/5/1 22/5/1
f 28/6/1 24/6/1 23/6/1
f 28/5/1 23/5/1 27/5/1
f 29/6/1 27/6/1 18/6/1
f 29/6/1 28/6/1 27/6/1
f 30/6/1 24/6/1 28/6/1
f 30/6/1 28/6/1 29/6/1
f 31/3/2 32/3/2 33/3/2
f 33/3/2 32/3/2 34/3/2
f 33/4/2 34/4/2 35/4/2
f 35/4/2 34/4/2 36/4/2
f 36/4/2 34/4/2 37/4/2
f 35/6/2 36/6/2 38/6/2
f 36/5/2 37/5/2 39/5/2
f 38/6/2 36/6/2 39/6/2
f 39/5/2 37/5/2 40/5/2
f 35/6/2 38/6/2 41/6/2
f 38/5/2 39/5/2 41/5/2
f 39/6/2 40/6/2 42/6/2
f 41/5/2 39/5/2 42/5/2
f 33/4/2 35/4/2 43/4/2
f 35/6/2 41/6/2 44/6/2
f 43/4/2 35/4/2 44/4/2
f 41/6/2 42/6/2 44/6/2
f 42/6/2 40/6/2 45/6/2
f 44/6/2 42/6/2 45/6/2
f 46/1/2 47/1/2 49/1/2
f 47/4/2 48/4/2 50/4/2
f 49/1/2 47/1/2 50/1/2
f 50/4/2 48/4/2 51/4/2
f 51/4/2 48/4/2 52/4/2
f 57/3/3 54/3/3 53/3/3
f 58/2/3 56/2/3 55/2/3
f 59/2/3 56/2/3 58/2/3
f 60/3/3 57/3/3 53/3/3
f 61/3/3 57/3/3 60/3/3
f 62/4/3 58/4/3 57/4/3
f 62/3/3 57/3/3 61/3/3
f 62/4/3 59/4/3 58/4/3
f 63/4/3 59/4/3 62/4/3
f 64/1/3 61/1/3 60/1/3
f 65/1/3 61/1/3 64/1/3
f 71/4/3 67/4/3 66/4/3
f 71/4/3 70/4/3 69/4/3
f 71/4/3 69/4/3 68/4/3
f 71/4/3 68/4/3 67/4/3
f 72/4/3 70/4/3 71/4/3
f 75/2/3 74/2/3 73/2/3
f 76/2/3 74/2/3 75/2/3
f 77/2/3 74/2/3 76/2/3
f 78/2/4 79/2/4 80/2/4
f 80/2/4 79/2/4 81/2/4
f 82/2/4 83/2/4 84/2/4
f 84/2/4 83/2/4 85/2/4
f 86/3/4 87/3/4 90/3/4
f 88/2/4 89/2/4 91/2/4
f 91/2/4 89/2/4 92/2/4
f 86/3/4 90/3/4 93/3/4
f 90/4/4 91/4/4 94/4/4
f 93/3/4 90/3/4 94/3/4
f 91/4/4 92/4/4 94/4/4
f 93/4/4 94/4/4 95/4/4
f 94/4/4 92/4/4 96/4/4
f 95/4/4 94/4/4 96/4/4
f 100/3/5 98/3/5 97/3/5
f 100/1/5 99/1/5 98/1/5
f 101/1/5 99/1/5 100/1/5
f 102/3/5 100/3/5 97/3/5
f 103/4/5 101/4/5 100/4/5
f 103/3/5 100/3/5 102/3/5
f 104/4/5 101/4/5 103/4/5
f 107/2/5 106/2/5 105/2/5
f 108/2/5 106/2/5 107/2/5
f 111/2/5 110/2/5 109/2/5
f 112/2/5 110/2/5 111/2/5
f 115/2/5 114/2/5 113/2/5
f 116/2/5 114/2/5 115/2/5
f 117/1/6 118/1/6 119/1/6
f 119/1/6 118/1/6 120/1/6
f 121/3/6 122/3/6 123/3/6
f 123/3/6 122/3/6 124/3/6
f 125/2/6 126/2/6 128/2/6
f 126/4/6 127/4/6 129/4/6
f 128/2/6 126/2/6 129/2/6
f 129/4/6 127/4/6 130/4/6
f 129/6/6 130/6/6 131/6/6
f 129/6/6 131/6/6 134/6/6
f 131/4/6 132/4/6 135/4/6
f 134/6/6 131/6/6 135/6/6
f 133/2/6 134/2/6 136/2/6
f 134/4/6 135/4/6 137/4/6
f 136/2/6 134/2/6 137/2/6
f 135/4/6 132/4/6 138/4/6
f 137/4/6 135/4/6 138/4/6
