# MagicaVoxel @ Ephtracy

# group
o 

# material
mtllib house-1_v3-81.mtl
usemtl palette

# normals
vn -1 0 0
vn 1 0 0
vn 0 0 1
vn 0 0 -1
vn 0 -1 0
vn 0 1 0

# texcoords
vt 0.505859 0.5
vt 0.892578 0.5
vt 0.916016 0.5
vt 0.923828 0.5
vt 0.958984 0.5
vt 0.994141 0.5

# verts
v -2.9 0.7 1.5
v -2.9 0.7 1.3
v -2.9 1 1.5
v -2.9 1 1.4
v -2.9 1.1 1.4
v -2.9 1.1 1.3
v -2.8 0.7 2.1
v -2.8 0.7 1.9
v -2.8 0.7 1.8
v -2.8 0.7 1.6
v -2.8 0.7 1.5
v -2.8 0.7 1.3
v -2.8 0.7 1.2
v -2.8 0.7 0.9
v -2.8 0.8 2.1
v -2.8 0.8 2
v -2.8 0.8 1.9
v -2.8 0.8 1.8
v -2.8 0.8 1.7
v -2.8 0.8 1.6
v -2.8 0.8 1.3
v -2.8 0.8 1.2
v -2.8 0.8 1.1
v -2.8 0.9 2.1
v -2.8 0.9 2
v -2.8 0.9 1.9
v -2.8 0.9 1.8
v -2.8 0.9 1.7
v -2.8 0.9 1.5
v -2.8 0.9 1.3
v -2.8 0.9 1.2
v -2.8 0.9 1.1
v -2.8 0.9 1
v -2.8 1 2.1
v -2.8 1 2
v -2.8 1 1.9
v -2.8 1 1.8
v -2.8 1 1.7
v -2.8 1 1.6
v -2.8 1 1.5
v -2.8 1 1.4
v -2.8 1 1.3
v -2.8 1 1.2
v -2.8 1 1.1
v -2.8 1 1
v -2.8 1 0.9
v -2.8 1.1 2.1
v -2.8 1.1 2
v -2.8 1.1 1.9
v -2.8 1.1 1.8
v -2.8 1.1 1.6
v -2.8 1.1 1.4
v -2.8 1.1 1.3
v -2.8 1.1 1.2
v -2.8 1.1 1.1
v -2.8 1.1 1
v -2.8 1.1 0.9
v -2.8 1.2 2.1
v -2.8 1.2 1.9
v -2.8 1.2 1.8
v -2.8 1.2 1.6
v -2.8 1.2 0.9
v -1.7 0.7 2.2
v -1.7 0.7 2.1
v -1.7 1 2.2
v -1.7 1 2.1
v -1.6 1 2.2
v -1.6 1 2.1
v -1.6 1.1 2.2
v -1.6 1.1 2.1
v -2.7 0.7 1.4
v -2.7 0.7 1.3
v -2.7 0.7 1.2
v -2.7 0.7 0.9
v -2.7 0.8 1.3
v -2.7 0.8 1.2
v -2.7 0.8 1.1
v -2.7 0.9 1.3
v -2.7 0.9 1.2
v -2.7 0.9 1.1
v -2.7 0.9 1
v -2.7 1 1.3
v -2.7 1 1.2
v -2.7 1 1.1
v -2.7 1 1
v -2.7 1 0.9
v -2.7 1.1 1.3
v -2.7 1.1 1.2
v -2.7 1.1 1.1
v -2.7 1.1 1
v -2.7 1.1 0.9
v -2.7 1.2 1.4
v -2.7 1.2 0.9
v -1.5 0.7 2.2
v -1.5 0.7 2.1
v -1.5 0.8 2.1
v -1.5 0.9 2.1
v -1.5 1 2.1
v -1.5 1.1 2.2
v -1.5 1.1 2.1
v -1.4 0.7 2.1
v -1.4 0.7 2
v -1.4 0.7 1.4
v -1.4 0.8 2.1
v -1.4 0.8 2
v -1.4 0.9 2.1
v -1.4 0.9 2
v -1.4 1 2.1
v -1.4 1 2
v -1.4 1.1 2.1
v -1.4 1.1 2
v -1.4 1.2 2.1
v -1.4 1.2 1.4
v -1.7 0.7 2.2
v -1.7 1 2.2
v -1.6 1 2.2
v -1.6 1.1 2.2
v -1.5 0.7 2.2
v -1.5 1.1 2.2
v -2.8 0.7 2.1
v -2.8 0.8 2.1
v -2.8 0.9 2.1
v -2.8 1 2.1
v -2.8 1.1 2.1
v -2.8 1.2 2.1
v -2.7 0.7 2.1
v -2.7 0.8 2.1
v -2.7 0.9 2.1
v -2.7 1 2.1
v -2.7 1.1 2.1
v -2.7 1.2 2.1
v -2.6 0.9 2.1
v -2.6 1 2.1
v -2.6 1.1 2.1
v -2.5 0.7 2.1
v -2.5 0.8 2.1
v -2.5 0.9 2.1
v -2.5 1 2.1
v -2.5 1.1 2.1
v -2.5 1.2 2.1
v -2.4 0.8 2.1
v -2.4 0.9 2.1
v -2.4 1.1 2.1
v -2.4 1.2 2.1
v -2.3 0.7 2.1
v -2.3 0.8 2.1
v -2.3 0.9 2.1
v -2.3 1 2.1
v -2.3 1.1 2.1
v -2.2 0.7 2.1
v -2.2 0.8 2.1
v -2.2 1.1 2.1
v -2.2 1.2 2.1
v -2.1 0.8 2.1
v -2.1 0.9 2.1
v -2.1 1.1 2.1
v -2.1 1.2 2.1
v -2 0.7 2.1
v -2 0.8 2.1
v -2 1 2.1
v -2 1.1 2.1
v -1.9 0.8 2.1
v -1.9 0.9 2.1
v -1.9 1.1 2.1
v -1.9 1.2 2.1
v -1.8 0.7 2.1
v -1.8 0.8 2.1
v -1.8 1 2.1
v -1.8 1.1 2.1
v -1.7 0.7 2.1
v -1.7 1 2.1
v -1.6 1 2.1
v -1.6 1.1 2.1
v -1.5 0.7 2.1
v -1.5 0.8 2.1
v -1.5 0.9 2.1
v -1.5 1 2.1
v -1.5 1.1 2.1
v -1.4 0.7 2.1
v -1.4 0.8 2.1
v -1.4 0.9 2.1
v -1.4 1 2.1
v -1.4 1.1 2.1
v -1.4 1.2 2.1
v -2.9 0.7 1.5
v -2.9 1 1.5
v -2.8 0.7 1.5
v -2.8 0.9 1.5
v -2.8 1 1.5
v -2.9 1 1.4
v -2.9 1.1 1.4
v -2.8 1 1.4
v -2.8 1.1 1.4
v -2.7 0.7 1.4
v -2.7 1.2 1.4
v -1.4 0.7 1.4
v -1.4 1.2 1.4
v -2.9 0.7 1.3
v -2.9 1.1 1.3
v -2.8 0.7 1.3
v -2.8 0.8 1.3
v -2.8 0.9 1.3
v -2.8 1 1.3
v -2.8 1.1 1.3
v -2.8 0.7 0.9
v -2.8 1 0.9
v -2.8 1.1 0.9
v -2.8 1.2 0.9
v -2.7 0.7 0.9
v -2.7 1 0.9
v -2.7 1.1 0.9
v -2.7 1.2 0.9
v -1.7 0.7 2.2
v -1.5 0.7 2.2
v -2.8 0.7 2.1
v -2.7 0.7 2.1
v -2.5 0.7 2.1
v -2.3 0.7 2.1
v -2.2 0.7 2.1
v -2 0.7 2.1
v -1.8 0.7 2.1
v -1.7 0.7 2.1
v -1.5 0.7 2.1
v -1.4 0.7 2.1
v -2.5 0.7 2
v -2.3 0.7 2
v -2.2 0.7 2
v -2 0.7 2
v -1.8 0.7 2
v -1.7 0.7 2
v -1.5 0.7 2
v -1.4 0.7 2
v -2.8 0.7 1.9
v -2.7 0.7 1.9
v -2.8 0.7 1.8
v -2.7 0.7 1.8
v -2.8 0.7 1.6
v -2.7 0.7 1.6
v -2.9 0.7 1.5
v -2.8 0.7 1.5
v -2.7 0.7 1.4
v -1.4 0.7 1.4
v -2.9 0.7 1.3
v -2.8 0.7 1.3
v -2.7 0.7 1.3
v -2.8 0.7 1.2
v -2.7 0.7 1.2
v -2.8 0.7 0.9
v -2.7 0.7 0.9
v -1.7 1 2.2
v -1.6 1 2.2
v -1.7 1 2.1
v -1.6 1 2.1
v -2.9 1 1.5
v -2.8 1 1.5
v -2.9 1 1.4
v -2.8 1 1.4
v -1.6 1.1 2.2
v -1.5 1.1 2.2
v -1.6 1.1 2.1
v -1.5 1.1 2.1
v -2.9 1.1 1.4
v -2.8 1.1 1.4
v -2.9 1.1 1.3
v -2.8 1.1 1.3
v -2.8 1.2 2.1
v -2.7 1.2 2.1
v -2.5 1.2 2.1
v -2.4 1.2 2.1
v -2.2 1.2 2.1
v -2.1 1.2 2.1
v -1.9 1.2 2.1
v -1.4 1.2 2.1
v -2.7 1.2 2
v -2.5 1.2 2
v -2.4 1.2 2
v -2.2 1.2 2
v -2.1 1.2 2
v -1.9 1.2 2
v -2.8 1.2 1.9
v -2.7 1.2 1.9
v -2.8 1.2 1.8
v -2.7 1.2 1.8
v -2.8 1.2 1.6
v -2.7 1.2 1.6
v -2.7 1.2 1.4
v -1.4 1.2 1.4
v -2.8 1.2 0.9
v -2.7 1.2 0.9

# faces
f 3/1/1 2/1/1 1/1/1
f 4/1/1 2/1/1 3/1/1
f 5/1/1 2/1/1 4/1/1
f 6/1/1 2/1/1 5/1/1
f 15/2/1 8/2/1 7/2/1
f 16/2/1 8/2/1 15/2/1
f 17/4/1 9/4/1 8/4/1
f 17/2/1 8/2/1 16/2/1
f 18/2/1 10/2/1 9/2/1
f 18/4/1 9/4/1 17/4/1
f 19/2/1 10/2/1 18/2/1
f 20/4/1 11/4/1 10/4/1
f 20/2/1 10/2/1 19/2/1
f 21/5/1 13/5/1 12/5/1
f 22/6/1 14/6/1 13/6/1
f 22/5/1 13/5/1 21/5/1
f 23/6/1 14/6/1 22/6/1
f 24/4/1 16/4/1 15/4/1
f 25/2/1 17/2/1 16/2/1
f 25/4/1 16/4/1 24/4/1
f 25/2/1 18/2/1 17/2/1
f 26/2/1 18/2/1 25/2/1
f 27/3/1 19/3/1 18/3/1
f 27/2/1 18/2/1 26/2/1
f 28/4/1 20/4/1 19/4/1
f 28/3/1 19/3/1 27/3/1
f 29/4/1 11/4/1 20/4/1
f 29/4/1 20/4/1 28/4/1
f 30/6/1 22/6/1 21/6/1
f 31/5/1 23/5/1 22/5/1
f 31/6/1 22/6/1 30/6/1
f 32/6/1 14/6/1 23/6/1
f 32/5/1 23/5/1 31/5/1
f 33/6/1 14/6/1 32/6/1
f 34/2/1 26/2/1 25/2/1
f 34/2/1 25/2/1 24/2/1
f 35/2/1 26/2/1 34/2/1
f 36/4/1 28/4/1 27/4/1
f 36/2/1 26/2/1 35/2/1
f 36/4/1 27/4/1 26/4/1
f 37/4/1 28/4/1 36/4/1
f 38/2/1 29/2/1 28/2/1
f 38/4/1 28/4/1 37/4/1
f 39/2/1 29/2/1 38/2/1
f 40/2/1 29/2/1 39/2/1
f 42/5/1 31/5/1 30/5/1
f 43/6/1 32/6/1 31/6/1
f 43/5/1 31/5/1 42/5/1
f 44/5/1 33/5/1 32/5/1
f 44/6/1 32/6/1 43/6/1
f 45/6/1 14/6/1 33/6/1
f 45/5/1 33/5/1 44/5/1
f 46/6/1 14/6/1 45/6/1
f 47/4/1 35/4/1 34/4/1
f 48/2/1 37/2/1 36/2/1
f 48/4/1 35/4/1 47/4/1
f 48/2/1 36/2/1 35/2/1
f 49/2/1 37/2/1 48/2/1
f 50/3/1 38/3/1 37/3/1
f 50/2/1 37/2/1 49/2/1
f 50/3/1 39/3/1 38/3/1
f 51/4/1 41/4/1 40/4/1
f 51/3/1 39/3/1 50/3/1
f 51/4/1 40/4/1 39/4/1
f 52/4/1 41/4/1 51/4/1
f 53/6/1 43/6/1 42/6/1
f 54/5/1 44/5/1 43/5/1
f 54/6/1 43/6/1 53/6/1
f 55/6/1 45/6/1 44/6/1
f 55/5/1 44/5/1 54/5/1
f 56/5/1 46/5/1 45/5/1
f 56/6/1 45/6/1 55/6/1
f 57/5/1 46/5/1 56/5/1
f 58/2/1 49/2/1 48/2/1
f 58/2/1 48/2/1 47/2/1
f 59/4/1 50/4/1 49/4/1
f 59/2/1 49/2/1 58/2/1
f 60/2/1 51/2/1 50/2/1
f 60/4/1 50/4/1 59/4/1
f 61/4/1 53/4/1 52/4/1
f 61/2/1 51/2/1 60/2/1
f 61/4/1 52/4/1 51/4/1
f 61/4/1 56/4/1 55/4/1
f 61/4/1 55/4/1 54/4/1
f 61/4/1 57/4/1 56/4/1
f 61/4/1 54/4/1 53/4/1
f 62/4/1 57/4/1 61/4/1
f 65/1/1 64/1/1 63/1/1
f 66/1/1 64/1/1 65/1/1
f 69/1/1 68/1/1 67/1/1
f 70/1/1 68/1/1 69/1/1
f 71/4/2 72/4/2 75/4/2
f 72/5/2 73/5/2 75/5/2
f 73/6/2 74/6/2 76/6/2
f 75/5/2 73/5/2 76/5/2
f 76/6/2 74/6/2 77/6/2
f 71/4/2 75/4/2 78/4/2
f 75/6/2 76/6/2 78/6/2
f 76/5/2 77/5/2 79/5/2
f 78/6/2 76/6/2 79/6/2
f 77/6/2 74/6/2 80/6/2
f 79/5/2 77/5/2 80/5/2
f 80/6/2 74/6/2 81/6/2
f 78/5/2 79/5/2 82/5/2
f 71/4/2 78/4/2 82/4/2
f 79/6/2 80/6/2 83/6/2
f 82/5/2 79/5/2 83/5/2
f 80/5/2 81/5/2 84/5/2
f 83/6/2 80/6/2 84/6/2
f 81/6/2 74/6/2 85/6/2
f 84/5/2 81/5/2 85/5/2
f 85/6/2 74/6/2 86/6/2
f 82/6/2 83/6/2 87/6/2
f 71/4/2 82/4/2 87/4/2
f 83/5/2 84/5/2 88/5/2
f 87/6/2 83/6/2 88/6/2
f 84/6/2 85/6/2 89/6/2
f 88/5/2 84/5/2 89/5/2
f 85/5/2 86/5/2 90/5/2
f 89/6/2 85/6/2 90/6/2
f 90/5/2 86/5/2 91/5/2
f 71/4/2 87/4/2 92/4/2
f 88/4/2 89/4/2 92/4/2
f 90/4/2 91/4/2 92/4/2
f 89/4/2 90/4/2 92/4/2
f 87/4/2 88/4/2 92/4/2
f 92/4/2 91/4/2 93/4/2
f 94/1/2 95/1/2 96/1/2
f 94/1/2 96/1/2 97/1/2
f 94/1/2 97/1/2 98/1/2
f 94/1/2 98/1/2 99/1/2
f 99/1/2 98/1/2 100/1/2
f 101/5/2 102/5/2 104/5/2
f 102/4/2 103/4/2 105/4/2
f 104/5/2 102/5/2 105/5/2
f 104/6/2 105/6/2 106/6/2
f 105/4/2 103/4/2 107/4/2
f 106/6/2 105/6/2 107/6/2
f 106/5/2 107/5/2 108/5/2
f 107/4/2 103/4/2 109/4/2
f 108/5/2 107/5/2 109/5/2
f 108/6/2 109/6/2 110/6/2
f 109/4/2 103/4/2 111/4/2
f 110/6/2 109/6/2 111/6/2
f 110/4/2 111/4/2 112/4/2
f 111/4/2 103/4/2 113/4/2
f 112/4/2 111/4/2 113/4/2
f 116/1/3 115/1/3 114/1/3
f 118/1/3 116/1/3 114/1/3
f 118/1/3 117/1/3 116/1/3
f 119/1/3 117/1/3 118/1/3
f 126/2/3 121/2/3 120/2/3
f 127/4/3 122/4/3 121/4/3
f 127/2/3 121/2/3 126/2/3
f 128/2/3 123/2/3 122/2/3
f 128/4/3 122/4/3 127/4/3
f 129/4/3 124/4/3 123/4/3
f 129/2/3 123/2/3 128/2/3
f 130/2/3 125/2/3 124/2/3
f 130/4/3 124/4/3 129/4/3
f 131/2/3 125/2/3 130/2/3
f 132/4/3 129/4/3 128/4/3
f 132/4/3 127/4/3 126/4/3
f 132/4/3 128/4/3 127/4/3
f 132/4/3 130/4/3 129/4/3
f 133/4/3 130/4/3 132/4/3
f 134/3/3 131/3/3 130/3/3
f 134/4/3 130/4/3 133/4/3
f 135/4/3 132/4/3 126/4/3
f 136/4/3 132/4/3 135/4/3
f 137/3/3 133/3/3 132/3/3
f 137/4/3 132/4/3 136/4/3
f 138/2/3 134/2/3 133/2/3
f 138/3/3 133/3/3 137/3/3
f 139/3/3 131/3/3 134/3/3
f 139/2/3 134/2/3 138/2/3
f 140/3/3 131/3/3 139/3/3
f 141/2/3 136/2/3 135/2/3
f 141/4/3 138/4/3 137/4/3
f 141/4/3 137/4/3 136/4/3
f 142/4/3 138/4/3 141/4/3
f 143/4/3 140/4/3 139/4/3
f 143/2/3 139/2/3 138/2/3
f 144/4/3 140/4/3 143/4/3
f 145/2/3 141/2/3 135/2/3
f 146/3/3 142/3/3 141/3/3
f 146/2/3 141/2/3 145/2/3
f 147/4/3 138/4/3 142/4/3
f 147/3/3 142/3/3 146/3/3
f 148/2/3 143/2/3 138/2/3
f 148/4/3 138/4/3 147/4/3
f 148/2/3 144/2/3 143/2/3
f 149/2/3 144/2/3 148/2/3
f 150/3/3 146/3/3 145/3/3
f 151/4/3 147/4/3 146/4/3
f 151/3/3 146/3/3 150/3/3
f 151/4/3 148/4/3 147/4/3
f 151/4/3 149/4/3 148/4/3
f 152/2/3 144/2/3 149/2/3
f 152/4/3 149/4/3 151/4/3
f 153/2/3 144/2/3 152/2/3
f 154/4/3 151/4/3 150/4/3
f 154/4/3 152/4/3 151/4/3
f 154/4/3 153/4/3 152/4/3
f 155/4/3 153/4/3 154/4/3
f 156/4/3 153/4/3 155/4/3
f 157/4/3 153/4/3 156/4/3
f 158/4/3 154/4/3 150/4/3
f 159/3/3 155/3/3 154/3/3
f 159/4/3 154/4/3 158/4/3
f 160/4/3 156/4/3 155/4/3
f 161/3/3 157/3/3 156/3/3
f 161/4/3 156/4/3 160/4/3
f 162/3/3 155/3/3 159/3/3
f 162/2/3 159/2/3 158/2/3
f 163/4/3 160/4/3 155/4/3
f 163/3/3 155/3/3 162/3/3
f 164/3/3 157/3/3 161/3/3
f 164/2/3 161/2/3 160/2/3
f 165/3/3 157/3/3 164/3/3
f 166/2/3 162/2/3 158/2/3
f 167/4/3 163/4/3 162/4/3
f 167/2/3 162/2/3 166/2/3
f 168/4/3 160/4/3 163/4/3
f 168/4/3 163/4/3 167/4/3
f 168/2/3 164/2/3 160/2/3
f 169/4/3 165/4/3 164/4/3
f 169/2/3 164/2/3 168/2/3
f 170/4/3 167/4/3 166/4/3
f 170/4/3 168/4/3 167/4/3
f 170/4/3 169/4/3 168/4/3
f 171/4/3 169/4/3 170/4/3
f 172/4/3 169/4/3 171/4/3
f 173/4/3 165/4/3 169/4/3
f 173/4/3 169/4/3 172/4/3
f 178/4/3 165/4/3 173/4/3
f 179/5/3 175/5/3 174/5/3
f 180/6/3 176/6/3 175/6/3
f 180/5/3 175/5/3 179/5/3
f 181/5/3 177/5/3 176/5/3
f 181/6/3 176/6/3 180/6/3
f 182/6/3 178/6/3 177/6/3
f 182/5/3 177/5/3 181/5/3
f 183/4/3 165/4/3 178/4/3
f 183/6/3 178/6/3 182/6/3
f 184/4/3 165/4/3 183/4/3
f 187/1/3 186/1/3 185/1/3
f 188/1/3 186/1/3 187/1/3
f 189/1/3 186/1/3 188/1/3
f 192/1/3 191/1/3 190/1/3
f 193/1/3 191/1/3 192/1/3
f 194/4/4 195/4/4 196/4/4
f 196/4/4 195/4/4 197/4/4
f 198/1/4 199/1/4 200/1/4
f 200/1/4 199/1/4 201/1/4
f 201/1/4 199/1/4 202/1/4
f 202/1/4 199/1/4 203/1/4
f 203/1/4 199/1/4 204/1/4
f 205/6/4 206/6/4 209/6/4
f 206/5/4 207/5/4 210/5/4
f 209/6/4 206/6/4 210/6/4
f 207/4/4 208/4/4 211/4/4
f 210/5/4 207/5/4 211/5/4
f 211/4/4 208/4/4 212/4/4
f 222/1/5 214/1/5 213/1/5
f 223/1/5 214/1/5 222/1/5
f 225/4/5 217/4/5 216/4/5
f 225/2/5 218/2/5 217/2/5
f 226/3/5 219/3/5 218/3/5
f 226/2/5 218/2/5 225/2/5
f 227/4/5 220/4/5 219/4/5
f 227/3/5 219/3/5 226/3/5
f 228/2/5 221/2/5 220/2/5
f 228/4/5 220/4/5 227/4/5
f 229/4/5 222/4/5 221/4/5
f 229/2/5 221/2/5 228/2/5
f 230/1/5 223/1/5 222/1/5
f 230/4/5 222/4/5 229/4/5
f 231/5/5 224/5/5 223/5/5
f 231/1/5 223/1/5 230/1/5
f 232/5/5 224/5/5 231/5/5
f 233/2/5 216/2/5 215/2/5
f 234/4/5 227/4/5 226/4/5
f 234/2/5 216/2/5 233/2/5
f 234/4/5 230/4/5 229/4/5
f 234/4/5 232/4/5 231/4/5
f 234/4/5 231/4/5 230/4/5
f 234/4/5 228/4/5 227/4/5
f 234/4/5 229/4/5 228/4/5
f 234/4/5 226/4/5 225/4/5
f 234/4/5 225/4/5 216/4/5
f 235/4/5 234/4/5 233/4/5
f 236/4/5 232/4/5 234/4/5
f 236/4/5 234/4/5 235/4/5
f 237/2/5 236/2/5 235/2/5
f 238/4/5 232/4/5 236/4/5
f 238/2/5 236/2/5 237/2/5
f 240/4/5 238/4/5 237/4/5
f 241/4/5 232/4/5 238/4/5
f 241/4/5 238/4/5 240/4/5
f 242/4/5 232/4/5 241/4/5
f 243/1/5 240/1/5 239/1/5
f 244/4/5 241/4/5 240/4/5
f 244/1/5 240/1/5 243/1/5
f 245/4/5 241/4/5 244/4/5
f 246/5/5 245/5/5 244/5/5
f 247/5/5 245/5/5 246/5/5
f 248/6/5 247/6/5 246/6/5
f 249/6/5 247/6/5 248/6/5
f 250/1/6 251/1/6 252/1/6
f 252/1/6 251/1/6 253/1/6
f 254/1/6 255/1/6 256/1/6
f 256/1/6 255/1/6 257/1/6
f 258/1/6 259/1/6 260/1/6
f 260/1/6 259/1/6 261/1/6
f 262/1/6 263/1/6 264/1/6
f 264/1/6 263/1/6 265/1/6
f 266/2/6 267/2/6 274/2/6
f 267/3/6 268/3/6 274/3/6
f 268/4/6 269/4/6 275/4/6
f 274/3/6 268/3/6 275/3/6
f 269/2/6 270/2/6 276/2/6
f 275/4/6 269/4/6 276/4/6
f 270/4/6 271/4/6 277/4/6
f 276/2/6 270/2/6 277/2/6
f 271/3/6 272/3/6 278/3/6
f 277/4/6 271/4/6 278/4/6
f 272/4/6 273/4/6 279/4/6
f 278/3/6 272/3/6 279/3/6
f 266/2/6 274/2/6 280/2/6
f 277/4/6 278/4/6 281/4/6
f 280/2/6 274/2/6 281/2/6
f 276/4/6 277/4/6 281/4/6
f 278/4/6 279/4/6 281/4/6
f 275/4/6 276/4/6 281/4/6
f 274/4/6 275/4/6 281/4/6
f 280/4/6 281/4/6 282/4/6
f 281/4/6 279/4/6 283/4/6
f 282/4/6 281/4/6 283/4/6
f 282/2/6 283/2/6 284/2/6
f 283/4/6 279/4/6 285/4/6
f 284/2/6 283/2/6 285/2/6
f 284/4/6 285/4/6 286/4/6
f 285/4/6 279/4/6 286/4/6
f 279/4/6 273/4/6 287/4/6
f 286/4/6 279/4/6 287/4/6
f 284/4/6 286/4/6 288/4/6
f 288/4/6 286/4/6 289/4/6
