# MagicaVoxel @ Ephtracy

# group
o 

# material
mtllib house-1_v3-97.mtl
usemtl palette

# normals
vn -1 0 0
vn 1 0 0
vn 0 0 1
vn 0 0 -1
vn 0 -1 0
vn 0 1 0

# texcoords
vt 0.529297 0.5
vt 0.923828 0.5

# verts
v -1.6 0 -1.7
v -1.6 0 -2
v -1.6 0 -2.1
v -1.6 0.1 -2.1
v -1.6 0.1 -2.2
v -1.6 0.3 -2
v -1.6 0.3 -2.1
v -1.6 0.3 -2.2
v -1.6 0.7 -1.7
v -1.6 0.7 -2.1
v -0.7 0 -1.7
v -0.7 0 -2
v -0.7 0 -2.1
v -0.7 0.1 -2.1
v -0.7 0.1 -2.2
v -0.7 0.3 -2
v -0.7 0.3 -2.1
v -0.7 0.3 -2.2
v -0.7 0.7 -1.7
v -0.7 0.7 -2.1
v -1.6 0 -1.7
v -1.6 0.7 -1.7
v -0.7 0 -1.7
v -0.7 0.7 -1.7
v -1.6 0 -2.1
v -1.6 0.1 -2.1
v -1.6 0.3 -2.1
v -1.6 0.7 -2.1
v -0.7 0 -2.1
v -0.7 0.1 -2.1
v -0.7 0.3 -2.1
v -0.7 0.7 -2.1
v -1.6 0.1 -2.2
v -1.6 0.3 -2.2
v -0.7 0.1 -2.2
v -0.7 0.3 -2.2
v -1.6 0 -1.7
v -0.7 0 -1.7
v -1.6 0 -2
v -0.7 0 -2
v -1.6 0 -2.1
v -0.7 0 -2.1
v -1.6 0.1 -2.1
v -0.7 0.1 -2.1
v -1.6 0.1 -2.2
v -0.7 0.1 -2.2
v -1.6 0.3 -2.1
v -0.7 0.3 -2.1
v -1.6 0.3 -2.2
v -0.7 0.3 -2.2
v -1.6 0.7 -1.7
v -0.7 0.7 -1.7
v -1.6 0.7 -2.1
v -0.7 0.7 -2.1

# faces
f 4/1/1 3/1/1 2/1/1
f 6/2/1 2/2/1 1/2/1
f 6/1/1 5/1/1 4/1/1
f 6/1/1 4/1/1 2/1/1
f 7/1/1 5/1/1 6/1/1
f 8/1/1 5/1/1 7/1/1
f 9/2/1 6/2/1 1/2/1
f 9/2/1 7/2/1 6/2/1
f 10/2/1 7/2/1 9/2/1
f 12/1/2 13/1/2 14/1/2
f 11/2/2 12/2/2 16/2/2
f 14/1/2 15/1/2 16/1/2
f 12/1/2 14/1/2 16/1/2
f 16/1/2 15/1/2 17/1/2
f 17/1/2 15/1/2 18/1/2
f 11/2/2 16/2/2 19/2/2
f 16/2/2 17/2/2 19/2/2
f 19/2/2 17/2/2 20/2/2
f 23/2/3 22/2/3 21/2/3
f 24/2/3 22/2/3 23/2/3
f 25/1/4 26/1/4 29/1/4
f 29/1/4 26/1/4 30/1/4
f 27/2/4 28/2/4 31/2/4
f 31/2/4 28/2/4 32/2/4
f 33/1/4 34/1/4 35/1/4
f 35/1/4 34/1/4 36/1/4
f 39/2/5 38/2/5 37/2/5
f 40/2/5 38/2/5 39/2/5
f 41/1/5 40/1/5 39/1/5
f 42/1/5 40/1/5 41/1/5
f 45/1/5 44/1/5 43/1/5
f 46/1/5 44/1/5 45/1/5
f 47/1/6 48/1/6 49/1/6
f 49/1/6 48/1/6 50/1/6
f 51/2/6 52/2/6 53/2/6
f 53/2/6 52/2/6 54/2/6
