# MagicaVoxel @ Ephtracy

# group
o 

# material
mtllib house-1_v3-105.mtl
usemtl palette

# normals
vn -1 0 0
vn 1 0 0
vn 0 0 1
vn 0 0 -1
vn 0 -1 0
vn 0 1 0

# texcoords
vt 0.529297 0.5
vt 0.892578 0.5
vt 0.916016 0.5
vt 0.923828 0.5

# verts
v -2.9 0 -1.5
v -2.9 0 -2.1
v -2.9 0.1 -2.1
v -2.9 0.1 -2.2
v -2.9 0.3 -1.5
v -2.9 0.3 -2.2
v -2.8 0.3 -1.5
v -2.8 0.3 -1.8
v -2.8 0.3 -2
v -2.8 0.3 -2.1
v -2.8 0.4 -1.7
v -2.8 0.4 -1.8
v -2.8 0.4 -1.9
v -2.8 0.4 -2
v -2.8 0.5 -1.5
v -2.8 0.5 -1.7
v -2.8 0.5 -1.8
v -2.8 0.5 -1.9
v -2.8 0.5 -2
v -2.8 0.6 -1.5
v -2.8 0.6 -1.6
v -2.8 0.6 -1.7
v -2.8 0.6 -1.8
v -2.8 0.6 -1.9
v -2.8 0.6 -2
v -2.8 0.6 -2.1
v -2.8 0.7 -1.5
v -2.8 0.7 -1.6
v -2.8 0.7 -1.7
v -2.8 0.7 -1.9
v -2.8 0.7 -2
v -2.8 0.7 -2.1
v -2.3 0 -1.5
v -2.3 0 -2
v -2.3 0 -2.1
v -2.3 0.1 -2.1
v -2.3 0.1 -2.2
v -2.3 0.3 -2
v -2.3 0.3 -2.1
v -2.3 0.3 -2.2
v -2.3 0.7 -1.5
v -2.3 0.7 -2.1
v -2.9 0 -1.5
v -2.9 0.3 -1.5
v -2.8 0.3 -1.5
v -2.8 0.5 -1.5
v -2.8 0.6 -1.5
v -2.8 0.7 -1.5
v -2.7 0 -1.5
v -2.7 0.3 -1.5
v -2.7 0.5 -1.5
v -2.7 0.6 -1.5
v -2.3 0 -1.5
v -2.3 0.7 -1.5
v -2.9 0 -2.1
v -2.9 0.1 -2.1
v -2.8 0.3 -2.1
v -2.8 0.6 -2.1
v -2.8 0.7 -2.1
v -2.7 0.3 -2.1
v -2.7 0.6 -2.1
v -2.3 0 -2.1
v -2.3 0.1 -2.1
v -2.3 0.3 -2.1
v -2.3 0.7 -2.1
v -2.9 0.1 -2.2
v -2.9 0.3 -2.2
v -2.3 0.1 -2.2
v -2.3 0.3 -2.2
v -2.9 0 -1.5
v -2.7 0 -1.5
v -2.3 0 -1.5
v -2.7 0 -2
v -2.3 0 -2
v -2.9 0 -2.1
v -2.3 0 -2.1
v -2.9 0.1 -2.1
v -2.3 0.1 -2.1
v -2.9 0.1 -2.2
v -2.3 0.1 -2.2
v -2.9 0.3 -1.5
v -2.8 0.3 -1.5
v -2.8 0.3 -1.8
v -2.8 0.3 -2
v -2.8 0.3 -2.1
v -2.7 0.3 -2.1
v -2.3 0.3 -2.1
v -2.9 0.3 -2.2
v -2.3 0.3 -2.2
v -2.8 0.7 -1.5
v -2.3 0.7 -1.5
v -2.8 0.7 -1.6
v -2.7 0.7 -1.6
v -2.8 0.7 -1.7
v -2.7 0.7 -1.7
v -2.8 0.7 -1.9
v -2.7 0.7 -1.9
v -2.8 0.7 -2
v -2.7 0.7 -2
v -2.8 0.7 -2.1
v -2.3 0.7 -2.1

# faces
f 3/1/1 2/1/1 1/1/1
f 5/1/1 3/1/1 1/1/1
f 5/1/1 4/1/1 3/1/1
f 6/1/1 4/1/1 5/1/1
f 11/4/1 8/4/1 7/4/1
f 12/3/1 9/3/1 8/3/1
f 12/4/1 8/4/1 11/4/1
f 13/3/1 9/3/1 12/3/1
f 14/2/1 10/2/1 9/2/1
f 14/3/1 9/3/1 13/3/1
f 15/4/1 11/4/1 7/4/1
f 16/3/1 13/3/1 12/3/1
f 16/4/1 11/4/1 15/4/1
f 16/3/1 12/3/1 11/3/1
f 17/3/1 13/3/1 16/3/1
f 18/2/1 14/2/1 13/2/1
f 18/3/1 13/3/1 17/3/1
f 19/2/1 10/2/1 14/2/1
f 19/2/1 14/2/1 18/2/1
f 20/2/1 16/2/1 15/2/1
f 21/2/1 16/2/1 20/2/1
f 22/4/1 17/4/1 16/4/1
f 22/2/1 16/2/1 21/2/1
f 23/3/1 18/3/1 17/3/1
f 23/4/1 17/4/1 22/4/1
f 23/3/1 19/3/1 18/3/1
f 24/3/1 19/3/1 23/3/1
f 25/2/1 10/2/1 19/2/1
f 25/3/1 19/3/1 24/3/1
f 26/2/1 10/2/1 25/2/1
f 27/4/1 21/4/1 20/4/1
f 28/2/1 22/2/1 21/2/1
f 28/4/1 21/4/1 27/4/1
f 29/3/1 24/3/1 23/3/1
f 29/2/1 22/2/1 28/2/1
f 29/3/1 23/3/1 22/3/1
f 30/2/1 25/2/1 24/2/1
f 30/3/1 24/3/1 29/3/1
f 31/4/1 26/4/1 25/4/1
f 31/2/1 25/2/1 30/2/1
f 32/4/1 26/4/1 31/4/1
f 34/1/2 35/1/2 36/1/2
f 33/4/2 34/4/2 38/4/2
f 36/1/2 37/1/2 38/1/2
f 34/1/2 36/1/2 38/1/2
f 38/1/2 37/1/2 39/1/2
f 39/1/2 37/1/2 40/1/2
f 33/4/2 38/4/2 41/4/2
f 38/4/2 39/4/2 41/4/2
f 41/4/2 39/4/2 42/4/2
f 45/1/3 44/1/3 43/1/3
f 49/1/3 45/1/3 43/1/3
f 50/4/3 46/4/3 45/4/3
f 50/1/3 45/1/3 49/1/3
f 51/2/3 47/2/3 46/2/3
f 51/4/3 46/4/3 50/4/3
f 52/4/3 48/4/3 47/4/3
f 52/2/3 47/2/3 51/2/3
f 53/4/3 51/4/3 50/4/3
f 53/4/3 50/4/3 49/4/3
f 53/4/3 52/4/3 51/4/3
f 54/4/3 48/4/3 52/4/3
f 54/4/3 52/4/3 53/4/3
f 57/2/4 58/2/4 60/2/4
f 58/4/4 59/4/4 61/4/4
f 60/2/4 58/2/4 61/2/4
f 55/1/4 56/1/4 62/1/4
f 62/1/4 56/1/4 63/1/4
f 60/4/4 61/4/4 64/4/4
f 61/4/4 59/4/4 65/4/4
f 64/4/4 61/4/4 65/4/4
f 66/1/4 67/1/4 68/1/4
f 68/1/4 67/1/4 69/1/4
f 73/1/5 71/1/5 70/1/5
f 73/4/5 72/4/5 71/4/5
f 74/4/5 72/4/5 73/4/5
f 75/1/5 73/1/5 70/1/5
f 75/1/5 74/1/5 73/1/5
f 76/1/5 74/1/5 75/1/5
f 79/1/5 78/1/5 77/1/5
f 80/1/5 78/1/5 79/1/5
f 81/1/6 82/1/6 83/1/6
f 81/1/6 83/1/6 84/1/6
f 81/1/6 84/1/6 85/1/6
f 81/1/6 85/1/6 88/1/6
f 86/1/6 87/1/6 88/1/6
f 85/1/6 86/1/6 88/1/6
f 88/1/6 87/1/6 89/1/6
f 90/4/6 91/4/6 92/4/6
f 92/4/6 91/4/6 93/4/6
f 92/2/6 93/2/6 94/2/6
f 93/4/6 91/4/6 95/4/6
f 94/2/6 93/2/6 95/2/6
f 94/3/6 95/3/6 96/3/6
f 95/4/6 91/4/6 97/4/6
f 96/3/6 95/3/6 97/3/6
f 96/2/6 97/2/6 98/2/6
f 97/4/6 91/4/6 99/4/6
f 98/2/6 97/2/6 99/2/6
f 98/4/6 99/4/6 100/4/6
f 99/4/6 91/4/6 101/4/6
f 100/4/6 99/4/6 101/4/6
