# MagicaVoxel @ Ephtracy

# group
o 

# material
mtllib house-1_v3-73.mtl
usemtl palette

# normals
vn -1 0 0
vn 1 0 0
vn 0 0 1
vn 0 0 -1
vn 0 -1 0
vn 0 1 0

# texcoords
vt 0.271484 0.5
vt 0.505859 0.5
vt 0.892578 0.5
vt 0.916016 0.5
vt 0.923828 0.5
vt 0.958984 0.5
vt 0.994141 0.5

# verts
v 2.1 1.2 1.5
v 2.1 1.2 1.4
v 2.1 1.2 0.5
v 2.1 1.3 1.4
v 2.1 1.3 0.5
v 2.1 1.5 1.6
v 2.1 1.5 1.5
v 2.1 1.5 1.4
v 2.1 1.6 1.6
v 2.1 1.6 1.5
v 2.1 1.6 1.4
v 2.1 1.7 1.5
v 2.1 1.7 1.4
v 2.1 1.8 1.5
v 2.1 1.8 1.4
v 2.2 1.6 1.6
v 2.2 1.6 1.5
v 2.2 1.7 1.5
v 2.2 1.8 1.6
v 2.2 1.8 1.5
v 2.7 1.3 1.4
v 2.7 1.3 0.5
v 2.7 1.7 1.4
v 2.7 1.8 1.4
v 2.7 1.8 0.5
v 2.2 1.5 1.6
v 2.2 1.5 1.5
v 2.2 1.6 1.6
v 2.2 1.6 1.5
v 2.3 1.6 1.6
v 2.3 1.6 1.5
v 2.3 1.8 1.6
v 2.3 1.8 1.5
v 2.8 1.2 1.5
v 2.8 1.2 1.4
v 2.8 1.2 0.5
v 2.8 1.3 1.5
v 2.8 1.3 1.4
v 2.8 1.4 1.5
v 2.8 1.4 1.4
v 2.8 1.5 1.5
v 2.8 1.5 1.4
v 2.8 1.6 1.5
v 2.8 1.6 1.4
v 2.8 1.7 1.5
v 2.8 1.7 1.4
v 2.8 1.8 1.5
v 2.8 1.8 0.5
v 2.1 1.5 1.6
v 2.1 1.6 1.6
v 2.2 1.5 1.6
v 2.2 1.6 1.6
v 2.2 1.8 1.6
v 2.3 1.6 1.6
v 2.3 1.8 1.6
v 2.1 1.2 1.5
v 2.1 1.5 1.5
v 2.1 1.6 1.5
v 2.1 1.7 1.5
v 2.1 1.8 1.5
v 2.2 1.3 1.5
v 2.2 1.4 1.5
v 2.2 1.5 1.5
v 2.2 1.6 1.5
v 2.2 1.7 1.5
v 2.2 1.8 1.5
v 2.3 1.2 1.5
v 2.3 1.3 1.5
v 2.3 1.4 1.5
v 2.3 1.5 1.5
v 2.3 1.6 1.5
v 2.3 1.8 1.5
v 2.4 1.3 1.5
v 2.4 1.4 1.5
v 2.5 1.2 1.5
v 2.5 1.3 1.5
v 2.5 1.4 1.5
v 2.5 1.5 1.5
v 2.5 1.6 1.5
v 2.5 1.7 1.5
v 2.5 1.8 1.5
v 2.6 1.2 1.5
v 2.6 1.3 1.5
v 2.6 1.4 1.5
v 2.6 1.5 1.5
v 2.6 1.6 1.5
v 2.6 1.7 1.5
v 2.7 1.3 1.5
v 2.7 1.4 1.5
v 2.7 1.5 1.5
v 2.7 1.6 1.5
v 2.7 1.7 1.5
v 2.7 1.8 1.5
v 2.8 1.2 1.5
v 2.8 1.3 1.5
v 2.8 1.4 1.5
v 2.8 1.5 1.5
v 2.8 1.6 1.5
v 2.8 1.7 1.5
v 2.8 1.8 1.5
v 2.1 1.3 1.4
v 2.1 1.5 1.4
v 2.1 1.6 1.4
v 2.1 1.7 1.4
v 2.1 1.8 1.4
v 2.2 1.3 1.4
v 2.2 1.4 1.4
v 2.2 1.5 1.4
v 2.2 1.6 1.4
v 2.2 1.7 1.4
v 2.2 1.8 1.4
v 2.3 1.4 1.4
v 2.3 1.5 1.4
v 2.3 1.6 1.4
v 2.3 1.8 1.4
v 2.4 1.3 1.4
v 2.4 1.4 1.4
v 2.5 1.3 1.4
v 2.5 1.4 1.4
v 2.5 1.5 1.4
v 2.5 1.6 1.4
v 2.5 1.7 1.4
v 2.5 1.8 1.4
v 2.6 1.4 1.4
v 2.6 1.5 1.4
v 2.6 1.6 1.4
v 2.6 1.7 1.4
v 2.7 1.3 1.4
v 2.7 1.7 1.4
v 2.7 1.8 1.4
v 2.1 1.2 0.5
v 2.1 1.3 0.5
v 2.7 1.2 0.5
v 2.7 1.3 0.5
v 2.7 1.8 0.5
v 2.8 1.2 0.5
v 2.8 1.8 0.5
v 2.1 1.2 1.5
v 2.3 1.2 1.5
v 2.5 1.2 1.5
v 2.6 1.2 1.5
v 2.8 1.2 1.5
v 2.1 1.2 1.4
v 2.3 1.2 1.4
v 2.5 1.2 1.4
v 2.6 1.2 1.4
v 2.7 1.2 1.4
v 2.8 1.2 1.4
v 2.1 1.2 0.5
v 2.7 1.2 0.5
v 2.8 1.2 0.5
v 2.1 1.5 1.6
v 2.2 1.5 1.6
v 2.1 1.5 1.5
v 2.2 1.5 1.5
v 2.2 1.6 1.6
v 2.3 1.6 1.6
v 2.2 1.6 1.5
v 2.3 1.6 1.5
v 2.1 1.3 1.4
v 2.2 1.3 1.4
v 2.4 1.3 1.4
v 2.5 1.3 1.4
v 2.7 1.3 1.4
v 2.1 1.3 0.5
v 2.7 1.3 0.5
v 2.1 1.6 1.6
v 2.2 1.6 1.6
v 2.1 1.6 1.5
v 2.2 1.6 1.5
v 2.2 1.8 1.6
v 2.3 1.8 1.6
v 2.1 1.8 1.5
v 2.2 1.8 1.5
v 2.3 1.8 1.5
v 2.5 1.8 1.5
v 2.7 1.8 1.5
v 2.8 1.8 1.5
v 2.1 1.8 1.4
v 2.2 1.8 1.4
v 2.3 1.8 1.4
v 2.5 1.8 1.4
v 2.7 1.8 1.4
v 2.7 1.8 0.5
v 2.8 1.8 0.5

# faces
f 4/5/1 2/5/1 1/5/1
f 4/1/1 3/1/1 2/1/1
f 5/1/1 3/1/1 4/1/1
f 7/5/1 4/5/1 1/5/1
f 8/5/1 4/5/1 7/5/1
f 9/2/1 7/2/1 6/2/1
f 9/2/1 8/2/1 7/2/1
f 10/2/1 8/2/1 9/2/1
f 11/2/1 8/2/1 10/2/1
f 12/6/1 11/6/1 10/6/1
f 13/6/1 11/6/1 12/6/1
f 14/7/1 13/7/1 12/7/1
f 15/7/1 13/7/1 14/7/1
f 18/2/1 17/2/1 16/2/1
f 19/2/1 18/2/1 16/2/1
f 20/2/1 18/2/1 19/2/1
f 23/5/1 22/5/1 21/5/1
f 24/5/1 22/5/1 23/5/1
f 25/5/1 22/5/1 24/5/1
f 26/2/2 27/2/2 28/2/2
f 28/2/2 27/2/2 29/2/2
f 30/2/2 31/2/2 32/2/2
f 32/2/2 31/2/2 33/2/2
f 34/4/2 35/4/2 37/4/2
f 35/5/2 36/5/2 38/5/2
f 37/4/2 35/4/2 38/4/2
f 37/5/2 38/5/2 39/5/2
f 38/5/2 36/5/2 40/5/2
f 39/5/2 38/5/2 40/5/2
f 39/4/2 40/4/2 41/4/2
f 40/5/2 36/5/2 42/5/2
f 41/4/2 40/4/2 42/4/2
f 41/5/2 42/5/2 43/5/2
f 42/5/2 36/5/2 44/5/2
f 43/5/2 42/5/2 44/5/2
f 43/4/2 44/4/2 45/4/2
f 44/5/2 36/5/2 46/5/2
f 45/4/2 44/4/2 46/4/2
f 45/5/2 46/5/2 47/5/2
f 46/5/2 36/5/2 48/5/2
f 47/5/2 46/5/2 48/5/2
f 51/2/3 50/2/3 49/2/3
f 52/2/3 50/2/3 51/2/3
f 54/2/3 53/2/3 52/2/3
f 55/2/3 53/2/3 54/2/3
f 61/5/3 57/5/3 56/5/3
f 62/5/3 57/5/3 61/5/3
f 63/5/3 57/5/3 62/5/3
f 64/6/3 59/6/3 58/6/3
f 65/7/3 60/7/3 59/7/3
f 65/6/3 59/6/3 64/6/3
f 66/7/3 60/7/3 65/7/3
f 67/5/3 61/5/3 56/5/3
f 68/4/3 62/4/3 61/4/3
f 68/5/3 61/5/3 67/5/3
f 69/5/3 64/5/3 63/5/3
f 69/4/3 62/4/3 68/4/3
f 69/5/3 63/5/3 62/5/3
f 70/5/3 64/5/3 69/5/3
f 71/5/3 64/5/3 70/5/3
f 73/3/3 68/3/3 67/3/3
f 73/4/3 69/4/3 68/4/3
f 73/4/3 70/4/3 69/4/3
f 74/4/3 70/4/3 73/4/3
f 75/3/3 73/3/3 67/3/3
f 76/5/3 74/5/3 73/5/3
f 76/3/3 73/3/3 75/3/3
f 77/4/3 70/4/3 74/4/3
f 77/5/3 74/5/3 76/5/3
f 78/5/3 72/5/3 71/5/3
f 78/4/3 70/4/3 77/4/3
f 78/5/3 71/5/3 70/5/3
f 79/5/3 72/5/3 78/5/3
f 80/5/3 72/5/3 79/5/3
f 81/5/3 72/5/3 80/5/3
f 82/5/3 76/5/3 75/5/3
f 83/4/3 77/4/3 76/4/3
f 83/5/3 76/5/3 82/5/3
f 84/5/3 78/5/3 77/5/3
f 84/4/3 77/4/3 83/4/3
f 85/4/3 79/4/3 78/4/3
f 85/5/3 78/5/3 84/5/3
f 86/5/3 80/5/3 79/5/3
f 86/4/3 79/4/3 85/4/3
f 87/3/3 81/3/3 80/3/3
f 87/5/3 80/5/3 86/5/3
f 88/4/3 83/4/3 82/4/3
f 88/4/3 84/4/3 83/4/3
f 88/4/3 87/4/3 86/4/3
f 88/4/3 86/4/3 85/4/3
f 88/4/3 85/4/3 84/4/3
f 89/4/3 87/4/3 88/4/3
f 90/4/3 87/4/3 89/4/3
f 91/4/3 87/4/3 90/4/3
f 92/3/3 81/3/3 87/3/3
f 92/4/3 87/4/3 91/4/3
f 93/3/3 81/3/3 92/3/3
f 94/4/3 88/4/3 82/4/3
f 95/5/3 89/5/3 88/5/3
f 95/4/3 88/4/3 94/4/3
f 96/4/3 90/4/3 89/4/3
f 96/5/3 89/5/3 95/5/3
f 97/5/3 91/5/3 90/5/3
f 97/4/3 90/4/3 96/4/3
f 98/4/3 92/4/3 91/4/3
f 98/5/3 91/5/3 97/5/3
f 99/5/3 93/5/3 92/5/3
f 99/4/3 92/4/3 98/4/3
f 100/5/3 93/5/3 99/5/3
f 101/5/4 102/5/4 106/5/4
f 106/5/4 102/5/4 107/5/4
f 102/2/4 103/2/4 108/2/4
f 107/5/4 102/5/4 108/5/4
f 103/6/4 104/6/4 109/6/4
f 108/2/4 103/2/4 109/2/4
f 104/7/4 105/7/4 110/7/4
f 109/6/4 104/6/4 110/6/4
f 110/7/4 105/7/4 111/7/4
f 108/5/4 109/5/4 112/5/4
f 106/4/4 107/4/4 112/4/4
f 107/5/4 108/5/4 112/5/4
f 112/5/4 109/5/4 113/5/4
f 110/2/4 111/2/4 114/2/4
f 113/5/4 109/5/4 114/5/4
f 109/2/4 110/2/4 114/2/4
f 114/2/4 111/2/4 115/2/4
f 112/4/4 113/4/4 116/4/4
f 106/4/4 112/4/4 116/4/4
f 116/4/4 113/4/4 117/4/4
f 116/5/4 117/5/4 118/5/4
f 117/4/4 113/4/4 119/4/4
f 118/5/4 117/5/4 119/5/4
f 114/5/4 115/5/4 120/5/4
f 119/4/4 113/4/4 120/4/4
f 113/5/4 114/5/4 120/5/4
f 120/5/4 115/5/4 121/5/4
f 121/5/4 115/5/4 122/5/4
f 122/5/4 115/5/4 123/5/4
f 118/4/4 119/4/4 124/4/4
f 119/5/4 120/5/4 124/5/4
f 120/4/4 121/4/4 125/4/4
f 124/5/4 120/5/4 125/5/4
f 121/5/4 122/5/4 126/5/4
f 125/4/4 121/4/4 126/4/4
f 122/3/4 123/3/4 127/3/4
f 126/5/4 122/5/4 127/5/4
f 125/4/4 126/4/4 128/4/4
f 118/4/4 124/4/4 128/4/4
f 126/4/4 127/4/4 128/4/4
f 124/4/4 125/4/4 128/4/4
f 127/3/4 123/3/4 129/3/4
f 128/4/4 127/4/4 129/4/4
f 129/3/4 123/3/4 130/3/4
f 131/1/4 132/1/4 133/1/4
f 133/1/4 132/1/4 134/1/4
f 133/5/4 134/5/4 136/5/4
f 134/5/4 135/5/4 136/5/4
f 136/5/4 135/5/4 137/5/4
f 143/5/5 139/5/5 138/5/5
f 144/3/5 140/3/5 139/3/5
f 144/5/5 139/5/5 143/5/5
f 145/5/5 141/5/5 140/5/5
f 145/3/5 140/3/5 144/3/5
f 146/4/5 142/4/5 141/4/5
f 146/5/5 141/5/5 145/5/5
f 147/4/5 142/4/5 146/4/5
f 148/4/5 142/4/5 147/4/5
f 149/1/5 145/1/5 144/1/5
f 149/1/5 144/1/5 143/1/5
f 149/1/5 146/1/5 145/1/5
f 149/1/5 147/1/5 146/1/5
f 150/5/5 148/5/5 147/5/5
f 150/1/5 147/1/5 149/1/5
f 151/5/5 148/5/5 150/5/5
f 154/2/5 153/2/5 152/2/5
f 155/2/5 153/2/5 154/2/5
f 158/2/5 157/2/5 156/2/5
f 159/2/5 157/2/5 158/2/5
f 160/1/6 161/1/6 165/1/6
f 163/1/6 164/1/6 165/1/6
f 162/1/6 163/1/6 165/1/6
f 161/1/6 162/1/6 165/1/6
f 165/1/6 164/1/6 166/1/6
f 167/2/6 168/2/6 169/2/6
f 169/2/6 168/2/6 170/2/6
f 171/2/6 172/2/6 174/2/6
f 174/2/6 172/2/6 175/2/6
f 173/7/6 174/7/6 179/7/6
f 174/2/6 175/2/6 180/2/6
f 179/7/6 174/7/6 180/7/6
f 175/5/6 176/5/6 181/5/6
f 180/2/6 175/2/6 181/2/6
f 176/3/6 177/3/6 182/3/6
f 181/5/6 176/5/6 182/5/6
f 177/5/6 178/5/6 183/5/6
f 182/3/6 177/3/6 183/3/6
f 183/5/6 178/5/6 184/5/6
f 184/5/6 178/5/6 185/5/6
