# MagicaVoxel @ Ephtracy

# group
o 

# material
mtllib house-1_v3-84.mtl
usemtl palette

# normals
vn -1 0 0
vn 1 0 0
vn 0 0 1
vn 0 0 -1
vn 0 -1 0
vn 0 1 0

# texcoords
vt 0.529297 0.5
vt 0.923828 0.5

# verts
v 2.3 0 -1.2
v 2.3 0 -1.4
v 2.3 0 -1.6
v 2.3 0.3 -1.4
v 2.3 0.3 -1.5
v 2.3 0.3 -1.6
v 2.3 0.7 -1.2
v 2.3 0.7 -1.5
v 2.8 0.3 -1.2
v 2.8 0.3 -1.5
v 2.8 0.7 -1.2
v 2.8 0.7 -1.5
v 2.9 0 -1.2
v 2.9 0 -1.6
v 2.9 0.3 -1.2
v 2.9 0.3 -1.6
v 2.3 0 -1.2
v 2.3 0.7 -1.2
v 2.8 0 -1.2
v 2.8 0.3 -1.2
v 2.8 0.7 -1.2
v 2.9 0 -1.2
v 2.9 0.3 -1.2
v 2.3 0.3 -1.5
v 2.3 0.7 -1.5
v 2.8 0.3 -1.5
v 2.8 0.7 -1.5
v 2.3 0 -1.6
v 2.3 0.3 -1.6
v 2.9 0 -1.6
v 2.9 0.3 -1.6
v 2.3 0 -1.2
v 2.8 0 -1.2
v 2.9 0 -1.2
v 2.3 0 -1.4
v 2.8 0 -1.4
v 2.3 0 -1.6
v 2.9 0 -1.6
v 2.8 0.3 -1.2
v 2.9 0.3 -1.2
v 2.3 0.3 -1.5
v 2.8 0.3 -1.5
v 2.3 0.3 -1.6
v 2.9 0.3 -1.6
v 2.3 0.7 -1.2
v 2.8 0.7 -1.2
v 2.3 0.7 -1.5
v 2.8 0.7 -1.5

# faces
f 4/2/1 2/2/1 1/2/1
f 4/1/1 3/1/1 2/1/1
f 5/1/1 3/1/1 4/1/1
f 6/1/1 3/1/1 5/1/1
f 7/2/1 4/2/1 1/2/1
f 7/2/1 5/2/1 4/2/1
f 8/2/1 5/2/1 7/2/1
f 9/2/2 10/2/2 11/2/2
f 11/2/2 10/2/2 12/2/2
f 13/1/2 14/1/2 15/1/2
f 15/1/2 14/1/2 16/1/2
f 19/2/3 18/2/3 17/2/3
f 20/2/3 18/2/3 19/2/3
f 21/2/3 18/2/3 20/2/3
f 22/1/3 20/1/3 19/1/3
f 23/1/3 20/1/3 22/1/3
f 24/2/4 25/2/4 26/2/4
f 26/2/4 25/2/4 27/2/4
f 28/1/4 29/1/4 30/1/4
f 30/1/4 29/1/4 31/1/4
f 35/2/5 33/2/5 32/2/5
f 36/1/5 34/1/5 33/1/5
f 36/2/5 33/2/5 35/2/5
f 37/1/5 36/1/5 35/1/5
f 38/1/5 34/1/5 36/1/5
f 38/1/5 36/1/5 37/1/5
f 39/1/6 40/1/6 42/1/6
f 41/1/6 42/1/6 43/1/6
f 42/1/6 40/1/6 44/1/6
f 43/1/6 42/1/6 44/1/6
f 45/2/6 46/2/6 47/2/6
f 47/2/6 46/2/6 48/2/6
