# MagicaVoxel @ Ephtracy

# group
o 

# material
mtllib house-1_v3-62.mtl
usemtl palette

# normals
vn -1 0 0
vn 1 0 0
vn 0 0 1
vn 0 0 -1
vn 0 -1 0
vn 0 1 0

# texcoords
vt 0.923828 0.5
vt 0.978516 0.5

# verts
v -1 1.2 -1.2
v -1 1.2 -2.1
v -1 1.4 -2.1
v -1 1.4 -2.2
v -1 1.5 -2
v -1 1.5 -2.1
v -1 1.5 -2.2
v -1 1.6 -1.9
v -1 1.6 -2
v -1 1.6 -2.1
v -1 1.7 -1.8
v -1 1.7 -1.9
v -1 1.7 -2
v -1 1.8 -1.2
v -1 1.8 -1.8
v -1 1.8 -1.9
v 0.1 1.2 -1.4
v 0.1 1.2 -1.5
v 0.1 1.8 -1.4
v 0.1 1.8 -1.5
v 0 1.2 -1.4
v 0 1.2 -2.1
v 0 1.4 -2.1
v 0 1.4 -2.2
v 0 1.5 -2
v 0 1.5 -2.1
v 0 1.5 -2.2
v 0 1.6 -1.9
v 0 1.6 -2
v 0 1.6 -2.1
v 0 1.7 -1.8
v 0 1.7 -1.9
v 0 1.7 -2
v 0 1.8 -1.4
v 0 1.8 -1.8
v 0 1.8 -1.9
v 0.3 1.2 -1.2
v 0.3 1.2 -1.5
v 0.3 1.8 -1.2
v 0.3 1.8 -1.5
v -1 1.2 -1.2
v -1 1.8 -1.2
v 0.3 1.2 -1.2
v 0.3 1.8 -1.2
v 0 1.2 -1.4
v 0 1.8 -1.4
v 0.1 1.2 -1.4
v 0.1 1.8 -1.4
v 0.1 1.2 -1.5
v 0.1 1.8 -1.5
v 0.3 1.2 -1.5
v 0.3 1.8 -1.5
v -1 1.7 -1.9
v -1 1.8 -1.9
v 0 1.7 -1.9
v 0 1.8 -1.9
v -1 1.6 -2
v -1 1.7 -2
v 0 1.6 -2
v 0 1.7 -2
v -1 1.2 -2.1
v -1 1.4 -2.1
v -1 1.5 -2.1
v -1 1.6 -2.1
v 0 1.2 -2.1
v 0 1.4 -2.1
v 0 1.5 -2.1
v 0 1.6 -2.1
v -1 1.4 -2.2
v -1 1.5 -2.2
v 0 1.4 -2.2
v 0 1.5 -2.2
v -1 1.2 -1.2
v 0.3 1.2 -1.2
v 0 1.2 -1.4
v 0.1 1.2 -1.4
v 0.1 1.2 -1.5
v 0.3 1.2 -1.5
v -1 1.2 -2.1
v 0 1.2 -2.1
v -1 1.4 -2.1
v 0 1.4 -2.1
v -1 1.4 -2.2
v 0 1.4 -2.2
v -1 1.5 -2.1
v 0 1.5 -2.1
v -1 1.5 -2.2
v 0 1.5 -2.2
v -1 1.6 -2
v 0 1.6 -2
v -1 1.6 -2.1
v 0 1.6 -2.1
v -1 1.7 -1.9
v 0 1.7 -1.9
v -1 1.7 -2
v 0 1.7 -2
v -1 1.8 -1.2
v 0.3 1.8 -1.2
v 0 1.8 -1.4
v 0.1 1.8 -1.4
v 0.1 1.8 -1.5
v 0.3 1.8 -1.5
v -1 1.8 -1.8
v 0 1.8 -1.8
v -1 1.8 -1.9
v 0 1.8 -1.9

# faces
f 3/1/1 2/1/1 1/1/1
f 5/1/1 3/1/1 1/1/1
f 6/2/1 4/2/1 3/2/1
f 6/1/1 3/1/1 5/1/1
f 7/2/1 4/2/1 6/2/1
f 8/1/1 5/1/1 1/1/1
f 9/2/1 6/2/1 5/2/1
f 9/1/1 5/1/1 8/1/1
f 10/2/1 6/2/1 9/2/1
f 11/1/1 8/1/1 1/1/1
f 12/2/1 9/2/1 8/2/1
f 12/1/1 8/1/1 11/1/1
f 13/2/1 9/2/1 12/2/1
f 14/1/1 11/1/1 1/1/1
f 15/2/1 12/2/1 11/2/1
f 15/1/1 11/1/1 14/1/1
f 16/2/1 12/2/1 15/2/1
f 19/1/1 18/1/1 17/1/1
f 20/1/1 18/1/1 19/1/1
f 21/1/2 22/1/2 23/1/2
f 21/1/2 23/1/2 25/1/2
f 23/2/2 24/2/2 26/2/2
f 25/1/2 23/1/2 26/1/2
f 26/2/2 24/2/2 27/2/2
f 21/1/2 25/1/2 28/1/2
f 25/2/2 26/2/2 29/2/2
f 28/1/2 25/1/2 29/1/2
f 29/2/2 26/2/2 30/2/2
f 21/1/2 28/1/2 31/1/2
f 28/2/2 29/2/2 32/2/2
f 31/1/2 28/1/2 32/1/2
f 32/2/2 29/2/2 33/2/2
f 21/1/2 31/1/2 34/1/2
f 31/2/2 32/2/2 35/2/2
f 34/1/2 31/1/2 35/1/2
f 35/2/2 32/2/2 36/2/2
f 37/1/2 38/1/2 39/1/2
f 39/1/2 38/1/2 40/1/2
f 43/1/3 42/1/3 41/1/3
f 44/1/3 42/1/3 43/1/3
f 45/1/4 46/1/4 47/1/4
f 47/1/4 46/1/4 48/1/4
f 49/1/4 50/1/4 51/1/4
f 51/1/4 50/1/4 52/1/4
f 53/2/4 54/2/4 55/2/4
f 55/2/4 54/2/4 56/2/4
f 57/2/4 58/2/4 59/2/4
f 59/2/4 58/2/4 60/2/4
f 61/1/4 62/1/4 65/1/4
f 65/1/4 62/1/4 66/1/4
f 63/2/4 64/2/4 67/2/4
f 67/2/4 64/2/4 68/2/4
f 69/2/4 70/2/4 71/2/4
f 71/2/4 70/2/4 72/2/4
f 75/1/5 74/1/5 73/1/5
f 76/1/5 74/1/5 75/1/5
f 77/1/5 74/1/5 76/1/5
f 78/1/5 74/1/5 77/1/5
f 79/1/5 75/1/5 73/1/5
f 80/1/5 75/1/5 79/1/5
f 83/2/5 82/2/5 81/2/5
f 84/2/5 82/2/5 83/2/5
f 85/2/6 86/2/6 87/2/6
f 87/2/6 86/2/6 88/2/6
f 89/2/6 90/2/6 91/2/6
f 91/2/6 90/2/6 92/2/6
f 93/2/6 94/2/6 95/2/6
f 95/2/6 94/2/6 96/2/6
f 97/1/6 98/1/6 99/1/6
f 99/1/6 98/1/6 100/1/6
f 100/1/6 98/1/6 101/1/6
f 101/1/6 98/1/6 102/1/6
f 97/1/6 99/1/6 103/1/6
f 103/1/6 99/1/6 104/1/6
f 103/2/6 104/2/6 105/2/6
f 105/2/6 104/2/6 106/2/6
