# MagicaVoxel @ Ephtracy

# group
o 

# material
mtllib house-1_v3-86.mtl
usemtl palette

# normals
vn -1 0 0
vn 1 0 0
vn 0 0 1
vn 0 0 -1
vn 0 -1 0
vn 0 1 0

# texcoords
vt 0.505859 0.5
vt 0.529297 0.5
vt 0.892578 0.5
vt 0.916016 0.5
vt 0.923828 0.5
vt 0.958984 0.5
vt 0.994141 0.5

# verts
v 1.4 0 1.6
v 1.4 0 1.4
v 1.4 0.3 1.6
v 1.4 0.3 1.5
v 1.4 0.3 1.4
v 1.4 0.4 1.5
v 1.4 0.4 1.4
v 1.4 0.6 1.5
v 1.4 0.6 1.4
v 1.4 0.7 1.5
v 1.4 0.7 1.4
v 1.5 0.6 1.6
v 1.5 0.6 1.5
v 1.5 0.7 1.6
v 1.5 0.7 1.5
v 1.6 0.5 1.6
v 1.6 0.5 1.5
v 1.6 0.6 1.6
v 1.6 0.6 1.5
v 2.2 0.5 1.6
v 2.2 0.5 1.5
v 2.2 0.7 1.6
v 2.2 0.7 1.5
v 1.7 0.5 1.6
v 1.7 0.5 1.5
v 1.7 0.7 1.6
v 1.7 0.7 1.5
v 2.3 0 1.6
v 2.3 0 1.4
v 2.3 0.3 1.6
v 2.3 0.3 1.5
v 2.3 0.3 1.4
v 2.3 0.5 1.6
v 2.3 0.5 1.5
v 2.3 0.5 1.4
v 2.3 0.7 1.6
v 2.3 0.7 1.4
v 1.4 0 1.6
v 1.4 0.3 1.6
v 1.5 0.6 1.6
v 1.5 0.7 1.6
v 1.6 0.5 1.6
v 1.6 0.6 1.6
v 1.7 0.5 1.6
v 1.7 0.7 1.6
v 2.2 0.5 1.6
v 2.2 0.7 1.6
v 2.3 0 1.6
v 2.3 0.3 1.6
v 2.3 0.5 1.6
v 2.3 0.7 1.6
v 1.4 0.3 1.5
v 1.4 0.4 1.5
v 1.4 0.6 1.5
v 1.4 0.7 1.5
v 1.5 0.4 1.5
v 1.5 0.5 1.5
v 1.5 0.6 1.5
v 1.5 0.7 1.5
v 1.6 0.3 1.5
v 1.6 0.4 1.5
v 1.6 0.5 1.5
v 1.6 0.6 1.5
v 1.7 0.5 1.5
v 1.7 0.7 1.5
v 1.8 0.3 1.5
v 1.8 0.4 1.5
v 1.9 0.4 1.5
v 1.9 0.5 1.5
v 1.9 0.6 1.5
v 2 0.3 1.5
v 2 0.4 1.5
v 2 0.5 1.5
v 2 0.6 1.5
v 2 0.7 1.5
v 2.1 0.4 1.5
v 2.1 0.5 1.5
v 2.1 0.6 1.5
v 2.1 0.7 1.5
v 2.2 0.5 1.5
v 2.2 0.7 1.5
v 2.3 0.3 1.5
v 2.3 0.5 1.5
v 1.4 0 1.4
v 1.4 0.3 1.4
v 1.4 0.4 1.4
v 1.4 0.6 1.4
v 1.4 0.7 1.4
v 1.5 0.4 1.4
v 1.5 0.5 1.4
v 1.5 0.6 1.4
v 1.5 0.7 1.4
v 1.6 0.3 1.4
v 1.6 0.4 1.4
v 1.6 0.5 1.4
v 1.6 0.6 1.4
v 1.7 0.5 1.4
v 1.7 0.7 1.4
v 1.8 0.3 1.4
v 1.8 0.4 1.4
v 1.9 0.4 1.4
v 1.9 0.5 1.4
v 1.9 0.6 1.4
v 2 0.3 1.4
v 2 0.4 1.4
v 2 0.5 1.4
v 2 0.6 1.4
v 2 0.7 1.4
v 2.1 0.4 1.4
v 2.1 0.5 1.4
v 2.1 0.6 1.4
v 2.1 0.7 1.4
v 2.2 0.5 1.4
v 2.2 0.7 1.4
v 2.3 0 1.4
v 2.3 0.3 1.4
v 2.3 0.5 1.4
v 2.3 0.7 1.4
v 1.4 0 1.6
v 2.3 0 1.6
v 1.4 0 1.4
v 2.3 0 1.4
v 1.6 0.5 1.6
v 1.7 0.5 1.6
v 2.2 0.5 1.6
v 2.3 0.5 1.6
v 1.6 0.5 1.5
v 1.7 0.5 1.5
v 2.2 0.5 1.5
v 2.3 0.5 1.5
v 1.5 0.6 1.6
v 1.6 0.6 1.6
v 1.5 0.6 1.5
v 1.6 0.6 1.5
v 1.4 0.3 1.6
v 2.3 0.3 1.6
v 1.4 0.3 1.5
v 1.6 0.3 1.5
v 1.8 0.3 1.5
v 2 0.3 1.5
v 2.3 0.3 1.5
v 1.5 0.7 1.6
v 1.7 0.7 1.6
v 2.2 0.7 1.6
v 2.3 0.7 1.6
v 1.4 0.7 1.5
v 1.5 0.7 1.5
v 1.7 0.7 1.5
v 2 0.7 1.5
v 2.1 0.7 1.5
v 2.2 0.7 1.5
v 1.4 0.7 1.4
v 1.5 0.7 1.4
v 1.7 0.7 1.4
v 2 0.7 1.4
v 2.1 0.7 1.4
v 2.2 0.7 1.4
v 2.3 0.7 1.4

# faces
f 3/2/1 2/2/1 1/2/1
f 4/2/1 2/2/1 3/2/1
f 5/2/1 2/2/1 4/2/1
f 6/4/1 5/4/1 4/4/1
f 7/4/1 5/4/1 6/4/1
f 8/3/1 7/3/1 6/3/1
f 9/3/1 7/3/1 8/3/1
f 10/4/1 9/4/1 8/4/1
f 11/4/1 9/4/1 10/4/1
f 14/1/1 13/1/1 12/1/1
f 15/1/1 13/1/1 14/1/1
f 18/1/1 17/1/1 16/1/1
f 19/1/1 17/1/1 18/1/1
f 22/1/1 21/1/1 20/1/1
f 23/1/1 21/1/1 22/1/1
f 24/1/2 25/1/2 26/1/2
f 26/1/2 25/1/2 27/1/2
f 28/2/2 29/2/2 30/2/2
f 30/2/2 29/2/2 31/2/2
f 31/2/2 29/2/2 32/2/2
f 31/5/2 32/5/2 34/5/2
f 34/5/2 32/5/2 35/5/2
f 33/1/2 34/1/2 36/1/2
f 34/1/2 35/1/2 36/1/2
f 36/1/2 35/1/2 37/1/2
f 43/1/3 41/1/3 40/1/3
f 44/1/3 43/1/3 42/1/3
f 45/1/3 41/1/3 43/1/3
f 45/1/3 43/1/3 44/1/3
f 48/2/3 39/2/3 38/2/3
f 49/2/3 39/2/3 48/2/3
f 50/1/3 47/1/3 46/1/3
f 51/1/3 47/1/3 50/1/3
f 56/4/3 53/4/3 52/4/3
f 56/3/3 54/3/3 53/3/3
f 57/3/3 54/3/3 56/3/3
f 58/4/3 55/4/3 54/4/3
f 58/3/3 54/3/3 57/3/3
f 59/4/3 55/4/3 58/4/3
f 60/4/3 56/4/3 52/4/3
f 61/5/3 57/5/3 56/5/3
f 61/4/3 56/4/3 60/4/3
f 62/3/3 58/3/3 57/3/3
f 62/5/3 57/5/3 61/5/3
f 63/3/3 58/3/3 62/3/3
f 64/5/3 61/5/3 60/5/3
f 64/5/3 62/5/3 61/5/3
f 66/5/3 64/5/3 60/5/3
f 67/5/3 64/5/3 66/5/3
f 68/3/3 67/3/3 66/3/3
f 68/5/3 64/5/3 67/5/3
f 69/7/3 65/7/3 64/7/3
f 69/5/3 64/5/3 68/5/3
f 70/7/3 65/7/3 69/7/3
f 71/3/3 68/3/3 66/3/3
f 72/4/3 69/4/3 68/4/3
f 72/3/3 68/3/3 71/3/3
f 73/6/3 70/6/3 69/6/3
f 73/4/3 69/4/3 72/4/3
f 74/7/3 65/7/3 70/7/3
f 74/6/3 70/6/3 73/6/3
f 75/7/3 65/7/3 74/7/3
f 76/4/3 73/4/3 72/4/3
f 76/5/3 72/5/3 71/5/3
f 77/7/3 74/7/3 73/7/3
f 77/4/3 73/4/3 76/4/3
f 78/6/3 75/6/3 74/6/3
f 78/7/3 74/7/3 77/7/3
f 79/6/3 75/6/3 78/6/3
f 80/5/3 77/5/3 76/5/3
f 80/7/3 78/7/3 77/7/3
f 80/7/3 79/7/3 78/7/3
f 81/7/3 79/7/3 80/7/3
f 82/5/3 76/5/3 71/5/3
f 82/5/3 80/5/3 76/5/3
f 83/5/3 80/5/3 82/5/3
f 85/4/4 86/4/4 89/4/4
f 86/3/4 87/3/4 89/3/4
f 89/3/4 87/3/4 90/3/4
f 87/4/4 88/4/4 91/4/4
f 90/3/4 87/3/4 91/3/4
f 91/4/4 88/4/4 92/4/4
f 84/2/4 85/2/4 93/2/4
f 85/4/4 89/4/4 93/4/4
f 89/5/4 90/5/4 94/5/4
f 93/4/4 89/4/4 94/4/4
f 90/3/4 91/3/4 95/3/4
f 94/5/4 90/5/4 95/5/4
f 91/1/4 92/1/4 96/1/4
f 95/3/4 91/3/4 96/3/4
f 94/5/4 95/5/4 97/5/4
f 93/5/4 94/5/4 97/5/4
f 95/1/4 96/1/4 97/1/4
f 96/1/4 92/1/4 98/1/4
f 97/1/4 96/1/4 98/1/4
f 84/2/4 93/2/4 99/2/4
f 93/5/4 97/5/4 99/5/4
f 99/5/4 97/5/4 100/5/4
f 99/3/4 100/3/4 101/3/4
f 100/5/4 97/5/4 101/5/4
f 97/7/4 98/7/4 102/7/4
f 101/5/4 97/5/4 102/5/4
f 102/7/4 98/7/4 103/7/4
f 99/3/4 101/3/4 104/3/4
f 84/2/4 99/2/4 104/2/4
f 101/4/4 102/4/4 105/4/4
f 104/3/4 101/3/4 105/3/4
f 102/6/4 103/6/4 106/6/4
f 105/4/4 102/4/4 106/4/4
f 103/7/4 98/7/4 107/7/4
f 106/6/4 103/6/4 107/6/4
f 107/7/4 98/7/4 108/7/4
f 105/4/4 106/4/4 109/4/4
f 104/5/4 105/5/4 109/5/4
f 106/7/4 107/7/4 110/7/4
f 109/4/4 106/4/4 110/4/4
f 107/6/4 108/6/4 111/6/4
f 110/7/4 107/7/4 111/7/4
f 111/6/4 108/6/4 112/6/4
f 109/5/4 110/5/4 113/5/4
f 110/7/4 111/7/4 113/7/4
f 111/7/4 112/7/4 113/7/4
f 113/7/4 112/7/4 114/7/4
f 84/2/4 104/2/4 115/2/4
f 104/5/4 109/5/4 116/5/4
f 115/2/4 104/2/4 116/2/4
f 109/5/4 113/5/4 116/5/4
f 113/1/4 114/1/4 117/1/4
f 116/5/4 113/5/4 117/5/4
f 117/1/4 114/1/4 118/1/4
f 121/2/5 120/2/5 119/2/5
f 122/2/5 120/2/5 121/2/5
f 127/1/5 124/1/5 123/1/5
f 128/1/5 124/1/5 127/1/5
f 129/1/5 126/1/5 125/1/5
f 130/1/5 126/1/5 129/1/5
f 133/1/5 132/1/5 131/1/5
f 134/1/5 132/1/5 133/1/5
f 135/2/6 136/2/6 137/2/6
f 137/2/6 136/2/6 138/2/6
f 138/2/6 136/2/6 139/2/6
f 139/2/6 136/2/6 140/2/6
f 140/2/6 136/2/6 141/2/6
f 142/1/6 143/1/6 147/1/6
f 147/1/6 143/1/6 148/1/6
f 144/1/6 145/1/6 151/1/6
f 146/4/6 147/4/6 152/4/6
f 147/1/6 148/1/6 153/1/6
f 152/4/6 147/4/6 153/4/6
f 148/7/6 149/7/6 154/7/6
f 153/1/6 148/1/6 154/1/6
f 149/6/6 150/6/6 155/6/6
f 154/7/6 149/7/6 155/7/6
f 150/7/6 151/7/6 156/7/6
f 155/6/6 150/6/6 156/6/6
f 151/1/6 145/1/6 157/1/6
f 156/7/6 151/7/6 157/7/6
f 157/1/6 145/1/6 158/1/6
