# MagicaVoxel @ Ephtracy

# group
o 

# material
mtllib house-1_v3-42.mtl
usemtl palette

# normals
vn -1 0 0
vn 1 0 0
vn 0 0 1
vn 0 0 -1
vn 0 -1 0
vn 0 1 0

# texcoords
vt 0.505859 0.5
vt 0.892578 0.5
vt 0.916016 0.5
vt 0.923828 0.5
vt 0.978516 0.5

# verts
v -3 1.8 -1.7
v -3 1.8 -1.8
v -3 1.9 -1.6
v -3 1.9 -1.7
v -3 1.9 -1.8
v -3 2 -1.5
v -3 2 -1.6
v -3 2 -1.7
v -3 2.1 -1.4
v -3 2.1 -1.5
v -3 2.1 -1.6
v -3 2.2 -1.3
v -3 2.2 -1.4
v -3 2.2 -1.5
v -3 2.3 -1.2
v -3 2.3 -1.3
v -3 2.3 -1.4
v -3 2.4 -1.1
v -3 2.4 -1.2
v -3 2.4 -1.3
v -3 2.5 -1
v -3 2.5 -1.1
v -3 2.5 -1.2
v -3 2.6 -0.9
v -3 2.6 -1
v -3 2.6 -1.1
v -3 2.7 -0.9
v -3 2.7 -1
v -2.9 1.8 -0.9
v -2.9 1.8 -1
v -2.9 2.3 -0.9
v -2.9 2.3 -1
v -2.8 1.8 -1
v -2.8 1.8 -1.2
v -2.8 1.8 -1.5
v -2.8 1.8 -1.7
v -2.8 1.9 -1.2
v -2.8 1.9 -1.3
v -2.8 1.9 -1.4
v -2.8 1.9 -1.5
v -2.8 1.9 -1.6
v -2.8 1.9 -1.7
v -2.8 2 -1.1
v -2.8 2 -1.3
v -2.8 2 -1.4
v -2.8 2 -1.5
v -2.8 2 -1.6
v -2.8 2.1 -1
v -2.8 2.1 -1.1
v -2.8 2.1 -1.2
v -2.8 2.1 -1.3
v -2.8 2.1 -1.4
v -2.8 2.1 -1.5
v -2.8 2.2 -1
v -2.8 2.2 -1.2
v -2.8 2.2 -1.3
v -2.8 2.2 -1.4
v -2.8 2.3 -0.9
v -2.8 2.3 -1
v -2.8 2.3 -1.1
v -2.8 2.3 -1.2
v -2.8 2.3 -1.3
v -2.8 2.4 -0.9
v -2.8 2.4 -1
v -2.8 2.4 -1.1
v -2.8 2.4 -1.2
v -2.8 2.5 -0.9
v -2.8 2.5 -1
v -2.8 2.5 -1.1
v -2.8 2.6 -0.9
v -2.8 2.6 -1
v -2.7 1.8 -0.9
v -2.7 1.8 -1
v -2.7 1.8 -1.2
v -2.7 2 -1.1
v -2.7 2 -1.2
v -2.7 2.1 -1
v -2.7 2.1 -1.1
v -2.7 2.1 -1.2
v -2.7 2.2 -1
v -2.7 2.2 -1.2
v -2.7 2.3 -0.9
v -2.7 2.3 -1
v -2.7 2.3 -1.1
v -2.7 2.3 -1.2
v -2.7 2.4 -0.9
v -2.7 2.4 -1
v -2.7 2.4 -1.1
v -2.7 2.4 -1.2
v -2.7 2.5 -0.9
v -2.7 2.5 -1
v -2.7 2.5 -1.1
v -2.7 2.6 -0.9
v -2.7 2.6 -1
v -2 1.8 -1.2
v -2 1.8 -1.6
v -2 1.8 -1.8
v -2 1.9 -1.5
v -2 1.9 -1.6
v -2 1.9 -1.7
v -2 1.9 -1.8
v -2 2 -1.6
v -2 2 -1.7
v -2 2.1 -1.4
v -2 2.1 -1.5
v -2 2.1 -1.6
v -2 2.2 -1.3
v -2 2.2 -1.4
v -2 2.2 -1.5
v -2 2.3 -1.2
v -2 2.3 -1.3
v -2 2.3 -1.4
v -2 2.4 -1.1
v -2 2.4 -1.2
v -2 2.4 -1.3
v -2 2.5 -1
v -2 2.5 -1.1
v -2 2.5 -1.2
v -2 2.6 -0.9
v -2 2.6 -1
v -2 2.6 -1.1
v -2 2.7 -0.9
v -2 2.7 -1
v -3 2.6 -0.9
v -3 2.7 -0.9
v -2.9 1.8 -0.9
v -2.9 2.3 -0.9
v -2.8 2.3 -0.9
v -2.8 2.4 -0.9
v -2.8 2.5 -0.9
v -2.8 2.6 -0.9
v -2.7 1.8 -0.9
v -2.7 2.3 -0.9
v -2.7 2.4 -0.9
v -2.7 2.5 -0.9
v -2.7 2.6 -0.9
v -2 2.6 -0.9
v -2 2.7 -0.9
v -3 2.5 -1
v -3 2.6 -1
v -2.8 2.5 -1
v -2.8 2.6 -1
v -2.7 2.5 -1
v -2.7 2.6 -1
v -2 2.5 -1
v -2 2.6 -1
v -3 2.4 -1.1
v -3 2.5 -1.1
v -2.8 2.4 -1.1
v -2.8 2.5 -1.1
v -2.7 2.4 -1.1
v -2.7 2.5 -1.1
v -2 2.4 -1.1
v -2 2.5 -1.1
v -3 2.3 -1.2
v -3 2.4 -1.2
v -2.8 2.3 -1.2
v -2.8 2.4 -1.2
v -2.7 1.8 -1.2
v -2.7 2 -1.2
v -2.7 2.1 -1.2
v -2.7 2.2 -1.2
v -2.7 2.3 -1.2
v -2.7 2.4 -1.2
v -2 1.8 -1.2
v -2 2.3 -1.2
v -2 2.4 -1.2
v -3 2.2 -1.3
v -3 2.3 -1.3
v -2.8 2.2 -1.3
v -2.8 2.3 -1.3
v -3 2.1 -1.4
v -3 2.2 -1.4
v -2.8 2.1 -1.4
v -2.8 2.2 -1.4
v -3 2 -1.5
v -3 2.1 -1.5
v -2.8 2 -1.5
v -2.8 2.1 -1.5
v -3 1.9 -1.6
v -3 2 -1.6
v -2.8 1.9 -1.6
v -2.8 2 -1.6
v -3 1.8 -1.7
v -3 1.9 -1.7
v -2.8 1.8 -1.7
v -2.8 1.9 -1.7
v -3 2.6 -1
v -3 2.7 -1
v -2.9 1.8 -1
v -2.9 2.3 -1
v -2.8 1.8 -1
v -2.8 2.1 -1
v -2.8 2.2 -1
v -2.8 2.3 -1
v -2 2.6 -1
v -2 2.7 -1
v -3 2.5 -1.1
v -3 2.6 -1.1
v -2 2.5 -1.1
v -2 2.6 -1.1
v -3 2.4 -1.2
v -3 2.5 -1.2
v -2 2.4 -1.2
v -2 2.5 -1.2
v -3 2.3 -1.3
v -3 2.4 -1.3
v -2 2.3 -1.3
v -2 2.4 -1.3
v -3 2.2 -1.4
v -3 2.3 -1.4
v -2 2.2 -1.4
v -2 2.3 -1.4
v -3 2.1 -1.5
v -3 2.2 -1.5
v -2 2.1 -1.5
v -2 2.2 -1.5
v -3 2 -1.6
v -3 2.1 -1.6
v -2 2 -1.6
v -2 2.1 -1.6
v -3 1.9 -1.7
v -3 2 -1.7
v -2 1.9 -1.7
v -2 2 -1.7
v -3 1.8 -1.8
v -3 1.9 -1.8
v -2 1.8 -1.8
v -2 1.9 -1.8
v -2.9 1.8 -0.9
v -2.7 1.8 -0.9
v -2.9 1.8 -1
v -2.8 1.8 -1
v -2.7 1.8 -1
v -2.8 1.8 -1.2
v -2.7 1.8 -1.2
v -2 1.8 -1.2
v -2.8 1.8 -1.5
v -2.7 1.8 -1.5
v -2.7 1.8 -1.6
v -2 1.8 -1.6
v -3 1.8 -1.7
v -2.8 1.8 -1.7
v -2.7 1.8 -1.7
v -3 1.8 -1.8
v -2 1.8 -1.8
v -3 1.9 -1.6
v -2.8 1.9 -1.6
v -3 1.9 -1.7
v -2.8 1.9 -1.7
v -3 2 -1.5
v -2.8 2 -1.5
v -3 2 -1.6
v -2.8 2 -1.6
v -3 2.1 -1.4
v -2.8 2.1 -1.4
v -3 2.1 -1.5
v -2.8 2.1 -1.5
v -3 2.2 -1.3
v -2.8 2.2 -1.3
v -3 2.2 -1.4
v -2.8 2.2 -1.4
v -3 2.3 -1.2
v -2.8 2.3 -1.2
v -3 2.3 -1.3
v -2.8 2.3 -1.3
v -3 2.4 -1.1
v -2.8 2.4 -1.1
v -2.7 2.4 -1.1
v -2 2.4 -1.1
v -3 2.4 -1.2
v -2.8 2.4 -1.2
v -2.7 2.4 -1.2
v -2 2.4 -1.2
v -3 2.5 -1
v -2.8 2.5 -1
v -2.7 2.5 -1
v -2 2.5 -1
v -3 2.5 -1.1
v -2.8 2.5 -1.1
v -2.7 2.5 -1.1
v -2 2.5 -1.1
v -3 2.6 -0.9
v -2.8 2.6 -0.9
v -2.7 2.6 -0.9
v -2 2.6 -0.9
v -3 2.6 -1
v -2.8 2.6 -1
v -2.7 2.6 -1
v -2 2.6 -1
v -3 1.9 -1.7
v -2 1.9 -1.7
v -3 1.9 -1.8
v -2 1.9 -1.8
v -3 2 -1.6
v -2 2 -1.6
v -3 2 -1.7
v -2 2 -1.7
v -3 2.1 -1.5
v -2 2.1 -1.5
v -3 2.1 -1.6
v -2 2.1 -1.6
v -3 2.2 -1.4
v -2 2.2 -1.4
v -3 2.2 -1.5
v -2 2.2 -1.5
v -2.9 2.3 -0.9
v -2.8 2.3 -0.9
v -2.9 2.3 -1
v -2.8 2.3 -1
v -3 2.3 -1.3
v -2 2.3 -1.3
v -3 2.3 -1.4
v -2 2.3 -1.4
v -3 2.4 -1.2
v -2 2.4 -1.2
v -3 2.4 -1.3
v -2 2.4 -1.3
v -3 2.5 -1.1
v -2 2.5 -1.1
v -3 2.5 -1.2
v -2 2.5 -1.2
v -3 2.6 -1
v -2 2.6 -1
v -3 2.6 -1.1
v -2 2.6 -1.1
v -3 2.7 -0.9
v -2 2.7 -0.9
v -3 2.7 -1
v -2 2.7 -1

# faces
f 4/5/1 2/5/1 1/5/1
f 5/5/1 2/5/1 4/5/1
f 7/5/1 4/5/1 3/5/1
f 8/5/1 4/5/1 7/5/1
f 10/5/1 7/5/1 6/5/1
f 11/5/1 7/5/1 10/5/1
f 13/5/1 10/5/1 9/5/1
f 14/5/1 10/5/1 13/5/1
f 16/5/1 13/5/1 12/5/1
f 17/5/1 13/5/1 16/5/1
f 19/5/1 16/5/1 15/5/1
f 20/5/1 16/5/1 19/5/1
f 22/5/1 19/5/1 18/5/1
f 23/5/1 19/5/1 22/5/1
f 25/5/1 22/5/1 21/5/1
f 26/5/1 22/5/1 25/5/1
f 27/5/1 25/5/1 24/5/1
f 28/5/1 25/5/1 27/5/1
f 31/1/1 30/1/1 29/1/1
f 32/1/1 30/1/1 31/1/1
f 37/4/1 34/4/1 33/4/1
f 37/2/1 35/2/1 34/2/1
f 38/2/1 35/2/1 37/2/1
f 39/2/1 35/2/1 38/2/1
f 40/4/1 36/4/1 35/4/1
f 40/2/1 35/2/1 39/2/1
f 41/4/1 36/4/1 40/4/1
f 42/4/1 36/4/1 41/4/1
f 43/4/1 37/4/1 33/4/1
f 43/4/1 38/4/1 37/4/1
f 44/3/1 39/3/1 38/3/1
f 44/4/1 38/4/1 43/4/1
f 45/4/1 41/4/1 40/4/1
f 45/3/1 39/3/1 44/3/1
f 45/4/1 40/4/1 39/4/1
f 46/4/1 41/4/1 45/4/1
f 47/4/1 41/4/1 46/4/1
f 48/4/1 43/4/1 33/4/1
f 49/2/1 44/2/1 43/2/1
f 49/4/1 43/4/1 48/4/1
f 50/2/1 44/2/1 49/2/1
f 51/4/1 45/4/1 44/4/1
f 51/2/1 44/2/1 50/2/1
f 51/4/1 46/4/1 45/4/1
f 52/4/1 46/4/1 51/4/1
f 53/4/1 46/4/1 52/4/1
f 54/3/1 50/3/1 49/3/1
f 54/3/1 49/3/1 48/3/1
f 55/4/1 52/4/1 51/4/1
f 55/3/1 50/3/1 54/3/1
f 55/4/1 51/4/1 50/4/1
f 56/4/1 52/4/1 55/4/1
f 57/4/1 52/4/1 56/4/1
f 59/2/1 55/2/1 54/2/1
f 59/2/1 56/2/1 55/2/1
f 60/2/1 56/2/1 59/2/1
f 61/2/1 56/2/1 60/2/1
f 62/2/1 56/2/1 61/2/1
f 63/4/1 59/4/1 58/4/1
f 64/3/1 60/3/1 59/3/1
f 64/4/1 59/4/1 63/4/1
f 65/4/1 61/4/1 60/4/1
f 65/3/1 60/3/1 64/3/1
f 66/4/1 61/4/1 65/4/1
f 67/2/1 64/2/1 63/2/1
f 68/4/1 65/4/1 64/4/1
f 68/2/1 64/2/1 67/2/1
f 69/4/1 65/4/1 68/4/1
f 70/4/1 68/4/1 67/4/1
f 71/4/1 68/4/1 70/4/1
f 73/4/2 74/4/2 75/4/2
f 75/4/2 74/4/2 76/4/2
f 72/1/2 73/1/2 77/1/2
f 73/4/2 75/4/2 77/4/2
f 75/2/2 76/2/2 78/2/2
f 77/4/2 75/4/2 78/4/2
f 78/2/2 76/2/2 79/2/2
f 72/1/2 77/1/2 80/1/2
f 77/3/2 78/3/2 80/3/2
f 78/3/2 79/3/2 80/3/2
f 80/3/2 79/3/2 81/3/2
f 72/1/2 80/1/2 82/1/2
f 80/2/2 81/2/2 83/2/2
f 82/1/2 80/1/2 83/1/2
f 83/2/2 81/2/2 84/2/2
f 84/2/2 81/2/2 85/2/2
f 82/4/2 83/4/2 86/4/2
f 83/3/2 84/3/2 87/3/2
f 86/4/2 83/4/2 87/4/2
f 84/4/2 85/4/2 88/4/2
f 87/3/2 84/3/2 88/3/2
f 88/4/2 85/4/2 89/4/2
f 86/2/2 87/2/2 90/2/2
f 87/4/2 88/4/2 91/4/2
f 90/2/2 87/2/2 91/2/2
f 91/4/2 88/4/2 92/4/2
f 90/4/2 91/4/2 93/4/2
f 93/4/2 91/4/2 94/4/2
f 95/4/2 96/4/2 98/4/2
f 96/5/2 97/5/2 99/5/2
f 98/4/2 96/4/2 99/4/2
f 99/5/2 97/5/2 100/5/2
f 100/5/2 97/5/2 101/5/2
f 98/5/2 99/5/2 102/5/2
f 99/5/2 100/5/2 102/5/2
f 102/5/2 100/5/2 103/5/2
f 95/4/2 98/4/2 104/4/2
f 98/5/2 102/5/2 105/5/2
f 104/4/2 98/4/2 105/4/2
f 105/5/2 102/5/2 106/5/2
f 95/4/2 104/4/2 107/4/2
f 104/5/2 105/5/2 108/5/2
f 107/4/2 104/4/2 108/4/2
f 108/5/2 105/5/2 109/5/2
f 95/4/2 107/4/2 110/4/2
f 107/5/2 108/5/2 111/5/2
f 110/4/2 107/4/2 111/4/2
f 111/5/2 108/5/2 112/5/2
f 110/5/2 111/5/2 114/5/2
f 114/5/2 111/5/2 115/5/2
f 113/5/2 114/5/2 117/5/2
f 117/5/2 114/5/2 118/5/2
f 116/5/2 117/5/2 120/5/2
f 120/5/2 117/5/2 121/5/2
f 119/5/2 120/5/2 122/5/2
f 122/5/2 120/5/2 123/5/2
f 128/1/3 127/1/3 126/1/3
f 131/5/3 125/5/3 124/5/3
f 132/1/3 128/1/3 126/1/3
f 133/4/3 129/4/3 128/4/3
f 133/1/3 128/1/3 132/1/3
f 134/2/3 130/2/3 129/2/3
f 134/4/3 129/4/3 133/4/3
f 135/4/3 131/4/3 130/4/3
f 135/2/3 130/2/3 134/2/3
f 136/5/3 125/5/3 131/5/3
f 136/4/3 131/4/3 135/4/3
f 137/5/3 125/5/3 136/5/3
f 138/5/3 125/5/3 137/5/3
f 141/5/3 140/5/3 139/5/3
f 142/5/3 140/5/3 141/5/3
f 145/5/3 144/5/3 143/5/3
f 146/5/3 144/5/3 145/5/3
f 149/5/3 148/5/3 147/5/3
f 150/5/3 148/5/3 149/5/3
f 153/5/3 152/5/3 151/5/3
f 154/5/3 152/5/3 153/5/3
f 157/5/3 156/5/3 155/5/3
f 158/5/3 156/5/3 157/5/3
f 165/4/3 160/4/3 159/4/3
f 165/4/3 161/4/3 160/4/3
f 165/4/3 163/4/3 162/4/3
f 165/4/3 162/4/3 161/4/3
f 166/5/3 164/5/3 163/5/3
f 166/4/3 163/4/3 165/4/3
f 167/5/3 164/5/3 166/5/3
f 170/5/3 169/5/3 168/5/3
f 171/5/3 169/5/3 170/5/3
f 174/5/3 173/5/3 172/5/3
f 175/5/3 173/5/3 174/5/3
f 178/5/3 177/5/3 176/5/3
f 179/5/3 177/5/3 178/5/3
f 182/5/3 181/5/3 180/5/3
f 183/5/3 181/5/3 182/5/3
f 186/5/3 185/5/3 184/5/3
f 187/5/3 185/5/3 186/5/3
f 190/1/4 191/1/4 192/1/4
f 192/1/4 191/1/4 193/1/4
f 193/1/4 191/1/4 194/1/4
f 194/1/4 191/1/4 195/1/4
f 188/5/4 189/5/4 196/5/4
f 196/5/4 189/5/4 197/5/4
f 198/5/4 199/5/4 200/5/4
f 200/5/4 199/5/4 201/5/4
f 202/5/4 203/5/4 204/5/4
f 204/5/4 203/5/4 205/5/4
f 206/5/4 207/5/4 208/5/4
f 208/5/4 207/5/4 209/5/4
f 210/5/4 211/5/4 212/5/4
f 212/5/4 211/5/4 213/5/4
f 214/5/4 215/5/4 216/5/4
f 216/5/4 215/5/4 217/5/4
f 218/5/4 219/5/4 220/5/4
f 220/5/4 219/5/4 221/5/4
f 222/5/4 223/5/4 224/5/4
f 224/5/4 223/5/4 225/5/4
f 226/5/4 227/5/4 228/5/4
f 228/5/4 227/5/4 229/5/4
f 232/1/5 231/1/5 230/1/5
f 233/1/5 231/1/5 232/1/5
f 234/1/5 231/1/5 233/1/5
f 235/4/5 234/4/5 233/4/5
f 236/4/5 234/4/5 235/4/5
f 238/2/5 236/2/5 235/2/5
f 239/4/5 237/4/5 236/4/5
f 239/2/5 236/2/5 238/2/5
f 240/4/5 239/4/5 238/4/5
f 240/4/5 237/4/5 239/4/5
f 241/4/5 237/4/5 240/4/5
f 243/4/5 240/4/5 238/4/5
f 244/5/5 241/5/5 240/5/5
f 244/4/5 240/4/5 243/4/5
f 245/5/5 243/5/5 242/5/5
f 245/5/5 244/5/5 243/5/5
f 246/5/5 241/5/5 244/5/5
f 246/5/5 244/5/5 245/5/5
f 249/5/5 248/5/5 247/5/5
f 250/5/5 248/5/5 249/5/5
f 253/5/5 252/5/5 251/5/5
f 254/5/5 252/5/5 253/5/5
f 257/5/5 256/5/5 255/5/5
f 258/5/5 256/5/5 257/5/5
f 261/5/5 260/5/5 259/5/5
f 262/5/5 260/5/5 261/5/5
f 265/5/5 264/5/5 263/5/5
f 266/5/5 264/5/5 265/5/5
f 271/5/5 268/5/5 267/5/5
f 272/5/5 268/5/5 271/5/5
f 273/5/5 270/5/5 269/5/5
f 274/5/5 270/5/5 273/5/5
f 279/5/5 276/5/5 275/5/5
f 280/5/5 276/5/5 279/5/5
f 281/5/5 278/5/5 277/5/5
f 282/5/5 278/5/5 281/5/5
f 287/5/5 284/5/5 283/5/5
f 288/5/5 284/5/5 287/5/5
f 289/5/5 286/5/5 285/5/5
f 290/5/5 286/5/5 289/5/5
f 291/5/6 292/5/6 293/5/6
f 293/5/6 292/5/6 294/5/6
f 295/5/6 296/5/6 297/5/6
f 297/5/6 296/5/6 298/5/6
f 299/5/6 300/5/6 301/5/6
f 301/5/6 300/5/6 302/5/6
f 303/5/6 304/5/6 305/5/6
f 305/5/6 304/5/6 306/5/6
f 307/1/6 308/1/6 309/1/6
f 309/1/6 308/1/6 310/1/6
f 311/5/6 312/5/6 313/5/6
f 313/5/6 312/5/6 314/5/6
f 315/5/6 316/5/6 317/5/6
f 317/5/6 316/5/6 318/5/6
f 319/5/6 320/5/6 321/5/6
f 321/5/6 320/5/6 322/5/6
f 323/5/6 324/5/6 325/5/6
f 325/5/6 324/5/6 326/5/6
f 327/5/6 328/5/6 329/5/6
f 329/5/6 328/5/6 330/5/6
