# MagicaVoxel @ Ephtracy

# group
o 

# material
mtllib house-1_v3-114.mtl
usemtl palette

# normals
vn -1 0 0
vn 1 0 0
vn 0 0 1
vn 0 0 -1
vn 0 -1 0
vn 0 1 0

# texcoords
vt 0.919922 0.5
vt 0.923828 0.5
vt 0.978516 0.5

# verts
v -2.6 1.2 2.1
v -2.6 1.2 1.8
v -2.6 1.3 2.1
v -2.6 1.3 2
v -2.6 1.4 2.2
v -2.6 1.4 2.1
v -2.6 1.4 2
v -2.6 1.5 2.2
v -2.6 1.5 2.1
v -2.6 1.5 2
v -2.6 1.6 2.1
v -2.6 1.6 2
v -2.6 1.6 1.9
v -2.6 1.7 2
v -2.6 1.7 1.9
v -2.6 1.7 1.8
v -2.6 1.8 1.9
v -2.6 1.8 1.8
v -2 1.2 2.1
v -2 1.2 1.8
v -2 1.3 2.1
v -2 1.3 2
v -2 1.4 2.2
v -2 1.4 2.1
v -2 1.4 2
v -2 1.5 2.2
v -2 1.5 2.1
v -2 1.5 2
v -2 1.6 2.1
v -2 1.6 2
v -2 1.6 1.9
v -2 1.7 2
v -2 1.7 1.9
v -2 1.7 1.8
v -2 1.8 1.9
v -2 1.8 1.8
v -2.6 1.4 2.2
v -2.6 1.5 2.2
v -2 1.4 2.2
v -2 1.5 2.2
v -2.6 1.2 2.1
v -2.6 1.3 2.1
v -2.6 1.4 2.1
v -2.6 1.5 2.1
v -2.6 1.6 2.1
v -2 1.2 2.1
v -2 1.3 2.1
v -2 1.4 2.1
v -2 1.5 2.1
v -2 1.6 2.1
v -2.6 1.6 2
v -2.6 1.7 2
v -2 1.6 2
v -2 1.7 2
v -2.6 1.7 1.9
v -2.6 1.8 1.9
v -2 1.7 1.9
v -2 1.8 1.9
v -2.6 1.2 1.8
v -2.6 1.7 1.8
v -2.6 1.8 1.8
v -2 1.2 1.8
v -2 1.7 1.8
v -2 1.8 1.8
v -2.6 1.2 2.1
v -2 1.2 2.1
v -2.6 1.2 1.8
v -2 1.2 1.8
v -2.6 1.4 2.2
v -2 1.4 2.2
v -2.6 1.4 2.1
v -2 1.4 2.1
v -2.6 1.5 2.2
v -2 1.5 2.2
v -2.6 1.5 2.1
v -2 1.5 2.1
v -2.6 1.6 2.1
v -2 1.6 2.1
v -2.6 1.6 2
v -2 1.6 2
v -2.6 1.7 2
v -2 1.7 2
v -2.6 1.7 1.9
v -2 1.7 1.9
v -2.6 1.8 1.9
v -2 1.8 1.9
v -2.6 1.8 1.8
v -2 1.8 1.8

# faces
f 3/2/1 2/2/1 1/2/1
f 4/2/1 2/2/1 3/2/1
f 6/1/1 4/1/1 3/1/1
f 7/2/1 2/2/1 4/2/1
f 7/1/1 4/1/1 6/1/1
f 8/3/1 6/3/1 5/3/1
f 9/2/1 7/2/1 6/2/1
f 9/3/1 6/3/1 8/3/1
f 10/2/1 2/2/1 7/2/1
f 10/2/1 7/2/1 9/2/1
f 11/3/1 10/3/1 9/3/1
f 12/2/1 2/2/1 10/2/1
f 12/3/1 10/3/1 11/3/1
f 13/2/1 2/2/1 12/2/1
f 14/3/1 13/3/1 12/3/1
f 15/2/1 2/2/1 13/2/1
f 15/3/1 13/3/1 14/3/1
f 16/2/1 2/2/1 15/2/1
f 17/3/1 16/3/1 15/3/1
f 18/3/1 16/3/1 17/3/1
f 19/2/2 20/2/2 21/2/2
f 21/2/2 20/2/2 22/2/2
f 21/1/2 22/1/2 24/1/2
f 22/2/2 20/2/2 25/2/2
f 24/1/2 22/1/2 25/1/2
f 23/3/2 24/3/2 26/3/2
f 24/2/2 25/2/2 27/2/2
f 26/3/2 24/3/2 27/3/2
f 25/2/2 20/2/2 28/2/2
f 27/2/2 25/2/2 28/2/2
f 27/3/2 28/3/2 29/3/2
f 28/2/2 20/2/2 30/2/2
f 29/3/2 28/3/2 30/3/2
f 30/2/2 20/2/2 31/2/2
f 30/3/2 31/3/2 32/3/2
f 31/2/2 20/2/2 33/2/2
f 32/3/2 31/3/2 33/3/2
f 33/2/2 20/2/2 34/2/2
f 33/3/2 34/3/2 35/3/2
f 35/3/2 34/3/2 36/3/2
f 39/3/3 38/3/3 37/3/3
f 40/3/3 38/3/3 39/3/3
f 46/2/3 42/2/3 41/2/3
f 47/1/3 43/1/3 42/1/3
f 47/2/3 42/2/3 46/2/3
f 48/1/3 43/1/3 47/1/3
f 49/3/3 45/3/3 44/3/3
f 50/3/3 45/3/3 49/3/3
f 53/3/3 52/3/3 51/3/3
f 54/3/3 52/3/3 53/3/3
f 57/3/3 56/3/3 55/3/3
f 58/3/3 56/3/3 57/3/3
f 59/2/4 60/2/4 62/2/4
f 60/3/4 61/3/4 63/3/4
f 62/2/4 60/2/4 63/2/4
f 63/3/4 61/3/4 64/3/4
f 67/2/5 66/2/5 65/2/5
f 68/2/5 66/2/5 67/2/5
f 71/3/5 70/3/5 69/3/5
f 72/3/5 70/3/5 71/3/5
f 73/3/6 74/3/6 75/3/6
f 75/3/6 74/3/6 76/3/6
f 77/3/6 78/3/6 79/3/6
f 79/3/6 78/3/6 80/3/6
f 81/3/6 82/3/6 83/3/6
f 83/3/6 82/3/6 84/3/6
f 85/3/6 86/3/6 87/3/6
f 87/3/6 86/3/6 88/3/6
