# MagicaVoxel @ Ephtracy

# group
o 

# material
mtllib house-1_v3-47.mtl
usemtl palette

# normals
vn -1 0 0
vn 1 0 0
vn 0 0 1
vn 0 0 -1
vn 0 -1 0
vn 0 1 0

# texcoords
vt 0.505859 0.5
vt 0.892578 0.5
vt 0.916016 0.5
vt 0.923828 0.5
vt 0.978516 0.5

# verts
v -3 1.8 1.8
v -3 1.8 1.7
v -3 1.9 1.8
v -3 1.9 1.7
v -3 1.9 1.6
v -3 2 1.7
v -3 2 1.6
v -3 2 1.5
v -3 2.1 1.6
v -3 2.1 1.5
v -3 2.1 1.4
v -3 2.2 1.5
v -3 2.2 1.4
v -3 2.2 1.3
v -3 2.3 1.4
v -3 2.3 1.3
v -3 2.3 1.2
v -3 2.4 1.3
v -3 2.4 1.2
v -3 2.4 1.1
v -3 2.5 1.2
v -3 2.5 1.1
v -3 2.5 1
v -3 2.6 1.1
v -3 2.6 1
v -3 2.6 0.9
v -3 2.7 1
v -3 2.7 0.9
v -2.9 1.8 1
v -2.9 1.8 0.9
v -2.9 2.3 1
v -2.9 2.3 0.9
v -2.8 1.8 1.7
v -2.8 1.8 1.5
v -2.8 1.8 1.3
v -2.8 1.8 1.1
v -2.8 1.8 1
v -2.8 1.9 1.7
v -2.8 1.9 1.6
v -2.8 1.9 1.5
v -2.8 1.9 1.4
v -2.8 1.9 1.3
v -2.8 1.9 1.2
v -2.8 1.9 1.1
v -2.8 1.9 1
v -2.8 2 1.6
v -2.8 2 1.5
v -2.8 2 1.4
v -2.8 2 1.3
v -2.8 2 1.2
v -2.8 2 1.1
v -2.8 2 1
v -2.8 2.1 1.5
v -2.8 2.1 1.4
v -2.8 2.1 1.3
v -2.8 2.1 1.1
v -2.8 2.1 1
v -2.8 2.2 1.4
v -2.8 2.2 1.3
v -2.8 2.2 1.2
v -2.8 2.2 1.1
v -2.8 2.3 1.3
v -2.8 2.3 1.2
v -2.8 2.3 1
v -2.8 2.3 0.9
v -2.8 2.4 1.2
v -2.8 2.4 1.1
v -2.8 2.5 1.1
v -2.8 2.5 1
v -2.8 2.6 1
v -2.8 2.6 0.9
v -2.7 1.8 1.4
v -2.7 1.8 1.3
v -2.7 1.8 1.1
v -2.7 1.8 1
v -2.7 1.8 0.9
v -2.7 1.9 1.3
v -2.7 1.9 1.2
v -2.7 1.9 1.1
v -2.7 1.9 1
v -2.7 2 1.4
v -2.7 2 1.3
v -2.7 2 1.2
v -2.7 2 1.1
v -2.7 2 1
v -2.7 2.1 1.4
v -2.7 2.1 1.3
v -2.7 2.1 1.1
v -2.7 2.1 1
v -2.7 2.2 1.4
v -2.7 2.2 1.3
v -2.7 2.2 1.2
v -2.7 2.2 1.1
v -2.7 2.3 1.3
v -2.7 2.3 1.2
v -2.7 2.3 1
v -2.7 2.3 0.9
v -2.7 2.4 1.2
v -2.7 2.4 1.1
v -2.7 2.5 1.1
v -2.7 2.5 1
v -2.7 2.6 1
v -2.7 2.6 0.9
v -2 1.8 1.8
v -2 1.8 1.7
v -2 1.8 1.4
v -2 1.9 1.8
v -2 1.9 1.7
v -2 1.9 1.6
v -2 2 1.7
v -2 2 1.6
v -2 2 1.5
v -2 2.1 1.6
v -2 2.1 1.5
v -2 2.1 1.4
v -2 2.2 1.5
v -2 2.2 1.4
v -2 2.2 1.3
v -2 2.3 1.4
v -2 2.3 1.3
v -2 2.3 1.2
v -2 2.4 1.3
v -2 2.4 1.2
v -2 2.4 1.1
v -2 2.5 1.2
v -2 2.5 1.1
v -2 2.5 1
v -2 2.6 1.1
v -2 2.6 1
v -2 2.6 0.9
v -2 2.7 1
v -2 2.7 0.9
v -3 1.8 1.8
v -3 1.9 1.8
v -2 1.8 1.8
v -2 1.9 1.8
v -3 1.9 1.7
v -3 2 1.7
v -2 1.9 1.7
v -2 2 1.7
v -3 2 1.6
v -3 2.1 1.6
v -2 2 1.6
v -2 2.1 1.6
v -3 2.1 1.5
v -3 2.2 1.5
v -2 2.1 1.5
v -2 2.2 1.5
v -3 2.2 1.4
v -3 2.3 1.4
v -2 2.2 1.4
v -2 2.3 1.4
v -3 2.3 1.3
v -3 2.4 1.3
v -2 2.3 1.3
v -2 2.4 1.3
v -3 2.4 1.2
v -3 2.5 1.2
v -2 2.4 1.2
v -2 2.5 1.2
v -3 2.5 1.1
v -3 2.6 1.1
v -2 2.5 1.1
v -2 2.6 1.1
v -3 2.6 1
v -3 2.7 1
v -2.9 1.8 1
v -2.9 2.3 1
v -2.8 1.8 1
v -2.8 1.9 1
v -2.8 2 1
v -2.8 2.1 1
v -2.8 2.3 1
v -2 2.6 1
v -2 2.7 1
v -3 1.8 1.7
v -3 1.9 1.7
v -2.8 1.8 1.7
v -2.8 1.9 1.7
v -3 1.9 1.6
v -3 2 1.6
v -2.8 1.9 1.6
v -2.8 2 1.6
v -3 2 1.5
v -3 2.1 1.5
v -2.8 2 1.5
v -2.8 2.1 1.5
v -3 2.1 1.4
v -3 2.2 1.4
v -2.8 2.1 1.4
v -2.8 2.2 1.4
v -2.7 1.8 1.4
v -2.7 2 1.4
v -2.7 2.1 1.4
v -2.7 2.2 1.4
v -2 1.8 1.4
v -2 2.1 1.4
v -2 2.2 1.4
v -3 2.2 1.3
v -3 2.3 1.3
v -2.8 2.2 1.3
v -2.8 2.3 1.3
v -2.7 2.2 1.3
v -2.7 2.3 1.3
v -2 2.2 1.3
v -2 2.3 1.3
v -3 2.3 1.2
v -3 2.4 1.2
v -2.8 2.3 1.2
v -2.8 2.4 1.2
v -2.7 2.3 1.2
v -2.7 2.4 1.2
v -2 2.3 1.2
v -2 2.4 1.2
v -3 2.4 1.1
v -3 2.5 1.1
v -2.8 2.4 1.1
v -2.8 2.5 1.1
v -2.7 2.4 1.1
v -2.7 2.5 1.1
v -2 2.4 1.1
v -2 2.5 1.1
v -3 2.5 1
v -3 2.6 1
v -2.8 2.5 1
v -2.8 2.6 1
v -2.7 2.5 1
v -2.7 2.6 1
v -2 2.5 1
v -2 2.6 1
v -3 2.6 0.9
v -3 2.7 0.9
v -2.9 1.8 0.9
v -2.9 2.3 0.9
v -2.8 2.3 0.9
v -2.8 2.6 0.9
v -2.7 1.8 0.9
v -2.7 2.3 0.9
v -2.7 2.6 0.9
v -2 2.6 0.9
v -2 2.7 0.9
v -3 1.8 1.8
v -2 1.8 1.8
v -3 1.8 1.7
v -2.8 1.8 1.7
v -2 1.8 1.7
v -2.8 1.8 1.5
v -2.7 1.8 1.5
v -2.7 1.8 1.4
v -2 1.8 1.4
v -2.8 1.8 1.3
v -2.7 1.8 1.3
v -2.8 1.8 1.1
v -2.7 1.8 1.1
v -2.9 1.8 1
v -2.8 1.8 1
v -2.7 1.8 1
v -2.9 1.8 0.9
v -2.7 1.8 0.9
v -3 1.9 1.7
v -2.8 1.9 1.7
v -3 1.9 1.6
v -2.8 1.9 1.6
v -3 2 1.6
v -2.8 2 1.6
v -3 2 1.5
v -2.8 2 1.5
v -3 2.1 1.5
v -2.8 2.1 1.5
v -3 2.1 1.4
v -2.8 2.1 1.4
v -3 2.2 1.4
v -2.8 2.2 1.4
v -2.7 2.2 1.4
v -2 2.2 1.4
v -3 2.2 1.3
v -2.8 2.2 1.3
v -2.7 2.2 1.3
v -2 2.2 1.3
v -3 2.3 1.3
v -2.8 2.3 1.3
v -2.7 2.3 1.3
v -2 2.3 1.3
v -3 2.3 1.2
v -2.8 2.3 1.2
v -2.7 2.3 1.2
v -2 2.3 1.2
v -3 2.4 1.2
v -2.8 2.4 1.2
v -2.7 2.4 1.2
v -2 2.4 1.2
v -3 2.4 1.1
v -2.8 2.4 1.1
v -2.7 2.4 1.1
v -2 2.4 1.1
v -3 2.5 1.1
v -2.8 2.5 1.1
v -2.7 2.5 1.1
v -2 2.5 1.1
v -3 2.5 1
v -2.8 2.5 1
v -2.7 2.5 1
v -2 2.5 1
v -3 2.6 1
v -2.8 2.6 1
v -2.7 2.6 1
v -2 2.6 1
v -3 2.6 0.9
v -2.8 2.6 0.9
v -2.7 2.6 0.9
v -2 2.6 0.9
v -3 1.9 1.8
v -2 1.9 1.8
v -3 1.9 1.7
v -2 1.9 1.7
v -3 2 1.7
v -2 2 1.7
v -3 2 1.6
v -2 2 1.6
v -3 2.1 1.6
v -2 2.1 1.6
v -3 2.1 1.5
v -2 2.1 1.5
v -3 2.2 1.5
v -2 2.2 1.5
v -3 2.2 1.4
v -2 2.2 1.4
v -3 2.3 1.4
v -2 2.3 1.4
v -3 2.3 1.3
v -2 2.3 1.3
v -2.9 2.3 1
v -2.8 2.3 1
v -2.9 2.3 0.9
v -2.8 2.3 0.9
v -3 2.4 1.3
v -2 2.4 1.3
v -3 2.4 1.2
v -2 2.4 1.2
v -3 2.5 1.2
v -2 2.5 1.2
v -3 2.5 1.1
v -2 2.5 1.1
v -3 2.6 1.1
v -2 2.6 1.1
v -3 2.6 1
v -2 2.6 1
v -3 2.7 1
v -2 2.7 1
v -3 2.7 0.9
v -2 2.7 0.9

# faces
f 3/5/1 2/5/1 1/5/1
f 4/5/1 2/5/1 3/5/1
f 6/5/1 5/5/1 4/5/1
f 7/5/1 5/5/1 6/5/1
f 9/5/1 8/5/1 7/5/1
f 10/5/1 8/5/1 9/5/1
f 12/5/1 11/5/1 10/5/1
f 13/5/1 11/5/1 12/5/1
f 15/5/1 14/5/1 13/5/1
f 16/5/1 14/5/1 15/5/1
f 18/5/1 17/5/1 16/5/1
f 19/5/1 17/5/1 18/5/1
f 21/5/1 20/5/1 19/5/1
f 22/5/1 20/5/1 21/5/1
f 24/5/1 23/5/1 22/5/1
f 25/5/1 23/5/1 24/5/1
f 27/5/1 26/5/1 25/5/1
f 28/5/1 26/5/1 27/5/1
f 31/1/1 30/1/1 29/1/1
f 32/1/1 30/1/1 31/1/1
f 38/4/1 34/4/1 33/4/1
f 39/4/1 34/4/1 38/4/1
f 40/3/1 35/3/1 34/3/1
f 40/4/1 34/4/1 39/4/1
f 41/3/1 35/3/1 40/3/1
f 42/2/1 36/2/1 35/2/1
f 42/3/1 35/3/1 41/3/1
f 43/2/1 36/2/1 42/2/1
f 44/4/1 37/4/1 36/4/1
f 44/2/1 36/2/1 43/2/1
f 45/4/1 37/4/1 44/4/1
f 46/4/1 41/4/1 40/4/1
f 46/4/1 40/4/1 39/4/1
f 47/4/1 41/4/1 46/4/1
f 48/3/1 43/3/1 42/3/1
f 48/4/1 41/4/1 47/4/1
f 48/3/1 42/3/1 41/3/1
f 49/3/1 43/3/1 48/3/1
f 50/2/1 45/2/1 44/2/1
f 50/3/1 43/3/1 49/3/1
f 50/2/1 44/2/1 43/2/1
f 51/2/1 45/2/1 50/2/1
f 52/2/1 45/2/1 51/2/1
f 53/4/1 49/4/1 48/4/1
f 53/4/1 48/4/1 47/4/1
f 54/4/1 49/4/1 53/4/1
f 55/3/1 51/3/1 50/3/1
f 55/4/1 49/4/1 54/4/1
f 55/3/1 50/3/1 49/3/1
f 56/4/1 52/4/1 51/4/1
f 56/3/1 51/3/1 55/3/1
f 57/4/1 52/4/1 56/4/1
f 58/4/1 55/4/1 54/4/1
f 58/4/1 56/4/1 55/4/1
f 59/4/1 56/4/1 58/4/1
f 60/4/1 56/4/1 59/4/1
f 61/2/1 57/2/1 56/2/1
f 61/4/1 56/4/1 60/4/1
f 62/4/1 60/4/1 59/4/1
f 63/2/1 61/2/1 60/2/1
f 63/4/1 60/4/1 62/4/1
f 64/2/1 57/2/1 61/2/1
f 64/2/1 61/2/1 63/2/1
f 66/4/1 64/4/1 63/4/1
f 66/4/1 65/4/1 64/4/1
f 67/4/1 65/4/1 66/4/1
f 68/4/1 65/4/1 67/4/1
f 69/4/1 65/4/1 68/4/1
f 70/4/1 65/4/1 69/4/1
f 71/4/1 65/4/1 70/4/1
f 72/3/2 73/3/2 77/3/2
f 73/2/2 74/2/2 77/2/2
f 77/2/2 74/2/2 78/2/2
f 74/4/2 75/4/2 79/4/2
f 78/2/2 74/2/2 79/2/2
f 75/1/2 76/1/2 80/1/2
f 79/4/2 75/4/2 80/4/2
f 77/3/2 78/3/2 81/3/2
f 72/3/2 77/3/2 81/3/2
f 81/3/2 78/3/2 82/3/2
f 78/2/2 79/2/2 83/2/2
f 82/3/2 78/3/2 83/3/2
f 79/2/2 80/2/2 83/2/2
f 83/2/2 80/2/2 84/2/2
f 80/1/2 76/1/2 85/1/2
f 84/2/2 80/2/2 85/2/2
f 81/4/2 82/4/2 86/4/2
f 83/3/2 84/3/2 87/3/2
f 86/4/2 82/4/2 87/4/2
f 82/3/2 83/3/2 87/3/2
f 84/4/2 85/4/2 88/4/2
f 87/3/2 84/3/2 88/3/2
f 85/1/2 76/1/2 89/1/2
f 88/4/2 85/4/2 89/4/2
f 87/4/2 88/4/2 90/4/2
f 86/4/2 87/4/2 90/4/2
f 90/4/2 88/4/2 91/4/2
f 91/4/2 88/4/2 92/4/2
f 88/2/2 89/2/2 93/2/2
f 92/4/2 88/4/2 93/4/2
f 91/4/2 92/4/2 94/4/2
f 92/2/2 93/2/2 95/2/2
f 94/4/2 92/4/2 95/4/2
f 89/1/2 76/1/2 96/1/2
f 95/2/2 93/2/2 96/2/2
f 93/2/2 89/2/2 96/2/2
f 96/1/2 76/1/2 97/1/2
f 95/4/2 96/4/2 98/4/2
f 96/4/2 97/4/2 98/4/2
f 98/4/2 97/4/2 99/4/2
f 99/4/2 97/4/2 100/4/2
f 100/4/2 97/4/2 101/4/2
f 101/4/2 97/4/2 102/4/2
f 102/4/2 97/4/2 103/4/2
f 104/5/2 105/5/2 107/5/2
f 105/4/2 106/4/2 108/4/2
f 107/5/2 105/5/2 108/5/2
f 108/4/2 106/4/2 109/4/2
f 108/5/2 109/5/2 110/5/2
f 109/4/2 106/4/2 111/4/2
f 110/5/2 109/5/2 111/5/2
f 111/4/2 106/4/2 112/4/2
f 111/5/2 112/5/2 113/5/2
f 112/4/2 106/4/2 114/4/2
f 113/5/2 112/5/2 114/5/2
f 114/4/2 106/4/2 115/4/2
f 114/5/2 115/5/2 116/5/2
f 116/5/2 115/5/2 117/5/2
f 117/5/2 118/5/2 119/5/2
f 119/5/2 118/5/2 120/5/2
f 120/5/2 121/5/2 122/5/2
f 122/5/2 121/5/2 123/5/2
f 123/5/2 124/5/2 125/5/2
f 125/5/2 124/5/2 126/5/2
f 126/5/2 127/5/2 128/5/2
f 128/5/2 127/5/2 129/5/2
f 129/5/2 130/5/2 131/5/2
f 131/5/2 130/5/2 132/5/2
f 135/5/3 134/5/3 133/5/3
f 136/5/3 134/5/3 135/5/3
f 139/5/3 138/5/3 137/5/3
f 140/5/3 138/5/3 139/5/3
f 143/5/3 142/5/3 141/5/3
f 144/5/3 142/5/3 143/5/3
f 147/5/3 146/5/3 145/5/3
f 148/5/3 146/5/3 147/5/3
f 151/5/3 150/5/3 149/5/3
f 152/5/3 150/5/3 151/5/3
f 155/5/3 154/5/3 153/5/3
f 156/5/3 154/5/3 155/5/3
f 159/5/3 158/5/3 157/5/3
f 160/5/3 158/5/3 159/5/3
f 163/5/3 162/5/3 161/5/3
f 164/5/3 162/5/3 163/5/3
f 169/1/3 168/1/3 167/1/3
f 170/1/3 168/1/3 169/1/3
f 171/1/3 168/1/3 170/1/3
f 172/1/3 168/1/3 171/1/3
f 173/1/3 168/1/3 172/1/3
f 174/5/3 166/5/3 165/5/3
f 175/5/3 166/5/3 174/5/3
f 176/5/4 177/5/4 178/5/4
f 178/5/4 177/5/4 179/5/4
f 180/5/4 181/5/4 182/5/4
f 182/5/4 181/5/4 183/5/4
f 184/5/4 185/5/4 186/5/4
f 186/5/4 185/5/4 187/5/4
f 188/5/4 189/5/4 190/5/4
f 190/5/4 189/5/4 191/5/4
f 192/4/4 193/4/4 196/4/4
f 193/4/4 194/4/4 196/4/4
f 194/5/4 195/5/4 197/5/4
f 196/4/4 194/4/4 197/4/4
f 197/5/4 195/5/4 198/5/4
f 199/5/4 200/5/4 201/5/4
f 201/5/4 200/5/4 202/5/4
f 203/5/4 204/5/4 205/5/4
f 205/5/4 204/5/4 206/5/4
f 207/5/4 208/5/4 209/5/4
f 209/5/4 208/5/4 210/5/4
f 211/5/4 212/5/4 213/5/4
f 213/5/4 212/5/4 214/5/4
f 215/5/4 216/5/4 217/5/4
f 217/5/4 216/5/4 218/5/4
f 219/5/4 220/5/4 221/5/4
f 221/5/4 220/5/4 222/5/4
f 223/5/4 224/5/4 225/5/4
f 225/5/4 224/5/4 226/5/4
f 227/5/4 228/5/4 229/5/4
f 229/5/4 228/5/4 230/5/4
f 233/1/4 234/1/4 235/1/4
f 231/5/4 232/5/4 236/5/4
f 233/1/4 235/1/4 237/1/4
f 235/4/4 236/4/4 238/4/4
f 237/1/4 235/1/4 238/1/4
f 236/5/4 232/5/4 239/5/4
f 238/4/4 236/4/4 239/4/4
f 239/5/4 232/5/4 240/5/4
f 240/5/4 232/5/4 241/5/4
f 244/5/5 243/5/5 242/5/5
f 245/5/5 243/5/5 244/5/5
f 246/5/5 243/5/5 245/5/5
f 247/4/5 246/4/5 245/4/5
f 248/4/5 246/4/5 247/4/5
f 249/3/5 248/3/5 247/3/5
f 249/4/5 246/4/5 248/4/5
f 250/4/5 246/4/5 249/4/5
f 251/3/5 249/3/5 247/3/5
f 252/3/5 249/3/5 251/3/5
f 253/2/5 252/2/5 251/2/5
f 254/2/5 252/2/5 253/2/5
f 256/4/5 254/4/5 253/4/5
f 257/4/5 254/4/5 256/4/5
f 258/1/5 256/1/5 255/1/5
f 258/1/5 257/1/5 256/1/5
f 259/1/5 257/1/5 258/1/5
f 262/5/5 261/5/5 260/5/5
f 263/5/5 261/5/5 262/5/5
f 266/5/5 265/5/5 264/5/5
f 267/5/5 265/5/5 266/5/5
f 270/5/5 269/5/5 268/5/5
f 271/5/5 269/5/5 270/5/5
f 276/5/5 273/5/5 272/5/5
f 277/5/5 273/5/5 276/5/5
f 278/5/5 275/5/5 274/5/5
f 279/5/5 275/5/5 278/5/5
f 284/5/5 281/5/5 280/5/5
f 285/5/5 281/5/5 284/5/5
f 286/5/5 283/5/5 282/5/5
f 287/5/5 283/5/5 286/5/5
f 292/5/5 289/5/5 288/5/5
f 293/5/5 289/5/5 292/5/5
f 294/5/5 291/5/5 290/5/5
f 295/5/5 291/5/5 294/5/5
f 300/5/5 297/5/5 296/5/5
f 301/5/5 297/5/5 300/5/5
f 302/5/5 299/5/5 298/5/5
f 303/5/5 299/5/5 302/5/5
f 308/5/5 305/5/5 304/5/5
f 309/5/5 305/5/5 308/5/5
f 310/5/5 307/5/5 306/5/5
f 311/5/5 307/5/5 310/5/5
f 312/5/6 313/5/6 314/5/6
f 314/5/6 313/5/6 315/5/6
f 316/5/6 317/5/6 318/5/6
f 318/5/6 317/5/6 319/5/6
f 320/5/6 321/5/6 322/5/6
f 322/5/6 321/5/6 323/5/6
f 324/5/6 325/5/6 326/5/6
f 326/5/6 325/5/6 327/5/6
f 328/5/6 329/5/6 330/5/6
f 330/5/6 329/5/6 331/5/6
f 332/1/6 333/1/6 334/1/6
f 334/1/6 333/1/6 335/1/6
f 336/5/6 337/5/6 338/5/6
f 338/5/6 337/5/6 339/5/6
f 340/5/6 341/5/6 342/5/6
f 342/5/6 341/5/6 343/5/6
f 344/5/6 345/5/6 346/5/6
f 346/5/6 345/5/6 347/5/6
f 348/5/6 349/5/6 350/5/6
f 350/5/6 349/5/6 351/5/6
