# MagicaVoxel @ Ephtracy

# group
o 

# material
mtllib house-1_v3-85.mtl
usemtl palette

# normals
vn -1 0 0
vn 1 0 0
vn 0 0 1
vn 0 0 -1
vn 0 -1 0
vn 0 1 0

# texcoords
vt 0.505859 0.5
vt 0.529297 0.5
vt 0.892578 0.5
vt 0.916016 0.5
vt 0.923828 0.5

# verts
v 2.3 0 1.6
v 2.3 0 1.4
v 2.3 0.3 1.6
v 2.3 0.3 1.5
v 2.3 0.3 1.4
v 2.3 0.4 1.5
v 2.3 0.4 1.4
v 2.3 0.6 1.6
v 2.3 0.6 1.5
v 2.3 0.6 1.4
v 2.3 0.7 1.6
v 2.3 0.7 1.4
v 2.4 0.6 1.6
v 2.4 0.6 1.5
v 2.4 0.7 1.6
v 2.4 0.7 1.5
v 2.8 0.3 1.5
v 2.8 0.3 1.4
v 2.8 0.4 1.5
v 2.8 0.4 1.4
v 2.8 0.5 1.5
v 2.8 0.5 1.4
v 2.8 0.6 1.5
v 2.8 0.6 1.4
v 2.8 0.7 1.5
v 2.8 0.7 1.4
v 2.9 0 1.6
v 2.9 0 1.4
v 2.9 0.3 1.6
v 2.9 0.3 1.4
v 2.3 0 1.6
v 2.3 0.3 1.6
v 2.3 0.6 1.6
v 2.3 0.7 1.6
v 2.4 0.6 1.6
v 2.4 0.7 1.6
v 2.9 0 1.6
v 2.9 0.3 1.6
v 2.3 0.3 1.5
v 2.3 0.4 1.5
v 2.3 0.6 1.5
v 2.4 0.6 1.5
v 2.4 0.7 1.5
v 2.5 0.3 1.5
v 2.5 0.4 1.5
v 2.5 0.5 1.5
v 2.5 0.6 1.5
v 2.6 0.3 1.5
v 2.6 0.4 1.5
v 2.6 0.5 1.5
v 2.6 0.6 1.5
v 2.6 0.7 1.5
v 2.7 0.5 1.5
v 2.7 0.6 1.5
v 2.7 0.7 1.5
v 2.8 0.3 1.5
v 2.8 0.4 1.5
v 2.8 0.5 1.5
v 2.8 0.6 1.5
v 2.8 0.7 1.5
v 2.3 0 1.4
v 2.3 0.3 1.4
v 2.3 0.4 1.4
v 2.3 0.6 1.4
v 2.3 0.7 1.4
v 2.4 0.6 1.4
v 2.4 0.7 1.4
v 2.5 0.3 1.4
v 2.5 0.4 1.4
v 2.5 0.5 1.4
v 2.5 0.6 1.4
v 2.6 0.3 1.4
v 2.6 0.4 1.4
v 2.6 0.5 1.4
v 2.6 0.6 1.4
v 2.6 0.7 1.4
v 2.7 0.5 1.4
v 2.7 0.6 1.4
v 2.7 0.7 1.4
v 2.8 0.3 1.4
v 2.8 0.4 1.4
v 2.8 0.5 1.4
v 2.8 0.6 1.4
v 2.8 0.7 1.4
v 2.9 0 1.4
v 2.9 0.3 1.4
v 2.3 0 1.6
v 2.9 0 1.6
v 2.3 0 1.4
v 2.9 0 1.4
v 2.3 0.6 1.6
v 2.4 0.6 1.6
v 2.3 0.6 1.5
v 2.4 0.6 1.5
v 2.3 0.3 1.6
v 2.9 0.3 1.6
v 2.3 0.3 1.5
v 2.5 0.3 1.5
v 2.6 0.3 1.5
v 2.8 0.3 1.5
v 2.8 0.3 1.4
v 2.9 0.3 1.4
v 2.3 0.7 1.6
v 2.4 0.7 1.6
v 2.4 0.7 1.5
v 2.6 0.7 1.5
v 2.7 0.7 1.5
v 2.8 0.7 1.5
v 2.3 0.7 1.4
v 2.4 0.7 1.4
v 2.6 0.7 1.4
v 2.7 0.7 1.4
v 2.8 0.7 1.4

# faces
f 3/2/1 2/2/1 1/2/1
f 4/2/1 2/2/1 3/2/1
f 5/2/1 2/2/1 4/2/1
f 6/4/1 5/4/1 4/4/1
f 7/4/1 5/4/1 6/4/1
f 9/5/1 7/5/1 6/5/1
f 10/5/1 7/5/1 9/5/1
f 11/1/1 9/1/1 8/1/1
f 11/1/1 10/1/1 9/1/1
f 12/1/1 10/1/1 11/1/1
f 13/1/2 14/1/2 15/1/2
f 15/1/2 14/1/2 16/1/2
f 17/4/2 18/4/2 19/4/2
f 19/4/2 18/4/2 20/4/2
f 19/3/2 20/3/2 21/3/2
f 21/3/2 20/3/2 22/3/2
f 21/5/2 22/5/2 23/5/2
f 23/5/2 22/5/2 24/5/2
f 23/4/2 24/4/2 25/4/2
f 25/4/2 24/4/2 26/4/2
f 27/2/2 28/2/2 29/2/2
f 29/2/2 28/2/2 30/2/2
f 35/1/3 34/1/3 33/1/3
f 36/1/3 34/1/3 35/1/3
f 37/2/3 32/2/3 31/2/3
f 38/2/3 32/2/3 37/2/3
f 42/5/3 41/5/3 40/5/3
f 44/4/3 40/4/3 39/4/3
f 45/5/3 42/5/3 40/5/3
f 45/4/3 40/4/3 44/4/3
f 46/5/3 42/5/3 45/5/3
f 47/3/3 43/3/3 42/3/3
f 47/5/3 42/5/3 46/5/3
f 48/5/3 46/5/3 45/5/3
f 48/5/3 45/5/3 44/5/3
f 49/5/3 46/5/3 48/5/3
f 50/4/3 47/4/3 46/4/3
f 50/5/3 46/5/3 49/5/3
f 51/3/3 43/3/3 47/3/3
f 51/4/3 47/4/3 50/4/3
f 52/3/3 43/3/3 51/3/3
f 53/3/3 50/3/3 49/3/3
f 53/4/3 51/4/3 50/4/3
f 54/5/3 52/5/3 51/5/3
f 54/4/3 51/4/3 53/4/3
f 55/5/3 52/5/3 54/5/3
f 56/4/3 49/4/3 48/4/3
f 57/3/3 53/3/3 49/3/3
f 57/4/3 49/4/3 56/4/3
f 58/5/3 54/5/3 53/5/3
f 58/3/3 53/3/3 57/3/3
f 59/4/3 55/4/3 54/4/3
f 59/5/3 54/5/3 58/5/3
f 60/4/3 55/4/3 59/4/3
f 63/5/4 64/5/4 66/5/4
f 64/1/4 65/1/4 66/1/4
f 66/1/4 65/1/4 67/1/4
f 61/2/4 62/2/4 68/2/4
f 62/4/4 63/4/4 68/4/4
f 63/5/4 66/5/4 69/5/4
f 68/4/4 63/4/4 69/4/4
f 69/5/4 66/5/4 70/5/4
f 66/3/4 67/3/4 71/3/4
f 70/5/4 66/5/4 71/5/4
f 69/5/4 70/5/4 72/5/4
f 61/2/4 68/2/4 72/2/4
f 68/5/4 69/5/4 72/5/4
f 72/5/4 70/5/4 73/5/4
f 70/4/4 71/4/4 74/4/4
f 73/5/4 70/5/4 74/5/4
f 71/3/4 67/3/4 75/3/4
f 74/4/4 71/4/4 75/4/4
f 75/3/4 67/3/4 76/3/4
f 73/3/4 74/3/4 77/3/4
f 74/4/4 75/4/4 77/4/4
f 75/5/4 76/5/4 78/5/4
f 77/4/4 75/4/4 78/4/4
f 78/5/4 76/5/4 79/5/4
f 72/4/4 73/4/4 80/4/4
f 61/2/4 72/2/4 80/2/4
f 73/3/4 77/3/4 81/3/4
f 80/4/4 73/4/4 81/4/4
f 77/5/4 78/5/4 82/5/4
f 81/3/4 77/3/4 82/3/4
f 78/4/4 79/4/4 83/4/4
f 82/5/4 78/5/4 83/5/4
f 83/4/4 79/4/4 84/4/4
f 61/2/4 80/2/4 85/2/4
f 85/2/4 80/2/4 86/2/4
f 89/2/5 88/2/5 87/2/5
f 90/2/5 88/2/5 89/2/5
f 93/1/5 92/1/5 91/1/5
f 94/1/5 92/1/5 93/1/5
f 95/2/6 96/2/6 97/2/6
f 97/2/6 96/2/6 98/2/6
f 98/2/6 96/2/6 99/2/6
f 99/2/6 96/2/6 100/2/6
f 100/2/6 96/2/6 101/2/6
f 101/2/6 96/2/6 102/2/6
f 103/1/6 104/1/6 105/1/6
f 103/1/6 105/1/6 109/1/6
f 105/3/6 106/3/6 110/3/6
f 109/1/6 105/1/6 110/1/6
f 106/5/6 107/5/6 111/5/6
f 110/3/6 106/3/6 111/3/6
f 107/4/6 108/4/6 112/4/6
f 111/5/6 107/5/6 112/5/6
f 112/4/6 108/4/6 113/4/6
