# MagicaVoxel @ Ephtracy

# group
o 

# material
mtllib house-1_v3-6.mtl
usemtl palette

# normals
vn -1 0 0
vn 1 0 0
vn 0 0 1
vn 0 0 -1
vn 0 -1 0
vn 0 1 0

# texcoords
vt 0.919922 0.5
vt 0.923828 0.5
vt 0.978516 0.5

# verts
v -0.8 3.3 0
v -0.8 3.3 -0.2
v -0.8 3.3 -0.3
v -0.8 3.3 -0.6
v -0.8 3.3 -0.7
v -0.8 3.3 -0.8
v -0.8 3.4 -0.1
v -0.8 3.4 -0.2
v -0.8 3.4 -0.3
v -0.8 3.4 -0.5
v -0.8 3.4 -0.6
v -0.8 3.4 -0.7
v -0.8 3.4 -0.8
v -0.8 3.5 0
v -0.8 3.5 -0.1
v -0.8 3.5 -0.2
v -0.8 3.5 -0.4
v -0.8 3.5 -0.5
v -0.8 3.5 -0.6
v -0.8 3.5 -0.7
v -0.8 3.6 0
v -0.8 3.6 -0.1
v -0.8 3.6 -0.4
v -0.8 3.6 -0.5
v -0.8 3.6 -0.6
v 0.2 3.3 0
v 0.2 3.3 -0.7
v 0.2 3.3 -0.8
v 0.2 3.4 -0.6
v 0.2 3.4 -0.7
v 0.2 3.4 -0.8
v 0.2 3.5 -0.5
v 0.2 3.5 -0.6
v 0.2 3.5 -0.7
v 0.2 3.6 0
v 0.2 3.6 -0.5
v 0.2 3.6 -0.6
v -0.8 3.3 0
v -0.8 3.5 0
v -0.8 3.6 0
v 0 3.5 0
v 0 3.6 0
v 0.2 3.3 0
v 0.2 3.6 0
v -0.8 3.5 -0.6
v -0.8 3.6 -0.6
v 0.2 3.5 -0.6
v 0.2 3.6 -0.6
v -0.8 3.4 -0.7
v -0.8 3.5 -0.7
v 0.2 3.4 -0.7
v 0.2 3.5 -0.7
v -0.8 3.3 -0.8
v -0.8 3.4 -0.8
v 0.2 3.3 -0.8
v 0.2 3.4 -0.8
v -0.8 3.3 0
v 0.2 3.3 0
v -0.8 3.3 -0.2
v 0 3.3 -0.2
v -0.8 3.3 -0.3
v 0 3.3 -0.3
v -0.8 3.3 -0.6
v -0.7 3.3 -0.6
v -0.8 3.3 -0.7
v -0.7 3.3 -0.7
v 0.2 3.3 -0.7
v -0.8 3.3 -0.8
v 0.2 3.3 -0.8
v -0.8 3.4 -0.7
v 0.2 3.4 -0.7
v -0.8 3.4 -0.8
v 0.2 3.4 -0.8
v -0.8 3.5 -0.6
v 0.2 3.5 -0.6
v -0.8 3.5 -0.7
v 0.2 3.5 -0.7
v -0.8 3.6 0
v 0 3.6 0
v 0.2 3.6 0
v -0.8 3.6 -0.1
v 0 3.6 -0.1
v -0.8 3.6 -0.4
v -0.7 3.6 -0.4
v -0.8 3.6 -0.5
v -0.7 3.6 -0.5
v 0.2 3.6 -0.5
v -0.8 3.6 -0.6
v 0.2 3.6 -0.6

# faces
f 7/2/1 2/2/1 1/2/1
f 8/3/1 3/3/1 2/3/1
f 8/2/1 2/2/1 7/2/1
f 9/2/1 4/2/1 3/2/1
f 9/3/1 3/3/1 8/3/1
f 10/2/1 4/2/1 9/2/1
f 11/1/1 5/1/1 4/1/1
f 11/2/1 4/2/1 10/2/1
f 12/3/1 6/3/1 5/3/1
f 12/1/1 5/1/1 11/1/1
f 13/3/1 6/3/1 12/3/1
f 14/2/1 7/2/1 1/2/1
f 15/3/1 8/3/1 7/3/1
f 15/2/1 7/2/1 14/2/1
f 16/2/1 10/2/1 9/2/1
f 16/3/1 8/3/1 15/3/1
f 16/2/1 9/2/1 8/2/1
f 17/2/1 10/2/1 16/2/1
f 18/1/1 11/1/1 10/1/1
f 18/2/1 10/2/1 17/2/1
f 19/3/1 12/3/1 11/3/1
f 19/1/1 11/1/1 18/1/1
f 20/3/1 12/3/1 19/3/1
f 21/3/1 15/3/1 14/3/1
f 22/2/1 17/2/1 16/2/1
f 22/3/1 15/3/1 21/3/1
f 22/2/1 16/2/1 15/2/1
f 23/1/1 18/1/1 17/1/1
f 23/2/1 17/2/1 22/2/1
f 24/3/1 19/3/1 18/3/1
f 24/1/1 18/1/1 23/1/1
f 25/3/1 19/3/1 24/3/1
f 26/2/2 27/2/2 29/2/2
f 27/3/2 28/3/2 30/3/2
f 29/2/2 27/2/2 30/2/2
f 30/3/2 28/3/2 31/3/2
f 26/2/2 29/2/2 32/2/2
f 29/3/2 30/3/2 33/3/2
f 32/2/2 29/2/2 33/2/2
f 33/3/2 30/3/2 34/3/2
f 26/2/2 32/2/2 35/2/2
f 32/3/2 33/3/2 36/3/2
f 35/2/2 32/2/2 36/2/2
f 36/3/2 33/3/2 37/3/2
f 41/2/3 39/2/3 38/2/3
f 41/3/3 40/3/3 39/3/3
f 42/3/3 40/3/3 41/3/3
f 43/2/3 41/2/3 38/2/3
f 43/2/3 42/2/3 41/2/3
f 44/2/3 42/2/3 43/2/3
f 45/3/4 46/3/4 47/3/4
f 47/3/4 46/3/4 48/3/4
f 49/3/4 50/3/4 51/3/4
f 51/3/4 50/3/4 52/3/4
f 53/3/4 54/3/4 55/3/4
f 55/3/4 54/3/4 56/3/4
f 59/2/5 58/2/5 57/2/5
f 60/2/5 58/2/5 59/2/5
f 61/3/5 60/3/5 59/3/5
f 62/2/5 58/2/5 60/2/5
f 62/3/5 60/3/5 61/3/5
f 63/2/5 62/2/5 61/2/5
f 64/2/5 62/2/5 63/2/5
f 65/1/5 64/1/5 63/1/5
f 66/2/5 62/2/5 64/2/5
f 66/1/5 64/1/5 65/1/5
f 67/2/5 58/2/5 62/2/5
f 67/2/5 62/2/5 66/2/5
f 68/3/5 66/3/5 65/3/5
f 68/3/5 67/3/5 66/3/5
f 69/3/5 67/3/5 68/3/5
f 70/3/6 71/3/6 72/3/6
f 72/3/6 71/3/6 73/3/6
f 74/3/6 75/3/6 76/3/6
f 76/3/6 75/3/6 77/3/6
f 78/3/6 79/3/6 81/3/6
f 79/2/6 80/2/6 82/2/6
f 81/3/6 79/3/6 82/3/6
f 81/2/6 82/2/6 83/2/6
f 83/2/6 82/2/6 84/2/6
f 83/1/6 84/1/6 85/1/6
f 84/2/6 82/2/6 86/2/6
f 85/1/6 84/1/6 86/1/6
f 82/2/6 80/2/6 87/2/6
f 86/2/6 82/2/6 87/2/6
f 85/3/6 86/3/6 88/3/6
f 86/3/6 87/3/6 88/3/6
f 88/3/6 87/3/6 89/3/6
