# MagicaVoxel @ Ephtracy

# group
o 

# material
mtllib house-1_v3-79.mtl
usemtl palette

# normals
vn -1 0 0
vn 1 0 0
vn 0 0 1
vn 0 0 -1
vn 0 -1 0
vn 0 1 0

# texcoords
vt 0.517578 0.5
vt 0.521484 0.5
vt 0.892578 0.5
vt 0.916016 0.5
vt 0.923828 0.5

# verts
v 0.1 0.7 1.5
v 0.1 0.7 1.3
v 0.1 0.8 1.5
v 0.1 0.8 1.4
v 0.1 0.8 1.3
v 0.1 0.9 1.5
v 0.1 0.9 1.4
v 0.1 1.2 1.5
v 0.1 1.2 1.4
v 0.2 0.8 1.4
v 0.2 0.8 1.3
v 0.2 0.9 1.4
v 0.2 0.9 1.3
v 0.7 0.7 1.5
v 0.7 0.7 1.4
v 0.7 0.8 1.5
v 0.7 0.8 1.4
v 0.2 0.7 1.5
v 0.2 0.7 1.4
v 0.2 0.8 1.5
v 0.2 0.8 1.4
v 0.7 0.8 1.4
v 0.7 0.8 1.3
v 0.7 0.9 1.4
v 0.7 0.9 1.3
v 0.8 0.7 1.4
v 0.8 0.7 1.3
v 0.8 0.8 1.4
v 0.8 0.8 1.3
v 1.5 0.7 1.5
v 1.5 0.7 1.4
v 1.5 1.2 1.5
v 1.5 1.2 1.4
v 0.1 0.7 1.5
v 0.1 0.8 1.5
v 0.1 0.9 1.5
v 0.1 1.2 1.5
v 0.2 0.7 1.5
v 0.2 0.8 1.5
v 0.2 0.9 1.5
v 0.2 1.1 1.5
v 0.2 1.2 1.5
v 0.4 1.1 1.5
v 0.4 1.2 1.5
v 0.5 0.9 1.5
v 0.5 1.1 1.5
v 0.6 0.9 1.5
v 0.6 1 1.5
v 0.6 1.1 1.5
v 0.6 1.2 1.5
v 0.7 0.7 1.5
v 0.7 0.8 1.5
v 0.7 0.9 1.5
v 0.7 1 1.5
v 0.7 1.1 1.5
v 0.8 0.7 1.5
v 0.8 0.8 1.5
v 0.8 1.1 1.5
v 0.8 1.2 1.5
v 0.9 0.8 1.5
v 0.9 0.9 1.5
v 0.9 1 1.5
v 0.9 1.1 1.5
v 1 0.7 1.5
v 1 0.8 1.5
v 1 0.9 1.5
v 1 1 1.5
v 1 1.1 1.5
v 1 1.2 1.5
v 1.1 0.8 1.5
v 1.1 0.9 1.5
v 1.1 1 1.5
v 1.1 1.1 1.5
v 1.2 0.7 1.5
v 1.2 0.8 1.5
v 1.3 1 1.5
v 1.3 1.1 1.5
v 1.4 0.9 1.5
v 1.4 1 1.5
v 1.5 0.7 1.5
v 1.5 1.2 1.5
v 0.2 0.7 1.4
v 0.2 0.8 1.4
v 0.7 0.7 1.4
v 0.7 0.8 1.4
v 0.1 0.8 1.4
v 0.1 0.9 1.4
v 0.1 1.2 1.4
v 0.2 0.8 1.4
v 0.2 0.9 1.4
v 0.2 1.1 1.4
v 0.2 1.2 1.4
v 0.4 1.1 1.4
v 0.4 1.2 1.4
v 0.5 0.9 1.4
v 0.5 1.1 1.4
v 0.6 0.9 1.4
v 0.6 1 1.4
v 0.6 1.1 1.4
v 0.6 1.2 1.4
v 0.7 0.8 1.4
v 0.7 0.9 1.4
v 0.7 1 1.4
v 0.7 1.1 1.4
v 0.8 0.7 1.4
v 0.8 0.8 1.4
v 0.8 1.1 1.4
v 0.8 1.2 1.4
v 0.9 0.8 1.4
v 0.9 0.9 1.4
v 0.9 1 1.4
v 0.9 1.1 1.4
v 1 0.7 1.4
v 1 0.8 1.4
v 1 0.9 1.4
v 1 1 1.4
v 1 1.1 1.4
v 1 1.2 1.4
v 1.1 0.8 1.4
v 1.1 0.9 1.4
v 1.1 1 1.4
v 1.1 1.1 1.4
v 1.2 0.7 1.4
v 1.2 0.8 1.4
v 1.3 1 1.4
v 1.3 1.1 1.4
v 1.4 0.9 1.4
v 1.4 1 1.4
v 1.5 0.7 1.4
v 1.5 1.2 1.4
v 0.1 0.7 1.3
v 0.1 0.8 1.3
v 0.2 0.7 1.3
v 0.2 0.8 1.3
v 0.2 0.9 1.3
v 0.7 0.7 1.3
v 0.7 0.8 1.3
v 0.7 0.9 1.3
v 0.8 0.7 1.3
v 0.8 0.8 1.3
v 0.1 0.7 1.5
v 0.2 0.7 1.5
v 0.7 0.7 1.5
v 0.8 0.7 1.5
v 1 0.7 1.5
v 1.2 0.7 1.5
v 1.5 0.7 1.5
v 0.2 0.7 1.4
v 0.7 0.7 1.4
v 0.8 0.7 1.4
v 1 0.7 1.4
v 1.2 0.7 1.4
v 1.5 0.7 1.4
v 0.1 0.7 1.3
v 0.2 0.7 1.3
v 0.7 0.7 1.3
v 0.8 0.7 1.3
v 0.2 0.8 1.5
v 0.7 0.8 1.5
v 0.2 0.8 1.4
v 0.7 0.8 1.4
v 0.1 0.8 1.4
v 0.2 0.8 1.4
v 0.7 0.8 1.4
v 0.8 0.8 1.4
v 0.1 0.8 1.3
v 0.2 0.8 1.3
v 0.7 0.8 1.3
v 0.8 0.8 1.3
v 0.2 0.9 1.4
v 0.5 0.9 1.4
v 0.6 0.9 1.4
v 0.7 0.9 1.4
v 0.2 0.9 1.3
v 0.7 0.9 1.3
v 0.1 1.2 1.5
v 0.2 1.2 1.5
v 0.4 1.2 1.5
v 0.6 1.2 1.5
v 0.8 1.2 1.5
v 1 1.2 1.5
v 1.5 1.2 1.5
v 0.1 1.2 1.4
v 0.2 1.2 1.4
v 0.4 1.2 1.4
v 0.6 1.2 1.4
v 0.8 1.2 1.4
v 1 1.2 1.4
v 1.5 1.2 1.4

# faces
f 3/2/1 2/2/1 1/2/1
f 4/2/1 2/2/1 3/2/1
f 5/2/1 2/2/1 4/2/1
f 6/4/1 4/4/1 3/4/1
f 7/4/1 4/4/1 6/4/1
f 8/5/1 7/5/1 6/5/1
f 9/5/1 7/5/1 8/5/1
f 12/2/1 11/2/1 10/2/1
f 13/2/1 11/2/1 12/2/1
f 16/2/1 15/2/1 14/2/1
f 17/2/1 15/2/1 16/2/1
f 18/2/2 19/2/2 20/2/2
f 20/2/2 19/2/2 21/2/2
f 22/2/2 23/2/2 24/2/2
f 24/2/2 23/2/2 25/2/2
f 26/2/2 27/2/2 28/2/2
f 28/2/2 27/2/2 29/2/2
f 30/5/2 31/5/2 32/5/2
f 32/5/2 31/5/2 33/5/2
f 38/2/3 35/2/3 34/2/3
f 39/4/3 36/4/3 35/4/3
f 39/2/3 35/2/3 38/2/3
f 40/5/3 37/5/3 36/5/3
f 40/4/3 36/4/3 39/4/3
f 41/5/3 37/5/3 40/5/3
f 42/5/3 37/5/3 41/5/3
f 43/5/3 41/5/3 40/5/3
f 43/4/3 42/4/3 41/4/3
f 44/4/3 42/4/3 43/4/3
f 45/2/3 40/2/3 39/2/3
f 45/5/3 43/5/3 40/5/3
f 46/3/3 44/3/3 43/3/3
f 46/5/3 43/5/3 45/5/3
f 47/2/3 45/2/3 39/2/3
f 47/3/3 46/3/3 45/3/3
f 48/3/3 46/3/3 47/3/3
f 49/3/3 44/3/3 46/3/3
f 49/3/3 46/3/3 48/3/3
f 50/3/3 44/3/3 49/3/3
f 52/2/3 47/2/3 39/2/3
f 53/5/3 48/5/3 47/5/3
f 53/2/3 47/2/3 52/2/3
f 54/3/3 49/3/3 48/3/3
f 54/5/3 48/5/3 53/5/3
f 55/5/3 50/5/3 49/5/3
f 55/3/3 49/3/3 54/3/3
f 56/2/3 52/2/3 51/2/3
f 57/5/3 53/5/3 52/5/3
f 57/2/3 52/2/3 56/2/3
f 57/5/3 54/5/3 53/5/3
f 57/5/3 55/5/3 54/5/3
f 58/5/3 50/5/3 55/5/3
f 58/5/3 55/5/3 57/5/3
f 59/5/3 50/5/3 58/5/3
f 60/5/3 57/5/3 56/5/3
f 60/5/3 58/5/3 57/5/3
f 61/5/3 58/5/3 60/5/3
f 62/5/3 58/5/3 61/5/3
f 63/3/3 59/3/3 58/3/3
f 63/5/3 58/5/3 62/5/3
f 64/5/3 60/5/3 56/5/3
f 65/4/3 61/4/3 60/4/3
f 65/5/3 60/5/3 64/5/3
f 66/5/3 62/5/3 61/5/3
f 66/4/3 61/4/3 65/4/3
f 67/3/3 63/3/3 62/3/3
f 67/5/3 62/5/3 66/5/3
f 68/3/3 59/3/3 63/3/3
f 68/3/3 63/3/3 67/3/3
f 69/3/3 59/3/3 68/3/3
f 70/3/3 65/3/3 64/3/3
f 70/4/3 66/4/3 65/4/3
f 71/3/3 67/3/3 66/3/3
f 71/4/3 66/4/3 70/4/3
f 71/3/3 68/3/3 67/3/3
f 72/3/3 68/3/3 71/3/3
f 73/5/3 69/5/3 68/5/3
f 73/3/3 68/3/3 72/3/3
f 74/3/3 70/3/3 64/3/3
f 75/5/3 71/5/3 70/5/3
f 75/3/3 70/3/3 74/3/3
f 76/3/3 72/3/3 71/3/3
f 76/4/3 73/4/3 72/4/3
f 77/5/3 69/5/3 73/5/3
f 77/4/3 73/4/3 76/4/3
f 78/3/3 76/3/3 71/3/3
f 78/5/3 71/5/3 75/5/3
f 78/5/3 75/5/3 74/5/3
f 79/5/3 77/5/3 76/5/3
f 79/3/3 76/3/3 78/3/3
f 80/5/3 78/5/3 74/5/3
f 80/5/3 79/5/3 78/5/3
f 81/5/3 69/5/3 77/5/3
f 81/5/3 79/5/3 80/5/3
f 81/5/3 77/5/3 79/5/3
f 84/1/3 83/1/3 82/1/3
f 85/1/3 83/1/3 84/1/3
f 86/4/4 87/4/4 89/4/4
f 87/5/4 88/5/4 90/5/4
f 89/4/4 87/4/4 90/4/4
f 90/5/4 88/5/4 91/5/4
f 91/5/4 88/5/4 92/5/4
f 90/5/4 91/5/4 93/5/4
f 91/4/4 92/4/4 93/4/4
f 93/4/4 92/4/4 94/4/4
f 90/5/4 93/5/4 95/5/4
f 93/3/4 94/3/4 96/3/4
f 95/5/4 93/5/4 96/5/4
f 95/3/4 96/3/4 97/3/4
f 97/3/4 96/3/4 98/3/4
f 96/3/4 94/3/4 99/3/4
f 98/3/4 96/3/4 99/3/4
f 99/3/4 94/3/4 100/3/4
f 97/5/4 98/5/4 102/5/4
f 98/3/4 99/3/4 103/3/4
f 102/5/4 98/5/4 103/5/4
f 99/5/4 100/5/4 104/5/4
f 103/3/4 99/3/4 104/3/4
f 101/5/4 102/5/4 106/5/4
f 102/5/4 103/5/4 106/5/4
f 103/5/4 104/5/4 106/5/4
f 104/5/4 100/5/4 107/5/4
f 106/5/4 104/5/4 107/5/4
f 107/5/4 100/5/4 108/5/4
f 105/5/4 106/5/4 109/5/4
f 106/5/4 107/5/4 109/5/4
f 109/5/4 107/5/4 110/5/4
f 110/5/4 107/5/4 111/5/4
f 107/3/4 108/3/4 112/3/4
f 111/5/4 107/5/4 112/5/4
f 105/5/4 109/5/4 113/5/4
f 109/4/4 110/4/4 114/4/4
f 113/5/4 109/5/4 114/5/4
f 110/5/4 111/5/4 115/5/4
f 114/4/4 110/4/4 115/4/4
f 111/3/4 112/3/4 116/3/4
f 115/5/4 111/5/4 116/5/4
f 112/3/4 108/3/4 117/3/4
f 116/3/4 112/3/4 117/3/4
f 117/3/4 108/3/4 118/3/4
f 113/3/4 114/3/4 119/3/4
f 114/4/4 115/4/4 119/4/4
f 115/3/4 116/3/4 120/3/4
f 119/4/4 115/4/4 120/4/4
f 116/3/4 117/3/4 120/3/4
f 120/3/4 117/3/4 121/3/4
f 117/5/4 118/5/4 122/5/4
f 121/3/4 117/3/4 122/3/4
f 113/3/4 119/3/4 123/3/4
f 119/5/4 120/5/4 124/5/4
f 123/3/4 119/3/4 124/3/4
f 120/3/4 121/3/4 125/3/4
f 121/4/4 122/4/4 125/4/4
f 122/5/4 118/5/4 126/5/4
f 125/4/4 122/4/4 126/4/4
f 120/3/4 125/3/4 127/3/4
f 124/5/4 120/5/4 127/5/4
f 123/5/4 124/5/4 127/5/4
f 125/5/4 126/5/4 128/5/4
f 127/3/4 125/3/4 128/3/4
f 123/5/4 127/5/4 129/5/4
f 127/5/4 128/5/4 129/5/4
f 126/5/4 118/5/4 130/5/4
f 129/5/4 128/5/4 130/5/4
f 128/5/4 126/5/4 130/5/4
f 131/2/4 132/2/4 133/2/4
f 133/2/4 132/2/4 134/2/4
f 133/1/4 134/1/4 136/1/4
f 134/2/4 135/2/4 137/2/4
f 136/1/4 134/1/4 137/1/4
f 137/2/4 135/2/4 138/2/4
f 136/2/4 137/2/4 139/2/4
f 139/2/4 137/2/4 140/2/4
f 148/2/5 142/2/5 141/2/5
f 149/2/5 144/2/5 143/2/5
f 150/5/5 145/5/5 144/5/5
f 150/2/5 144/2/5 149/2/5
f 151/3/5 146/3/5 145/3/5
f 151/5/5 145/5/5 150/5/5
f 152/5/5 147/5/5 146/5/5
f 152/3/5 146/3/5 151/3/5
f 153/5/5 147/5/5 152/5/5
f 154/2/5 148/2/5 141/2/5
f 155/1/5 149/1/5 148/1/5
f 155/2/5 148/2/5 154/2/5
f 156/2/5 150/2/5 149/2/5
f 156/1/5 149/1/5 155/1/5
f 157/2/5 150/2/5 156/2/5
f 160/2/5 159/2/5 158/2/5
f 161/2/5 159/2/5 160/2/5
f 162/2/6 163/2/6 166/2/6
f 166/2/6 163/2/6 167/2/6
f 164/2/6 165/2/6 168/2/6
f 168/2/6 165/2/6 169/2/6
f 170/2/6 171/2/6 174/2/6
f 172/2/6 173/2/6 174/2/6
f 171/2/6 172/2/6 174/2/6
f 174/2/6 173/2/6 175/2/6
f 176/5/6 177/5/6 183/5/6
f 177/4/6 178/4/6 184/4/6
f 183/5/6 177/5/6 184/5/6
f 178/3/6 179/3/6 185/3/6
f 184/4/6 178/4/6 185/4/6
f 179/5/6 180/5/6 186/5/6
f 185/3/6 179/3/6 186/3/6
f 180/3/6 181/3/6 187/3/6
f 186/5/6 180/5/6 187/5/6
f 181/5/6 182/5/6 188/5/6
f 187/3/6 181/3/6 188/3/6
f 188/5/6 182/5/6 189/5/6
