# MagicaVoxel @ Ephtracy

# group
o 

# material
mtllib house-1_v3-98.mtl
usemtl palette

# normals
vn -1 0 0
vn 1 0 0
vn 0 0 1
vn 0 0 -1
vn 0 -1 0
vn 0 1 0

# texcoords
vt 0.271484 0.5
vt 0.505859 0.5
vt 0.529297 0.5
vt 0.892578 0.5
vt 0.916016 0.5
vt 0.923828 0.5

# verts
v -2.3 0 2.2
v -2.3 0 1.4
v -2.3 0 0.9
v -2.3 0.1 1.4
v -2.3 0.1 0.9
v -2.3 0.3 2.2
v -2.3 0.3 2.1
v -2.3 0.3 2
v -2.3 0.3 1.4
v -2.3 0.4 2.1
v -2.3 0.4 2
v -2.3 0.5 2.1
v -2.3 0.5 2
v -2.3 0.7 2.1
v -2.3 0.7 1.4
v -1.7 0.5 2.2
v -1.7 0.5 2.1
v -1.7 0.6 2.1
v -1.7 0.7 2.2
v -1.7 0.7 2.1
v -1.6 0 2.2
v -1.6 0 1.4
v -1.6 0 0.9
v -1.6 0.1 1.4
v -1.6 0.1 0.9
v -1.6 0.3 2.2
v -1.6 0.3 2.1
v -1.6 0.3 1.4
v -1.6 0.5 2.2
v -1.6 0.5 2.1
v -1.6 0.5 2
v -1.6 0.7 2.2
v -1.6 0.7 2
v -1.6 0.7 1.4
v -2.3 0 2.2
v -2.3 0.3 2.2
v -1.7 0.5 2.2
v -1.7 0.7 2.2
v -1.6 0 2.2
v -1.6 0.3 2.2
v -1.6 0.5 2.2
v -1.6 0.7 2.2
v -2.3 0.3 2.1
v -2.3 0.4 2.1
v -2.3 0.5 2.1
v -2.3 0.7 2.1
v -2.2 0.3 2.1
v -2.2 0.4 2.1
v -2.2 0.5 2.1
v -2 0.3 2.1
v -2 0.4 2.1
v -2 0.5 2.1
v -2 0.6 2.1
v -1.9 0.3 2.1
v -1.9 0.4 2.1
v -1.9 0.6 2.1
v -1.9 0.7 2.1
v -1.7 0.5 2.1
v -1.7 0.6 2.1
v -1.7 0.7 2.1
v -1.6 0.3 2.1
v -1.6 0.5 2.1
v -2.3 0.1 1.4
v -2.3 0.3 1.4
v -2.3 0.7 1.4
v -1.6 0.1 1.4
v -1.6 0.3 1.4
v -1.6 0.7 1.4
v -2.3 0 0.9
v -2.3 0.1 0.9
v -1.6 0 0.9
v -1.6 0.1 0.9
v -2.3 0 2.2
v -1.6 0 2.2
v -2.3 0 1.4
v -1.6 0 1.4
v -2.3 0 0.9
v -1.6 0 0.9
v -1.7 0.5 2.2
v -1.6 0.5 2.2
v -1.7 0.5 2.1
v -1.6 0.5 2.1
v -2.3 0.1 1.4
v -1.6 0.1 1.4
v -2.3 0.1 0.9
v -1.6 0.1 0.9
v -2.3 0.3 2.2
v -1.6 0.3 2.2
v -2.3 0.3 2.1
v -2.2 0.3 2.1
v -2 0.3 2.1
v -1.9 0.3 2.1
v -1.6 0.3 2.1
v -1.7 0.7 2.2
v -1.6 0.7 2.2
v -2.3 0.7 2.1
v -1.9 0.7 2.1
v -1.7 0.7 2.1
v -1.9 0.7 2
v -1.7 0.7 2
v -1.6 0.7 2
v -2.3 0.7 1.4
v -1.6 0.7 1.4

# faces
f 4/3/1 2/3/1 1/3/1
f 4/1/1 3/1/1 2/1/1
f 5/1/1 3/1/1 4/1/1
f 6/3/1 4/3/1 1/3/1
f 7/3/1 4/3/1 6/3/1
f 8/3/1 4/3/1 7/3/1
f 9/3/1 4/3/1 8/3/1
f 10/4/1 8/4/1 7/4/1
f 11/6/1 9/6/1 8/6/1
f 11/4/1 8/4/1 10/4/1
f 12/5/1 11/5/1 10/5/1
f 13/6/1 9/6/1 11/6/1
f 13/5/1 11/5/1 12/5/1
f 14/6/1 13/6/1 12/6/1
f 15/6/1 9/6/1 13/6/1
f 15/6/1 13/6/1 14/6/1
f 18/2/1 17/2/1 16/2/1
f 19/2/1 18/2/1 16/2/1
f 20/2/1 18/2/1 19/2/1
f 21/3/2 22/3/2 24/3/2
f 22/1/2 23/1/2 24/1/2
f 24/1/2 23/1/2 25/1/2
f 21/3/2 24/3/2 26/3/2
f 26/3/2 24/3/2 27/3/2
f 27/3/2 24/3/2 28/3/2
f 27/6/2 28/6/2 30/6/2
f 30/6/2 28/6/2 31/6/2
f 29/2/2 30/2/2 32/2/2
f 30/2/2 31/2/2 32/2/2
f 31/6/2 28/6/2 33/6/2
f 32/2/2 31/2/2 33/2/2
f 33/6/2 28/6/2 34/6/2
f 39/3/3 36/3/3 35/3/3
f 40/3/3 36/3/3 39/3/3
f 41/2/3 38/2/3 37/2/3
f 42/2/3 38/2/3 41/2/3
f 47/4/3 44/4/3 43/4/3
f 48/5/3 45/5/3 44/5/3
f 48/4/3 44/4/3 47/4/3
f 49/6/3 46/6/3 45/6/3
f 49/5/3 45/5/3 48/5/3
f 50/5/3 48/5/3 47/5/3
f 51/6/3 49/6/3 48/6/3
f 51/5/3 48/5/3 50/5/3
f 52/6/3 46/6/3 49/6/3
f 52/6/3 49/6/3 51/6/3
f 53/6/3 46/6/3 52/6/3
f 54/4/3 51/4/3 50/4/3
f 55/6/3 52/6/3 51/6/3
f 55/4/3 51/4/3 54/4/3
f 56/6/3 46/6/3 53/6/3
f 56/4/3 53/4/3 52/4/3
f 57/6/3 46/6/3 56/6/3
f 58/6/3 52/6/3 55/6/3
f 58/6/3 55/6/3 54/6/3
f 58/4/3 56/4/3 52/4/3
f 59/5/3 57/5/3 56/5/3
f 59/4/3 56/4/3 58/4/3
f 60/5/3 57/5/3 59/5/3
f 61/6/3 58/6/3 54/6/3
f 62/6/3 58/6/3 61/6/3
f 63/3/4 64/3/4 66/3/4
f 64/6/4 65/6/4 67/6/4
f 66/3/4 64/3/4 67/3/4
f 67/6/4 65/6/4 68/6/4
f 69/1/4 70/1/4 71/1/4
f 71/1/4 70/1/4 72/1/4
f 75/3/5 74/3/5 73/3/5
f 76/3/5 74/3/5 75/3/5
f 77/1/5 76/1/5 75/1/5
f 78/1/5 76/1/5 77/1/5
f 81/2/5 80/2/5 79/2/5
f 82/2/5 80/2/5 81/2/5
f 83/1/6 84/1/6 85/1/6
f 85/1/6 84/1/6 86/1/6
f 87/3/6 88/3/6 89/3/6
f 89/3/6 88/3/6 90/3/6
f 90/3/6 88/3/6 91/3/6
f 91/3/6 88/3/6 92/3/6
f 92/3/6 88/3/6 93/3/6
f 94/2/6 95/2/6 98/2/6
f 96/6/6 97/6/6 99/6/6
f 97/5/6 98/5/6 99/5/6
f 98/2/6 95/2/6 100/2/6
f 99/5/6 98/5/6 100/5/6
f 100/2/6 95/2/6 101/2/6
f 96/6/6 99/6/6 102/6/6
f 99/6/6 100/6/6 102/6/6
f 100/6/6 101/6/6 102/6/6
f 102/6/6 101/6/6 103/6/6
