# MagicaVoxel @ Ephtracy

# group
o 

# material
mtllib house-1_v3-40.mtl
usemtl palette

# normals
vn -1 0 0
vn 1 0 0
vn 0 0 1
vn 0 0 -1
vn 0 -1 0
vn 0 1 0

# texcoords
vt 0.505859 0.5
vt 0.892578 0.5
vt 0.916016 0.5
vt 0.923828 0.5
vt 0.958984 0.5
vt 0.994141 0.5

# verts
v -2.9 1.8 0.4
v -2.9 1.8 0.3
v -2.9 2.3 0.9
v -2.9 2.3 0.4
v -2.9 2.3 0.3
v -2.9 2.4 0.9
v -2.9 2.4 0.4
v -2.8 1.8 0.9
v -2.8 1.8 0.6
v -2.8 1.8 0.5
v -2.8 1.8 0.4
v -2.8 1.8 0.3
v -2.8 1.8 0.1
v -2.8 1.9 0.9
v -2.8 1.9 0.8
v -2.8 1.9 0.3
v -2.8 1.9 0.1
v -2.8 2 0.9
v -2.8 2 0.8
v -2.8 2 0.7
v -2.8 2 0.6
v -2.8 2 0.5
v -2.8 2 0.4
v -2.8 2 0.3
v -2.8 2 0.1
v -2.8 2.1 0.9
v -2.8 2.1 0.8
v -2.8 2.1 0.7
v -2.8 2.1 0.6
v -2.8 2.1 0.5
v -2.8 2.1 0.4
v -2.8 2.1 0.3
v -2.8 2.1 0.1
v -2.8 2.2 0.9
v -2.8 2.2 0.8
v -2.8 2.2 0.7
v -2.8 2.2 0.6
v -2.8 2.2 0.5
v -2.8 2.2 0.3
v -2.8 2.2 0.1
v -2.8 2.3 0.9
v -2.8 2.3 0.8
v -2.8 2.3 0.7
v -2.8 2.3 0.6
v -2.8 2.3 0.5
v -2.8 2.3 0.4
v -2.8 2.3 0.3
v -2.8 2.3 0.2
v -2.8 2.3 0.1
v -2.8 2.4 0.9
v -2.8 2.4 0.8
v -2.8 2.4 0.6
v -2.8 2.4 0.4
v -2.8 2.4 0.3
v -2.8 2.4 0.2
v -2.8 2.5 0.8
v -2.8 2.5 0.6
v -2.8 2.5 0.5
v -2.8 2.5 0.3
v -2.8 2.5 0.2
v -2.8 2.6 0.6
v -2.8 2.6 0.5
v -2.8 2.6 0.4
v -2.8 2.6 0.3
v -2.8 2.6 0.2
v -2.8 2.6 0.1
v -2.8 2.7 0.9
v -2.8 2.7 0.6
v -2.8 2.7 0.4
v -2.8 2.7 0.1
v -2.7 1.8 0.9
v -2.7 1.8 0.6
v -2.7 1.8 0.5
v -2.7 1.8 0.4
v -2.7 1.8 0.3
v -2.7 1.8 0.1
v -2.7 1.9 0.9
v -2.7 1.9 0.8
v -2.7 1.9 0.3
v -2.7 1.9 0.1
v -2.7 2 0.9
v -2.7 2 0.8
v -2.7 2 0.7
v -2.7 2 0.6
v -2.7 2 0.5
v -2.7 2 0.4
v -2.7 2 0.3
v -2.7 2 0.1
v -2.7 2.1 0.9
v -2.7 2.1 0.8
v -2.7 2.1 0.7
v -2.7 2.1 0.6
v -2.7 2.1 0.5
v -2.7 2.1 0.4
v -2.7 2.1 0.3
v -2.7 2.1 0.1
v -2.7 2.2 0.9
v -2.7 2.2 0.8
v -2.7 2.2 0.7
v -2.7 2.2 0.6
v -2.7 2.2 0.5
v -2.7 2.2 0.3
v -2.7 2.2 0.1
v -2.7 2.3 0.9
v -2.7 2.3 0.8
v -2.7 2.3 0.7
v -2.7 2.3 0.6
v -2.7 2.3 0.5
v -2.7 2.3 0.4
v -2.7 2.3 0.3
v -2.7 2.3 0.2
v -2.7 2.3 0.1
v -2.7 2.4 0.9
v -2.7 2.4 0.8
v -2.7 2.4 0.6
v -2.7 2.4 0.4
v -2.7 2.4 0.3
v -2.7 2.4 0.2
v -2.7 2.5 0.8
v -2.7 2.5 0.6
v -2.7 2.5 0.5
v -2.7 2.5 0.3
v -2.7 2.5 0.2
v -2.7 2.6 0.9
v -2.7 2.6 0.5
v -2.7 2.6 0.3
v -2.7 2.6 0.2
v -2.7 2.6 0.1
v -2 2.6 0.9
v -2 2.6 0.1
v -2 2.7 0.9
v -2 2.7 0.1
v -2.9 2.3 0.9
v -2.9 2.4 0.9
v -2.8 1.8 0.9
v -2.8 1.9 0.9
v -2.8 2 0.9
v -2.8 2.1 0.9
v -2.8 2.2 0.9
v -2.8 2.3 0.9
v -2.8 2.4 0.9
v -2.8 2.7 0.9
v -2.7 1.8 0.9
v -2.7 1.9 0.9
v -2.7 2 0.9
v -2.7 2.1 0.9
v -2.7 2.2 0.9
v -2.7 2.3 0.9
v -2.7 2.4 0.9
v -2.7 2.6 0.9
v -2 2.6 0.9
v -2 2.7 0.9
v -2.9 1.8 0.4
v -2.9 2.3 0.4
v -2.8 1.8 0.4
v -2.8 2 0.4
v -2.8 2.1 0.4
v -2.8 2.3 0.4
v -2.9 2.3 0.4
v -2.9 2.4 0.4
v -2.8 2.3 0.4
v -2.8 2.4 0.4
v -2.9 1.8 0.3
v -2.9 2.3 0.3
v -2.8 1.8 0.3
v -2.8 1.9 0.3
v -2.8 2 0.3
v -2.8 2.1 0.3
v -2.8 2.2 0.3
v -2.8 2.3 0.3
v -2.8 1.8 0.1
v -2.8 1.9 0.1
v -2.8 2 0.1
v -2.8 2.1 0.1
v -2.8 2.2 0.1
v -2.8 2.3 0.1
v -2.8 2.6 0.1
v -2.8 2.7 0.1
v -2.7 1.8 0.1
v -2.7 1.9 0.1
v -2.7 2 0.1
v -2.7 2.1 0.1
v -2.7 2.2 0.1
v -2.7 2.3 0.1
v -2.7 2.6 0.1
v -2 2.6 0.1
v -2 2.7 0.1
v -2.8 1.8 0.9
v -2.7 1.8 0.9
v -2.8 1.8 0.6
v -2.7 1.8 0.6
v -2.8 1.8 0.5
v -2.7 1.8 0.5
v -2.9 1.8 0.4
v -2.8 1.8 0.4
v -2.7 1.8 0.4
v -2.9 1.8 0.3
v -2.8 1.8 0.3
v -2.7 1.8 0.3
v -2.8 1.8 0.1
v -2.7 1.8 0.1
v -2.9 2.3 0.9
v -2.8 2.3 0.9
v -2.8 2.3 0.8
v -2.8 2.3 0.7
v -2.8 2.3 0.6
v -2.8 2.3 0.5
v -2.9 2.3 0.4
v -2.8 2.3 0.4
v -2.7 2.6 0.9
v -2 2.6 0.9
v -2.7 2.6 0.5
v -2.7 2.6 0.3
v -2.7 2.6 0.2
v -2.7 2.6 0.1
v -2 2.6 0.1
v -2.9 2.3 0.4
v -2.8 2.3 0.4
v -2.9 2.3 0.3
v -2.8 2.3 0.3
v -2.9 2.4 0.9
v -2.8 2.4 0.9
v -2.8 2.4 0.8
v -2.8 2.4 0.6
v -2.9 2.4 0.4
v -2.8 2.4 0.4
v -2.8 2.7 0.9
v -2 2.7 0.9
v -2.8 2.7 0.6
v -2.7 2.7 0.6
v -2.8 2.7 0.4
v -2.7 2.7 0.4
v -2.8 2.7 0.1
v -2 2.7 0.1

# faces
f 4/1/1 2/1/1 1/1/1
f 5/1/1 2/1/1 4/1/1
f 6/1/1 4/1/1 3/1/1
f 7/1/1 4/1/1 6/1/1
f 14/6/1 9/6/1 8/6/1
f 15/6/1 9/6/1 14/6/1
f 16/4/1 13/4/1 12/4/1
f 17/4/1 13/4/1 16/4/1
f 18/5/1 15/5/1 14/5/1
f 19/6/1 9/6/1 15/6/1
f 19/5/1 15/5/1 18/5/1
f 20/6/1 9/6/1 19/6/1
f 21/5/1 10/5/1 9/5/1
f 21/6/1 9/6/1 20/6/1
f 22/6/1 11/6/1 10/6/1
f 22/5/1 10/5/1 21/5/1
f 23/6/1 11/6/1 22/6/1
f 24/3/1 17/3/1 16/3/1
f 25/3/1 17/3/1 24/3/1
f 26/6/1 19/6/1 18/6/1
f 27/5/1 20/5/1 19/5/1
f 27/6/1 19/6/1 26/6/1
f 28/6/1 21/6/1 20/6/1
f 28/5/1 20/5/1 27/5/1
f 28/6/1 22/6/1 21/6/1
f 29/6/1 22/6/1 28/6/1
f 30/5/1 23/5/1 22/5/1
f 30/6/1 22/6/1 29/6/1
f 31/5/1 23/5/1 30/5/1
f 32/4/1 25/4/1 24/4/1
f 33/4/1 25/4/1 32/4/1
f 34/5/1 27/5/1 26/5/1
f 35/6/1 28/6/1 27/6/1
f 35/5/1 27/5/1 34/5/1
f 36/5/1 29/5/1 28/5/1
f 36/6/1 28/6/1 35/6/1
f 37/6/1 31/6/1 30/6/1
f 37/5/1 29/5/1 36/5/1
f 37/6/1 30/6/1 29/6/1
f 38/6/1 31/6/1 37/6/1
f 39/3/1 33/3/1 32/3/1
f 40/3/1 33/3/1 39/3/1
f 41/6/1 35/6/1 34/6/1
f 42/5/1 36/5/1 35/5/1
f 42/6/1 35/6/1 41/6/1
f 43/6/1 37/6/1 36/6/1
f 43/5/1 36/5/1 42/5/1
f 44/5/1 38/5/1 37/5/1
f 44/6/1 37/6/1 43/6/1
f 45/6/1 31/6/1 38/6/1
f 45/5/1 38/5/1 44/5/1
f 46/6/1 31/6/1 45/6/1
f 47/4/1 40/4/1 39/4/1
f 48/4/1 40/4/1 47/4/1
f 49/4/1 40/4/1 48/4/1
f 53/4/1 48/4/1 47/4/1
f 53/4/1 47/4/1 46/4/1
f 54/4/1 48/4/1 53/4/1
f 55/2/1 49/2/1 48/2/1
f 55/4/1 48/4/1 54/4/1
f 56/2/1 52/2/1 51/2/1
f 56/4/1 51/4/1 50/4/1
f 57/4/1 54/4/1 53/4/1
f 57/2/1 52/2/1 56/2/1
f 57/4/1 53/4/1 52/4/1
f 58/4/1 54/4/1 57/4/1
f 59/2/1 55/2/1 54/2/1
f 59/4/1 54/4/1 58/4/1
f 60/2/1 49/2/1 55/2/1
f 60/2/1 55/2/1 59/2/1
f 61/4/1 58/4/1 57/4/1
f 61/4/1 57/4/1 56/4/1
f 62/2/1 59/2/1 58/2/1
f 62/4/1 58/4/1 61/4/1
f 63/2/1 59/2/1 62/2/1
f 64/4/1 60/4/1 59/4/1
f 64/2/1 59/2/1 63/2/1
f 65/2/1 49/2/1 60/2/1
f 65/4/1 60/4/1 64/4/1
f 66/2/1 49/2/1 65/2/1
f 67/4/1 56/4/1 50/4/1
f 67/4/1 61/4/1 56/4/1
f 68/3/1 63/3/1 62/3/1
f 68/4/1 61/4/1 67/4/1
f 68/3/1 62/3/1 61/3/1
f 69/4/1 66/4/1 65/4/1
f 69/3/1 63/3/1 68/3/1
f 69/4/1 64/4/1 63/4/1
f 69/4/1 65/4/1 64/4/1
f 70/4/1 66/4/1 69/4/1
f 71/6/2 72/6/2 77/6/2
f 77/6/2 72/6/2 78/6/2
f 75/4/2 76/4/2 79/4/2
f 74/1/2 75/1/2 79/1/2
f 79/4/2 76/4/2 80/4/2
f 77/5/2 78/5/2 81/5/2
f 78/6/2 72/6/2 82/6/2
f 81/5/2 78/5/2 82/5/2
f 82/6/2 72/6/2 83/6/2
f 72/5/2 73/5/2 84/5/2
f 83/6/2 72/6/2 84/6/2
f 73/6/2 74/6/2 85/6/2
f 84/5/2 73/5/2 85/5/2
f 74/1/2 79/1/2 86/1/2
f 85/6/2 74/6/2 86/6/2
f 79/3/2 80/3/2 87/3/2
f 86/1/2 79/1/2 87/1/2
f 87/3/2 80/3/2 88/3/2
f 81/6/2 82/6/2 89/6/2
f 82/5/2 83/5/2 90/5/2
f 89/6/2 82/6/2 90/6/2
f 83/6/2 84/6/2 91/6/2
f 90/5/2 83/5/2 91/5/2
f 84/6/2 85/6/2 91/6/2
f 91/6/2 85/6/2 92/6/2
f 85/5/2 86/5/2 93/5/2
f 92/6/2 85/6/2 93/6/2
f 86/1/2 87/1/2 94/1/2
f 93/5/2 86/5/2 94/5/2
f 87/4/2 88/4/2 95/4/2
f 94/1/2 87/1/2 95/1/2
f 95/4/2 88/4/2 96/4/2
f 89/5/2 90/5/2 97/5/2
f 90/6/2 91/6/2 98/6/2
f 97/5/2 90/5/2 98/5/2
f 91/5/2 92/5/2 99/5/2
f 98/6/2 91/6/2 99/6/2
f 93/6/2 94/6/2 100/6/2
f 99/5/2 92/5/2 100/5/2
f 92/6/2 93/6/2 100/6/2
f 100/6/2 94/6/2 101/6/2
f 95/3/2 96/3/2 102/3/2
f 94/1/2 95/1/2 102/1/2
f 102/3/2 96/3/2 103/3/2
f 97/6/2 98/6/2 104/6/2
f 98/5/2 99/5/2 105/5/2
f 104/6/2 98/6/2 105/6/2
f 99/6/2 100/6/2 106/6/2
f 105/5/2 99/5/2 106/5/2
f 100/5/2 101/5/2 107/5/2
f 106/6/2 100/6/2 107/6/2
f 101/6/2 94/6/2 108/6/2
f 107/5/2 101/5/2 108/5/2
f 94/1/2 102/1/2 109/1/2
f 108/6/2 94/6/2 109/6/2
f 102/4/2 103/4/2 110/4/2
f 109/1/2 102/1/2 110/1/2
f 110/4/2 103/4/2 111/4/2
f 111/4/2 103/4/2 112/4/2
f 106/1/2 107/1/2 113/1/2
f 105/1/2 106/1/2 113/1/2
f 104/1/2 105/1/2 113/1/2
f 107/1/2 108/1/2 113/1/2
f 108/1/2 109/1/2 113/1/2
f 113/1/2 109/1/2 114/1/2
f 114/1/2 109/1/2 115/1/2
f 110/4/2 111/4/2 116/4/2
f 115/1/2 109/1/2 116/1/2
f 109/4/2 110/4/2 116/4/2
f 116/4/2 111/4/2 117/4/2
f 111/2/2 112/2/2 118/2/2
f 117/4/2 111/4/2 118/4/2
f 114/2/2 115/2/2 119/2/2
f 113/4/2 114/4/2 119/4/2
f 116/4/2 117/4/2 120/4/2
f 119/2/2 115/2/2 120/2/2
f 115/4/2 116/4/2 120/4/2
f 120/4/2 117/4/2 121/4/2
f 117/2/2 118/2/2 122/2/2
f 121/4/2 117/4/2 122/4/2
f 118/2/2 112/2/2 123/2/2
f 122/2/2 118/2/2 123/2/2
f 113/4/2 119/4/2 124/4/2
f 120/4/2 121/4/2 124/4/2
f 119/4/2 120/4/2 124/4/2
f 121/2/2 122/2/2 125/2/2
f 124/4/2 121/4/2 125/4/2
f 122/4/2 123/4/2 126/4/2
f 125/2/2 122/2/2 126/2/2
f 123/2/2 112/2/2 127/2/2
f 126/4/2 123/4/2 127/4/2
f 127/2/2 112/2/2 128/2/2
f 129/4/2 130/4/2 131/4/2
f 131/4/2 130/4/2 132/4/2
f 140/1/3 134/1/3 133/1/3
f 141/1/3 134/1/3 140/1/3
f 143/6/3 136/6/3 135/6/3
f 144/5/3 137/5/3 136/5/3
f 144/6/3 136/6/3 143/6/3
f 145/6/3 138/6/3 137/6/3
f 145/5/3 137/5/3 144/5/3
f 146/5/3 139/5/3 138/5/3
f 146/6/3 138/6/3 145/6/3
f 147/6/3 140/6/3 139/6/3
f 147/5/3 139/5/3 146/5/3
f 148/1/3 141/1/3 140/1/3
f 148/6/3 140/6/3 147/6/3
f 149/4/3 142/4/3 141/4/3
f 149/1/3 141/1/3 148/1/3
f 150/4/3 142/4/3 149/4/3
f 151/4/3 142/4/3 150/4/3
f 152/4/3 142/4/3 151/4/3
f 155/1/3 154/1/3 153/1/3
f 156/1/3 154/1/3 155/1/3
f 157/1/3 154/1/3 156/1/3
f 158/1/3 154/1/3 157/1/3
f 159/1/4 160/1/4 161/1/4
f 161/1/4 160/1/4 162/1/4
f 163/1/4 164/1/4 165/1/4
f 165/1/4 164/1/4 166/1/4
f 166/1/4 164/1/4 167/1/4
f 167/1/4 164/1/4 168/1/4
f 168/1/4 164/1/4 169/1/4
f 169/1/4 164/1/4 170/1/4
f 171/4/4 172/4/4 179/4/4
f 172/3/4 173/3/4 180/3/4
f 179/4/4 172/4/4 180/4/4
f 173/4/4 174/4/4 181/4/4
f 180/3/4 173/3/4 181/3/4
f 174/3/4 175/3/4 182/3/4
f 181/4/4 174/4/4 182/4/4
f 175/4/4 176/4/4 183/4/4
f 182/3/4 175/3/4 183/3/4
f 176/2/4 177/2/4 184/2/4
f 183/4/4 176/4/4 184/4/4
f 177/4/4 178/4/4 185/4/4
f 184/2/4 177/2/4 185/2/4
f 185/4/4 178/4/4 186/4/4
f 186/4/4 178/4/4 187/4/4
f 190/6/5 189/6/5 188/6/5
f 191/6/5 189/6/5 190/6/5
f 192/5/5 191/5/5 190/5/5
f 193/5/5 191/5/5 192/5/5
f 195/6/5 193/6/5 192/6/5
f 196/6/5 193/6/5 195/6/5
f 197/1/5 195/1/5 194/1/5
f 197/1/5 196/1/5 195/1/5
f 198/1/5 196/1/5 197/1/5
f 199/1/5 196/1/5 198/1/5
f 200/4/5 199/4/5 198/4/5
f 201/4/5 199/4/5 200/4/5
f 204/1/5 203/1/5 202/1/5
f 205/1/5 204/1/5 202/1/5
f 206/1/5 205/1/5 202/1/5
f 207/1/5 206/1/5 202/1/5
f 208/1/5 207/1/5 202/1/5
f 209/1/5 207/1/5 208/1/5
f 212/4/5 211/4/5 210/4/5
f 213/4/5 211/4/5 212/4/5
f 214/4/5 211/4/5 213/4/5
f 215/4/5 211/4/5 214/4/5
f 216/4/5 211/4/5 215/4/5
f 217/1/6 218/1/6 219/1/6
f 219/1/6 218/1/6 220/1/6
f 221/1/6 222/1/6 223/1/6
f 221/1/6 223/1/6 224/1/6
f 221/1/6 224/1/6 225/1/6
f 225/1/6 224/1/6 226/1/6
f 227/4/6 228/4/6 229/4/6
f 229/4/6 228/4/6 230/4/6
f 229/3/6 230/3/6 231/3/6
f 230/4/6 228/4/6 232/4/6
f 231/3/6 230/3/6 232/3/6
f 231/4/6 232/4/6 233/4/6
f 232/4/6 228/4/6 234/4/6
f 233/4/6 232/4/6 234/4/6
