# MagicaVoxel @ Ephtracy

# group
o 

# material
mtllib house-1_v3-36.mtl
usemtl palette

# normals
vn -1 0 0
vn 1 0 0
vn 0 0 1
vn 0 0 -1
vn 0 -1 0
vn 0 1 0

# texcoords
vt 0.919922 0.5
vt 0.923828 0.5
vt 0.978516 0.5

# verts
v -0.9 1.8 -1.2
v -0.9 1.8 -1.6
v -0.9 1.8 -1.8
v -0.9 1.9 -1.5
v -0.9 1.9 -1.6
v -0.9 1.9 -1.7
v -0.9 1.9 -1.8
v -0.9 2 -1.6
v -0.9 2 -1.7
v -0.9 2.1 -1.4
v -0.9 2.1 -1.5
v -0.9 2.1 -1.6
v -0.9 2.2 -1.3
v -0.9 2.2 -1.4
v -0.9 2.2 -1.5
v -0.9 2.3 -1.2
v -0.9 2.3 -1.3
v -0.9 2.3 -1.4
v -0.9 2.4 -1.1
v -0.9 2.4 -1.2
v -0.9 2.4 -1.3
v -0.9 2.5 -1
v -0.9 2.5 -1.1
v -0.9 2.5 -1.2
v -0.9 2.6 -0.9
v -0.9 2.6 -1
v -0.9 2.6 -1.1
v -0.9 2.7 -0.9
v -0.9 2.7 -1
v -0.8 2.2 -1.4
v -0.8 2.2 -1.5
v -0.8 2.3 -1.3
v -0.8 2.3 -1.4
v -0.8 2.4 -1.2
v -0.8 2.4 -1.3
v -0.8 2.4 -1.4
v -0.8 2.4 -1.5
v -0.8 2.5 -1.2
v -0.8 2.5 -1.5
v -0.8 2.5 -1.6
v -0.8 2.6 -1
v -0.8 2.6 -1.1
v -0.8 2.6 -1.2
v -0.8 2.6 -1.3
v -0.8 2.6 -1.4
v -0.8 2.6 -1.5
v -0.8 2.6 -1.6
v -0.8 2.7 -1
v -0.8 2.7 -1.3
v -0.8 2.7 -1.4
v -0.8 2.7 -1.5
v -0.8 2.4 -1.1
v -0.8 2.4 -1.2
v -0.8 2.5 -1
v -0.8 2.5 -1.1
v -0.8 2.5 -1.2
v -0.8 2.6 -1
v -0.8 2.6 -1.1
v 0 1.8 -1.4
v 0 1.8 -1.6
v 0 1.8 -1.8
v 0 1.9 -1.4
v 0 1.9 -1.5
v 0 1.9 -1.6
v 0 1.9 -1.7
v 0 1.9 -1.8
v 0 2 -1.5
v 0 2 -1.6
v 0 2 -1.7
v 0 2.1 -1.5
v 0 2.1 -1.6
v 0.1 1.8 -1.2
v 0.1 1.8 -1.4
v 0.1 1.9 -1.4
v 0.1 1.9 -1.5
v 0.1 1.9 -1.6
v 0.1 2 -1.5
v 0.1 2 -1.6
v 0.1 2.5 -1.5
v 0.1 2.5 -1.6
v 0.1 2.6 -0.9
v 0.1 2.6 -1.2
v 0.1 2.6 -1.4
v 0.1 2.6 -1.5
v 0.1 2.6 -1.6
v 0.1 2.7 -0.9
v 0.1 2.7 -1.4
v 0.1 2.7 -1.5
v -0.9 2.6 -0.9
v -0.9 2.7 -0.9
v 0 2.6 -0.9
v 0 2.7 -0.9
v 0.1 2.6 -0.9
v 0.1 2.7 -0.9
v -0.9 2.5 -1
v -0.9 2.6 -1
v -0.8 2.5 -1
v -0.8 2.6 -1
v -0.9 2.4 -1.1
v -0.9 2.5 -1.1
v -0.8 2.4 -1.1
v -0.8 2.5 -1.1
v -0.9 1.8 -1.2
v -0.9 2.3 -1.2
v -0.9 2.4 -1.2
v -0.8 2.4 -1.2
v -0.8 2.5 -1.2
v -0.8 2.6 -1.2
v 0 2.3 -1.2
v 0 2.4 -1.2
v 0.1 1.8 -1.2
v 0.1 2.6 -1.2
v -0.9 2.6 -1
v -0.9 2.7 -1
v -0.8 2.6 -1
v -0.8 2.7 -1
v -0.9 2.5 -1.1
v -0.9 2.6 -1.1
v -0.8 2.5 -1.1
v -0.8 2.6 -1.1
v -0.9 2.4 -1.2
v -0.9 2.5 -1.2
v -0.8 2.4 -1.2
v -0.8 2.5 -1.2
v -0.9 2.3 -1.3
v -0.9 2.4 -1.3
v -0.8 2.3 -1.3
v -0.8 2.4 -1.3
v -0.9 2.2 -1.4
v -0.9 2.3 -1.4
v -0.8 2.2 -1.4
v -0.8 2.3 -1.4
v 0 1.8 -1.4
v 0 1.9 -1.4
v 0.1 1.8 -1.4
v 0.1 1.9 -1.4
v -0.9 2.1 -1.5
v -0.9 2.2 -1.5
v -0.8 2.2 -1.5
v -0.8 2.4 -1.5
v -0.8 2.5 -1.5
v -0.8 2.6 -1.5
v -0.8 2.7 -1.5
v -0.7 2.4 -1.5
v -0.7 2.5 -1.5
v 0 2 -1.5
v 0 2.1 -1.5
v 0 2.2 -1.5
v 0.1 2 -1.5
v 0.1 2.5 -1.5
v 0.1 2.6 -1.5
v 0.1 2.7 -1.5
v -0.9 2 -1.6
v -0.9 2.1 -1.6
v -0.8 2.5 -1.6
v -0.8 2.6 -1.6
v 0 1.9 -1.6
v 0 2 -1.6
v 0 2.1 -1.6
v 0.1 1.9 -1.6
v 0.1 2 -1.6
v 0.1 2.5 -1.6
v 0.1 2.6 -1.6
v -0.9 1.9 -1.7
v -0.9 2 -1.7
v 0 1.9 -1.7
v 0 2 -1.7
v -0.9 1.8 -1.8
v -0.9 1.9 -1.8
v 0 1.8 -1.8
v 0 1.9 -1.8
v -0.9 1.8 -1.2
v 0.1 1.8 -1.2
v 0 1.8 -1.4
v 0.1 1.8 -1.4
v -0.9 1.8 -1.6
v 0 1.8 -1.6
v -0.9 1.8 -1.8
v 0 1.8 -1.8
v 0 1.9 -1.4
v 0.1 1.9 -1.4
v 0 1.9 -1.5
v 0.1 1.9 -1.5
v 0 1.9 -1.6
v 0.1 1.9 -1.6
v -0.9 2.4 -1.1
v -0.8 2.4 -1.1
v -0.9 2.4 -1.2
v -0.8 2.4 -1.2
v -0.9 2.5 -1
v -0.8 2.5 -1
v -0.9 2.5 -1.1
v -0.8 2.5 -1.1
v -0.8 2.5 -1.5
v -0.7 2.5 -1.5
v 0.1 2.5 -1.5
v -0.8 2.5 -1.6
v 0.1 2.5 -1.6
v -0.9 2.6 -0.9
v 0 2.6 -0.9
v 0.1 2.6 -0.9
v -0.9 2.6 -1
v -0.8 2.6 -1
v 0 2.6 -1
v -0.8 2.6 -1.1
v -0.8 2.6 -1.2
v 0.1 2.6 -1.2
v -0.9 1.9 -1.7
v 0 1.9 -1.7
v -0.9 1.9 -1.8
v 0 1.9 -1.8
v 0 2 -1.5
v 0.1 2 -1.5
v -0.9 2 -1.6
v 0 2 -1.6
v 0.1 2 -1.6
v -0.9 2 -1.7
v 0 2 -1.7
v -0.9 2.1 -1.5
v 0 2.1 -1.5
v -0.9 2.1 -1.6
v 0 2.1 -1.6
v -0.9 2.2 -1.4
v -0.8 2.2 -1.4
v -0.9 2.2 -1.5
v -0.8 2.2 -1.5
v -0.9 2.3 -1.3
v -0.8 2.3 -1.3
v -0.9 2.3 -1.4
v -0.8 2.3 -1.4
v -0.9 2.4 -1.2
v -0.8 2.4 -1.2
v -0.9 2.4 -1.3
v -0.8 2.4 -1.3
v -0.9 2.5 -1.1
v -0.8 2.5 -1.1
v -0.9 2.5 -1.2
v -0.8 2.5 -1.2
v -0.9 2.6 -1
v -0.8 2.6 -1
v -0.9 2.6 -1.1
v -0.8 2.6 -1.1
v -0.8 2.6 -1.5
v 0.1 2.6 -1.5
v -0.8 2.6 -1.6
v 0.1 2.6 -1.6
v -0.9 2.7 -0.9
v 0 2.7 -0.9
v 0.1 2.7 -0.9
v -0.9 2.7 -1
v -0.8 2.7 -1
v 0 2.7 -1
v -0.8 2.7 -1.3
v -0.7 2.7 -1.3
v -0.8 2.7 -1.4
v -0.7 2.7 -1.4
v 0.1 2.7 -1.4
v -0.8 2.7 -1.5
v 0.1 2.7 -1.5

# faces
f 4/2/1 2/2/1 1/2/1
f 5/3/1 3/3/1 2/3/1
f 5/2/1 2/2/1 4/2/1
f 6/3/1 3/3/1 5/3/1
f 7/3/1 3/3/1 6/3/1
f 8/3/1 5/3/1 4/3/1
f 8/3/1 6/3/1 5/3/1
f 9/3/1 6/3/1 8/3/1
f 10/2/1 4/2/1 1/2/1
f 11/3/1 8/3/1 4/3/1
f 11/2/1 4/2/1 10/2/1
f 12/3/1 8/3/1 11/3/1
f 13/2/1 10/2/1 1/2/1
f 14/3/1 11/3/1 10/3/1
f 14/2/1 10/2/1 13/2/1
f 15/3/1 11/3/1 14/3/1
f 16/2/1 13/2/1 1/2/1
f 17/3/1 14/3/1 13/3/1
f 17/2/1 13/2/1 16/2/1
f 18/3/1 14/3/1 17/3/1
f 20/3/1 17/3/1 16/3/1
f 21/3/1 17/3/1 20/3/1
f 23/3/1 20/3/1 19/3/1
f 24/3/1 20/3/1 23/3/1
f 26/3/1 23/3/1 22/3/1
f 27/3/1 23/3/1 26/3/1
f 28/3/1 26/3/1 25/3/1
f 29/3/1 26/3/1 28/3/1
f 33/2/1 31/2/1 30/2/1
f 35/2/1 33/2/1 32/2/1
f 36/2/1 31/2/1 33/2/1
f 36/2/1 33/2/1 35/2/1
f 37/2/1 31/2/1 36/2/1
f 38/2/1 35/2/1 34/2/1
f 38/2/1 36/2/1 35/2/1
f 39/1/1 37/1/1 36/1/1
f 43/2/1 36/2/1 38/2/1
f 44/2/1 36/2/1 43/2/1
f 45/1/1 39/1/1 36/1/1
f 45/2/1 36/2/1 44/2/1
f 46/3/1 40/3/1 39/3/1
f 46/1/1 39/1/1 45/1/1
f 47/3/1 40/3/1 46/3/1
f 48/2/1 44/2/1 43/2/1
f 48/2/1 42/2/1 41/2/1
f 48/2/1 43/2/1 42/2/1
f 49/1/1 45/1/1 44/1/1
f 49/2/1 44/2/1 48/2/1
f 50/3/1 46/3/1 45/3/1
f 50/1/1 45/1/1 49/1/1
f 51/3/1 46/3/1 50/3/1
f 52/3/2 53/3/2 55/3/2
f 55/3/2 53/3/2 56/3/2
f 54/3/2 55/3/2 57/3/2
f 57/3/2 55/3/2 58/3/2
f 59/2/2 60/2/2 62/2/2
f 62/2/2 60/2/2 63/2/2
f 60/3/2 61/3/2 64/3/2
f 63/2/2 60/2/2 64/2/2
f 64/3/2 61/3/2 65/3/2
f 65/3/2 61/3/2 66/3/2
f 64/3/2 65/3/2 68/3/2
f 68/3/2 65/3/2 69/3/2
f 67/3/2 68/3/2 70/3/2
f 70/3/2 68/3/2 71/3/2
f 72/2/2 73/2/2 74/2/2
f 74/2/2 75/2/2 77/2/2
f 75/3/2 76/3/2 77/3/2
f 77/3/2 76/3/2 78/3/2
f 74/2/2 77/2/2 79/2/2
f 72/2/2 74/2/2 82/2/2
f 74/2/2 79/2/2 82/2/2
f 82/2/2 79/2/2 83/2/2
f 79/3/2 80/3/2 84/3/2
f 83/2/2 79/2/2 84/2/2
f 84/3/2 80/3/2 85/3/2
f 82/2/2 83/2/2 86/2/2
f 81/2/2 82/2/2 86/2/2
f 83/3/2 84/3/2 87/3/2
f 86/2/2 83/2/2 87/2/2
f 87/3/2 84/3/2 88/3/2
f 91/3/3 90/3/3 89/3/3
f 92/3/3 90/3/3 91/3/3
f 93/2/3 92/2/3 91/2/3
f 94/2/3 92/2/3 93/2/3
f 97/3/3 96/3/3 95/3/3
f 98/3/3 96/3/3 97/3/3
f 101/3/3 100/3/3 99/3/3
f 102/3/3 100/3/3 101/3/3
f 106/3/3 105/3/3 104/3/3
f 109/2/3 104/2/3 103/2/3
f 109/3/3 106/3/3 104/3/3
f 110/2/3 108/2/3 107/2/3
f 110/3/3 106/3/3 109/3/3
f 110/2/3 107/2/3 106/2/3
f 111/2/3 109/2/3 103/2/3
f 111/2/3 110/2/3 109/2/3
f 112/2/3 108/2/3 110/2/3
f 112/2/3 110/2/3 111/2/3
f 113/3/4 114/3/4 115/3/4
f 115/3/4 114/3/4 116/3/4
f 117/3/4 118/3/4 119/3/4
f 119/3/4 118/3/4 120/3/4
f 121/3/4 122/3/4 123/3/4
f 123/3/4 122/3/4 124/3/4
f 125/3/4 126/3/4 127/3/4
f 127/3/4 126/3/4 128/3/4
f 129/3/4 130/3/4 131/3/4
f 131/3/4 130/3/4 132/3/4
f 133/2/4 134/2/4 135/2/4
f 135/2/4 134/2/4 136/2/4
f 137/3/4 138/3/4 139/3/4
f 139/2/4 140/2/4 144/2/4
f 140/1/4 141/1/4 144/1/4
f 144/1/4 141/1/4 145/1/4
f 137/3/4 139/3/4 147/3/4
f 139/2/4 144/2/4 148/2/4
f 144/2/4 145/2/4 148/2/4
f 147/3/4 139/3/4 148/3/4
f 146/2/4 147/2/4 149/2/4
f 147/2/4 148/2/4 149/2/4
f 148/2/4 145/2/4 150/2/4
f 149/2/4 148/2/4 150/2/4
f 142/3/4 143/3/4 151/3/4
f 151/3/4 143/3/4 152/3/4
f 153/3/4 154/3/4 158/3/4
f 158/3/4 154/3/4 159/3/4
f 157/3/4 158/3/4 160/3/4
f 160/3/4 158/3/4 161/3/4
f 155/3/4 156/3/4 162/3/4
f 162/3/4 156/3/4 163/3/4
f 164/3/4 165/3/4 166/3/4
f 166/3/4 165/3/4 167/3/4
f 168/3/4 169/3/4 170/3/4
f 170/3/4 169/3/4 171/3/4
f 174/2/5 173/2/5 172/2/5
f 175/2/5 173/2/5 174/2/5
f 176/2/5 174/2/5 172/2/5
f 177/2/5 174/2/5 176/2/5
f 178/3/5 177/3/5 176/3/5
f 179/3/5 177/3/5 178/3/5
f 182/2/5 181/2/5 180/2/5
f 183/2/5 181/2/5 182/2/5
f 184/3/5 183/3/5 182/3/5
f 185/3/5 183/3/5 184/3/5
f 188/3/5 187/3/5 186/3/5
f 189/3/5 187/3/5 188/3/5
f 192/3/5 191/3/5 190/3/5
f 193/3/5 191/3/5 192/3/5
f 197/3/5 195/3/5 194/3/5
f 197/3/5 196/3/5 195/3/5
f 198/3/5 196/3/5 197/3/5
f 202/3/5 200/3/5 199/3/5
f 203/3/5 200/3/5 202/3/5
f 204/2/5 201/2/5 200/2/5
f 204/3/5 200/3/5 203/3/5
f 205/2/5 204/2/5 203/2/5
f 206/2/5 204/2/5 205/2/5
f 207/2/5 201/2/5 204/2/5
f 207/2/5 204/2/5 206/2/5
f 208/3/6 209/3/6 210/3/6
f 210/3/6 209/3/6 211/3/6
f 212/3/6 213/3/6 215/3/6
f 215/3/6 213/3/6 216/3/6
f 214/3/6 215/3/6 217/3/6
f 217/3/6 215/3/6 218/3/6
f 219/3/6 220/3/6 221/3/6
f 221/3/6 220/3/6 222/3/6
f 223/3/6 224/3/6 225/3/6
f 225/3/6 224/3/6 226/3/6
f 227/3/6 228/3/6 229/3/6
f 229/3/6 228/3/6 230/3/6
f 231/3/6 232/3/6 233/3/6
f 233/3/6 232/3/6 234/3/6
f 235/3/6 236/3/6 237/3/6
f 237/3/6 236/3/6 238/3/6
f 239/3/6 240/3/6 241/3/6
f 241/3/6 240/3/6 242/3/6
f 243/3/6 244/3/6 245/3/6
f 245/3/6 244/3/6 246/3/6
f 247/3/6 248/3/6 250/3/6
f 250/3/6 248/3/6 251/3/6
f 248/2/6 249/2/6 252/2/6
f 251/3/6 248/3/6 252/3/6
f 251/2/6 252/2/6 253/2/6
f 253/2/6 252/2/6 254/2/6
f 253/1/6 254/1/6 255/1/6
f 254/2/6 252/2/6 256/2/6
f 255/1/6 254/1/6 256/1/6
f 252/2/6 249/2/6 257/2/6
f 256/2/6 252/2/6 257/2/6
f 255/3/6 256/3/6 258/3/6
f 256/3/6 257/3/6 258/3/6
f 258/3/6 257/3/6 259/3/6
