# MagicaVoxel @ Ephtracy

# group
o 

# material
mtllib house-1_v3-75.mtl
usemtl palette

# normals
vn -1 0 0
vn 1 0 0
vn 0 0 1
vn 0 0 -1
vn 0 -1 0
vn 0 1 0

# texcoords
vt 0.505859 0.5
vt 0.892578 0.5
vt 0.916016 0.5
vt 0.923828 0.5
vt 0.958984 0.5
vt 0.994141 0.5

# verts
v -2.9 0.7 -0.6
v -2.9 0.7 -0.8
v -2.9 0.7 -1.3
v -2.9 0.7 -1.5
v -2.9 1 -0.6
v -2.9 1 -0.7
v -2.9 1 -1.4
v -2.9 1 -1.5
v -2.9 1.1 -0.7
v -2.9 1.1 -0.8
v -2.9 1.1 -1.3
v -2.9 1.1 -1.4
v -2.8 0.7 -0.8
v -2.8 0.7 -0.9
v -2.8 0.7 -1.2
v -2.8 0.7 -1.3
v -2.8 0.7 -1.5
v -2.8 0.7 -1.6
v -2.8 0.7 -1.8
v -2.8 0.7 -2
v -2.8 0.7 -2.1
v -2.8 0.8 -0.8
v -2.8 0.8 -0.9
v -2.8 0.8 -1
v -2.8 0.8 -1.2
v -2.8 0.8 -1.3
v -2.8 0.8 -1.7
v -2.8 0.8 -1.8
v -2.8 0.8 -1.9
v -2.8 0.8 -2
v -2.8 0.9 -0.8
v -2.8 0.9 -0.9
v -2.8 0.9 -1
v -2.8 0.9 -1.1
v -2.8 0.9 -1.6
v -2.8 0.9 -1.7
v -2.8 0.9 -1.8
v -2.8 0.9 -1.9
v -2.8 0.9 -2
v -2.8 1 -0.6
v -2.8 1 -0.7
v -2.8 1 -0.8
v -2.8 1 -0.9
v -2.8 1 -1
v -2.8 1 -1.1
v -2.8 1 -1.2
v -2.8 1 -1.4
v -2.8 1 -1.5
v -2.8 1 -1.7
v -2.8 1 -1.8
v -2.8 1 -1.9
v -2.8 1 -2
v -2.8 1.1 -0.7
v -2.8 1.1 -0.8
v -2.8 1.1 -0.9
v -2.8 1.1 -1
v -2.8 1.1 -1.1
v -2.8 1.1 -1.2
v -2.8 1.1 -1.3
v -2.8 1.1 -1.4
v -2.8 1.1 -1.5
v -2.8 1.1 -1.7
v -2.8 1.1 -1.9
v -2.8 1.2 -0.6
v -2.8 1.2 -0.9
v -2.8 1.2 -1.2
v -2.8 1.2 -1.3
v -2.8 1.2 -1.5
v -2.8 1.2 -2.1
v -2.7 0.7 -0.6
v -2.7 0.7 -0.8
v -2.7 0.7 -0.9
v -2.7 0.7 -1.2
v -2.7 0.8 -0.8
v -2.7 0.8 -0.9
v -2.7 0.8 -1
v -2.7 0.9 -0.8
v -2.7 0.9 -0.9
v -2.7 0.9 -1
v -2.7 0.9 -1.1
v -2.7 1 -0.8
v -2.7 1 -0.9
v -2.7 1 -1
v -2.7 1 -1.1
v -2.7 1 -1.2
v -2.7 1.1 -0.8
v -2.7 1.1 -0.9
v -2.7 1.1 -1
v -2.7 1.1 -1.1
v -2.7 1.1 -1.2
v -2.7 1.2 -0.6
v -2.7 1.2 -0.9
v -2.7 1.2 -1.2
v -2 0.7 -1.2
v -2 0.7 -2.1
v -2 1.2 -1.2
v -2 1.2 -2.1
v -2.9 0.7 -0.6
v -2.9 1 -0.6
v -2.8 0.7 -0.6
v -2.8 1 -0.6
v -2.8 1.2 -0.6
v -2.7 0.7 -0.6
v -2.7 1.2 -0.6
v -2.9 1 -0.7
v -2.9 1.1 -0.7
v -2.8 1 -0.7
v -2.8 1.1 -0.7
v -2.7 0.7 -1.2
v -2.7 1 -1.2
v -2.7 1.1 -1.2
v -2.7 1.2 -1.2
v -2 0.7 -1.2
v -2 1.2 -1.2
v -2.9 0.7 -1.3
v -2.9 1.1 -1.3
v -2.8 0.7 -1.3
v -2.8 0.8 -1.3
v -2.8 1.1 -1.3
v -2.9 0.7 -0.8
v -2.9 1.1 -0.8
v -2.8 0.7 -0.8
v -2.8 0.8 -0.8
v -2.8 0.9 -0.8
v -2.8 1 -0.8
v -2.8 1.1 -0.8
v -2.9 1 -1.4
v -2.9 1.1 -1.4
v -2.8 1 -1.4
v -2.8 1.1 -1.4
v -2.9 0.7 -1.5
v -2.9 1 -1.5
v -2.8 0.7 -1.5
v -2.8 1 -1.5
v -2.8 0.7 -2.1
v -2.8 1.2 -2.1
v -2 0.7 -2.1
v -2 1.2 -2.1
v -2.9 0.7 -0.6
v -2.8 0.7 -0.6
v -2.7 0.7 -0.6
v -2.9 0.7 -0.8
v -2.8 0.7 -0.8
v -2.7 0.7 -0.8
v -2.8 0.7 -0.9
v -2.7 0.7 -0.9
v -2.8 0.7 -1.2
v -2.7 0.7 -1.2
v -2 0.7 -1.2
v -2.9 0.7 -1.3
v -2.8 0.7 -1.3
v -2.7 0.7 -1.3
v -2.9 0.7 -1.5
v -2.8 0.7 -1.5
v -2.8 0.7 -1.6
v -2.7 0.7 -1.6
v -2.8 0.7 -1.8
v -2.7 0.7 -1.8
v -2.8 0.7 -2
v -2.7 0.7 -2
v -2.8 0.7 -2.1
v -2 0.7 -2.1
v -2.9 1 -0.6
v -2.8 1 -0.6
v -2.9 1 -0.7
v -2.8 1 -0.7
v -2.9 1 -1.4
v -2.8 1 -1.4
v -2.9 1 -1.5
v -2.8 1 -1.5
v -2.9 1.1 -0.7
v -2.8 1.1 -0.7
v -2.9 1.1 -0.8
v -2.8 1.1 -0.8
v -2.9 1.1 -1.3
v -2.8 1.1 -1.3
v -2.9 1.1 -1.4
v -2.8 1.1 -1.4
v -2.8 1.2 -0.6
v -2.7 1.2 -0.6
v -2.8 1.2 -0.9
v -2.7 1.2 -0.9
v -2.8 1.2 -1.2
v -2.7 1.2 -1.2
v -2 1.2 -1.2
v -2.8 1.2 -1.3
v -2.7 1.2 -1.3
v -2.8 1.2 -1.5
v -2.7 1.2 -1.5
v -2.8 1.2 -2.1
v -2 1.2 -2.1

# faces
f 5/1/1 2/1/1 1/1/1
f 6/1/1 2/1/1 5/1/1
f 7/1/1 4/1/1 3/1/1
f 8/1/1 4/1/1 7/1/1
f 9/1/1 2/1/1 6/1/1
f 10/1/1 2/1/1 9/1/1
f 11/1/1 7/1/1 3/1/1
f 12/1/1 7/1/1 11/1/1
f 22/5/1 14/5/1 13/5/1
f 23/6/1 15/6/1 14/6/1
f 23/5/1 14/5/1 22/5/1
f 24/6/1 15/6/1 23/6/1
f 25/5/1 16/5/1 15/5/1
f 25/6/1 15/6/1 24/6/1
f 26/5/1 16/5/1 25/5/1
f 27/2/1 19/2/1 18/2/1
f 28/3/1 20/3/1 19/3/1
f 28/2/1 19/2/1 27/2/1
f 29/3/1 20/3/1 28/3/1
f 30/4/1 21/4/1 20/4/1
f 30/3/1 20/3/1 29/3/1
f 31/6/1 23/6/1 22/6/1
f 32/5/1 24/5/1 23/5/1
f 32/6/1 23/6/1 31/6/1
f 33/6/1 26/6/1 25/6/1
f 33/5/1 24/5/1 32/5/1
f 33/6/1 25/6/1 24/6/1
f 34/6/1 26/6/1 33/6/1
f 35/4/1 18/4/1 17/4/1
f 35/2/1 27/2/1 18/2/1
f 36/3/1 29/3/1 28/3/1
f 36/2/1 27/2/1 35/2/1
f 36/3/1 28/3/1 27/3/1
f 37/3/1 29/3/1 36/3/1
f 38/4/1 30/4/1 29/4/1
f 38/3/1 29/3/1 37/3/1
f 39/4/1 21/4/1 30/4/1
f 39/4/1 30/4/1 38/4/1
f 42/5/1 32/5/1 31/5/1
f 43/6/1 33/6/1 32/6/1
f 43/5/1 32/5/1 42/5/1
f 44/5/1 34/5/1 33/5/1
f 44/6/1 33/6/1 43/6/1
f 45/6/1 26/6/1 34/6/1
f 45/5/1 34/5/1 44/5/1
f 46/6/1 26/6/1 45/6/1
f 48/4/1 35/4/1 17/4/1
f 48/4/1 37/4/1 36/4/1
f 48/4/1 36/4/1 35/4/1
f 49/4/1 37/4/1 48/4/1
f 50/3/1 38/3/1 37/3/1
f 50/4/1 37/4/1 49/4/1
f 50/3/1 39/3/1 38/3/1
f 51/3/1 39/3/1 50/3/1
f 52/4/1 21/4/1 39/4/1
f 52/3/1 39/3/1 51/3/1
f 53/4/1 41/4/1 40/4/1
f 54/6/1 43/6/1 42/6/1
f 55/5/1 44/5/1 43/5/1
f 55/6/1 43/6/1 54/6/1
f 56/6/1 45/6/1 44/6/1
f 56/5/1 44/5/1 55/5/1
f 57/5/1 46/5/1 45/5/1
f 57/6/1 45/6/1 56/6/1
f 58/6/1 26/6/1 46/6/1
f 58/5/1 46/5/1 57/5/1
f 59/6/1 26/6/1 58/6/1
f 60/4/1 49/4/1 48/4/1
f 60/4/1 48/4/1 47/4/1
f 61/4/1 49/4/1 60/4/1
f 62/2/1 51/2/1 50/2/1
f 62/4/1 49/4/1 61/4/1
f 62/2/1 50/2/1 49/2/1
f 63/4/1 52/4/1 51/4/1
f 63/2/1 51/2/1 62/2/1
f 64/4/1 54/4/1 53/4/1
f 64/4/1 53/4/1 40/4/1
f 64/4/1 55/4/1 54/4/1
f 65/3/1 57/3/1 56/3/1
f 65/4/1 55/4/1 64/4/1
f 65/3/1 56/3/1 55/3/1
f 65/3/1 58/3/1 57/3/1
f 66/4/1 59/4/1 58/4/1
f 66/3/1 58/3/1 65/3/1
f 67/3/1 61/3/1 60/3/1
f 67/4/1 59/4/1 66/4/1
f 67/3/1 60/3/1 59/3/1
f 68/4/1 63/4/1 62/4/1
f 68/3/1 61/3/1 67/3/1
f 68/4/1 62/4/1 61/4/1
f 69/4/1 52/4/1 63/4/1
f 69/4/1 63/4/1 68/4/1
f 69/4/1 21/4/1 52/4/1
f 70/4/2 71/4/2 74/4/2
f 71/5/2 72/5/2 74/5/2
f 72/6/2 73/6/2 75/6/2
f 74/5/2 72/5/2 75/5/2
f 75/6/2 73/6/2 76/6/2
f 70/4/2 74/4/2 77/4/2
f 74/6/2 75/6/2 77/6/2
f 75/5/2 76/5/2 78/5/2
f 77/6/2 75/6/2 78/6/2
f 76/6/2 73/6/2 79/6/2
f 78/5/2 76/5/2 79/5/2
f 79/6/2 73/6/2 80/6/2
f 77/5/2 78/5/2 81/5/2
f 70/4/2 77/4/2 81/4/2
f 78/6/2 79/6/2 82/6/2
f 81/5/2 78/5/2 82/5/2
f 79/5/2 80/5/2 83/5/2
f 82/6/2 79/6/2 83/6/2
f 80/6/2 73/6/2 84/6/2
f 83/5/2 80/5/2 84/5/2
f 84/6/2 73/6/2 85/6/2
f 81/6/2 82/6/2 86/6/2
f 70/4/2 81/4/2 86/4/2
f 82/5/2 83/5/2 87/5/2
f 86/6/2 82/6/2 87/6/2
f 83/6/2 84/6/2 88/6/2
f 87/5/2 83/5/2 88/5/2
f 84/5/2 85/5/2 89/5/2
f 88/6/2 84/6/2 89/6/2
f 89/5/2 85/5/2 90/5/2
f 70/4/2 86/4/2 91/4/2
f 86/4/2 87/4/2 91/4/2
f 87/3/2 88/3/2 92/3/2
f 91/4/2 87/4/2 92/4/2
f 89/3/2 90/3/2 92/3/2
f 88/3/2 89/3/2 92/3/2
f 92/3/2 90/3/2 93/3/2
f 94/4/2 95/4/2 96/4/2
f 96/4/2 95/4/2 97/4/2
f 100/1/3 99/1/3 98/1/3
f 101/1/3 99/1/3 100/1/3
f 103/4/3 101/4/3 100/4/3
f 103/4/3 102/4/3 101/4/3
f 104/4/3 102/4/3 103/4/3
f 107/1/3 106/1/3 105/1/3
f 108/1/3 106/1/3 107/1/3
f 113/4/3 110/4/3 109/4/3
f 113/4/3 112/4/3 111/4/3
f 113/4/3 111/4/3 110/4/3
f 114/4/3 112/4/3 113/4/3
f 117/1/3 116/1/3 115/1/3
f 118/1/3 116/1/3 117/1/3
f 119/1/3 116/1/3 118/1/3
f 120/1/4 121/1/4 122/1/4
f 122/1/4 121/1/4 123/1/4
f 123/1/4 121/1/4 124/1/4
f 124/1/4 121/1/4 125/1/4
f 125/1/4 121/1/4 126/1/4
f 127/1/4 128/1/4 129/1/4
f 129/1/4 128/1/4 130/1/4
f 131/1/4 132/1/4 133/1/4
f 133/1/4 132/1/4 134/1/4
f 135/4/4 136/4/4 137/4/4
f 137/4/4 136/4/4 138/4/4
f 142/1/5 140/1/5 139/1/5
f 143/4/5 141/4/5 140/4/5
f 143/1/5 140/1/5 142/1/5
f 144/4/5 141/4/5 143/4/5
f 145/5/5 144/5/5 143/5/5
f 146/5/5 144/5/5 145/5/5
f 147/6/5 146/6/5 145/6/5
f 148/6/5 146/6/5 147/6/5
f 151/5/5 148/5/5 147/5/5
f 152/4/5 149/4/5 148/4/5
f 152/5/5 148/5/5 151/5/5
f 153/1/5 151/1/5 150/1/5
f 154/4/5 152/4/5 151/4/5
f 154/1/5 151/1/5 153/1/5
f 155/4/5 152/4/5 154/4/5
f 156/4/5 149/4/5 152/4/5
f 156/4/5 152/4/5 155/4/5
f 157/2/5 156/2/5 155/2/5
f 158/4/5 149/4/5 156/4/5
f 158/2/5 156/2/5 157/2/5
f 159/3/5 158/3/5 157/3/5
f 160/4/5 149/4/5 158/4/5
f 160/3/5 158/3/5 159/3/5
f 161/4/5 160/4/5 159/4/5
f 162/4/5 149/4/5 160/4/5
f 162/4/5 160/4/5 161/4/5
f 163/1/6 164/1/6 165/1/6
f 165/1/6 164/1/6 166/1/6
f 167/1/6 168/1/6 169/1/6
f 169/1/6 168/1/6 170/1/6
f 171/1/6 172/1/6 173/1/6
f 173/1/6 172/1/6 174/1/6
f 175/1/6 176/1/6 177/1/6
f 177/1/6 176/1/6 178/1/6
f 179/4/6 180/4/6 181/4/6
f 181/4/6 180/4/6 182/4/6
f 181/3/6 182/3/6 183/3/6
f 183/3/6 182/3/6 184/3/6
f 183/4/6 184/4/6 186/4/6
f 184/4/6 185/4/6 186/4/6
f 186/4/6 185/4/6 187/4/6
f 186/3/6 187/3/6 188/3/6
f 187/4/6 185/4/6 189/4/6
f 188/3/6 187/3/6 189/3/6
f 188/4/6 189/4/6 190/4/6
f 189/4/6 185/4/6 191/4/6
f 190/4/6 189/4/6 191/4/6
