# MagicaVoxel @ Ephtracy

# group
o 

# material
mtllib house-1_v3-118.mtl
usemtl palette

# normals
vn -1 0 0
vn 1 0 0
vn 0 0 1
vn 0 0 -1
vn 0 -1 0
vn 0 1 0

# texcoords
vt 0.923828 0.5
vt 0.978516 0.5

# verts
v 1.6 3.6 0.5
v 1.6 3.6 0.4
v 1.6 3.6 -0.4
v 1.6 3.6 -0.5
v 1.6 3.7 0.5
v 1.6 3.7 0.4
v 1.6 3.7 0.3
v 1.6 3.7 -0.3
v 1.6 3.7 -0.4
v 1.6 3.7 -0.5
v 1.6 3.8 0.4
v 1.6 3.8 0.3
v 1.6 3.8 0.2
v 1.6 3.8 -0.2
v 1.6 3.8 -0.3
v 1.6 3.8 -0.4
v 1.6 3.9 0.3
v 1.6 3.9 0.2
v 1.6 3.9 0.1
v 1.6 3.9 -0.1
v 1.6 3.9 -0.2
v 1.6 3.9 -0.3
v 1.6 4 0.2
v 1.6 4 0.1
v 1.6 4 -0.1
v 1.6 4 -0.2
v 1.6 4.1 0.1
v 1.6 4.1 -0.1
v 2.1 3.6 0.5
v 2.1 3.6 0.4
v 2.1 3.6 -0.4
v 2.1 3.6 -0.5
v 2.1 3.7 0.5
v 2.1 3.7 0.4
v 2.1 3.7 0.3
v 2.1 3.7 -0.3
v 2.1 3.7 -0.4
v 2.1 3.7 -0.5
v 2.1 3.8 0.4
v 2.1 3.8 0.3
v 2.1 3.8 0.2
v 2.1 3.8 -0.2
v 2.1 3.8 -0.3
v 2.1 3.8 -0.4
v 2.1 3.9 0.3
v 2.1 3.9 0.2
v 2.1 3.9 0.1
v 2.1 3.9 -0.1
v 2.1 3.9 -0.2
v 2.1 3.9 -0.3
v 2.1 4 0.2
v 2.1 4 0.1
v 2.1 4 -0.1
v 2.1 4 -0.2
v 2.1 4.1 0.1
v 2.1 4.1 -0.1
v 1.6 3.6 0.5
v 1.6 3.7 0.5
v 2.1 3.6 0.5
v 2.1 3.7 0.5
v 1.6 3.7 0.4
v 1.6 3.8 0.4
v 2.1 3.7 0.4
v 2.1 3.8 0.4
v 1.6 3.8 0.3
v 1.6 3.9 0.3
v 2.1 3.8 0.3
v 2.1 3.9 0.3
v 1.6 3.9 0.2
v 1.6 4 0.2
v 2.1 3.9 0.2
v 2.1 4 0.2
v 1.6 4 0.1
v 1.6 4.1 0.1
v 2.1 4 0.1
v 2.1 4.1 0.1
v 1.6 4 -0.1
v 1.6 4.1 -0.1
v 2.1 4 -0.1
v 2.1 4.1 -0.1
v 1.6 3.9 -0.2
v 1.6 4 -0.2
v 2.1 3.9 -0.2
v 2.1 4 -0.2
v 1.6 3.8 -0.3
v 1.6 3.9 -0.3
v 2.1 3.8 -0.3
v 2.1 3.9 -0.3
v 1.6 3.7 -0.4
v 1.6 3.8 -0.4
v 2.1 3.7 -0.4
v 2.1 3.8 -0.4
v 1.6 3.6 -0.5
v 1.6 3.7 -0.5
v 2.1 3.6 -0.5
v 2.1 3.7 -0.5
v 1.6 3.6 0.5
v 2.1 3.6 0.5
v 1.6 3.6 0.4
v 2.1 3.6 0.4
v 1.6 3.6 -0.4
v 2.1 3.6 -0.4
v 1.6 3.6 -0.5
v 2.1 3.6 -0.5
v 1.6 3.7 0.5
v 2.1 3.7 0.5
v 1.6 3.7 0.4
v 2.1 3.7 0.4
v 1.6 3.7 -0.4
v 2.1 3.7 -0.4
v 1.6 3.7 -0.5
v 2.1 3.7 -0.5
v 1.6 3.8 0.4
v 2.1 3.8 0.4
v 1.6 3.8 0.3
v 2.1 3.8 0.3
v 1.6 3.8 -0.3
v 2.1 3.8 -0.3
v 1.6 3.8 -0.4
v 2.1 3.8 -0.4
v 1.6 3.9 0.3
v 2.1 3.9 0.3
v 1.6 3.9 0.2
v 2.1 3.9 0.2
v 1.6 3.9 -0.2
v 2.1 3.9 -0.2
v 1.6 3.9 -0.3
v 2.1 3.9 -0.3
v 1.6 4 0.2
v 2.1 4 0.2
v 1.6 4 0.1
v 2.1 4 0.1
v 1.6 4 -0.1
v 2.1 4 -0.1
v 1.6 4 -0.2
v 2.1 4 -0.2
v 1.6 4.1 0.1
v 2.1 4.1 0.1
v 1.6 4.1 -0.1
v 2.1 4.1 -0.1

# faces
f 5/2/1 2/2/1 1/2/1
f 6/1/1 3/1/1 2/1/1
f 6/2/1 2/2/1 5/2/1
f 7/1/1 3/1/1 6/1/1
f 8/1/1 3/1/1 7/1/1
f 9/2/1 4/2/1 3/2/1
f 9/1/1 3/1/1 8/1/1
f 10/2/1 4/2/1 9/2/1
f 11/2/1 7/2/1 6/2/1
f 12/1/1 8/1/1 7/1/1
f 12/2/1 7/2/1 11/2/1
f 13/1/1 8/1/1 12/1/1
f 14/1/1 8/1/1 13/1/1
f 15/2/1 9/2/1 8/2/1
f 15/1/1 8/1/1 14/1/1
f 16/2/1 9/2/1 15/2/1
f 17/2/1 13/2/1 12/2/1
f 18/1/1 14/1/1 13/1/1
f 18/2/1 13/2/1 17/2/1
f 19/1/1 14/1/1 18/1/1
f 20/1/1 14/1/1 19/1/1
f 21/2/1 15/2/1 14/2/1
f 21/1/1 14/1/1 20/1/1
f 22/2/1 15/2/1 21/2/1
f 23/2/1 19/2/1 18/2/1
f 24/1/1 20/1/1 19/1/1
f 24/2/1 19/2/1 23/2/1
f 25/2/1 21/2/1 20/2/1
f 25/1/1 20/1/1 24/1/1
f 26/2/1 21/2/1 25/2/1
f 27/2/1 25/2/1 24/2/1
f 28/2/1 25/2/1 27/2/1
f 29/2/2 30/2/2 33/2/2
f 30/1/2 31/1/2 34/1/2
f 33/2/2 30/2/2 34/2/2
f 34/1/2 31/1/2 35/1/2
f 35/1/2 31/1/2 36/1/2
f 31/2/2 32/2/2 37/2/2
f 36/1/2 31/1/2 37/1/2
f 37/2/2 32/2/2 38/2/2
f 34/2/2 35/2/2 39/2/2
f 35/1/2 36/1/2 40/1/2
f 39/2/2 35/2/2 40/2/2
f 40/1/2 36/1/2 41/1/2
f 41/1/2 36/1/2 42/1/2
f 36/2/2 37/2/2 43/2/2
f 42/1/2 36/1/2 43/1/2
f 43/2/2 37/2/2 44/2/2
f 40/2/2 41/2/2 45/2/2
f 41/1/2 42/1/2 46/1/2
f 45/2/2 41/2/2 46/2/2
f 46/1/2 42/1/2 47/1/2
f 47/1/2 42/1/2 48/1/2
f 42/2/2 43/2/2 49/2/2
f 48/1/2 42/1/2 49/1/2
f 49/2/2 43/2/2 50/2/2
f 46/2/2 47/2/2 51/2/2
f 47/1/2 48/1/2 52/1/2
f 51/2/2 47/2/2 52/2/2
f 48/2/2 49/2/2 53/2/2
f 52/1/2 48/1/2 53/1/2
f 53/2/2 49/2/2 54/2/2
f 52/2/2 53/2/2 55/2/2
f 55/2/2 53/2/2 56/2/2
f 59/2/3 58/2/3 57/2/3
f 60/2/3 58/2/3 59/2/3
f 63/2/3 62/2/3 61/2/3
f 64/2/3 62/2/3 63/2/3
f 67/2/3 66/2/3 65/2/3
f 68/2/3 66/2/3 67/2/3
f 71/2/3 70/2/3 69/2/3
f 72/2/3 70/2/3 71/2/3
f 75/2/3 74/2/3 73/2/3
f 76/2/3 74/2/3 75/2/3
f 77/2/4 78/2/4 79/2/4
f 79/2/4 78/2/4 80/2/4
f 81/2/4 82/2/4 83/2/4
f 83/2/4 82/2/4 84/2/4
f 85/2/4 86/2/4 87/2/4
f 87/2/4 86/2/4 88/2/4
f 89/2/4 90/2/4 91/2/4
f 91/2/4 90/2/4 92/2/4
f 93/2/4 94/2/4 95/2/4
f 95/2/4 94/2/4 96/2/4
f 99/2/5 98/2/5 97/2/5
f 100/2/5 98/2/5 99/2/5
f 101/1/5 100/1/5 99/1/5
f 102/1/5 100/1/5 101/1/5
f 103/2/5 102/2/5 101/2/5
f 104/2/5 102/2/5 103/2/5
f 105/2/6 106/2/6 107/2/6
f 107/2/6 106/2/6 108/2/6
f 109/2/6 110/2/6 111/2/6
f 111/2/6 110/2/6 112/2/6
f 113/2/6 114/2/6 115/2/6
f 115/2/6 114/2/6 116/2/6
f 117/2/6 118/2/6 119/2/6
f 119/2/6 118/2/6 120/2/6
f 121/2/6 122/2/6 123/2/6
f 123/2/6 122/2/6 124/2/6
f 125/2/6 126/2/6 127/2/6
f 127/2/6 126/2/6 128/2/6
f 129/2/6 130/2/6 131/2/6
f 131/2/6 130/2/6 132/2/6
f 133/2/6 134/2/6 135/2/6
f 135/2/6 134/2/6 136/2/6
f 137/2/6 138/2/6 139/2/6
f 139/2/6 138/2/6 140/2/6
