# MagicaVoxel @ Ephtracy

# group
o 

# material
mtllib house-1_v3-82.mtl
usemtl palette

# normals
vn -1 0 0
vn 1 0 0
vn 0 0 1
vn 0 0 -1
vn 0 -1 0
vn 0 1 0

# texcoords
vt 0.505859 0.5
vt 0.892578 0.5
vt 0.916016 0.5
vt 0.923828 0.5
vt 0.958984 0.5
vt 0.994141 0.5

# verts
v -2.9 0.7 0.8
v -2.9 0.7 0.6
v -2.9 1 0.7
v -2.9 1 0.6
v -2.9 1.1 0.8
v -2.9 1.1 0.7
v -2.8 0.7 0.9
v -2.8 0.7 0.8
v -2.8 0.7 0.6
v -2.8 0.7 0.4
v -2.8 0.7 0.3
v -2.8 0.7 0.1
v -2.8 0.7 0
v -2.8 0.7 -0.2
v -2.8 0.7 -0.4
v -2.8 0.7 -0.6
v -2.8 0.8 0.9
v -2.8 0.8 0.8
v -2.8 0.8 0.6
v -2.8 0.8 0.4
v -2.8 0.8 0.3
v -2.8 0.8 0.2
v -2.8 0.8 0.1
v -2.8 0.8 0
v -2.8 0.8 -0.1
v -2.8 0.8 -0.2
v -2.8 0.8 -0.3
v -2.8 0.8 -0.4
v -2.8 0.8 -0.5
v -2.8 0.8 -0.6
v -2.8 0.9 0.4
v -2.8 0.9 0.3
v -2.8 0.9 0.2
v -2.8 0.9 0.1
v -2.8 0.9 0
v -2.8 0.9 -0.1
v -2.8 0.9 -0.2
v -2.8 0.9 -0.3
v -2.8 0.9 -0.4
v -2.8 0.9 -0.5
v -2.8 0.9 -0.6
v -2.8 1 0.7
v -2.8 1 0.6
v -2.8 1 0.3
v -2.8 1 0.2
v -2.8 1 0.1
v -2.8 1 0
v -2.8 1 -0.1
v -2.8 1 -0.2
v -2.8 1 -0.3
v -2.8 1 -0.4
v -2.8 1 -0.5
v -2.8 1 -0.6
v -2.8 1.1 0.9
v -2.8 1.1 0.8
v -2.8 1.1 0.7
v -2.8 1.1 0.6
v -2.8 1.1 0.5
v -2.8 1.1 0.3
v -2.8 1.1 0.2
v -2.8 1.1 0.1
v -2.8 1.1 -0.1
v -2.8 1.1 -0.2
v -2.8 1.1 -0.3
v -2.8 1.1 -0.4
v -2.8 1.1 -0.5
v -2.8 1.1 -0.6
v -2.8 1.2 0.9
v -2.8 1.2 0.7
v -2.8 1.2 0.5
v -2.8 1.2 0.3
v -2.8 1.2 0.1
v -2.8 1.2 -0.4
v -2.8 1.2 -0.6
v -2.7 0.7 0.9
v -2.7 0.7 0.8
v -2.7 0.7 0.6
v -2.7 0.7 0.4
v -2.7 0.7 0.3
v -2.7 0.7 0.1
v -2.7 0.7 0
v -2.7 0.7 -0.2
v -2.7 0.7 -0.4
v -2.7 0.7 -0.6
v -2.7 0.8 0.9
v -2.7 0.8 0.8
v -2.7 0.8 0.6
v -2.7 0.8 0.4
v -2.7 0.8 0.3
v -2.7 0.8 0.2
v -2.7 0.8 0.1
v -2.7 0.8 0
v -2.7 0.8 -0.1
v -2.7 0.8 -0.2
v -2.7 0.8 -0.3
v -2.7 0.8 -0.4
v -2.7 0.8 -0.5
v -2.7 0.8 -0.6
v -2.7 0.9 0.4
v -2.7 0.9 0.3
v -2.7 0.9 0.2
v -2.7 0.9 0.1
v -2.7 0.9 0
v -2.7 0.9 -0.1
v -2.7 0.9 -0.2
v -2.7 0.9 -0.3
v -2.7 0.9 -0.4
v -2.7 0.9 -0.5
v -2.7 0.9 -0.6
v -2.7 1 0.6
v -2.7 1 0.3
v -2.7 1 0.2
v -2.7 1 0.1
v -2.7 1 0
v -2.7 1 -0.1
v -2.7 1 -0.2
v -2.7 1 -0.3
v -2.7 1 -0.4
v -2.7 1 -0.5
v -2.7 1 -0.6
v -2.7 1.1 0.9
v -2.7 1.1 0.8
v -2.7 1.1 0.7
v -2.7 1.1 0.6
v -2.7 1.1 0.5
v -2.7 1.1 0.3
v -2.7 1.1 0.2
v -2.7 1.1 0.1
v -2.7 1.1 -0.1
v -2.7 1.1 -0.2
v -2.7 1.1 -0.3
v -2.7 1.1 -0.4
v -2.7 1.1 -0.5
v -2.7 1.1 -0.6
v -2.7 1.2 0.9
v -2.7 1.2 0.7
v -2.7 1.2 0.5
v -2.7 1.2 0.3
v -2.7 1.2 0.1
v -2.7 1.2 -0.4
v -2.7 1.2 -0.6
v -2.8 0.7 0.9
v -2.8 0.8 0.9
v -2.8 1.1 0.9
v -2.8 1.2 0.9
v -2.7 0.7 0.9
v -2.7 0.8 0.9
v -2.7 1.1 0.9
v -2.7 1.2 0.9
v -2.9 0.7 0.8
v -2.9 1.1 0.8
v -2.8 0.7 0.8
v -2.8 0.8 0.8
v -2.8 1.1 0.8
v -2.9 1 0.7
v -2.9 1.1 0.7
v -2.8 1 0.7
v -2.8 1.1 0.7
v -2.9 0.7 0.6
v -2.9 1 0.6
v -2.8 0.7 0.6
v -2.8 0.8 0.6
v -2.8 1 0.6
v -2.8 0.7 -0.6
v -2.8 0.8 -0.6
v -2.8 0.9 -0.6
v -2.8 1 -0.6
v -2.8 1.1 -0.6
v -2.8 1.2 -0.6
v -2.7 0.7 -0.6
v -2.7 0.8 -0.6
v -2.7 0.9 -0.6
v -2.7 1 -0.6
v -2.7 1.1 -0.6
v -2.7 1.2 -0.6
v -2.8 0.7 0.9
v -2.7 0.7 0.9
v -2.9 0.7 0.8
v -2.8 0.7 0.8
v -2.7 0.7 0.8
v -2.9 0.7 0.6
v -2.8 0.7 0.6
v -2.7 0.7 0.6
v -2.8 0.7 0.4
v -2.7 0.7 0.4
v -2.8 0.7 0.3
v -2.7 0.7 0.3
v -2.8 0.7 0.1
v -2.7 0.7 0.1
v -2.8 0.7 0
v -2.7 0.7 0
v -2.8 0.7 -0.2
v -2.7 0.7 -0.2
v -2.8 0.7 -0.4
v -2.7 0.7 -0.4
v -2.8 0.7 -0.6
v -2.7 0.7 -0.6
v -2.9 1 0.7
v -2.8 1 0.7
v -2.9 1 0.6
v -2.8 1 0.6
v -2.9 1.1 0.8
v -2.8 1.1 0.8
v -2.9 1.1 0.7
v -2.8 1.1 0.7
v -2.8 1.2 0.9
v -2.7 1.2 0.9
v -2.8 1.2 0.7
v -2.7 1.2 0.7
v -2.8 1.2 0.5
v -2.7 1.2 0.5
v -2.8 1.2 0.3
v -2.7 1.2 0.3
v -2.8 1.2 0.1
v -2.7 1.2 0.1
v -2.8 1.2 -0.4
v -2.7 1.2 -0.4
v -2.8 1.2 -0.6
v -2.7 1.2 -0.6

# faces
f 3/1/1 2/1/1 1/1/1
f 4/1/1 2/1/1 3/1/1
f 5/1/1 3/1/1 1/1/1
f 6/1/1 3/1/1 5/1/1
f 17/5/1 8/5/1 7/5/1
f 18/5/1 8/5/1 17/5/1
f 19/2/1 10/2/1 9/2/1
f 20/4/1 11/4/1 10/4/1
f 20/2/1 10/2/1 19/2/1
f 21/2/1 12/2/1 11/2/1
f 21/4/1 11/4/1 20/4/1
f 22/2/1 12/2/1 21/2/1
f 23/4/1 13/4/1 12/4/1
f 23/2/1 12/2/1 22/2/1
f 24/2/1 14/2/1 13/2/1
f 24/4/1 13/4/1 23/4/1
f 25/2/1 14/2/1 24/2/1
f 26/4/1 15/4/1 14/4/1
f 26/2/1 14/2/1 25/2/1
f 27/4/1 15/4/1 26/4/1
f 28/2/1 16/2/1 15/2/1
f 28/4/1 15/4/1 27/4/1
f 29/2/1 16/2/1 28/2/1
f 30/2/1 16/2/1 29/2/1
f 31/4/1 20/4/1 19/4/1
f 31/3/1 22/3/1 21/3/1
f 31/3/1 21/3/1 20/3/1
f 32/3/1 22/3/1 31/3/1
f 33/4/1 23/4/1 22/4/1
f 33/3/1 22/3/1 32/3/1
f 34/2/1 25/2/1 24/2/1
f 34/4/1 23/4/1 33/4/1
f 34/2/1 24/2/1 23/2/1
f 35/2/1 25/2/1 34/2/1
f 36/3/1 27/3/1 26/3/1
f 36/2/1 25/2/1 35/2/1
f 36/3/1 26/3/1 25/3/1
f 37/3/1 27/3/1 36/3/1
f 38/2/1 29/2/1 28/2/1
f 38/3/1 27/3/1 37/3/1
f 38/2/1 28/2/1 27/2/1
f 39/2/1 29/2/1 38/2/1
f 40/4/1 30/4/1 29/4/1
f 40/2/1 29/2/1 39/2/1
f 41/4/1 30/4/1 40/4/1
f 43/4/1 32/4/1 31/4/1
f 43/4/1 31/4/1 19/4/1
f 44/2/1 33/2/1 32/2/1
f 44/2/1 34/2/1 33/2/1
f 44/4/1 32/4/1 43/4/1
f 45/2/1 34/2/1 44/2/1
f 46/4/1 35/4/1 34/4/1
f 46/2/1 34/2/1 45/2/1
f 47/2/1 37/2/1 36/2/1
f 47/4/1 35/4/1 46/4/1
f 47/2/1 36/2/1 35/2/1
f 48/2/1 37/2/1 47/2/1
f 49/4/1 39/4/1 38/4/1
f 49/2/1 37/2/1 48/2/1
f 49/4/1 38/4/1 37/4/1
f 50/4/1 39/4/1 49/4/1
f 51/2/1 41/2/1 40/2/1
f 51/4/1 39/4/1 50/4/1
f 51/2/1 40/2/1 39/2/1
f 52/2/1 41/2/1 51/2/1
f 53/2/1 41/2/1 52/2/1
f 54/6/1 18/6/1 17/6/1
f 55/6/1 18/6/1 54/6/1
f 56/4/1 43/4/1 42/4/1
f 57/2/1 45/2/1 44/2/1
f 57/2/1 44/2/1 43/2/1
f 57/4/1 43/4/1 56/4/1
f 58/2/1 45/2/1 57/2/1
f 59/2/1 45/2/1 58/2/1
f 60/3/1 48/3/1 47/3/1
f 60/2/1 45/2/1 59/2/1
f 60/3/1 46/3/1 45/3/1
f 60/3/1 47/3/1 46/3/1
f 61/3/1 48/3/1 60/3/1
f 62/4/1 49/4/1 48/4/1
f 62/3/1 48/3/1 61/3/1
f 63/3/1 50/3/1 49/3/1
f 63/4/1 49/4/1 62/4/1
f 64/2/1 51/2/1 50/2/1
f 64/3/1 50/3/1 63/3/1
f 64/2/1 52/2/1 51/2/1
f 65/2/1 52/2/1 64/2/1
f 66/4/1 53/4/1 52/4/1
f 66/2/1 52/2/1 65/2/1
f 67/4/1 53/4/1 66/4/1
f 68/4/1 56/4/1 55/4/1
f 68/4/1 55/4/1 54/4/1
f 69/3/1 58/3/1 57/3/1
f 69/4/1 56/4/1 68/4/1
f 69/3/1 57/3/1 56/3/1
f 70/4/1 59/4/1 58/4/1
f 70/3/1 58/3/1 69/3/1
f 71/3/1 61/3/1 60/3/1
f 71/4/1 59/4/1 70/4/1
f 71/3/1 60/3/1 59/3/1
f 72/4/1 62/4/1 61/4/1
f 72/3/1 61/3/1 71/3/1
f 72/4/1 63/4/1 62/4/1
f 72/4/1 64/4/1 63/4/1
f 72/4/1 65/4/1 64/4/1
f 73/2/1 67/2/1 66/2/1
f 73/4/1 65/4/1 72/4/1
f 73/2/1 66/2/1 65/2/1
f 74/2/1 67/2/1 73/2/1
f 75/5/2 76/5/2 85/5/2
f 76/4/2 77/4/2 86/4/2
f 85/5/2 76/5/2 86/5/2
f 77/2/2 78/2/2 87/2/2
f 86/4/2 77/4/2 87/4/2
f 78/4/2 79/4/2 88/4/2
f 87/2/2 78/2/2 88/2/2
f 79/2/2 80/2/2 89/2/2
f 88/4/2 79/4/2 89/4/2
f 89/2/2 80/2/2 90/2/2
f 80/4/2 81/4/2 91/4/2
f 90/2/2 80/2/2 91/2/2
f 81/2/2 82/2/2 92/2/2
f 91/4/2 81/4/2 92/4/2
f 92/2/2 82/2/2 93/2/2
f 82/4/2 83/4/2 94/4/2
f 93/2/2 82/2/2 94/2/2
f 94/4/2 83/4/2 95/4/2
f 83/2/2 84/2/2 96/2/2
f 95/4/2 83/4/2 96/4/2
f 96/2/2 84/2/2 97/2/2
f 97/2/2 84/2/2 98/2/2
f 86/4/2 87/4/2 99/4/2
f 87/4/2 88/4/2 99/4/2
f 89/3/2 90/3/2 99/3/2
f 88/3/2 89/3/2 99/3/2
f 99/3/2 90/3/2 100/3/2
f 90/4/2 91/4/2 101/4/2
f 100/3/2 90/3/2 101/3/2
f 92/2/2 93/2/2 102/2/2
f 101/4/2 91/4/2 102/4/2
f 91/2/2 92/2/2 102/2/2
f 102/2/2 93/2/2 103/2/2
f 94/3/2 95/3/2 104/3/2
f 103/2/2 93/2/2 104/2/2
f 93/3/2 94/3/2 104/3/2
f 104/3/2 95/3/2 105/3/2
f 96/2/2 97/2/2 106/2/2
f 105/3/2 95/3/2 106/3/2
f 95/2/2 96/2/2 106/2/2
f 106/2/2 97/2/2 107/2/2
f 97/4/2 98/4/2 108/4/2
f 107/2/2 97/2/2 108/2/2
f 108/4/2 98/4/2 109/4/2
f 99/4/2 100/4/2 110/4/2
f 86/4/2 99/4/2 110/4/2
f 100/2/2 101/2/2 111/2/2
f 110/4/2 100/4/2 111/4/2
f 101/2/2 102/2/2 111/2/2
f 111/2/2 102/2/2 112/2/2
f 102/4/2 103/4/2 113/4/2
f 112/2/2 102/2/2 113/2/2
f 104/2/2 105/2/2 114/2/2
f 113/4/2 103/4/2 114/4/2
f 103/2/2 104/2/2 114/2/2
f 114/2/2 105/2/2 115/2/2
f 106/4/2 107/4/2 116/4/2
f 115/2/2 105/2/2 116/2/2
f 105/4/2 106/4/2 116/4/2
f 116/4/2 107/4/2 117/4/2
f 108/2/2 109/2/2 118/2/2
f 117/4/2 107/4/2 118/4/2
f 107/2/2 108/2/2 118/2/2
f 118/2/2 109/2/2 119/2/2
f 119/2/2 109/2/2 120/2/2
f 85/6/2 86/6/2 121/6/2
f 86/4/2 110/4/2 122/4/2
f 121/6/2 86/6/2 122/6/2
f 122/4/2 110/4/2 123/4/2
f 111/2/2 112/2/2 124/2/2
f 123/4/2 110/4/2 124/4/2
f 110/2/2 111/2/2 124/2/2
f 124/2/2 112/2/2 125/2/2
f 125/2/2 112/2/2 126/2/2
f 114/3/2 115/3/2 127/3/2
f 126/2/2 112/2/2 127/2/2
f 112/3/2 113/3/2 127/3/2
f 113/3/2 114/3/2 127/3/2
f 127/3/2 115/3/2 128/3/2
f 115/4/2 116/4/2 129/4/2
f 128/3/2 115/3/2 129/3/2
f 116/3/2 117/3/2 130/3/2
f 129/4/2 116/4/2 130/4/2
f 117/2/2 118/2/2 131/2/2
f 130/3/2 117/3/2 131/3/2
f 118/2/2 119/2/2 131/2/2
f 131/2/2 119/2/2 132/2/2
f 119/4/2 120/4/2 133/4/2
f 132/2/2 119/2/2 133/2/2
f 133/4/2 120/4/2 134/4/2
f 122/4/2 123/4/2 135/4/2
f 121/4/2 122/4/2 135/4/2
f 124/3/2 125/3/2 136/3/2
f 135/4/2 123/4/2 136/4/2
f 123/3/2 124/3/2 136/3/2
f 125/4/2 126/4/2 137/4/2
f 136/3/2 125/3/2 137/3/2
f 127/3/2 128/3/2 138/3/2
f 137/4/2 126/4/2 138/4/2
f 126/3/2 127/3/2 138/3/2
f 128/4/2 129/4/2 139/4/2
f 138/3/2 128/3/2 139/3/2
f 129/4/2 130/4/2 139/4/2
f 131/4/2 132/4/2 139/4/2
f 130/4/2 131/4/2 139/4/2
f 133/2/2 134/2/2 140/2/2
f 139/4/2 132/4/2 140/4/2
f 132/2/2 133/2/2 140/2/2
f 140/2/2 134/2/2 141/2/2
f 146/5/3 143/5/3 142/5/3
f 147/6/3 144/6/3 143/6/3
f 147/5/3 143/5/3 146/5/3
f 148/4/3 145/4/3 144/4/3
f 148/6/3 144/6/3 147/6/3
f 149/4/3 145/4/3 148/4/3
f 152/1/3 151/1/3 150/1/3
f 153/1/3 151/1/3 152/1/3
f 154/1/3 151/1/3 153/1/3
f 155/1/4 156/1/4 157/1/4
f 157/1/4 156/1/4 158/1/4
f 159/1/4 160/1/4 161/1/4
f 161/1/4 160/1/4 162/1/4
f 162/1/4 160/1/4 163/1/4
f 164/2/4 165/2/4 170/2/4
f 165/4/4 166/4/4 171/4/4
f 170/2/4 165/2/4 171/2/4
f 166/2/4 167/2/4 172/2/4
f 171/4/4 166/4/4 172/4/4
f 167/4/4 168/4/4 173/4/4
f 172/2/4 167/2/4 173/2/4
f 168/2/4 169/2/4 174/2/4
f 173/4/4 168/4/4 174/4/4
f 174/2/4 169/2/4 175/2/4
f 179/5/5 177/5/5 176/5/5
f 180/5/5 177/5/5 179/5/5
f 181/1/5 179/1/5 178/1/5
f 182/4/5 180/4/5 179/4/5
f 182/1/5 179/1/5 181/1/5
f 183/4/5 180/4/5 182/4/5
f 184/2/5 183/2/5 182/2/5
f 185/2/5 183/2/5 184/2/5
f 186/4/5 185/4/5 184/4/5
f 187/4/5 185/4/5 186/4/5
f 188/2/5 187/2/5 186/2/5
f 189/2/5 187/2/5 188/2/5
f 190/4/5 189/4/5 188/4/5
f 191/4/5 189/4/5 190/4/5
f 192/2/5 191/2/5 190/2/5
f 193/2/5 191/2/5 192/2/5
f 194/4/5 193/4/5 192/4/5
f 195/4/5 193/4/5 194/4/5
f 196/2/5 195/2/5 194/2/5
f 197/2/5 195/2/5 196/2/5
f 198/1/6 199/1/6 200/1/6
f 200/1/6 199/1/6 201/1/6
f 202/1/6 203/1/6 204/1/6
f 204/1/6 203/1/6 205/1/6
f 206/4/6 207/4/6 208/4/6
f 208/4/6 207/4/6 209/4/6
f 208/3/6 209/3/6 210/3/6
f 210/3/6 209/3/6 211/3/6
f 210/4/6 211/4/6 212/4/6
f 212/4/6 211/4/6 213/4/6
f 212/3/6 213/3/6 214/3/6
f 214/3/6 213/3/6 215/3/6
f 214/4/6 215/4/6 216/4/6
f 216/4/6 215/4/6 217/4/6
f 216/2/6 217/2/6 218/2/6
f 218/2/6 217/2/6 219/2/6
