# MagicaVoxel @ Ephtracy

# group
o 

# material
mtllib house-1_v3-14.mtl
usemtl palette

# normals
vn -1 0 0
vn 1 0 0
vn 0 0 1
vn 0 0 -1
vn 0 -1 0
vn 0 1 0

# texcoords
vt 0.923828 0.5
vt 0.978516 0.5

# verts
v 2.1 2.7 0.1
v 2.1 2.7 -1.3
v 2.1 2.7 -1.4
v 2.1 2.8 -1.2
v 2.1 2.8 -1.3
v 2.1 2.8 -1.4
v 2.1 2.9 -1.1
v 2.1 2.9 -1.2
v 2.1 2.9 -1.3
v 2.1 3 -1
v 2.1 3 -1.1
v 2.1 3 -1.2
v 2.1 3.1 -0.9
v 2.1 3.1 -1
v 2.1 3.1 -1.1
v 2.1 3.2 -0.8
v 2.1 3.2 -0.9
v 2.1 3.2 -1
v 2.1 3.3 0.1
v 2.1 3.3 -0.8
v 2.1 3.3 -0.9
v 2.8 2.7 0.1
v 2.8 2.7 -1.3
v 2.8 2.8 -1.2
v 2.8 2.8 -1.3
v 2.8 2.9 -1.1
v 2.8 2.9 -1.2
v 2.8 3 -1
v 2.8 3 -1.1
v 2.8 3.1 -0.9
v 2.8 3.1 -1
v 2.8 3.2 -0.8
v 2.8 3.2 -0.9
v 2.8 3.3 0.1
v 2.8 3.3 -0.8
v 3 2.7 -1.3
v 3 2.7 -1.4
v 3 2.8 -1.2
v 3 2.8 -1.3
v 3 2.8 -1.4
v 3 2.9 -1.1
v 3 2.9 -1.2
v 3 2.9 -1.3
v 3 3 -1
v 3 3 -1.1
v 3 3 -1.2
v 3 3.1 -0.9
v 3 3.1 -1
v 3 3.1 -1.1
v 3 3.2 -0.8
v 3 3.2 -0.9
v 3 3.2 -1
v 3 3.3 -0.8
v 3 3.3 -0.9
v 2.1 2.7 0.1
v 2.1 3.3 0.1
v 2.8 2.7 0.1
v 2.8 3.3 0.1
v 2.8 3.2 -0.8
v 2.8 3.3 -0.8
v 3 3.2 -0.8
v 3 3.3 -0.8
v 2.8 3.1 -0.9
v 2.8 3.2 -0.9
v 3 3.1 -0.9
v 3 3.2 -0.9
v 2.8 3 -1
v 2.8 3.1 -1
v 3 3 -1
v 3 3.1 -1
v 2.8 2.9 -1.1
v 2.8 3 -1.1
v 3 2.9 -1.1
v 3 3 -1.1
v 2.8 2.8 -1.2
v 2.8 2.9 -1.2
v 3 2.8 -1.2
v 3 2.9 -1.2
v 2.8 2.7 -1.3
v 2.8 2.8 -1.3
v 3 2.7 -1.3
v 3 2.8 -1.3
v 2.1 3.2 -0.9
v 2.1 3.3 -0.9
v 3 3.2 -0.9
v 3 3.3 -0.9
v 2.1 3.1 -1
v 2.1 3.2 -1
v 3 3.1 -1
v 3 3.2 -1
v 2.1 3 -1.1
v 2.1 3.1 -1.1
v 3 3 -1.1
v 3 3.1 -1.1
v 2.1 2.9 -1.2
v 2.1 3 -1.2
v 3 2.9 -1.2
v 3 3 -1.2
v 2.1 2.8 -1.3
v 2.1 2.9 -1.3
v 3 2.8 -1.3
v 3 2.9 -1.3
v 2.1 2.7 -1.4
v 2.1 2.8 -1.4
v 3 2.7 -1.4
v 3 2.8 -1.4
v 2.1 2.7 0.1
v 2.8 2.7 0.1
v 2.1 2.7 -1.3
v 2.8 2.7 -1.3
v 3 2.7 -1.3
v 2.1 2.7 -1.4
v 3 2.7 -1.4
v 2.8 2.8 -1.2
v 3 2.8 -1.2
v 2.8 2.8 -1.3
v 3 2.8 -1.3
v 2.8 2.9 -1.1
v 3 2.9 -1.1
v 2.8 2.9 -1.2
v 3 2.9 -1.2
v 2.8 3 -1
v 3 3 -1
v 2.8 3 -1.1
v 3 3 -1.1
v 2.8 3.1 -0.9
v 3 3.1 -0.9
v 2.8 3.1 -1
v 3 3.1 -1
v 2.8 3.2 -0.8
v 3 3.2 -0.8
v 2.8 3.2 -0.9
v 3 3.2 -0.9
v 2.1 2.8 -1.3
v 3 2.8 -1.3
v 2.1 2.8 -1.4
v 3 2.8 -1.4
v 2.1 2.9 -1.2
v 3 2.9 -1.2
v 2.1 2.9 -1.3
v 3 2.9 -1.3
v 2.1 3 -1.1
v 3 3 -1.1
v 2.1 3 -1.2
v 3 3 -1.2
v 2.1 3.1 -1
v 3 3.1 -1
v 2.1 3.1 -1.1
v 3 3.1 -1.1
v 2.1 3.2 -0.9
v 3 3.2 -0.9
v 2.1 3.2 -1
v 3 3.2 -1
v 2.1 3.3 0.1
v 2.8 3.3 0.1
v 2.1 3.3 -0.8
v 2.8 3.3 -0.8
v 3 3.3 -0.8
v 2.1 3.3 -0.9
v 3 3.3 -0.9

# faces
f 4/1/1 2/1/1 1/1/1
f 5/2/1 3/2/1 2/2/1
f 5/1/1 2/1/1 4/1/1
f 6/2/1 3/2/1 5/2/1
f 7/1/1 4/1/1 1/1/1
f 8/2/1 5/2/1 4/2/1
f 8/1/1 4/1/1 7/1/1
f 9/2/1 5/2/1 8/2/1
f 10/1/1 7/1/1 1/1/1
f 11/2/1 8/2/1 7/2/1
f 11/1/1 7/1/1 10/1/1
f 12/2/1 8/2/1 11/2/1
f 13/1/1 10/1/1 1/1/1
f 14/2/1 11/2/1 10/2/1
f 14/1/1 10/1/1 13/1/1
f 15/2/1 11/2/1 14/2/1
f 16/1/1 13/1/1 1/1/1
f 17/2/1 14/2/1 13/2/1
f 17/1/1 13/1/1 16/1/1
f 18/2/1 14/2/1 17/2/1
f 19/1/1 16/1/1 1/1/1
f 20/2/1 17/2/1 16/2/1
f 20/1/1 16/1/1 19/1/1
f 21/2/1 17/2/1 20/2/1
f 22/1/2 23/1/2 24/1/2
f 24/1/2 23/1/2 25/1/2
f 22/1/2 24/1/2 26/1/2
f 26/1/2 24/1/2 27/1/2
f 22/1/2 26/1/2 28/1/2
f 28/1/2 26/1/2 29/1/2
f 22/1/2 28/1/2 30/1/2
f 30/1/2 28/1/2 31/1/2
f 22/1/2 30/1/2 32/1/2
f 32/1/2 30/1/2 33/1/2
f 22/1/2 32/1/2 34/1/2
f 34/1/2 32/1/2 35/1/2
f 36/2/2 37/2/2 39/2/2
f 39/2/2 37/2/2 40/2/2
f 38/2/2 39/2/2 42/2/2
f 42/2/2 39/2/2 43/2/2
f 41/2/2 42/2/2 45/2/2
f 45/2/2 42/2/2 46/2/2
f 44/2/2 45/2/2 48/2/2
f 48/2/2 45/2/2 49/2/2
f 47/2/2 48/2/2 51/2/2
f 51/2/2 48/2/2 52/2/2
f 50/2/2 51/2/2 53/2/2
f 53/2/2 51/2/2 54/2/2
f 57/1/3 56/1/3 55/1/3
f 58/1/3 56/1/3 57/1/3
f 61/2/3 60/2/3 59/2/3
f 62/2/3 60/2/3 61/2/3
f 65/2/3 64/2/3 63/2/3
f 66/2/3 64/2/3 65/2/3
f 69/2/3 68/2/3 67/2/3
f 70/2/3 68/2/3 69/2/3
f 73/2/3 72/2/3 71/2/3
f 74/2/3 72/2/3 73/2/3
f 77/2/3 76/2/3 75/2/3
f 78/2/3 76/2/3 77/2/3
f 81/2/3 80/2/3 79/2/3
f 82/2/3 80/2/3 81/2/3
f 83/2/4 84/2/4 85/2/4
f 85/2/4 84/2/4 86/2/4
f 87/2/4 88/2/4 89/2/4
f 89/2/4 88/2/4 90/2/4
f 91/2/4 92/2/4 93/2/4
f 93/2/4 92/2/4 94/2/4
f 95/2/4 96/2/4 97/2/4
f 97/2/4 96/2/4 98/2/4
f 99/2/4 100/2/4 101/2/4
f 101/2/4 100/2/4 102/2/4
f 103/2/4 104/2/4 105/2/4
f 105/2/4 104/2/4 106/2/4
f 109/1/5 108/1/5 107/1/5
f 110/1/5 108/1/5 109/1/5
f 112/2/5 110/2/5 109/2/5
f 112/2/5 111/2/5 110/2/5
f 113/2/5 111/2/5 112/2/5
f 116/2/5 115/2/5 114/2/5
f 117/2/5 115/2/5 116/2/5
f 120/2/5 119/2/5 118/2/5
f 121/2/5 119/2/5 120/2/5
f 124/2/5 123/2/5 122/2/5
f 125/2/5 123/2/5 124/2/5
f 128/2/5 127/2/5 126/2/5
f 129/2/5 127/2/5 128/2/5
f 132/2/5 131/2/5 130/2/5
f 133/2/5 131/2/5 132/2/5
f 134/2/6 135/2/6 136/2/6
f 136/2/6 135/2/6 137/2/6
f 138/2/6 139/2/6 140/2/6
f 140/2/6 139/2/6 141/2/6
f 142/2/6 143/2/6 144/2/6
f 144/2/6 143/2/6 145/2/6
f 146/2/6 147/2/6 148/2/6
f 148/2/6 147/2/6 149/2/6
f 150/2/6 151/2/6 152/2/6
f 152/2/6 151/2/6 153/2/6
f 154/1/6 155/1/6 156/1/6
f 156/1/6 155/1/6 157/1/6
f 156/2/6 157/2/6 159/2/6
f 157/2/6 158/2/6 159/2/6
f 159/2/6 158/2/6 160/2/6
