# MagicaVoxel @ Ephtracy

# group
o 

# material
mtllib house-1_v3-45.mtl
usemtl palette

# normals
vn -1 0 0
vn 1 0 0
vn 0 0 1
vn 0 0 -1
vn 0 -1 0
vn 0 1 0

# texcoords
vt 0.916016 0.5
vt 0.919922 0.5
vt 0.923828 0.5
vt 0.978516 0.5

# verts
v -0.9 1.8 1.8
v -0.9 1.8 1.7
v -0.9 1.8 1.4
v -0.9 1.9 1.8
v -0.9 1.9 1.7
v -0.9 1.9 1.6
v -0.9 2 1.7
v -0.9 2 1.6
v -0.9 2 1.5
v -0.9 2.1 1.6
v -0.9 2.1 1.5
v -0.9 2.1 1.4
v -0.9 2.2 1.5
v -0.9 2.2 1.4
v -0.9 2.2 1.3
v -0.9 2.3 1.4
v -0.9 2.3 1.3
v -0.9 2.3 1.2
v -0.9 2.4 1.3
v -0.9 2.4 1.2
v -0.9 2.4 1.1
v -0.9 2.5 1.2
v -0.9 2.5 1.1
v -0.9 2.5 1
v -0.9 2.6 1.1
v -0.9 2.6 1
v -0.8 2.2 1.5
v -0.8 2.2 1.4
v -0.8 2.3 1.4
v -0.8 2.3 1.3
v -0.8 2.4 1.5
v -0.8 2.4 1.4
v -0.8 2.4 1.3
v -0.8 2.4 1.2
v -0.8 2.5 1.6
v -0.8 2.5 1.5
v -0.8 2.5 1.2
v -0.8 2.5 1.1
v -0.8 2.6 1.6
v -0.8 2.6 1.5
v -0.8 2.6 1.4
v -0.8 2.6 1.3
v -0.8 2.6 1.1
v -0.8 2.6 1
v -0.8 2.7 1.5
v -0.8 2.7 1.4
v -0.8 2.7 1.3
v -0.8 2.7 1
v -0.7 2.2 1.4
v -0.7 2.2 1.3
v -0.7 2.3 1.4
v -0.7 2.3 1.3
v -0.7 2.3 1.2
v -0.7 2.4 1.4
v -0.7 2.4 1.2
v -0.7 2.4 1.1
v -0.7 2.5 1.4
v -0.7 2.5 1.1
v -0.7 2.5 1
v -0.7 2.6 1.4
v -0.7 2.6 1
v 0 1.8 1.8
v 0 1.8 1.7
v 0 1.8 1.5
v 0 1.9 1.8
v 0 1.9 1.7
v 0 1.9 1.6
v 0 2 1.7
v 0 2 1.6
v 0 2 1.5
v 0 2.1 1.6
v 0 2.1 1.5
v 0.1 1.8 1.5
v 0.1 1.8 1.4
v 0.1 2.4 1.5
v 0.1 2.4 1.4
v 0.1 2.5 1.6
v 0.1 2.5 1.5
v 0.1 2.5 1.4
v 0.1 2.6 1.6
v 0.1 2.6 1.5
v 0.1 2.6 1.4
v 0.1 2.6 1
v 0.1 2.7 1.5
v 0.1 2.7 1.4
v 0.1 2.7 1
v -0.9 1.8 1.8
v -0.9 1.9 1.8
v 0 1.8 1.8
v 0 1.9 1.8
v -0.9 1.9 1.7
v -0.9 2 1.7
v 0 1.9 1.7
v 0 2 1.7
v -0.9 2 1.6
v -0.9 2.1 1.6
v -0.8 2.5 1.6
v -0.8 2.6 1.6
v 0 2 1.6
v 0 2.1 1.6
v 0.1 2.5 1.6
v 0.1 2.6 1.6
v -0.9 2.1 1.5
v -0.9 2.2 1.5
v -0.8 2.2 1.5
v -0.8 2.4 1.5
v -0.8 2.5 1.5
v -0.8 2.6 1.5
v -0.8 2.7 1.5
v -0.7 2.2 1.5
v -0.7 2.3 1.5
v -0.5 2.2 1.5
v -0.5 2.3 1.5
v -0.3 2.3 1.5
v -0.3 2.4 1.5
v -0.1 2.3 1.5
v -0.1 2.4 1.5
v 0 1.8 1.5
v 0 2 1.5
v 0 2.1 1.5
v 0 2.2 1.5
v 0.1 1.8 1.5
v 0.1 2.4 1.5
v 0.1 2.5 1.5
v 0.1 2.6 1.5
v 0.1 2.7 1.5
v -0.9 2.2 1.4
v -0.9 2.3 1.4
v -0.8 2.2 1.4
v -0.8 2.3 1.4
v -0.9 2.3 1.3
v -0.9 2.4 1.3
v -0.8 2.3 1.3
v -0.8 2.4 1.3
v -0.9 2.4 1.2
v -0.9 2.5 1.2
v -0.8 2.4 1.2
v -0.8 2.5 1.2
v -0.9 2.5 1.1
v -0.9 2.6 1.1
v -0.8 2.5 1.1
v -0.8 2.6 1.1
v -0.9 1.8 1.4
v -0.9 2.1 1.4
v -0.9 2.2 1.4
v -0.8 2.2 1.4
v -0.7 2.2 1.4
v -0.7 2.3 1.4
v -0.7 2.4 1.4
v -0.7 2.5 1.4
v -0.7 2.6 1.4
v -0.5 2.2 1.4
v -0.5 2.3 1.4
v -0.3 2.3 1.4
v -0.3 2.4 1.4
v -0.1 2.3 1.4
v -0.1 2.4 1.4
v 0 2.1 1.4
v 0 2.2 1.4
v 0.1 1.8 1.4
v 0.1 2.4 1.4
v 0.1 2.5 1.4
v 0.1 2.6 1.4
v -0.9 2.2 1.3
v -0.9 2.3 1.3
v -0.8 2.2 1.3
v -0.8 2.3 1.3
v -0.7 2.2 1.3
v -0.7 2.3 1.3
v -0.9 2.3 1.2
v -0.9 2.4 1.2
v -0.8 2.3 1.2
v -0.8 2.4 1.2
v -0.7 2.3 1.2
v -0.7 2.4 1.2
v -0.9 2.4 1.1
v -0.9 2.5 1.1
v -0.8 2.4 1.1
v -0.8 2.5 1.1
v -0.7 2.4 1.1
v -0.7 2.5 1.1
v -0.9 2.5 1
v -0.9 2.6 1
v -0.8 2.5 1
v -0.8 2.6 1
v -0.8 2.7 1
v -0.7 2.5 1
v -0.7 2.6 1
v 0.1 2.6 1
v 0.1 2.7 1
v -0.9 1.8 1.8
v 0 1.8 1.8
v -0.9 1.8 1.7
v 0 1.8 1.7
v 0 1.8 1.5
v 0.1 1.8 1.5
v -0.9 1.8 1.4
v 0.1 1.8 1.4
v -0.9 2.2 1.4
v -0.8 2.2 1.4
v -0.7 2.2 1.4
v -0.9 2.2 1.3
v -0.8 2.2 1.3
v -0.7 2.2 1.3
v -0.9 2.3 1.3
v -0.8 2.3 1.3
v -0.7 2.3 1.3
v -0.9 2.3 1.2
v -0.8 2.3 1.2
v -0.7 2.3 1.2
v -0.9 2.4 1.2
v -0.8 2.4 1.2
v -0.7 2.4 1.2
v -0.9 2.4 1.1
v -0.8 2.4 1.1
v -0.7 2.4 1.1
v -0.8 2.5 1.6
v 0.1 2.5 1.6
v -0.8 2.5 1.5
v 0.1 2.5 1.5
v -0.9 2.5 1.1
v -0.8 2.5 1.1
v -0.7 2.5 1.1
v -0.9 2.5 1
v -0.8 2.5 1
v -0.7 2.5 1
v -0.7 2.6 1.4
v 0.1 2.6 1.4
v -0.7 2.6 1
v 0.1 2.6 1
v -0.9 1.9 1.8
v 0 1.9 1.8
v -0.9 1.9 1.7
v 0 1.9 1.7
v -0.9 2 1.7
v 0 2 1.7
v -0.9 2 1.6
v 0 2 1.6
v -0.9 2.1 1.6
v 0 2.1 1.6
v -0.9 2.1 1.5
v 0 2.1 1.5
v -0.9 2.2 1.5
v -0.8 2.2 1.5
v -0.9 2.2 1.4
v -0.8 2.2 1.4
v -0.9 2.3 1.4
v -0.8 2.3 1.4
v -0.9 2.3 1.3
v -0.8 2.3 1.3
v -0.9 2.4 1.3
v -0.8 2.4 1.3
v -0.9 2.4 1.2
v -0.8 2.4 1.2
v -0.9 2.5 1.2
v -0.8 2.5 1.2
v -0.9 2.5 1.1
v -0.8 2.5 1.1
v -0.8 2.6 1.6
v 0.1 2.6 1.6
v -0.8 2.6 1.5
v 0.1 2.6 1.5
v -0.9 2.6 1.1
v -0.8 2.6 1.1
v -0.9 2.6 1
v -0.8 2.6 1
v -0.8 2.7 1.5
v 0.1 2.7 1.5
v -0.8 2.7 1.4
v -0.7 2.7 1.4
v 0.1 2.7 1.4
v -0.8 2.7 1.3
v -0.7 2.7 1.3
v -0.8 2.7 1
v 0.1 2.7 1

# faces
f 4/4/1 2/4/1 1/4/1
f 5/3/1 3/3/1 2/3/1
f 5/4/1 2/4/1 4/4/1
f 6/3/1 3/3/1 5/3/1
f 7/4/1 6/4/1 5/4/1
f 8/3/1 3/3/1 6/3/1
f 8/4/1 6/4/1 7/4/1
f 9/3/1 3/3/1 8/3/1
f 10/4/1 9/4/1 8/4/1
f 11/3/1 3/3/1 9/3/1
f 11/4/1 9/4/1 10/4/1
f 12/3/1 3/3/1 11/3/1
f 13/4/1 12/4/1 11/4/1
f 14/4/1 12/4/1 13/4/1
f 16/4/1 15/4/1 14/4/1
f 17/4/1 15/4/1 16/4/1
f 19/4/1 18/4/1 17/4/1
f 20/4/1 18/4/1 19/4/1
f 22/4/1 21/4/1 20/4/1
f 23/4/1 21/4/1 22/4/1
f 25/4/1 24/4/1 23/4/1
f 26/4/1 24/4/1 25/4/1
f 29/3/1 28/3/1 27/3/1
f 31/3/1 29/3/1 27/3/1
f 31/3/1 30/3/1 29/3/1
f 32/3/1 30/3/1 31/3/1
f 33/3/1 30/3/1 32/3/1
f 36/2/1 32/2/1 31/2/1
f 37/3/1 34/3/1 33/3/1
f 37/3/1 33/3/1 32/3/1
f 39/4/1 36/4/1 35/4/1
f 40/2/1 32/2/1 36/2/1
f 40/4/1 36/4/1 39/4/1
f 41/3/1 38/3/1 37/3/1
f 41/2/1 32/2/1 40/2/1
f 41/3/1 37/3/1 32/3/1
f 42/3/1 38/3/1 41/3/1
f 43/3/1 38/3/1 42/3/1
f 45/4/1 41/4/1 40/4/1
f 46/2/1 42/2/1 41/2/1
f 46/4/1 41/4/1 45/4/1
f 47/3/1 44/3/1 43/3/1
f 47/2/1 42/2/1 46/2/1
f 47/3/1 43/3/1 42/3/1
f 48/3/1 44/3/1 47/3/1
f 49/3/2 50/3/2 51/3/2
f 51/3/2 50/3/2 52/3/2
f 51/3/2 52/3/2 54/3/2
f 52/3/2 53/3/2 54/3/2
f 54/3/2 53/3/2 55/3/2
f 54/3/2 55/3/2 57/3/2
f 55/3/2 56/3/2 57/3/2
f 57/3/2 56/3/2 58/3/2
f 57/3/2 58/3/2 60/3/2
f 58/3/2 59/3/2 60/3/2
f 60/3/2 59/3/2 61/3/2
f 62/4/2 63/4/2 65/4/2
f 63/3/2 64/3/2 66/3/2
f 65/4/2 63/4/2 66/4/2
f 66/3/2 64/3/2 67/3/2
f 66/4/2 67/4/2 68/4/2
f 67/3/2 64/3/2 69/3/2
f 68/4/2 67/4/2 69/4/2
f 69/3/2 64/3/2 70/3/2
f 69/4/2 70/4/2 71/4/2
f 71/4/2 70/4/2 72/4/2
f 73/3/2 74/3/2 75/3/2
f 75/3/2 74/3/2 76/3/2
f 75/2/2 76/2/2 78/2/2
f 78/2/2 76/2/2 79/2/2
f 77/4/2 78/4/2 80/4/2
f 78/3/2 79/3/2 81/3/2
f 80/4/2 78/4/2 81/4/2
f 81/3/2 79/3/2 82/3/2
f 81/4/2 82/4/2 84/4/2
f 82/3/2 83/3/2 85/3/2
f 84/4/2 82/4/2 85/4/2
f 85/3/2 83/3/2 86/3/2
f 89/4/3 88/4/3 87/4/3
f 90/4/3 88/4/3 89/4/3
f 93/4/3 92/4/3 91/4/3
f 94/4/3 92/4/3 93/4/3
f 99/4/3 96/4/3 95/4/3
f 100/4/3 96/4/3 99/4/3
f 101/4/3 98/4/3 97/4/3
f 102/4/3 98/4/3 101/4/3
f 105/4/3 104/4/3 103/4/3
f 110/4/3 105/4/3 103/4/3
f 110/3/3 106/3/3 105/3/3
f 111/3/3 106/3/3 110/3/3
f 112/4/3 110/4/3 103/4/3
f 112/1/3 111/1/3 110/1/3
f 113/3/3 106/3/3 111/3/3
f 113/1/3 111/1/3 112/1/3
f 114/3/3 113/3/3 112/3/3
f 114/3/3 106/3/3 113/3/3
f 115/2/3 107/2/3 106/2/3
f 115/3/3 106/3/3 114/3/3
f 116/3/3 114/3/3 112/3/3
f 116/1/3 115/1/3 114/1/3
f 117/2/3 107/2/3 115/2/3
f 117/1/3 115/1/3 116/1/3
f 120/4/3 112/4/3 103/4/3
f 121/3/3 116/3/3 112/3/3
f 121/3/3 117/3/3 116/3/3
f 121/4/3 112/4/3 120/4/3
f 122/3/3 120/3/3 119/3/3
f 122/3/3 119/3/3 118/3/3
f 122/3/3 121/3/3 120/3/3
f 123/3/3 117/3/3 121/3/3
f 123/3/3 121/3/3 122/3/3
f 123/2/3 107/2/3 117/2/3
f 124/2/3 107/2/3 123/2/3
f 125/4/3 109/4/3 108/4/3
f 126/4/3 109/4/3 125/4/3
f 129/4/3 128/4/3 127/4/3
f 130/4/3 128/4/3 129/4/3
f 133/4/3 132/4/3 131/4/3
f 134/4/3 132/4/3 133/4/3
f 137/4/3 136/4/3 135/4/3
f 138/4/3 136/4/3 137/4/3
f 141/4/3 140/4/3 139/4/3
f 142/4/3 140/4/3 141/4/3
f 144/4/4 145/4/4 146/4/4
f 144/4/4 146/4/4 147/4/4
f 144/4/4 147/4/4 152/4/4
f 147/1/4 148/1/4 152/1/4
f 148/3/4 149/3/4 153/3/4
f 152/1/4 148/1/4 153/1/4
f 152/3/4 153/3/4 154/3/4
f 153/3/4 149/3/4 154/3/4
f 149/2/4 150/2/4 155/2/4
f 154/3/4 149/3/4 155/3/4
f 152/3/4 154/3/4 156/3/4
f 154/1/4 155/1/4 156/1/4
f 155/2/4 150/2/4 157/2/4
f 156/1/4 155/1/4 157/1/4
f 143/3/4 144/3/4 158/3/4
f 144/4/4 152/4/4 158/4/4
f 152/3/4 156/3/4 159/3/4
f 158/4/4 152/4/4 159/4/4
f 156/3/4 157/3/4 159/3/4
f 143/3/4 158/3/4 160/3/4
f 158/3/4 159/3/4 160/3/4
f 157/2/4 150/2/4 161/2/4
f 160/3/4 159/3/4 161/3/4
f 159/3/4 157/3/4 161/3/4
f 150/3/4 151/3/4 162/3/4
f 161/2/4 150/2/4 162/2/4
f 162/3/4 151/3/4 163/3/4
f 164/4/4 165/4/4 166/4/4
f 166/4/4 165/4/4 167/4/4
f 166/3/4 167/3/4 168/3/4
f 168/3/4 167/3/4 169/3/4
f 170/4/4 171/4/4 172/4/4
f 172/4/4 171/4/4 173/4/4
f 172/3/4 173/3/4 174/3/4
f 174/3/4 173/3/4 175/3/4
f 176/4/4 177/4/4 178/4/4
f 178/4/4 177/4/4 179/4/4
f 178/3/4 179/3/4 180/3/4
f 180/3/4 179/3/4 181/3/4
f 182/4/4 183/4/4 184/4/4
f 184/4/4 183/4/4 185/4/4
f 184/3/4 185/3/4 187/3/4
f 185/3/4 186/3/4 187/3/4
f 187/3/4 186/3/4 188/3/4
f 188/3/4 186/3/4 189/3/4
f 189/3/4 186/3/4 190/3/4
f 193/4/5 192/4/5 191/4/5
f 194/4/5 192/4/5 193/4/5
f 195/3/5 194/3/5 193/3/5
f 197/3/5 195/3/5 193/3/5
f 197/3/5 196/3/5 195/3/5
f 198/3/5 196/3/5 197/3/5
f 202/4/5 200/4/5 199/4/5
f 203/3/5 201/3/5 200/3/5
f 203/4/5 200/4/5 202/4/5
f 204/3/5 201/3/5 203/3/5
f 208/4/5 206/4/5 205/4/5
f 209/3/5 207/3/5 206/3/5
f 209/4/5 206/4/5 208/4/5
f 210/3/5 207/3/5 209/3/5
f 214/4/5 212/4/5 211/4/5
f 215/3/5 213/3/5 212/3/5
f 215/4/5 212/4/5 214/4/5
f 216/3/5 213/3/5 215/3/5
f 219/4/5 218/4/5 217/4/5
f 220/4/5 218/4/5 219/4/5
f 224/4/5 222/4/5 221/4/5
f 225/3/5 223/3/5 222/3/5
f 225/4/5 222/4/5 224/4/5
f 226/3/5 223/3/5 225/3/5
f 229/3/5 228/3/5 227/3/5
f 230/3/5 228/3/5 229/3/5
f 231/4/6 232/4/6 233/4/6
f 233/4/6 232/4/6 234/4/6
f 235/4/6 236/4/6 237/4/6
f 237/4/6 236/4/6 238/4/6
f 239/4/6 240/4/6 241/4/6
f 241/4/6 240/4/6 242/4/6
f 243/4/6 244/4/6 245/4/6
f 245/4/6 244/4/6 246/4/6
f 247/4/6 248/4/6 249/4/6
f 249/4/6 248/4/6 250/4/6
f 251/4/6 252/4/6 253/4/6
f 253/4/6 252/4/6 254/4/6
f 255/4/6 256/4/6 257/4/6
f 257/4/6 256/4/6 258/4/6
f 259/4/6 260/4/6 261/4/6
f 261/4/6 260/4/6 262/4/6
f 263/4/6 264/4/6 265/4/6
f 265/4/6 264/4/6 266/4/6
f 267/4/6 268/4/6 269/4/6
f 269/4/6 268/4/6 270/4/6
f 270/4/6 268/4/6 271/4/6
f 269/2/6 270/2/6 272/2/6
f 270/3/6 271/3/6 273/3/6
f 272/2/6 270/2/6 273/2/6
f 272/3/6 273/3/6 274/3/6
f 273/3/6 271/3/6 275/3/6
f 274/3/6 273/3/6 275/3/6
