# MagicaVoxel @ Ephtracy

# group
o 

# material
mtllib house-1_v3-101.mtl
usemtl palette

# normals
vn -1 0 0
vn 1 0 0
vn 0 0 1
vn 0 0 -1
vn 0 -1 0
vn 0 1 0

# texcoords
vt 0.271484 0.5
vt 0.505859 0.5
vt 0.529297 0.5
vt 0.892578 0.5
vt 0.923828 0.5
vt 0.958984 0.5
vt 0.994141 0.5

# verts
v -2.9 0 1.6
v -2.9 0 0.9
v -2.9 0.3 1.6
v -2.9 0.3 0.9
v -2.9 0.4 1.4
v -2.9 0.4 1.3
v -2.9 0.5 1.5
v -2.9 0.5 1.4
v -2.9 0.7 1.5
v -2.9 0.7 1.3
v -2.8 0.3 1.6
v -2.8 0.3 0.9
v -2.8 0.4 1.6
v -2.8 0.4 1.5
v -2.8 0.4 1.4
v -2.8 0.4 1.3
v -2.8 0.4 1
v -2.8 0.4 0.9
v -2.8 0.5 1.6
v -2.8 0.5 1.5
v -2.8 0.5 1.4
v -2.8 0.5 1.2
v -2.8 0.5 1
v -2.8 0.5 0.9
v -2.8 0.6 1.6
v -2.8 0.6 1.5
v -2.8 0.6 1.2
v -2.8 0.6 1
v -2.8 0.7 1.6
v -2.8 0.7 1.5
v -2.8 0.7 1.3
v -2.8 0.7 0.9
v -2.7 0.1 1.4
v -2.7 0.1 0.9
v -2.7 0.3 1.4
v -2.7 0.3 0.9
v -2.7 0.4 1.3
v -2.7 0.4 1
v -2.7 0.4 0.9
v -2.7 0.5 1.2
v -2.7 0.5 1
v -2.7 0.5 0.9
v -2.7 0.6 1.2
v -2.7 0.6 1
v -2.7 0.7 1.4
v -2.7 0.7 1.3
v -2.7 0.7 0.9
v -2.3 0 1.6
v -2.3 0 1.4
v -2.3 0 0.9
v -2.3 0.1 1.4
v -2.3 0.1 0.9
v -2.3 0.3 1.6
v -2.3 0.3 1.4
v -2.3 0.7 1.6
v -2.3 0.7 1.4
v -2.9 0 1.6
v -2.9 0.3 1.6
v -2.8 0.3 1.6
v -2.8 0.4 1.6
v -2.8 0.5 1.6
v -2.8 0.6 1.6
v -2.8 0.7 1.6
v -2.7 0.4 1.6
v -2.7 0.5 1.6
v -2.7 0.6 1.6
v -2.7 0.7 1.6
v -2.3 0 1.6
v -2.3 0.3 1.6
v -2.3 0.7 1.6
v -2.9 0.5 1.5
v -2.9 0.7 1.5
v -2.8 0.5 1.5
v -2.8 0.6 1.5
v -2.8 0.7 1.5
v -2.9 0.4 1.4
v -2.9 0.5 1.4
v -2.8 0.4 1.4
v -2.8 0.5 1.4
v -2.7 0.1 1.4
v -2.7 0.3 1.4
v -2.7 0.7 1.4
v -2.3 0.1 1.4
v -2.3 0.3 1.4
v -2.3 0.7 1.4
v -2.9 0.4 1.3
v -2.9 0.7 1.3
v -2.8 0.4 1.3
v -2.8 0.7 1.3
v -2.9 0 0.9
v -2.9 0.3 0.9
v -2.8 0.3 0.9
v -2.8 0.4 0.9
v -2.8 0.5 0.9
v -2.8 0.7 0.9
v -2.7 0 0.9
v -2.7 0.1 0.9
v -2.7 0.3 0.9
v -2.7 0.4 0.9
v -2.7 0.5 0.9
v -2.7 0.7 0.9
v -2.3 0 0.9
v -2.3 0.1 0.9
v -2.9 0 1.6
v -2.3 0 1.6
v -2.7 0 1.4
v -2.3 0 1.4
v -2.9 0 0.9
v -2.7 0 0.9
v -2.3 0 0.9
v -2.9 0.4 1.4
v -2.8 0.4 1.4
v -2.9 0.4 1.3
v -2.8 0.4 1.3
v -2.9 0.5 1.5
v -2.8 0.5 1.5
v -2.9 0.5 1.4
v -2.8 0.5 1.4
v -2.7 0.1 1.4
v -2.3 0.1 1.4
v -2.7 0.1 0.9
v -2.3 0.1 0.9
v -2.9 0.3 1.6
v -2.8 0.3 1.6
v -2.9 0.3 0.9
v -2.8 0.3 0.9
v -2.8 0.7 1.6
v -2.7 0.7 1.6
v -2.3 0.7 1.6
v -2.9 0.7 1.5
v -2.8 0.7 1.5
v -2.7 0.7 1.5
v -2.7 0.7 1.4
v -2.3 0.7 1.4
v -2.9 0.7 1.3
v -2.8 0.7 1.3
v -2.7 0.7 1.3
v -2.8 0.7 0.9
v -2.7 0.7 0.9

# faces
f 3/3/1 2/3/1 1/3/1
f 4/3/1 2/3/1 3/3/1
f 8/2/1 6/2/1 5/2/1
f 9/2/1 8/2/1 7/2/1
f 10/2/1 6/2/1 8/2/1
f 10/2/1 8/2/1 9/2/1
f 13/5/1 12/5/1 11/5/1
f 14/5/1 12/5/1 13/5/1
f 15/5/1 12/5/1 14/5/1
f 16/5/1 12/5/1 15/5/1
f 17/5/1 12/5/1 16/5/1
f 18/5/1 12/5/1 17/5/1
f 19/4/1 14/4/1 13/4/1
f 20/5/1 15/5/1 14/5/1
f 20/4/1 14/4/1 19/4/1
f 21/5/1 15/5/1 20/5/1
f 22/7/1 17/7/1 16/7/1
f 23/6/1 18/6/1 17/6/1
f 23/7/1 17/7/1 22/7/1
f 24/6/1 18/6/1 23/6/1
f 25/5/1 20/5/1 19/5/1
f 26/5/1 20/5/1 25/5/1
f 27/7/1 22/7/1 16/7/1
f 27/6/1 23/6/1 22/6/1
f 28/7/1 24/7/1 23/7/1
f 28/6/1 23/6/1 27/6/1
f 29/4/1 26/4/1 25/4/1
f 30/4/1 26/4/1 29/4/1
f 31/7/1 27/7/1 16/7/1
f 31/7/1 28/7/1 27/7/1
f 32/7/1 24/7/1 28/7/1
f 32/7/1 28/7/1 31/7/1
f 33/3/2 34/3/2 35/3/2
f 35/3/2 34/3/2 36/3/2
f 35/5/2 36/5/2 37/5/2
f 37/5/2 36/5/2 38/5/2
f 38/5/2 36/5/2 39/5/2
f 37/7/2 38/7/2 40/7/2
f 38/6/2 39/6/2 41/6/2
f 40/7/2 38/7/2 41/7/2
f 41/6/2 39/6/2 42/6/2
f 37/7/2 40/7/2 43/7/2
f 40/6/2 41/6/2 43/6/2
f 41/7/2 42/7/2 44/7/2
f 43/6/2 41/6/2 44/6/2
f 35/5/2 37/5/2 45/5/2
f 37/7/2 43/7/2 46/7/2
f 45/5/2 37/5/2 46/5/2
f 43/7/2 44/7/2 46/7/2
f 44/7/2 42/7/2 47/7/2
f 46/7/2 44/7/2 47/7/2
f 48/3/2 49/3/2 51/3/2
f 49/1/2 50/1/2 51/1/2
f 51/1/2 50/1/2 52/1/2
f 48/3/2 51/3/2 53/3/2
f 53/3/2 51/3/2 54/3/2
f 53/5/2 54/5/2 55/5/2
f 55/5/2 54/5/2 56/5/2
f 59/3/3 58/3/3 57/3/3
f 64/5/3 60/5/3 59/5/3
f 64/4/3 61/4/3 60/4/3
f 65/5/3 62/5/3 61/5/3
f 65/4/3 61/4/3 64/4/3
f 66/4/3 63/4/3 62/4/3
f 66/5/3 62/5/3 65/5/3
f 67/4/3 63/4/3 66/4/3
f 68/3/3 59/3/3 57/3/3
f 69/5/3 65/5/3 64/5/3
f 69/3/3 59/3/3 68/3/3
f 69/5/3 64/5/3 59/5/3
f 69/5/3 67/5/3 66/5/3
f 69/5/3 66/5/3 65/5/3
f 70/5/3 67/5/3 69/5/3
f 73/2/3 72/2/3 71/2/3
f 74/2/3 72/2/3 73/2/3
f 75/2/3 72/2/3 74/2/3
f 78/2/3 77/2/3 76/2/3
f 79/2/3 77/2/3 78/2/3
f 80/3/4 81/3/4 83/3/4
f 81/5/4 82/5/4 84/5/4
f 83/3/4 81/3/4 84/3/4
f 84/5/4 82/5/4 85/5/4
f 86/2/4 87/2/4 88/2/4
f 88/2/4 87/2/4 89/2/4
f 90/3/4 91/3/4 92/3/4
f 90/3/4 92/3/4 96/3/4
f 96/3/4 92/3/4 97/3/4
f 92/5/4 93/5/4 98/5/4
f 97/3/4 92/3/4 98/3/4
f 93/6/4 94/6/4 99/6/4
f 98/5/4 93/5/4 99/5/4
f 94/7/4 95/7/4 100/7/4
f 99/6/4 94/6/4 100/6/4
f 100/7/4 95/7/4 101/7/4
f 96/1/4 97/1/4 102/1/4
f 102/1/4 97/1/4 103/1/4
f 106/3/5 105/3/5 104/3/5
f 107/3/5 105/3/5 106/3/5
f 108/3/5 106/3/5 104/3/5
f 109/1/5 107/1/5 106/1/5
f 109/3/5 106/3/5 108/3/5
f 110/1/5 107/1/5 109/1/5
f 113/2/5 112/2/5 111/2/5
f 114/2/5 112/2/5 113/2/5
f 117/2/5 116/2/5 115/2/5
f 118/2/5 116/2/5 117/2/5
f 119/1/6 120/1/6 121/1/6
f 121/1/6 120/1/6 122/1/6
f 123/3/6 124/3/6 125/3/6
f 125/3/6 124/3/6 126/3/6
f 127/4/6 128/4/6 131/4/6
f 128/5/6 129/5/6 132/5/6
f 131/4/6 128/4/6 132/4/6
f 131/5/6 132/5/6 133/5/6
f 132/5/6 129/5/6 133/5/6
f 133/5/6 129/5/6 134/5/6
f 130/2/6 131/2/6 135/2/6
f 131/5/6 133/5/6 136/5/6
f 135/2/6 131/2/6 136/2/6
f 136/5/6 133/5/6 137/5/6
f 136/7/6 137/7/6 138/7/6
f 138/7/6 137/7/6 139/7/6
