# MagicaVoxel @ Ephtracy

# group
o 

# material
mtllib house-1_v3-103.mtl
usemtl palette

# normals
vn -1 0 0
vn 1 0 0
vn 0 0 1
vn 0 0 -1
vn 0 -1 0
vn 0 1 0

# texcoords
vt 0.271484 0.5
vt 0.505859 0.5
vt 0.529297 0.5
vt 0.892578 0.5
vt 0.916016 0.5
vt 0.923828 0.5

# verts
v -2.9 0 0.1
v -2.9 0 -0.7
v -2.9 0.3 0.1
v -2.9 0.3 -0.7
v -2.9 0.5 -0.6
v -2.9 0.5 -0.7
v -2.9 0.7 -0.6
v -2.9 0.7 -0.7
v -2.8 0.3 0.1
v -2.8 0.3 -0.1
v -2.8 0.3 -0.4
v -2.8 0.3 -0.6
v -2.8 0.3 -0.7
v -2.8 0.4 0
v -2.8 0.4 -0.1
v -2.8 0.4 -0.3
v -2.8 0.4 -0.4
v -2.8 0.4 -0.5
v -2.8 0.4 -0.6
v -2.8 0.5 0.1
v -2.8 0.5 0
v -2.8 0.5 -0.2
v -2.8 0.5 -0.3
v -2.8 0.5 -0.4
v -2.8 0.5 -0.5
v -2.8 0.5 -0.6
v -2.8 0.5 -0.7
v -2.8 0.6 0.1
v -2.8 0.6 0
v -2.8 0.6 -0.1
v -2.8 0.6 -0.2
v -2.8 0.6 -0.3
v -2.8 0.6 -0.4
v -2.8 0.6 -0.5
v -2.8 0.6 -0.6
v -2.8 0.7 0.1
v -2.8 0.7 -0.1
v -2.8 0.7 -0.3
v -2.8 0.7 -0.5
v -2.8 0.7 -0.6
v -2.7 0.1 0.1
v -2.7 0.1 -0.7
v -2.7 0.3 0.1
v -2.7 0.3 -0.1
v -2.7 0.3 -0.4
v -2.7 0.3 -0.6
v -2.7 0.3 -0.7
v -2.7 0.4 0
v -2.7 0.4 -0.1
v -2.7 0.4 -0.3
v -2.7 0.4 -0.4
v -2.7 0.4 -0.5
v -2.7 0.4 -0.6
v -2.7 0.5 0.1
v -2.7 0.5 0
v -2.7 0.5 -0.2
v -2.7 0.5 -0.3
v -2.7 0.5 -0.4
v -2.7 0.5 -0.5
v -2.7 0.5 -0.6
v -2.7 0.6 0.1
v -2.7 0.6 0
v -2.7 0.6 -0.1
v -2.7 0.6 -0.2
v -2.7 0.6 -0.3
v -2.7 0.6 -0.4
v -2.7 0.6 -0.5
v -2.7 0.6 -0.6
v -2.7 0.7 0.1
v -2.7 0.7 -0.1
v -2.7 0.7 -0.3
v -2.7 0.7 -0.5
v -2.7 0.7 -0.7
v -2.3 0 0.1
v -2.3 0 -0.7
v -2.3 0.1 0.1
v -2.3 0.1 -0.7
v -2.9 0 0.1
v -2.9 0.3 0.1
v -2.8 0.3 0.1
v -2.8 0.5 0.1
v -2.8 0.6 0.1
v -2.8 0.7 0.1
v -2.7 0 0.1
v -2.7 0.1 0.1
v -2.7 0.3 0.1
v -2.7 0.5 0.1
v -2.7 0.6 0.1
v -2.7 0.7 0.1
v -2.3 0 0.1
v -2.3 0.1 0.1
v -2.9 0.5 -0.6
v -2.9 0.7 -0.6
v -2.8 0.5 -0.6
v -2.8 0.6 -0.6
v -2.8 0.7 -0.6
v -2.9 0 -0.7
v -2.9 0.3 -0.7
v -2.9 0.5 -0.7
v -2.9 0.7 -0.7
v -2.8 0.3 -0.7
v -2.8 0.5 -0.7
v -2.8 0.7 -0.7
v -2.7 0 -0.7
v -2.7 0.1 -0.7
v -2.7 0.3 -0.7
v -2.7 0.7 -0.7
v -2.3 0 -0.7
v -2.3 0.1 -0.7
v -2.9 0 0.1
v -2.7 0 0.1
v -2.3 0 0.1
v -2.9 0 -0.7
v -2.7 0 -0.7
v -2.3 0 -0.7
v -2.9 0.5 -0.6
v -2.8 0.5 -0.6
v -2.9 0.5 -0.7
v -2.8 0.5 -0.7
v -2.7 0.1 0.1
v -2.3 0.1 0.1
v -2.7 0.1 -0.7
v -2.3 0.1 -0.7
v -2.9 0.3 0.1
v -2.8 0.3 0.1
v -2.8 0.3 -0.1
v -2.8 0.3 -0.4
v -2.8 0.3 -0.6
v -2.9 0.3 -0.7
v -2.8 0.3 -0.7
v -2.8 0.7 0.1
v -2.7 0.7 0.1
v -2.8 0.7 -0.1
v -2.7 0.7 -0.1
v -2.8 0.7 -0.3
v -2.7 0.7 -0.3
v -2.8 0.7 -0.5
v -2.7 0.7 -0.5
v -2.9 0.7 -0.6
v -2.8 0.7 -0.6
v -2.9 0.7 -0.7
v -2.8 0.7 -0.7
v -2.7 0.7 -0.7

# faces
f 3/3/1 2/3/1 1/3/1
f 4/3/1 2/3/1 3/3/1
f 7/2/1 6/2/1 5/2/1
f 8/2/1 6/2/1 7/2/1
f 14/5/1 10/5/1 9/5/1
f 15/6/1 11/6/1 10/6/1
f 15/5/1 10/5/1 14/5/1
f 16/6/1 11/6/1 15/6/1
f 17/4/1 12/4/1 11/4/1
f 17/6/1 11/6/1 16/6/1
f 18/4/1 12/4/1 17/4/1
f 19/6/1 13/6/1 12/6/1
f 19/4/1 12/4/1 18/4/1
f 20/5/1 14/5/1 9/5/1
f 21/6/1 16/6/1 15/6/1
f 21/5/1 14/5/1 20/5/1
f 21/6/1 15/6/1 14/6/1
f 22/6/1 16/6/1 21/6/1
f 23/4/1 18/4/1 17/4/1
f 23/6/1 16/6/1 22/6/1
f 23/4/1 17/4/1 16/4/1
f 24/4/1 18/4/1 23/4/1
f 25/6/1 19/6/1 18/6/1
f 25/4/1 18/4/1 24/4/1
f 26/6/1 13/6/1 19/6/1
f 26/6/1 19/6/1 25/6/1
f 27/6/1 13/6/1 26/6/1
f 28/6/1 21/6/1 20/6/1
f 29/4/1 22/4/1 21/4/1
f 29/6/1 21/6/1 28/6/1
f 30/4/1 22/4/1 29/4/1
f 31/5/1 23/5/1 22/5/1
f 31/4/1 22/4/1 30/4/1
f 32/6/1 24/6/1 23/6/1
f 32/5/1 23/5/1 31/5/1
f 33/4/1 25/4/1 24/4/1
f 33/6/1 24/6/1 32/6/1
f 33/4/1 26/4/1 25/4/1
f 34/4/1 26/4/1 33/4/1
f 35/4/1 26/4/1 34/4/1
f 36/4/1 30/4/1 29/4/1
f 36/4/1 29/4/1 28/4/1
f 37/6/1 32/6/1 31/6/1
f 37/4/1 30/4/1 36/4/1
f 37/6/1 31/6/1 30/6/1
f 38/4/1 34/4/1 33/4/1
f 38/6/1 32/6/1 37/6/1
f 38/4/1 33/4/1 32/4/1
f 39/6/1 35/6/1 34/6/1
f 39/4/1 34/4/1 38/4/1
f 40/6/1 35/6/1 39/6/1
f 41/3/2 42/3/2 43/3/2
f 43/3/2 42/3/2 44/3/2
f 44/3/2 42/3/2 45/3/2
f 45/3/2 42/3/2 46/3/2
f 46/3/2 42/3/2 47/3/2
f 43/5/2 44/5/2 48/5/2
f 44/6/2 45/6/2 49/6/2
f 48/5/2 44/5/2 49/5/2
f 49/6/2 45/6/2 50/6/2
f 45/4/2 46/4/2 51/4/2
f 50/6/2 45/6/2 51/6/2
f 51/4/2 46/4/2 52/4/2
f 46/6/2 47/6/2 53/6/2
f 52/4/2 46/4/2 53/4/2
f 43/5/2 48/5/2 54/5/2
f 49/6/2 50/6/2 55/6/2
f 54/5/2 48/5/2 55/5/2
f 48/6/2 49/6/2 55/6/2
f 55/6/2 50/6/2 56/6/2
f 51/4/2 52/4/2 57/4/2
f 56/6/2 50/6/2 57/6/2
f 50/4/2 51/4/2 57/4/2
f 57/4/2 52/4/2 58/4/2
f 52/6/2 53/6/2 59/6/2
f 58/4/2 52/4/2 59/4/2
f 53/6/2 47/6/2 60/6/2
f 59/6/2 53/6/2 60/6/2
f 54/6/2 55/6/2 61/6/2
f 55/4/2 56/4/2 62/4/2
f 61/6/2 55/6/2 62/6/2
f 62/4/2 56/4/2 63/4/2
f 56/5/2 57/5/2 64/5/2
f 63/4/2 56/4/2 64/4/2
f 57/6/2 58/6/2 65/6/2
f 64/5/2 57/5/2 65/5/2
f 58/4/2 59/4/2 66/4/2
f 65/6/2 58/6/2 66/6/2
f 59/4/2 60/4/2 66/4/2
f 66/4/2 60/4/2 67/4/2
f 60/6/2 47/6/2 68/6/2
f 67/4/2 60/4/2 68/4/2
f 62/4/2 63/4/2 69/4/2
f 61/4/2 62/4/2 69/4/2
f 64/6/2 65/6/2 70/6/2
f 69/4/2 63/4/2 70/4/2
f 63/6/2 64/6/2 70/6/2
f 65/4/2 66/4/2 71/4/2
f 70/6/2 65/6/2 71/6/2
f 66/4/2 67/4/2 71/4/2
f 67/6/2 68/6/2 72/6/2
f 71/4/2 67/4/2 72/4/2
f 68/6/2 47/6/2 73/6/2
f 72/6/2 68/6/2 73/6/2
f 74/1/2 75/1/2 76/1/2
f 76/1/2 75/1/2 77/1/2
f 80/3/3 79/3/3 78/3/3
f 84/3/3 80/3/3 78/3/3
f 85/3/3 80/3/3 84/3/3
f 86/5/3 81/5/3 80/5/3
f 86/3/3 80/3/3 85/3/3
f 87/6/3 82/6/3 81/6/3
f 87/5/3 81/5/3 86/5/3
f 88/4/3 83/4/3 82/4/3
f 88/6/3 82/6/3 87/6/3
f 89/4/3 83/4/3 88/4/3
f 90/1/3 85/1/3 84/1/3
f 91/1/3 85/1/3 90/1/3
f 94/2/3 93/2/3 92/2/3
f 95/2/3 93/2/3 94/2/3
f 96/2/3 93/2/3 95/2/3
f 97/3/4 98/3/4 101/3/4
f 99/2/4 100/2/4 102/2/4
f 102/2/4 100/2/4 103/2/4
f 97/3/4 101/3/4 104/3/4
f 104/3/4 101/3/4 105/3/4
f 101/6/4 102/6/4 106/6/4
f 105/3/4 101/3/4 106/3/4
f 102/6/4 103/6/4 106/6/4
f 106/6/4 103/6/4 107/6/4
f 104/1/4 105/1/4 108/1/4
f 108/1/4 105/1/4 109/1/4
f 113/3/5 111/3/5 110/3/5
f 114/1/5 112/1/5 111/1/5
f 114/3/5 111/3/5 113/3/5
f 115/1/5 112/1/5 114/1/5
f 118/2/5 117/2/5 116/2/5
f 119/2/5 117/2/5 118/2/5
f 120/1/6 121/1/6 122/1/6
f 122/1/6 121/1/6 123/1/6
f 124/3/6 125/3/6 126/3/6
f 124/3/6 126/3/6 127/3/6
f 124/3/6 127/3/6 128/3/6
f 124/3/6 128/3/6 129/3/6
f 129/3/6 128/3/6 130/3/6
f 131/4/6 132/4/6 133/4/6
f 133/4/6 132/4/6 134/4/6
f 133/6/6 134/6/6 135/6/6
f 135/6/6 134/6/6 136/6/6
f 135/4/6 136/4/6 137/4/6
f 137/4/6 136/4/6 138/4/6
f 137/6/6 138/6/6 140/6/6
f 139/2/6 140/2/6 141/2/6
f 140/6/6 138/6/6 142/6/6
f 141/2/6 140/2/6 142/2/6
f 142/6/6 138/6/6 143/6/6
