# MagicaVoxel @ Ephtracy

# group
o 

# material
mtllib house-1_v3-115.mtl
usemtl palette

# normals
vn -1 0 0
vn 1 0 0
vn 0 0 1
vn 0 0 -1
vn 0 -1 0
vn 0 1 0

# texcoords
vt 0.505859 0.5
vt 0.892578 0.5
vt 0.916016 0.5
vt 0.919922 0.5
vt 0.923828 0.5
vt 0.978516 0.5

# verts
v 2.2 1.8 1.6
v 2.2 1.8 1.4
v 2.2 2.3 1.6
v 2.2 2.3 1.5
v 2.2 2.3 1.4
v 2.2 2.4 1.5
v 2.2 2.4 1.4
v 2.2 2.5 1.6
v 2.2 2.5 1.5
v 2.2 2.5 1.4
v 2.2 2.6 1.6
v 2.2 2.6 1.5
v 2.2 2.6 1.4
v 2.2 2.6 0.6
v 2.2 2.7 1.5
v 2.2 2.7 1.4
v 2.2 2.7 0.6
v 2.7 1.8 1.4
v 2.7 1.8 0.6
v 2.7 1.9 1.4
v 2.7 2 1.4
v 2.7 2.1 1.4
v 2.7 2.2 1.4
v 2.7 2.3 1.4
v 2.7 2.4 1.4
v 2.7 2.5 1.4
v 2.7 2.6 1.4
v 2.7 2.6 0.6
v 2.3 1.8 1.6
v 2.3 1.8 1.5
v 2.3 2.3 1.6
v 2.3 2.3 1.5
v 2.8 1.8 1.5
v 2.8 1.8 1.4
v 2.8 1.8 0.6
v 2.8 1.9 1.5
v 2.8 1.9 1.4
v 2.8 2.2 1.5
v 2.8 2.2 1.4
v 2.8 2.3 1.5
v 2.8 2.3 1.4
v 2.8 2.4 1.5
v 2.8 2.4 1.4
v 2.8 2.5 1.5
v 2.8 2.5 1.4
v 2.8 2.6 1.5
v 2.8 2.6 1.4
v 2.8 2.7 1.4
v 2.8 2.7 0.6
v 3 2.5 1.6
v 3 2.5 1.5
v 3 2.6 1.6
v 3 2.6 1.5
v 3 2.6 1.4
v 3 2.7 1.5
v 3 2.7 1.4
v 2.2 1.8 1.6
v 2.2 2.3 1.6
v 2.2 2.5 1.6
v 2.2 2.6 1.6
v 2.3 1.8 1.6
v 2.3 2.3 1.6
v 3 2.5 1.6
v 3 2.6 1.6
v 2.2 2.3 1.5
v 2.2 2.4 1.5
v 2.2 2.5 1.5
v 2.2 2.6 1.5
v 2.2 2.7 1.5
v 2.3 1.8 1.5
v 2.3 2.3 1.5
v 2.4 2 1.5
v 2.4 2.1 1.5
v 2.5 1.9 1.5
v 2.5 2 1.5
v 2.5 2.1 1.5
v 2.5 2.2 1.5
v 2.6 1.8 1.5
v 2.6 1.9 1.5
v 2.6 2 1.5
v 2.6 2.1 1.5
v 2.6 2.2 1.5
v 2.6 2.3 1.5
v 2.7 1.9 1.5
v 2.7 2 1.5
v 2.7 2.1 1.5
v 2.7 2.2 1.5
v 2.8 1.8 1.5
v 2.8 1.9 1.5
v 2.8 2.2 1.5
v 2.8 2.3 1.5
v 2.8 2.4 1.5
v 2.8 2.5 1.5
v 3 2.6 1.5
v 3 2.7 1.5
v 2.8 2.5 1.5
v 2.8 2.6 1.5
v 3 2.5 1.5
v 3 2.6 1.5
v 2.2 1.8 1.4
v 2.2 2.3 1.4
v 2.2 2.4 1.4
v 2.2 2.5 1.4
v 2.2 2.6 1.4
v 2.3 1.8 1.4
v 2.3 2.3 1.4
v 2.4 2 1.4
v 2.4 2.1 1.4
v 2.5 1.9 1.4
v 2.5 2 1.4
v 2.5 2.1 1.4
v 2.5 2.2 1.4
v 2.6 1.8 1.4
v 2.6 1.9 1.4
v 2.6 2 1.4
v 2.6 2.1 1.4
v 2.6 2.2 1.4
v 2.6 2.3 1.4
v 2.7 1.8 1.4
v 2.7 1.9 1.4
v 2.7 2 1.4
v 2.7 2.1 1.4
v 2.7 2.2 1.4
v 2.7 2.3 1.4
v 2.7 2.4 1.4
v 2.7 2.5 1.4
v 2.7 2.6 1.4
v 2.8 2.6 1.4
v 2.8 2.7 1.4
v 3 2.6 1.4
v 3 2.7 1.4
v 2.2 2.6 0.6
v 2.2 2.7 0.6
v 2.7 1.8 0.6
v 2.7 2.6 0.6
v 2.8 1.8 0.6
v 2.8 2.7 0.6
v 2.2 1.8 1.6
v 2.3 1.8 1.6
v 2.3 1.8 1.5
v 2.6 1.8 1.5
v 2.8 1.8 1.5
v 2.2 1.8 1.4
v 2.3 1.8 1.4
v 2.6 1.8 1.4
v 2.7 1.8 1.4
v 2.8 1.8 1.4
v 2.7 1.8 0.6
v 2.8 1.8 0.6
v 2.2 2.5 1.6
v 3 2.5 1.6
v 2.2 2.5 1.5
v 2.8 2.5 1.5
v 3 2.5 1.5
v 2.8 2.6 1.5
v 3 2.6 1.5
v 2.2 2.6 1.4
v 2.7 2.6 1.4
v 2.8 2.6 1.4
v 3 2.6 1.4
v 2.2 2.6 0.6
v 2.7 2.6 0.6
v 2.2 2.3 1.6
v 2.3 2.3 1.6
v 2.2 2.3 1.5
v 2.3 2.3 1.5
v 2.2 2.6 1.6
v 3 2.6 1.6
v 2.2 2.6 1.5
v 3 2.6 1.5
v 2.2 2.7 1.5
v 3 2.7 1.5
v 2.2 2.7 1.4
v 2.8 2.7 1.4
v 3 2.7 1.4
v 2.2 2.7 0.6
v 2.8 2.7 0.6

# faces
f 3/1/1 2/1/1 1/1/1
f 4/1/1 2/1/1 3/1/1
f 5/1/1 2/1/1 4/1/1
f 6/5/1 5/5/1 4/5/1
f 7/5/1 5/5/1 6/5/1
f 9/4/1 7/4/1 6/4/1
f 10/4/1 7/4/1 9/4/1
f 11/6/1 9/6/1 8/6/1
f 12/5/1 10/5/1 9/5/1
f 12/6/1 9/6/1 11/6/1
f 13/5/1 10/5/1 12/5/1
f 15/6/1 13/6/1 12/6/1
f 16/5/1 14/5/1 13/5/1
f 16/6/1 13/6/1 15/6/1
f 17/5/1 14/5/1 16/5/1
f 20/5/1 19/5/1 18/5/1
f 21/5/1 19/5/1 20/5/1
f 22/5/1 19/5/1 21/5/1
f 23/5/1 19/5/1 22/5/1
f 24/5/1 19/5/1 23/5/1
f 25/5/1 19/5/1 24/5/1
f 26/5/1 19/5/1 25/5/1
f 27/5/1 19/5/1 26/5/1
f 28/5/1 19/5/1 27/5/1
f 29/1/2 30/1/2 31/1/2
f 31/1/2 30/1/2 32/1/2
f 33/3/2 34/3/2 36/3/2
f 34/5/2 35/5/2 37/5/2
f 36/3/2 34/3/2 37/3/2
f 36/5/2 37/5/2 38/5/2
f 37/5/2 35/5/2 39/5/2
f 38/5/2 37/5/2 39/5/2
f 38/3/2 39/3/2 40/3/2
f 39/5/2 35/5/2 41/5/2
f 40/3/2 39/3/2 41/3/2
f 40/5/2 41/5/2 42/5/2
f 41/5/2 35/5/2 43/5/2
f 42/5/2 41/5/2 43/5/2
f 42/4/2 43/4/2 44/4/2
f 43/5/2 35/5/2 45/5/2
f 44/4/2 43/4/2 45/4/2
f 44/5/2 45/5/2 46/5/2
f 45/5/2 35/5/2 47/5/2
f 46/5/2 45/5/2 47/5/2
f 47/5/2 35/5/2 48/5/2
f 48/5/2 35/5/2 49/5/2
f 50/6/2 51/6/2 52/6/2
f 52/6/2 51/6/2 53/6/2
f 53/6/2 54/6/2 55/6/2
f 55/6/2 54/6/2 56/6/2
f 61/1/3 58/1/3 57/1/3
f 62/1/3 58/1/3 61/1/3
f 63/6/3 60/6/3 59/6/3
f 64/6/3 60/6/3 63/6/3
f 71/5/3 66/5/3 65/5/3
f 72/5/3 71/5/3 70/5/3
f 73/5/3 71/5/3 72/5/3
f 74/5/3 72/5/3 70/5/3
f 75/3/3 73/3/3 72/3/3
f 75/5/3 72/5/3 74/5/3
f 76/5/3 71/5/3 73/5/3
f 76/3/3 73/3/3 75/3/3
f 77/5/3 71/5/3 76/5/3
f 78/5/3 74/5/3 70/5/3
f 79/2/3 75/2/3 74/2/3
f 79/5/3 74/5/3 78/5/3
f 80/3/3 76/3/3 75/3/3
f 80/2/3 75/2/3 79/2/3
f 81/2/3 77/2/3 76/2/3
f 81/3/3 76/3/3 80/3/3
f 82/5/3 71/5/3 77/5/3
f 82/2/3 77/2/3 81/2/3
f 83/5/3 66/5/3 71/5/3
f 83/5/3 71/5/3 82/5/3
f 84/3/3 79/3/3 78/3/3
f 84/2/3 80/2/3 79/2/3
f 85/5/3 81/5/3 80/5/3
f 85/2/3 80/2/3 84/2/3
f 86/2/3 82/2/3 81/2/3
f 86/5/3 81/5/3 85/5/3
f 87/3/3 83/3/3 82/3/3
f 87/2/3 82/2/3 86/2/3
f 88/3/3 84/3/3 78/3/3
f 89/5/3 85/5/3 84/5/3
f 89/3/3 84/3/3 88/3/3
f 89/5/3 86/5/3 85/5/3
f 89/5/3 87/5/3 86/5/3
f 90/3/3 83/3/3 87/3/3
f 90/5/3 87/5/3 89/5/3
f 91/5/3 66/5/3 83/5/3
f 91/3/3 83/3/3 90/3/3
f 92/4/3 67/4/3 66/4/3
f 92/5/3 66/5/3 91/5/3
f 93/4/3 67/4/3 92/4/3
f 94/6/3 69/6/3 68/6/3
f 95/6/3 69/6/3 94/6/3
f 96/6/4 97/6/4 98/6/4
f 98/6/4 97/6/4 99/6/4
f 100/1/4 101/1/4 105/1/4
f 101/5/4 102/5/4 106/5/4
f 105/1/4 101/1/4 106/1/4
f 105/5/4 106/5/4 107/5/4
f 107/5/4 106/5/4 108/5/4
f 105/5/4 107/5/4 109/5/4
f 107/3/4 108/3/4 110/3/4
f 109/5/4 107/5/4 110/5/4
f 108/5/4 106/5/4 111/5/4
f 110/3/4 108/3/4 111/3/4
f 111/5/4 106/5/4 112/5/4
f 105/5/4 109/5/4 113/5/4
f 109/2/4 110/2/4 114/2/4
f 113/5/4 109/5/4 114/5/4
f 110/3/4 111/3/4 115/3/4
f 114/2/4 110/2/4 115/2/4
f 111/2/4 112/2/4 116/2/4
f 115/3/4 111/3/4 116/3/4
f 112/5/4 106/5/4 117/5/4
f 116/2/4 112/2/4 117/2/4
f 106/5/4 102/5/4 118/5/4
f 117/5/4 106/5/4 118/5/4
f 113/3/4 114/3/4 119/3/4
f 114/2/4 115/2/4 120/2/4
f 119/3/4 114/3/4 120/3/4
f 115/5/4 116/5/4 121/5/4
f 120/2/4 115/2/4 121/2/4
f 116/2/4 117/2/4 122/2/4
f 121/5/4 116/5/4 122/5/4
f 117/3/4 118/3/4 123/3/4
f 122/2/4 117/2/4 123/2/4
f 118/5/4 102/5/4 124/5/4
f 123/3/4 118/3/4 124/3/4
f 102/4/4 103/4/4 125/4/4
f 124/5/4 102/5/4 125/5/4
f 103/5/4 104/5/4 126/5/4
f 125/4/4 103/4/4 126/4/4
f 126/5/4 104/5/4 127/5/4
f 128/6/4 129/6/4 130/6/4
f 130/6/4 129/6/4 131/6/4
f 132/5/4 133/5/4 135/5/4
f 134/5/4 135/5/4 136/5/4
f 135/5/4 133/5/4 137/5/4
f 136/5/4 135/5/4 137/5/4
f 140/1/5 139/1/5 138/1/5
f 143/1/5 140/1/5 138/1/5
f 144/5/5 141/5/5 140/5/5
f 144/1/5 140/1/5 143/1/5
f 145/3/5 142/3/5 141/3/5
f 145/5/5 141/5/5 144/5/5
f 146/3/5 142/3/5 145/3/5
f 147/3/5 142/3/5 146/3/5
f 148/5/5 147/5/5 146/5/5
f 149/5/5 147/5/5 148/5/5
f 152/6/5 151/6/5 150/6/5
f 153/6/5 151/6/5 152/6/5
f 154/6/5 151/6/5 153/6/5
f 159/6/5 156/6/5 155/6/5
f 160/6/5 156/6/5 159/6/5
f 161/5/5 158/5/5 157/5/5
f 162/5/5 158/5/5 161/5/5
f 163/1/6 164/1/6 165/1/6
f 165/1/6 164/1/6 166/1/6
f 167/6/6 168/6/6 169/6/6
f 169/6/6 168/6/6 170/6/6
f 171/6/6 172/6/6 173/6/6
f 173/6/6 172/6/6 174/6/6
f 174/6/6 172/6/6 175/6/6
f 173/5/6 174/5/6 176/5/6
f 176/5/6 174/5/6 177/5/6
