# MagicaVoxel @ Ephtracy

# group
o 

# material
mtllib house-1_v3-112.mtl
usemtl palette

# normals
vn -1 0 0
vn 1 0 0
vn 0 0 1
vn 0 0 -1
vn 0 -1 0
vn 0 1 0

# texcoords
vt 0.529297 0.5
vt 0.892578 0.5
vt 0.916016 0.5
vt 0.923828 0.5

# verts
v -2.9 0 2.2
v -2.9 0 1.6
v -2.9 0.3 2.2
v -2.9 0.3 1.6
v -2.8 0.3 2.1
v -2.8 0.3 1.9
v -2.8 0.3 1.8
v -2.8 0.3 1.6
v -2.8 0.4 2.1
v -2.8 0.4 2
v -2.8 0.4 1.9
v -2.8 0.4 1.8
v -2.8 0.4 1.7
v -2.8 0.4 1.6
v -2.8 0.5 2.1
v -2.8 0.5 2
v -2.8 0.5 1.9
v -2.8 0.5 1.8
v -2.8 0.5 1.7
v -2.8 0.5 1.6
v -2.8 0.6 2.1
v -2.8 0.6 2
v -2.8 0.6 1.9
v -2.8 0.6 1.8
v -2.8 0.6 1.7
v -2.8 0.6 1.6
v -2.8 0.7 2.1
v -2.8 0.7 2
v -2.8 0.7 1.8
v -2.8 0.7 1.7
v -2.8 0.7 1.6
v -2.3 0 2.2
v -2.3 0 1.6
v -2.3 0.3 2.2
v -2.3 0.3 2.1
v -2.3 0.3 2
v -2.3 0.3 1.6
v -2.3 0.4 2.1
v -2.3 0.4 2
v -2.3 0.5 2.1
v -2.3 0.5 2
v -2.3 0.7 2.1
v -2.3 0.7 1.6
v -2.9 0 2.2
v -2.9 0.3 2.2
v -2.3 0 2.2
v -2.3 0.3 2.2
v -2.8 0.3 2.1
v -2.8 0.4 2.1
v -2.8 0.5 2.1
v -2.8 0.6 2.1
v -2.8 0.7 2.1
v -2.7 0.3 2.1
v -2.7 0.4 2.1
v -2.7 0.5 2.1
v -2.7 0.6 2.1
v -2.7 0.7 2.1
v -2.5 0.3 2.1
v -2.5 0.4 2.1
v -2.5 0.5 2.1
v -2.5 0.6 2.1
v -2.5 0.7 2.1
v -2.4 0.3 2.1
v -2.4 0.4 2.1
v -2.4 0.5 2.1
v -2.3 0.3 2.1
v -2.3 0.4 2.1
v -2.3 0.5 2.1
v -2.3 0.7 2.1
v -2.9 0 1.6
v -2.9 0.3 1.6
v -2.8 0.3 1.6
v -2.8 0.4 1.6
v -2.8 0.5 1.6
v -2.8 0.6 1.6
v -2.8 0.7 1.6
v -2.7 0.4 1.6
v -2.7 0.5 1.6
v -2.7 0.6 1.6
v -2.7 0.7 1.6
v -2.3 0 1.6
v -2.3 0.3 1.6
v -2.3 0.7 1.6
v -2.9 0 2.2
v -2.3 0 2.2
v -2.9 0 1.6
v -2.3 0 1.6
v -2.9 0.3 2.2
v -2.3 0.3 2.2
v -2.8 0.3 2.1
v -2.7 0.3 2.1
v -2.5 0.3 2.1
v -2.4 0.3 2.1
v -2.3 0.3 2.1
v -2.8 0.3 1.9
v -2.8 0.3 1.8
v -2.9 0.3 1.6
v -2.8 0.3 1.6
v -2.8 0.7 2.1
v -2.7 0.7 2.1
v -2.5 0.7 2.1
v -2.3 0.7 2.1
v -2.8 0.7 2
v -2.7 0.7 2
v -2.5 0.7 2
v -2.8 0.7 1.8
v -2.7 0.7 1.8
v -2.8 0.7 1.7
v -2.7 0.7 1.7
v -2.8 0.7 1.6
v -2.7 0.7 1.6
v -2.3 0.7 1.6

# faces
f 3/1/1 2/1/1 1/1/1
f 4/1/1 2/1/1 3/1/1
f 9/2/1 6/2/1 5/2/1
f 10/2/1 6/2/1 9/2/1
f 11/3/1 7/3/1 6/3/1
f 11/2/1 6/2/1 10/2/1
f 12/4/1 8/4/1 7/4/1
f 12/3/1 7/3/1 11/3/1
f 13/4/1 8/4/1 12/4/1
f 14/4/1 8/4/1 13/4/1
f 15/4/1 10/4/1 9/4/1
f 16/2/1 11/2/1 10/2/1
f 16/4/1 10/4/1 15/4/1
f 16/2/1 12/2/1 11/2/1
f 17/2/1 12/2/1 16/2/1
f 18/4/1 13/4/1 12/4/1
f 18/2/1 12/2/1 17/2/1
f 19/2/1 14/2/1 13/2/1
f 19/4/1 13/4/1 18/4/1
f 20/2/1 14/2/1 19/2/1
f 21/2/1 17/2/1 16/2/1
f 21/2/1 16/2/1 15/2/1
f 22/2/1 17/2/1 21/2/1
f 23/4/1 18/4/1 17/4/1
f 23/2/1 17/2/1 22/2/1
f 24/3/1 20/3/1 19/3/1
f 24/4/1 18/4/1 23/4/1
f 24/3/1 19/3/1 18/3/1
f 25/3/1 20/3/1 24/3/1
f 26/3/1 20/3/1 25/3/1
f 27/4/1 22/4/1 21/4/1
f 28/2/1 23/2/1 22/2/1
f 28/4/1 22/4/1 27/4/1
f 28/2/1 24/2/1 23/2/1
f 29/4/1 25/4/1 24/4/1
f 29/2/1 24/2/1 28/2/1
f 30/2/1 26/2/1 25/2/1
f 30/4/1 25/4/1 29/4/1
f 31/2/1 26/2/1 30/2/1
f 32/1/2 33/1/2 34/1/2
f 34/1/2 33/1/2 35/1/2
f 35/1/2 33/1/2 36/1/2
f 36/1/2 33/1/2 37/1/2
f 35/2/2 36/2/2 38/2/2
f 36/4/2 37/4/2 39/4/2
f 38/2/2 36/2/2 39/2/2
f 38/3/2 39/3/2 40/3/2
f 39/4/2 37/4/2 41/4/2
f 40/3/2 39/3/2 41/3/2
f 40/4/2 41/4/2 42/4/2
f 41/4/2 37/4/2 43/4/2
f 42/4/2 41/4/2 43/4/2
f 46/1/3 45/1/3 44/1/3
f 47/1/3 45/1/3 46/1/3
f 53/2/3 49/2/3 48/2/3
f 54/4/3 50/4/3 49/4/3
f 54/2/3 49/2/3 53/2/3
f 55/2/3 51/2/3 50/2/3
f 55/4/3 50/4/3 54/4/3
f 56/4/3 52/4/3 51/4/3
f 56/2/3 51/2/3 55/2/3
f 57/4/3 52/4/3 56/4/3
f 58/3/3 54/3/3 53/3/3
f 59/2/3 55/2/3 54/2/3
f 59/3/3 54/3/3 58/3/3
f 60/4/3 56/4/3 55/4/3
f 60/2/3 55/2/3 59/2/3
f 61/2/3 57/2/3 56/2/3
f 61/4/3 56/4/3 60/4/3
f 62/2/3 57/2/3 61/2/3
f 63/4/3 59/4/3 58/4/3
f 63/4/3 60/4/3 59/4/3
f 63/4/3 62/4/3 61/4/3
f 63/4/3 61/4/3 60/4/3
f 64/4/3 62/4/3 63/4/3
f 65/4/3 62/4/3 64/4/3
f 66/2/3 64/2/3 63/2/3
f 67/3/3 65/3/3 64/3/3
f 67/2/3 64/2/3 66/2/3
f 68/4/3 62/4/3 65/4/3
f 68/3/3 65/3/3 67/3/3
f 69/4/3 62/4/3 68/4/3
f 70/1/4 71/1/4 72/1/4
f 72/4/4 73/4/4 77/4/4
f 73/2/4 74/2/4 77/2/4
f 74/3/4 75/3/4 78/3/4
f 77/2/4 74/2/4 78/2/4
f 75/2/4 76/2/4 79/2/4
f 78/3/4 75/3/4 79/3/4
f 79/2/4 76/2/4 80/2/4
f 70/1/4 72/1/4 81/1/4
f 77/4/4 78/4/4 82/4/4
f 81/1/4 72/1/4 82/1/4
f 72/4/4 77/4/4 82/4/4
f 79/4/4 80/4/4 82/4/4
f 78/4/4 79/4/4 82/4/4
f 82/4/4 80/4/4 83/4/4
f 86/1/5 85/1/5 84/1/5
f 87/1/5 85/1/5 86/1/5
f 88/1/6 89/1/6 90/1/6
f 90/1/6 89/1/6 91/1/6
f 91/1/6 89/1/6 92/1/6
f 92/1/6 89/1/6 93/1/6
f 93/1/6 89/1/6 94/1/6
f 88/1/6 90/1/6 95/1/6
f 88/1/6 95/1/6 96/1/6
f 88/1/6 96/1/6 97/1/6
f 97/1/6 96/1/6 98/1/6
f 99/4/6 100/4/6 103/4/6
f 100/2/6 101/2/6 104/2/6
f 103/4/6 100/4/6 104/4/6
f 101/4/6 102/4/6 105/4/6
f 104/2/6 101/2/6 105/2/6
f 103/2/6 104/2/6 106/2/6
f 104/4/6 105/4/6 107/4/6
f 106/2/6 104/2/6 107/2/6
f 106/4/6 107/4/6 108/4/6
f 107/4/6 105/4/6 109/4/6
f 108/4/6 107/4/6 109/4/6
f 108/2/6 109/2/6 110/2/6
f 109/4/6 105/4/6 111/4/6
f 110/2/6 109/2/6 111/2/6
f 105/4/6 102/4/6 112/4/6
f 111/4/6 105/4/6 112/4/6
