# MagicaVoxel @ Ephtracy

# group
o 

# material
mtllib house-1_v3-65.mtl
usemtl palette

# normals
vn -1 0 0
vn 1 0 0
vn 0 0 1
vn 0 0 -1
vn 0 -1 0
vn 0 1 0

# texcoords
vt 0.505859 0.5
vt 0.892578 0.5
vt 0.916016 0.5
vt 0.923828 0.5
vt 0.958984 0.5
vt 0.994141 0.5

# verts
v 1.2 1.2 1.5
v 1.2 1.2 1.4
v 1.2 1.4 1.5
v 1.2 1.4 1.4
v 1.2 1.5 1.5
v 1.2 1.5 1.4
v 1.2 1.8 1.5
v 1.2 1.8 1.4
v 1.6 1.6 1.6
v 1.6 1.6 1.5
v 1.6 1.8 1.6
v 1.6 1.8 1.5
v 1.7 1.5 1.6
v 1.7 1.5 1.5
v 1.7 1.6 1.6
v 1.7 1.6 1.5
v 1.7 1.6 1.6
v 1.7 1.6 1.5
v 1.7 1.8 1.6
v 1.7 1.8 1.5
v 2.1 1.2 1.5
v 2.1 1.2 1.4
v 2.1 1.3 1.5
v 2.1 1.3 1.4
v 2.1 1.5 1.6
v 2.1 1.5 1.5
v 2.1 1.5 1.4
v 2.1 1.6 1.6
v 2.1 1.6 1.5
v 2.1 1.6 1.4
v 2.1 1.8 1.5
v 2.1 1.8 1.4
v 1.6 1.6 1.6
v 1.6 1.8 1.6
v 1.7 1.5 1.6
v 1.7 1.6 1.6
v 1.7 1.8 1.6
v 2.1 1.5 1.6
v 2.1 1.6 1.6
v 1.2 1.2 1.5
v 1.2 1.4 1.5
v 1.2 1.5 1.5
v 1.2 1.8 1.5
v 1.3 1.5 1.5
v 1.3 1.6 1.5
v 1.4 1.4 1.5
v 1.4 1.5 1.5
v 1.5 1.3 1.5
v 1.5 1.4 1.5
v 1.5 1.5 1.5
v 1.5 1.6 1.5
v 1.6 1.2 1.5
v 1.6 1.3 1.5
v 1.6 1.6 1.5
v 1.6 1.8 1.5
v 1.7 1.3 1.5
v 1.7 1.4 1.5
v 1.7 1.5 1.5
v 1.7 1.6 1.5
v 1.7 1.8 1.5
v 1.8 1.6 1.5
v 1.8 1.7 1.5
v 1.9 1.2 1.5
v 1.9 1.3 1.5
v 1.9 1.5 1.5
v 1.9 1.6 1.5
v 1.9 1.7 1.5
v 1.9 1.8 1.5
v 2 1.7 1.5
v 2 1.8 1.5
v 2.1 1.2 1.5
v 2.1 1.3 1.5
v 2.1 1.5 1.5
v 2.1 1.6 1.5
v 2.1 1.8 1.5
v 1.2 1.2 1.4
v 1.2 1.4 1.4
v 1.2 1.5 1.4
v 1.2 1.8 1.4
v 1.3 1.5 1.4
v 1.3 1.6 1.4
v 1.4 1.4 1.4
v 1.4 1.5 1.4
v 1.5 1.3 1.4
v 1.5 1.4 1.4
v 1.5 1.5 1.4
v 1.5 1.6 1.4
v 1.6 1.2 1.4
v 1.6 1.3 1.4
v 1.6 1.6 1.4
v 1.6 1.8 1.4
v 1.7 1.3 1.4
v 1.7 1.4 1.4
v 1.7 1.5 1.4
v 1.7 1.6 1.4
v 1.7 1.8 1.4
v 1.8 1.6 1.4
v 1.8 1.7 1.4
v 1.9 1.2 1.4
v 1.9 1.3 1.4
v 1.9 1.5 1.4
v 1.9 1.6 1.4
v 1.9 1.7 1.4
v 1.9 1.8 1.4
v 2 1.7 1.4
v 2 1.8 1.4
v 2.1 1.2 1.4
v 2.1 1.3 1.4
v 2.1 1.5 1.4
v 2.1 1.6 1.4
v 2.1 1.8 1.4
v 1.2 1.2 1.5
v 1.6 1.2 1.5
v 1.9 1.2 1.5
v 2.1 1.2 1.5
v 1.2 1.2 1.4
v 1.6 1.2 1.4
v 1.9 1.2 1.4
v 2.1 1.2 1.4
v 1.7 1.5 1.6
v 2.1 1.5 1.6
v 1.7 1.5 1.5
v 1.9 1.5 1.5
v 2.1 1.5 1.5
v 1.6 1.6 1.6
v 1.7 1.6 1.6
v 1.6 1.6 1.5
v 1.7 1.6 1.5
v 1.7 1.6 1.6
v 2.1 1.6 1.6
v 1.7 1.6 1.5
v 1.8 1.6 1.5
v 1.9 1.6 1.5
v 2.1 1.6 1.5
v 1.6 1.8 1.6
v 1.7 1.8 1.6
v 1.2 1.8 1.5
v 1.6 1.8 1.5
v 1.7 1.8 1.5
v 1.9 1.8 1.5
v 2 1.8 1.5
v 2.1 1.8 1.5
v 1.2 1.8 1.4
v 1.6 1.8 1.4
v 1.7 1.8 1.4
v 1.9 1.8 1.4
v 2 1.8 1.4
v 2.1 1.8 1.4

# faces
f 3/4/1 2/4/1 1/4/1
f 4/4/1 2/4/1 3/4/1
f 5/2/1 4/2/1 3/2/1
f 6/2/1 4/2/1 5/2/1
f 7/4/1 6/4/1 5/4/1
f 8/4/1 6/4/1 7/4/1
f 11/1/1 10/1/1 9/1/1
f 12/1/1 10/1/1 11/1/1
f 15/1/1 14/1/1 13/1/1
f 16/1/1 14/1/1 15/1/1
f 17/1/2 18/1/2 19/1/2
f 19/1/2 18/1/2 20/1/2
f 21/4/2 22/4/2 23/4/2
f 23/4/2 22/4/2 24/4/2
f 23/2/2 24/2/2 26/2/2
f 26/2/2 24/2/2 27/2/2
f 25/1/2 26/1/2 28/1/2
f 26/1/2 27/1/2 28/1/2
f 28/1/2 27/1/2 29/1/2
f 29/1/2 27/1/2 30/1/2
f 29/6/2 30/6/2 31/6/2
f 31/6/2 30/6/2 32/6/2
f 36/1/3 34/1/3 33/1/3
f 37/1/3 34/1/3 36/1/3
f 38/1/3 36/1/3 35/1/3
f 39/1/3 36/1/3 38/1/3
f 44/2/3 42/2/3 41/2/3
f 44/4/3 43/4/3 42/4/3
f 45/4/3 43/4/3 44/4/3
f 46/4/3 41/4/3 40/4/3
f 46/2/3 44/2/3 41/2/3
f 47/3/3 45/3/3 44/3/3
f 47/2/3 44/2/3 46/2/3
f 48/4/3 46/4/3 40/4/3
f 48/4/3 47/4/3 46/4/3
f 49/4/3 47/4/3 48/4/3
f 50/3/3 45/3/3 47/3/3
f 50/4/3 47/4/3 49/4/3
f 51/4/3 43/4/3 45/4/3
f 51/3/3 45/3/3 50/3/3
f 52/4/3 48/4/3 40/4/3
f 53/3/3 49/3/3 48/3/3
f 53/4/3 48/4/3 52/4/3
f 54/4/3 50/4/3 49/4/3
f 54/4/3 43/4/3 51/4/3
f 54/4/3 51/4/3 50/4/3
f 55/4/3 43/4/3 54/4/3
f 56/3/3 49/3/3 53/3/3
f 56/2/3 53/2/3 52/2/3
f 57/4/3 54/4/3 49/4/3
f 57/3/3 49/3/3 56/3/3
f 58/4/3 54/4/3 57/4/3
f 59/4/3 54/4/3 58/4/3
f 61/6/3 60/6/3 59/6/3
f 62/6/3 60/6/3 61/6/3
f 63/2/3 56/2/3 52/2/3
f 64/4/3 57/4/3 56/4/3
f 64/2/3 56/2/3 63/2/3
f 64/4/3 58/4/3 57/4/3
f 65/4/3 58/4/3 64/4/3
f 66/5/3 62/5/3 61/5/3
f 67/6/3 60/6/3 62/6/3
f 67/5/3 62/5/3 66/5/3
f 68/6/3 60/6/3 67/6/3
f 69/6/3 67/6/3 66/6/3
f 69/5/3 68/5/3 67/5/3
f 70/5/3 68/5/3 69/5/3
f 71/4/3 64/4/3 63/4/3
f 72/2/3 65/2/3 64/2/3
f 72/4/3 64/4/3 71/4/3
f 73/2/3 65/2/3 72/2/3
f 74/6/3 69/6/3 66/6/3
f 74/6/3 70/6/3 69/6/3
f 75/6/3 70/6/3 74/6/3
f 77/2/4 78/2/4 80/2/4
f 78/4/4 79/4/4 80/4/4
f 80/4/4 79/4/4 81/4/4
f 76/4/4 77/4/4 82/4/4
f 77/2/4 80/2/4 82/2/4
f 80/3/4 81/3/4 83/3/4
f 82/2/4 80/2/4 83/2/4
f 76/4/4 82/4/4 84/4/4
f 82/4/4 83/4/4 84/4/4
f 84/4/4 83/4/4 85/4/4
f 83/3/4 81/3/4 86/3/4
f 85/4/4 83/4/4 86/4/4
f 81/4/4 79/4/4 87/4/4
f 86/3/4 81/3/4 87/3/4
f 76/4/4 84/4/4 88/4/4
f 84/3/4 85/3/4 89/3/4
f 88/4/4 84/4/4 89/4/4
f 85/4/4 86/4/4 90/4/4
f 87/4/4 79/4/4 90/4/4
f 86/4/4 87/4/4 90/4/4
f 90/4/4 79/4/4 91/4/4
f 89/3/4 85/3/4 92/3/4
f 88/2/4 89/2/4 92/2/4
f 85/4/4 90/4/4 93/4/4
f 92/3/4 85/3/4 93/3/4
f 93/4/4 90/4/4 94/4/4
f 90/1/4 91/1/4 95/1/4
f 94/4/4 90/4/4 95/4/4
f 95/1/4 91/1/4 96/1/4
f 94/1/4 95/1/4 97/1/4
f 95/6/4 96/6/4 97/6/4
f 97/6/4 96/6/4 98/6/4
f 88/2/4 92/2/4 99/2/4
f 93/4/4 94/4/4 100/4/4
f 99/2/4 92/2/4 100/2/4
f 92/4/4 93/4/4 100/4/4
f 94/1/4 97/1/4 101/1/4
f 100/4/4 94/4/4 101/4/4
f 97/5/4 98/5/4 102/5/4
f 101/1/4 97/1/4 102/1/4
f 98/6/4 96/6/4 103/6/4
f 102/5/4 98/5/4 103/5/4
f 103/6/4 96/6/4 104/6/4
f 102/6/4 103/6/4 105/6/4
f 103/5/4 104/5/4 105/5/4
f 105/5/4 104/5/4 106/5/4
f 99/4/4 100/4/4 107/4/4
f 100/2/4 101/2/4 108/2/4
f 107/4/4 100/4/4 108/4/4
f 101/1/4 102/1/4 109/1/4
f 108/2/4 101/2/4 109/2/4
f 102/6/4 105/6/4 110/6/4
f 109/1/4 102/1/4 110/1/4
f 105/6/4 106/6/4 110/6/4
f 110/6/4 106/6/4 111/6/4
f 116/4/5 113/4/5 112/4/5
f 117/2/5 114/2/5 113/2/5
f 117/4/5 113/4/5 116/4/5
f 118/4/5 115/4/5 114/4/5
f 118/2/5 114/2/5 117/2/5
f 119/4/5 115/4/5 118/4/5
f 122/1/5 121/1/5 120/1/5
f 123/1/5 121/1/5 122/1/5
f 124/1/5 121/1/5 123/1/5
f 127/1/5 126/1/5 125/1/5
f 128/1/5 126/1/5 127/1/5
f 129/1/6 130/1/6 131/1/6
f 131/1/6 130/1/6 132/1/6
f 132/1/6 130/1/6 133/1/6
f 133/1/6 130/1/6 134/1/6
f 135/1/6 136/1/6 138/1/6
f 138/1/6 136/1/6 139/1/6
f 137/4/6 138/4/6 143/4/6
f 138/1/6 139/1/6 144/1/6
f 143/4/6 138/4/6 144/4/6
f 139/6/6 140/6/6 145/6/6
f 144/1/6 139/1/6 145/1/6
f 140/5/6 141/5/6 146/5/6
f 145/6/6 140/6/6 146/6/6
f 141/6/6 142/6/6 147/6/6
f 146/5/6 141/5/6 147/5/6
f 147/6/6 142/6/6 148/6/6
