# MagicaVoxel @ Ephtracy

# group
o 

# material
mtllib house-1_v3-7.mtl
usemtl palette

# normals
vn -1 0 0
vn 1 0 0
vn 0 0 1
vn 0 0 -1
vn 0 -1 0
vn 0 1 0

# texcoords
vt 0.923828 0.5
vt 0.978516 0.5

# verts
v 2.1 3.3 0.8
v 2.1 3.3 0.7
v 2.1 3.3 0
v 2.1 3.4 0.8
v 2.1 3.4 0.7
v 2.1 3.4 0.6
v 2.1 3.5 0.7
v 2.1 3.5 0.6
v 2.1 3.5 0.5
v 2.1 3.6 0.6
v 2.1 3.6 0.5
v 2.1 3.6 0
v 2.8 3.3 0.7
v 2.8 3.3 0
v 2.8 3.4 0.7
v 2.8 3.4 0.6
v 2.8 3.5 0.6
v 2.8 3.5 0.5
v 2.8 3.6 0.5
v 2.8 3.6 0
v 3 3.3 0.8
v 3 3.3 0.7
v 3 3.4 0.8
v 3 3.4 0.7
v 3 3.4 0.6
v 3 3.5 0.7
v 3 3.5 0.6
v 3 3.5 0.5
v 3 3.6 0.6
v 3 3.6 0.5
v 2.1 3.3 0.8
v 2.1 3.4 0.8
v 3 3.3 0.8
v 3 3.4 0.8
v 2.1 3.4 0.7
v 2.1 3.5 0.7
v 3 3.4 0.7
v 3 3.5 0.7
v 2.1 3.5 0.6
v 2.1 3.6 0.6
v 3 3.5 0.6
v 3 3.6 0.6
v 2.8 3.3 0.7
v 2.8 3.4 0.7
v 3 3.3 0.7
v 3 3.4 0.7
v 2.8 3.4 0.6
v 2.8 3.5 0.6
v 3 3.4 0.6
v 3 3.5 0.6
v 2.8 3.5 0.5
v 2.8 3.6 0.5
v 3 3.5 0.5
v 3 3.6 0.5
v 2.1 3.3 0
v 2.1 3.6 0
v 2.8 3.3 0
v 2.8 3.6 0
v 2.1 3.3 0.8
v 3 3.3 0.8
v 2.1 3.3 0.7
v 2.8 3.3 0.7
v 3 3.3 0.7
v 2.1 3.3 0
v 2.8 3.3 0
v 2.8 3.4 0.7
v 3 3.4 0.7
v 2.8 3.4 0.6
v 3 3.4 0.6
v 2.8 3.5 0.6
v 3 3.5 0.6
v 2.8 3.5 0.5
v 3 3.5 0.5
v 2.1 3.4 0.8
v 3 3.4 0.8
v 2.1 3.4 0.7
v 3 3.4 0.7
v 2.1 3.5 0.7
v 3 3.5 0.7
v 2.1 3.5 0.6
v 3 3.5 0.6
v 2.1 3.6 0.6
v 3 3.6 0.6
v 2.1 3.6 0.5
v 2.8 3.6 0.5
v 3 3.6 0.5
v 2.1 3.6 0
v 2.8 3.6 0

# faces
f 4/2/1 2/2/1 1/2/1
f 5/1/1 3/1/1 2/1/1
f 5/2/1 2/2/1 4/2/1
f 6/1/1 3/1/1 5/1/1
f 7/2/1 6/2/1 5/2/1
f 8/1/1 3/1/1 6/1/1
f 8/2/1 6/2/1 7/2/1
f 9/1/1 3/1/1 8/1/1
f 10/2/1 9/2/1 8/2/1
f 11/1/1 3/1/1 9/1/1
f 11/2/1 9/2/1 10/2/1
f 12/1/1 3/1/1 11/1/1
f 13/1/2 14/1/2 15/1/2
f 15/1/2 14/1/2 16/1/2
f 16/1/2 14/1/2 17/1/2
f 17/1/2 14/1/2 18/1/2
f 18/1/2 14/1/2 19/1/2
f 19/1/2 14/1/2 20/1/2
f 21/2/2 22/2/2 23/2/2
f 23/2/2 22/2/2 24/2/2
f 24/2/2 25/2/2 26/2/2
f 26/2/2 25/2/2 27/2/2
f 27/2/2 28/2/2 29/2/2
f 29/2/2 28/2/2 30/2/2
f 33/2/3 32/2/3 31/2/3
f 34/2/3 32/2/3 33/2/3
f 37/2/3 36/2/3 35/2/3
f 38/2/3 36/2/3 37/2/3
f 41/2/3 40/2/3 39/2/3
f 42/2/3 40/2/3 41/2/3
f 43/2/4 44/2/4 45/2/4
f 45/2/4 44/2/4 46/2/4
f 47/2/4 48/2/4 49/2/4
f 49/2/4 48/2/4 50/2/4
f 51/2/4 52/2/4 53/2/4
f 53/2/4 52/2/4 54/2/4
f 55/1/4 56/1/4 57/1/4
f 57/1/4 56/1/4 58/1/4
f 61/2/5 60/2/5 59/2/5
f 62/2/5 60/2/5 61/2/5
f 63/2/5 60/2/5 62/2/5
f 64/1/5 62/1/5 61/1/5
f 65/1/5 62/1/5 64/1/5
f 68/2/5 67/2/5 66/2/5
f 69/2/5 67/2/5 68/2/5
f 72/2/5 71/2/5 70/2/5
f 73/2/5 71/2/5 72/2/5
f 74/2/6 75/2/6 76/2/6
f 76/2/6 75/2/6 77/2/6
f 78/2/6 79/2/6 80/2/6
f 80/2/6 79/2/6 81/2/6
f 82/2/6 83/2/6 84/2/6
f 84/2/6 83/2/6 85/2/6
f 85/2/6 83/2/6 86/2/6
f 84/1/6 85/1/6 87/1/6
f 87/1/6 85/1/6 88/1/6
