# MagicaVoxel @ Ephtracy

# group
o 

# material
mtllib house-1_v3-26.mtl
usemtl palette

# normals
vn -1 0 0
vn 1 0 0
vn 0 0 1
vn 0 0 -1
vn 0 -1 0
vn 0 1 0

# texcoords
vt 0.923828 0.5
vt 0.978516 0.5

# verts
v 2.2 1.8 -1.2
v 2.2 1.8 -1.5
v 2.2 2.5 -1.5
v 2.2 2.5 -1.6
v 2.2 2.6 -0.7
v 2.2 2.6 -1.2
v 2.2 2.6 -1.4
v 2.2 2.6 -1.5
v 2.2 2.6 -1.6
v 2.2 2.7 -0.7
v 2.2 2.7 -1.4
v 2.2 2.7 -1.5
v 2.7 1.8 -0.7
v 2.7 1.8 -1.2
v 2.7 2.6 -0.7
v 2.7 2.6 -1.2
v 2.8 1.8 -0.7
v 2.8 1.8 -1.5
v 2.8 2.5 -1.5
v 2.8 2.6 -1.4
v 2.8 2.6 -1.5
v 2.8 2.7 -0.7
v 2.8 2.7 -1.4
v 3 2.5 -1.5
v 3 2.5 -1.6
v 3 2.6 -1.4
v 3 2.6 -1.5
v 3 2.6 -1.6
v 3 2.7 -1.4
v 3 2.7 -1.5
v 2.2 2.6 -0.7
v 2.2 2.7 -0.7
v 2.7 1.8 -0.7
v 2.7 2.6 -0.7
v 2.8 1.8 -0.7
v 2.8 2.7 -0.7
v 2.2 1.8 -1.2
v 2.2 2.6 -1.2
v 2.7 1.8 -1.2
v 2.7 2.6 -1.2
v 2.8 2.6 -1.4
v 2.8 2.7 -1.4
v 3 2.6 -1.4
v 3 2.7 -1.4
v 2.8 2.5 -1.5
v 2.8 2.6 -1.5
v 3 2.5 -1.5
v 3 2.6 -1.5
v 2.2 1.8 -1.5
v 2.2 2.5 -1.5
v 2.2 2.6 -1.5
v 2.2 2.7 -1.5
v 2.8 1.8 -1.5
v 2.8 2.5 -1.5
v 3 2.6 -1.5
v 3 2.7 -1.5
v 2.2 2.5 -1.6
v 2.2 2.6 -1.6
v 3 2.5 -1.6
v 3 2.6 -1.6
v 2.7 1.8 -0.7
v 2.8 1.8 -0.7
v 2.2 1.8 -1.2
v 2.7 1.8 -1.2
v 2.2 1.8 -1.5
v 2.8 1.8 -1.5
v 2.2 2.5 -1.5
v 2.8 2.5 -1.5
v 3 2.5 -1.5
v 2.2 2.5 -1.6
v 3 2.5 -1.6
v 2.2 2.6 -0.7
v 2.7 2.6 -0.7
v 2.2 2.6 -1.2
v 2.7 2.6 -1.2
v 2.8 2.6 -1.4
v 3 2.6 -1.4
v 2.8 2.6 -1.5
v 3 2.6 -1.5
v 2.2 2.6 -1.5
v 3 2.6 -1.5
v 2.2 2.6 -1.6
v 3 2.6 -1.6
v 2.2 2.7 -0.7
v 2.8 2.7 -0.7
v 2.2 2.7 -1.4
v 2.8 2.7 -1.4
v 3 2.7 -1.4
v 2.2 2.7 -1.5
v 3 2.7 -1.5

# faces
f 3/1/1 2/1/1 1/1/1
f 6/1/1 3/1/1 1/1/1
f 7/1/1 3/1/1 6/1/1
f 8/2/1 4/2/1 3/2/1
f 8/1/1 3/1/1 7/1/1
f 9/2/1 4/2/1 8/2/1
f 10/1/1 7/1/1 6/1/1
f 10/1/1 6/1/1 5/1/1
f 11/2/1 8/2/1 7/2/1
f 11/1/1 7/1/1 10/1/1
f 12/2/1 8/2/1 11/2/1
f 15/1/1 14/1/1 13/1/1
f 16/1/1 14/1/1 15/1/1
f 17/1/2 18/1/2 19/1/2
f 17/1/2 19/1/2 20/1/2
f 20/1/2 19/1/2 21/1/2
f 17/1/2 20/1/2 22/1/2
f 22/1/2 20/1/2 23/1/2
f 24/2/2 25/2/2 27/2/2
f 27/2/2 25/2/2 28/2/2
f 26/2/2 27/2/2 29/2/2
f 29/2/2 27/2/2 30/2/2
f 34/1/3 32/1/3 31/1/3
f 35/1/3 34/1/3 33/1/3
f 36/1/3 32/1/3 34/1/3
f 36/1/3 34/1/3 35/1/3
f 39/1/3 38/1/3 37/1/3
f 40/1/3 38/1/3 39/1/3
f 43/2/3 42/2/3 41/2/3
f 44/2/3 42/2/3 43/2/3
f 47/2/3 46/2/3 45/2/3
f 48/2/3 46/2/3 47/2/3
f 49/1/4 50/1/4 53/1/4
f 53/1/4 50/1/4 54/1/4
f 51/2/4 52/2/4 55/2/4
f 55/2/4 52/2/4 56/2/4
f 57/2/4 58/2/4 59/2/4
f 59/2/4 58/2/4 60/2/4
f 64/1/5 62/1/5 61/1/5
f 65/1/5 64/1/5 63/1/5
f 66/1/5 62/1/5 64/1/5
f 66/1/5 64/1/5 65/1/5
f 70/2/5 68/2/5 67/2/5
f 70/2/5 69/2/5 68/2/5
f 71/2/5 69/2/5 70/2/5
f 74/1/5 73/1/5 72/1/5
f 75/1/5 73/1/5 74/1/5
f 78/2/5 77/2/5 76/2/5
f 79/2/5 77/2/5 78/2/5
f 80/2/6 81/2/6 82/2/6
f 82/2/6 81/2/6 83/2/6
f 84/1/6 85/1/6 86/1/6
f 86/1/6 85/1/6 87/1/6
f 86/2/6 87/2/6 89/2/6
f 87/2/6 88/2/6 89/2/6
f 89/2/6 88/2/6 90/2/6
