# MagicaVoxel @ Ephtracy

# group
o 

# material
mtllib house-1_v3-56.mtl
usemtl palette

# normals
vn -1 0 0
vn 1 0 0
vn 0 0 1
vn 0 0 -1
vn 0 -1 0
vn 0 1 0

# texcoords
vt 0.271484 0.5
vt 0.892578 0.5
vt 0.916016 0.5
vt 0.919922 0.5
vt 0.923828 0.5

# verts
v -2.8 1.2 0.3
v -2.8 1.2 0.2
v -2.8 1.2 0
v -2.8 1.2 -0.2
v -2.8 1.3 0.2
v -2.8 1.3 0
v -2.8 1.3 -0.1
v -2.8 1.3 -0.2
v -2.8 1.4 0.3
v -2.8 1.4 -0.1
v -2.8 1.4 -0.2
v -2.8 1.5 0.3
v -2.8 1.5 0
v -2.8 1.5 -0.2
v -2.8 1.6 0.1
v -2.8 1.6 0
v -2.8 1.6 -0.1
v -2.8 1.6 -0.2
v -2.8 1.7 0.2
v -2.8 1.7 0.1
v -2.8 1.7 0
v -2.8 1.7 -0.1
v -2.8 1.8 0.3
v -2.8 1.8 0.2
v -2.8 1.8 0
v -2.8 1.8 -0.2
v -2.7 1.3 0.3
v -2.7 1.3 -0.1
v -2.7 1.3 -0.2
v -2.7 1.4 0.3
v -2.7 1.4 -0.1
v -2.7 1.4 -0.2
v -2.7 1.5 0.3
v -2.7 1.5 0
v -2.7 1.5 -0.2
v -2.7 1.6 0.1
v -2.7 1.6 0
v -2.7 1.6 -0.1
v -2.7 1.6 -0.2
v -2.7 1.7 0.2
v -2.7 1.7 0.1
v -2.7 1.7 0
v -2.7 1.7 -0.1
v -2.7 1.8 0.3
v -2.7 1.8 0.2
v -2.7 1.8 0
v -2.7 1.8 -0.2
v -2.6 1.2 0.3
v -2.6 1.2 -0.2
v -2.6 1.3 0.3
v -2.6 1.3 -0.2
v -2.8 1.2 0.3
v -2.8 1.4 0.3
v -2.8 1.5 0.3
v -2.8 1.8 0.3
v -2.7 1.2 0.3
v -2.7 1.3 0.3
v -2.7 1.4 0.3
v -2.7 1.5 0.3
v -2.7 1.8 0.3
v -2.6 1.2 0.3
v -2.6 1.3 0.3
v -2.8 1.2 -0.2
v -2.8 1.3 -0.2
v -2.8 1.4 -0.2
v -2.8 1.5 -0.2
v -2.8 1.6 -0.2
v -2.8 1.8 -0.2
v -2.7 1.2 -0.2
v -2.7 1.3 -0.2
v -2.7 1.4 -0.2
v -2.7 1.5 -0.2
v -2.7 1.6 -0.2
v -2.7 1.8 -0.2
v -2.6 1.2 -0.2
v -2.6 1.3 -0.2
v -2.8 1.2 0.3
v -2.7 1.2 0.3
v -2.6 1.2 0.3
v -2.8 1.2 0.2
v -2.7 1.2 0.2
v -2.8 1.2 0
v -2.7 1.2 0
v -2.8 1.2 -0.2
v -2.7 1.2 -0.2
v -2.6 1.2 -0.2
v -2.7 1.3 0.3
v -2.6 1.3 0.3
v -2.7 1.3 -0.1
v -2.7 1.3 -0.2
v -2.6 1.3 -0.2
v -2.8 1.8 0.3
v -2.7 1.8 0.3
v -2.8 1.8 0.2
v -2.7 1.8 0.2
v -2.8 1.8 0
v -2.7 1.8 0
v -2.8 1.8 -0.2
v -2.7 1.8 -0.2

# faces
f 5/5/1 2/5/1 1/5/1
f 5/3/1 3/3/1 2/3/1
f 6/5/1 4/5/1 3/5/1
f 6/3/1 3/3/1 5/3/1
f 7/5/1 4/5/1 6/5/1
f 8/5/1 4/5/1 7/5/1
f 9/5/1 5/5/1 1/5/1
f 9/5/1 6/5/1 5/5/1
f 9/5/1 7/5/1 6/5/1
f 10/3/1 8/3/1 7/3/1
f 10/5/1 7/5/1 9/5/1
f 11/3/1 8/3/1 10/3/1
f 12/4/1 10/4/1 9/4/1
f 12/4/1 11/4/1 10/4/1
f 13/4/1 11/4/1 12/4/1
f 14/4/1 11/4/1 13/4/1
f 15/5/1 13/5/1 12/5/1
f 16/2/1 14/2/1 13/2/1
f 16/5/1 13/5/1 15/5/1
f 17/2/1 14/2/1 16/2/1
f 18/2/1 14/2/1 17/2/1
f 19/5/1 15/5/1 12/5/1
f 20/2/1 16/2/1 15/2/1
f 20/5/1 15/5/1 19/5/1
f 20/2/1 17/2/1 16/2/1
f 21/2/1 17/2/1 20/2/1
f 22/5/1 18/5/1 17/5/1
f 22/2/1 17/2/1 21/2/1
f 23/5/1 19/5/1 12/5/1
f 24/2/1 21/2/1 20/2/1
f 24/5/1 19/5/1 23/5/1
f 24/2/1 20/2/1 19/2/1
f 25/5/1 22/5/1 21/5/1
f 25/2/1 21/2/1 24/2/1
f 26/5/1 18/5/1 22/5/1
f 26/5/1 22/5/1 25/5/1
f 27/5/2 28/5/2 30/5/2
f 28/3/2 29/3/2 31/3/2
f 30/5/2 28/5/2 31/5/2
f 31/3/2 29/3/2 32/3/2
f 30/4/2 31/4/2 33/4/2
f 31/4/2 32/4/2 33/4/2
f 33/4/2 32/4/2 34/4/2
f 34/4/2 32/4/2 35/4/2
f 33/5/2 34/5/2 36/5/2
f 34/2/2 35/2/2 37/2/2
f 36/5/2 34/5/2 37/5/2
f 37/2/2 35/2/2 38/2/2
f 38/2/2 35/2/2 39/2/2
f 33/5/2 36/5/2 40/5/2
f 36/2/2 37/2/2 41/2/2
f 40/5/2 36/5/2 41/5/2
f 37/2/2 38/2/2 41/2/2
f 41/2/2 38/2/2 42/2/2
f 38/5/2 39/5/2 43/5/2
f 42/2/2 38/2/2 43/2/2
f 33/5/2 40/5/2 44/5/2
f 41/2/2 42/2/2 45/2/2
f 44/5/2 40/5/2 45/5/2
f 40/2/2 41/2/2 45/2/2
f 42/5/2 43/5/2 46/5/2
f 45/2/2 42/2/2 46/2/2
f 43/5/2 39/5/2 47/5/2
f 46/5/2 43/5/2 47/5/2
f 48/1/2 49/1/2 50/1/2
f 50/1/2 49/1/2 51/1/2
f 56/5/3 53/5/3 52/5/3
f 57/5/3 53/5/3 56/5/3
f 58/4/3 54/4/3 53/4/3
f 58/5/3 53/5/3 57/5/3
f 59/5/3 55/5/3 54/5/3
f 59/4/3 54/4/3 58/4/3
f 60/5/3 55/5/3 59/5/3
f 61/1/3 57/1/3 56/1/3
f 62/1/3 57/1/3 61/1/3
f 63/5/4 64/5/4 69/5/4
f 64/3/4 65/3/4 70/3/4
f 69/5/4 64/5/4 70/5/4
f 65/4/4 66/4/4 71/4/4
f 70/3/4 65/3/4 71/3/4
f 66/2/4 67/2/4 72/2/4
f 71/4/4 66/4/4 72/4/4
f 67/5/4 68/5/4 73/5/4
f 72/2/4 67/2/4 73/2/4
f 73/5/4 68/5/4 74/5/4
f 69/1/4 70/1/4 75/1/4
f 75/1/4 70/1/4 76/1/4
f 80/5/5 78/5/5 77/5/5
f 81/1/5 79/1/5 78/1/5
f 81/5/5 78/5/5 80/5/5
f 82/3/5 81/3/5 80/3/5
f 83/1/5 79/1/5 81/1/5
f 83/3/5 81/3/5 82/3/5
f 84/5/5 83/5/5 82/5/5
f 85/1/5 79/1/5 83/1/5
f 85/5/5 83/5/5 84/5/5
f 86/1/5 79/1/5 85/1/5
f 87/1/6 88/1/6 89/1/6
f 89/1/6 88/1/6 90/1/6
f 90/1/6 88/1/6 91/1/6
f 92/5/6 93/5/6 94/5/6
f 94/5/6 93/5/6 95/5/6
f 94/2/6 95/2/6 96/2/6
f 96/2/6 95/2/6 97/2/6
f 96/5/6 97/5/6 98/5/6
f 98/5/6 97/5/6 99/5/6
