# MagicaVoxel @ Ephtracy

# group
o 

# material
mtllib house-1_v4-7.mtl
usemtl palette

# normals
vn -1 0 0
vn 1 0 0
vn 0 0 1
vn 0 0 -1
vn 0 -1 0
vn 0 1 0

# texcoords
vt 0.892578 0.5
vt 0.916016 0.5
vt 0.923828 0.5

# verts
v -2.7 1.5 -0.7
v -2.7 1.5 -1.3
v -2.7 1.5 -1.6
v -2.7 1.5 -1.8
v -2.7 1.5 -2.3
v -2.7 1.5 -2.7
v -2.7 1.6 -0.7
v -2.7 1.6 -0.8
v -2.7 1.6 -1.3
v -2.7 1.6 -1.4
v -2.7 1.6 -1.6
v -2.7 1.6 -1.7
v -2.7 1.6 -1.8
v -2.7 1.6 -2.3
v -2.7 1.6 -2.4
v -2.7 1.6 -2.6
v -2.7 1.6 -2.7
v -2.7 1.7 -0.8
v -2.7 1.7 -0.9
v -2.7 1.7 -1.1
v -2.7 1.7 -1.3
v -2.7 1.7 -1.4
v -2.7 1.7 -1.5
v -2.7 1.7 -1.6
v -2.7 1.7 -1.7
v -2.7 1.7 -2.5
v -2.7 1.7 -2.6
v -2.7 1.8 -0.9
v -2.7 1.8 -1
v -2.7 1.8 -1.1
v -2.7 1.8 -1.2
v -2.7 1.8 -1.3
v -2.7 1.8 -1.4
v -2.7 1.8 -1.5
v -2.7 1.8 -1.6
v -2.7 1.8 -1.7
v -2.7 1.8 -2.5
v -2.7 1.8 -2.6
v -2.7 1.9 -1
v -2.7 1.9 -1.1
v -2.7 1.9 -1.2
v -2.7 1.9 -1.3
v -2.7 1.9 -1.4
v -2.7 1.9 -1.5
v -2.7 1.9 -1.6
v -2.7 1.9 -1.7
v -2.7 1.9 -2.4
v -2.7 1.9 -2.6
v -2.7 1.9 -2.7
v -2.7 2 -1.1
v -2.7 2 -1.2
v -2.7 2 -1.3
v -2.7 2 -1.4
v -2.7 2 -1.5
v -2.7 2 -1.6
v -2.7 2 -1.7
v -2.7 2 -2.4
v -2.7 2 -2.6
v -2.7 2 -2.7
v -2.7 2.1 -1.2
v -2.7 2.1 -1.3
v -2.7 2.1 -1.4
v -2.7 2.1 -1.6
v -2.7 2.1 -1.7
v -2.7 2.1 -2.4
v -2.7 2.1 -2.6
v -2.7 2.1 -2.7
v -2.7 2.2 -1.3
v -2.7 2.2 -1.4
v -2.7 2.2 -1.5
v -2.7 2.2 -1.6
v -2.7 2.2 -2.4
v -2.7 2.2 -2.6
v -2.7 2.2 -2.7
v -2.7 2.3 -1.4
v -2.7 2.3 -1.5
v -2.7 2.3 -1.7
v -2.7 2.3 -1.8
v -2.7 2.3 -2.3
v -2.7 2.3 -2.4
v -2.7 2.3 -2.5
v -2.7 2.3 -2.6
v -2.7 2.4 -1.5
v -2.7 2.4 -1.6
v -2.7 2.4 -1.8
v -2.7 2.4 -1.9
v -2.7 2.4 -2.1
v -2.7 2.4 -2.3
v -2.7 2.4 -2.4
v -2.7 2.4 -2.5
v -2.7 2.4 -2.6
v -2.7 2.4 -2.7
v -2.7 2.5 -1.6
v -2.7 2.5 -1.7
v -2.7 2.5 -1.9
v -2.7 2.5 -2.1
v -2.7 2.5 -2.2
v -2.7 2.5 -2.4
v -2.7 2.5 -2.5
v -2.7 2.5 -2.6
v -2.7 2.5 -2.7
v -2.7 2.6 -1.7
v -2.7 2.6 -1.8
v -2.7 2.6 -2.1
v -2.7 2.6 -2.2
v -2.7 2.6 -2.3
v -2.7 2.6 -2.4
v -2.7 2.6 -2.5
v -2.7 2.6 -2.6
v -2.7 2.7 -1.8
v -2.7 2.7 -1.9
v -2.7 2.7 -2.1
v -2.7 2.7 -2.3
v -2.7 2.7 -2.5
v -2.7 2.7 -2.6
v -2.7 2.8 -1.9
v -2.7 2.8 -2
v -2.7 2.8 -2.3
v -2.7 2.8 -2.5
v -2.7 2.8 -2.6
v -2.7 2.8 -2.7
v -2.7 2.9 -2
v -2.7 2.9 -2.1
v -2.7 2.9 -2.3
v -2.7 2.9 -2.4
v -2.7 2.9 -2.5
v -2.7 3 -2.1
v -2.7 3 -2.2
v -2.7 3 -2.4
v -2.7 3 -2.6
v -2.7 3 -2.7
v -2.7 3.1 -2.2
v -2.7 3.1 -2.3
v -2.7 3.1 -2.6
v -2.7 3.1 -2.7
v -2.7 3.2 -2.3
v -2.7 3.2 -2.4
v -2.7 3.3 -2.4
v -2.7 3.3 -2.5
v -2.7 3.4 -2.5
v -2.7 3.4 -2.6
v -2.7 3.5 -2.6
v -2.7 3.5 -2.7
v -2.6 1.5 -0.7
v -2.6 1.5 -1.3
v -2.6 1.5 -1.6
v -2.6 1.5 -1.8
v -2.6 1.5 -2.3
v -2.6 1.5 -2.7
v -2.6 1.6 -0.7
v -2.6 1.6 -0.8
v -2.6 1.6 -1.3
v -2.6 1.6 -1.4
v -2.6 1.6 -1.6
v -2.6 1.6 -1.7
v -2.6 1.6 -1.8
v -2.6 1.6 -2.3
v -2.6 1.6 -2.4
v -2.6 1.6 -2.6
v -2.6 1.6 -2.7
v -2.6 1.7 -0.8
v -2.6 1.7 -0.9
v -2.6 1.7 -1.1
v -2.6 1.7 -1.3
v -2.6 1.7 -1.4
v -2.6 1.7 -1.5
v -2.6 1.7 -1.6
v -2.6 1.7 -1.7
v -2.6 1.7 -2.5
v -2.6 1.7 -2.6
v -2.6 1.8 -0.9
v -2.6 1.8 -1
v -2.6 1.8 -1.1
v -2.6 1.8 -1.2
v -2.6 1.8 -1.3
v -2.6 1.8 -1.4
v -2.6 1.8 -1.5
v -2.6 1.8 -1.6
v -2.6 1.8 -1.7
v -2.6 1.8 -2.5
v -2.6 1.8 -2.6
v -2.6 1.9 -1
v -2.6 1.9 -1.1
v -2.6 1.9 -1.2
v -2.6 1.9 -1.3
v -2.6 1.9 -1.4
v -2.6 1.9 -1.5
v -2.6 1.9 -1.6
v -2.6 1.9 -1.7
v -2.6 1.9 -2.4
v -2.6 1.9 -2.6
v -2.6 1.9 -2.7
v -2.6 2 -1.1
v -2.6 2 -1.2
v -2.6 2 -1.3
v -2.6 2 -1.4
v -2.6 2 -1.5
v -2.6 2 -1.6
v -2.6 2 -1.7
v -2.6 2 -2.4
v -2.6 2 -2.6
v -2.6 2 -2.7
v -2.6 2.1 -1.2
v -2.6 2.1 -1.3
v -2.6 2.1 -1.4
v -2.6 2.1 -1.6
v -2.6 2.1 -1.7
v -2.6 2.1 -2.4
v -2.6 2.1 -2.6
v -2.6 2.1 -2.7
v -2.6 2.2 -1.3
v -2.6 2.2 -1.4
v -2.6 2.2 -1.5
v -2.6 2.2 -1.6
v -2.6 2.2 -2.4
v -2.6 2.2 -2.6
v -2.6 2.2 -2.7
v -2.6 2.3 -1.4
v -2.6 2.3 -1.5
v -2.6 2.3 -1.7
v -2.6 2.3 -1.8
v -2.6 2.3 -2.3
v -2.6 2.3 -2.4
v -2.6 2.3 -2.5
v -2.6 2.3 -2.6
v -2.6 2.4 -1.5
v -2.6 2.4 -1.6
v -2.6 2.4 -1.8
v -2.6 2.4 -1.9
v -2.6 2.4 -2.1
v -2.6 2.4 -2.3
v -2.6 2.4 -2.4
v -2.6 2.4 -2.5
v -2.6 2.4 -2.6
v -2.6 2.4 -2.7
v -2.6 2.5 -1.6
v -2.6 2.5 -1.7
v -2.6 2.5 -1.9
v -2.6 2.5 -2.1
v -2.6 2.5 -2.2
v -2.6 2.5 -2.4
v -2.6 2.5 -2.5
v -2.6 2.5 -2.6
v -2.6 2.5 -2.7
v -2.6 2.6 -1.7
v -2.6 2.6 -1.8
v -2.6 2.6 -2.1
v -2.6 2.6 -2.2
v -2.6 2.6 -2.3
v -2.6 2.6 -2.4
v -2.6 2.6 -2.5
v -2.6 2.6 -2.6
v -2.6 2.7 -1.8
v -2.6 2.7 -1.9
v -2.6 2.7 -2.1
v -2.6 2.7 -2.3
v -2.6 2.7 -2.5
v -2.6 2.7 -2.6
v -2.6 2.8 -1.9
v -2.6 2.8 -2
v -2.6 2.8 -2.3
v -2.6 2.8 -2.5
v -2.6 2.8 -2.6
v -2.6 2.8 -2.7
v -2.6 2.9 -2
v -2.6 2.9 -2.1
v -2.6 2.9 -2.3
v -2.6 2.9 -2.4
v -2.6 2.9 -2.5
v -2.6 3 -2.1
v -2.6 3 -2.2
v -2.6 3 -2.4
v -2.6 3 -2.6
v -2.6 3 -2.7
v -2.6 3.1 -2.2
v -2.6 3.1 -2.3
v -2.6 3.1 -2.6
v -2.6 3.1 -2.7
v -2.6 3.2 -2.3
v -2.6 3.2 -2.4
v -2.6 3.3 -2.4
v -2.6 3.3 -2.5
v -2.6 3.4 -2.5
v -2.6 3.4 -2.6
v -2.6 3.5 -2.6
v -2.6 3.5 -2.7
v -2.7 1.5 -0.7
v -2.7 1.6 -0.7
v -2.6 1.5 -0.7
v -2.6 1.6 -0.7
v -2.7 1.6 -0.8
v -2.7 1.7 -0.8
v -2.6 1.6 -0.8
v -2.6 1.7 -0.8
v -2.7 1.7 -0.9
v -2.7 1.8 -0.9
v -2.6 1.7 -0.9
v -2.6 1.8 -0.9
v -2.7 1.8 -1
v -2.7 1.9 -1
v -2.6 1.8 -1
v -2.6 1.9 -1
v -2.7 1.9 -1.1
v -2.7 2 -1.1
v -2.6 1.9 -1.1
v -2.6 2 -1.1
v -2.7 2 -1.2
v -2.7 2.1 -1.2
v -2.6 2 -1.2
v -2.6 2.1 -1.2
v -2.7 2.1 -1.3
v -2.7 2.2 -1.3
v -2.6 2.1 -1.3
v -2.6 2.2 -1.3
v -2.7 2.2 -1.4
v -2.7 2.3 -1.4
v -2.6 2.2 -1.4
v -2.6 2.3 -1.4
v -2.7 2.3 -1.5
v -2.7 2.4 -1.5
v -2.6 2.3 -1.5
v -2.6 2.4 -1.5
v -2.7 2.4 -1.6
v -2.7 2.5 -1.6
v -2.6 2.4 -1.6
v -2.6 2.5 -1.6
v -2.7 2.5 -1.7
v -2.7 2.6 -1.7
v -2.6 2.5 -1.7
v -2.6 2.6 -1.7
v -2.7 2.6 -1.8
v -2.7 2.7 -1.8
v -2.6 2.6 -1.8
v -2.6 2.7 -1.8
v -2.7 2.7 -1.9
v -2.7 2.8 -1.9
v -2.6 2.7 -1.9
v -2.6 2.8 -1.9
v -2.7 2.8 -2
v -2.7 2.9 -2
v -2.6 2.8 -2
v -2.6 2.9 -2
v -2.7 2.9 -2.1
v -2.7 3 -2.1
v -2.6 2.9 -2.1
v -2.6 3 -2.1
v -2.7 3 -2.2
v -2.7 3.1 -2.2
v -2.6 3 -2.2
v -2.6 3.1 -2.2
v -2.7 1.5 -2.3
v -2.7 1.6 -2.3
v -2.7 2.3 -2.3
v -2.7 2.4 -2.3
v -2.7 3.1 -2.3
v -2.7 3.2 -2.3
v -2.6 1.5 -2.3
v -2.6 1.6 -2.3
v -2.6 2.3 -2.3
v -2.6 2.4 -2.3
v -2.6 3.1 -2.3
v -2.6 3.2 -2.3
v -2.7 1.6 -2.4
v -2.7 1.9 -2.4
v -2.7 2 -2.4
v -2.7 2.1 -2.4
v -2.7 2.2 -2.4
v -2.7 2.3 -2.4
v -2.7 3.2 -2.4
v -2.7 3.3 -2.4
v -2.6 1.6 -2.4
v -2.6 1.9 -2.4
v -2.6 2 -2.4
v -2.6 2.1 -2.4
v -2.6 2.2 -2.4
v -2.6 2.3 -2.4
v -2.6 3.2 -2.4
v -2.6 3.3 -2.4
v -2.7 3.3 -2.5
v -2.7 3.4 -2.5
v -2.6 3.3 -2.5
v -2.6 3.4 -2.5
v -2.7 3.4 -2.6
v -2.7 3.5 -2.6
v -2.6 3.4 -2.6
v -2.6 3.5 -2.6
v -2.7 1.6 -1.7
v -2.7 1.7 -1.7
v -2.7 1.8 -1.7
v -2.7 1.9 -1.7
v -2.7 2 -1.7
v -2.7 2.1 -1.7
v -2.7 2.3 -1.7
v -2.6 1.6 -1.7
v -2.6 1.7 -1.7
v -2.6 1.8 -1.7
v -2.6 1.9 -1.7
v -2.6 2 -1.7
v -2.6 2.1 -1.7
v -2.6 2.3 -1.7
v -2.7 1.5 -1.8
v -2.7 1.6 -1.8
v -2.7 2.3 -1.8
v -2.7 2.4 -1.8
v -2.6 1.5 -1.8
v -2.6 1.6 -1.8
v -2.6 2.3 -1.8
v -2.6 2.4 -1.8
v -2.7 1.5 -2.7
v -2.7 1.6 -2.7
v -2.7 1.9 -2.7
v -2.7 2 -2.7
v -2.7 2.1 -2.7
v -2.7 2.2 -2.7
v -2.7 2.4 -2.7
v -2.7 2.5 -2.7
v -2.7 2.8 -2.7
v -2.7 3 -2.7
v -2.7 3.1 -2.7
v -2.7 3.5 -2.7
v -2.6 1.5 -2.7
v -2.6 1.6 -2.7
v -2.6 1.9 -2.7
v -2.6 2 -2.7
v -2.6 2.1 -2.7
v -2.6 2.2 -2.7
v -2.6 2.4 -2.7
v -2.6 2.5 -2.7
v -2.6 2.8 -2.7
v -2.6 3 -2.7
v -2.6 3.1 -2.7
v -2.6 3.5 -2.7
v -2.7 1.5 -0.7
v -2.6 1.5 -0.7
v -2.7 1.5 -1.3
v -2.6 1.5 -1.3
v -2.7 1.5 -1.6
v -2.6 1.5 -1.6
v -2.7 1.5 -1.8
v -2.6 1.5 -1.8
v -2.7 1.5 -2.3
v -2.6 1.5 -2.3
v -2.7 1.5 -2.7
v -2.6 1.5 -2.7
v -2.7 2.3 -1.7
v -2.6 2.3 -1.7
v -2.7 2.3 -1.8
v -2.6 2.3 -1.8
v -2.7 2.3 -2.3
v -2.6 2.3 -2.3
v -2.7 2.3 -2.4
v -2.6 2.3 -2.4
v -2.7 2.4 -1.8
v -2.6 2.4 -1.8
v -2.7 2.4 -1.9
v -2.6 2.4 -1.9
v -2.7 2.4 -2.1
v -2.6 2.4 -2.1
v -2.7 2.4 -2.3
v -2.6 2.4 -2.3
v -2.7 1.6 -0.7
v -2.6 1.6 -0.7
v -2.7 1.6 -0.8
v -2.6 1.6 -0.8
v -2.7 1.6 -1.7
v -2.6 1.6 -1.7
v -2.7 1.6 -1.8
v -2.6 1.6 -1.8
v -2.7 1.6 -2.3
v -2.6 1.6 -2.3
v -2.7 1.6 -2.4
v -2.6 1.6 -2.4
v -2.7 1.7 -0.8
v -2.6 1.7 -0.8
v -2.7 1.7 -0.9
v -2.6 1.7 -0.9
v -2.7 1.8 -0.9
v -2.6 1.8 -0.9
v -2.7 1.8 -1
v -2.6 1.8 -1
v -2.7 1.9 -1
v -2.6 1.9 -1
v -2.7 1.9 -1.1
v -2.6 1.9 -1.1
v -2.7 2 -1.1
v -2.6 2 -1.1
v -2.7 2 -1.2
v -2.6 2 -1.2
v -2.7 2.1 -1.2
v -2.6 2.1 -1.2
v -2.7 2.1 -1.3
v -2.6 2.1 -1.3
v -2.7 2.2 -1.3
v -2.6 2.2 -1.3
v -2.7 2.2 -1.4
v -2.6 2.2 -1.4
v -2.7 2.3 -1.4
v -2.6 2.3 -1.4
v -2.7 2.3 -1.5
v -2.6 2.3 -1.5
v -2.7 2.4 -1.5
v -2.6 2.4 -1.5
v -2.7 2.4 -1.6
v -2.6 2.4 -1.6
v -2.7 2.5 -1.6
v -2.6 2.5 -1.6
v -2.7 2.5 -1.7
v -2.6 2.5 -1.7
v -2.7 2.6 -1.7
v -2.6 2.6 -1.7
v -2.7 2.6 -1.8
v -2.6 2.6 -1.8
v -2.7 2.7 -1.8
v -2.6 2.7 -1.8
v -2.7 2.7 -1.9
v -2.6 2.7 -1.9
v -2.7 2.8 -1.9
v -2.6 2.8 -1.9
v -2.7 2.8 -2
v -2.6 2.8 -2
v -2.7 2.9 -2
v -2.6 2.9 -2
v -2.7 2.9 -2.1
v -2.6 2.9 -2.1
v -2.7 3 -2.1
v -2.6 3 -2.1
v -2.7 3 -2.2
v -2.6 3 -2.2
v -2.7 3.1 -2.2
v -2.6 3.1 -2.2
v -2.7 3.1 -2.3
v -2.6 3.1 -2.3
v -2.7 3.2 -2.3
v -2.6 3.2 -2.3
v -2.7 3.2 -2.4
v -2.6 3.2 -2.4
v -2.7 3.3 -2.4
v -2.6 3.3 -2.4
v -2.7 3.3 -2.5
v -2.6 3.3 -2.5
v -2.7 3.4 -2.5
v -2.6 3.4 -2.5
v -2.7 3.4 -2.6
v -2.6 3.4 -2.6
v -2.7 3.5 -2.6
v -2.6 3.5 -2.6
v -2.7 3.5 -2.7
v -2.6 3.5 -2.7

# faces
f 7/3/1 2/3/1 1/3/1
f 8/3/1 2/3/1 7/3/1
f 9/2/1 3/2/1 2/2/1
f 9/3/1 2/3/1 8/3/1
f 10/2/1 3/2/1 9/2/1
f 11/3/1 4/3/1 3/3/1
f 11/2/1 3/2/1 10/2/1
f 12/3/1 4/3/1 11/3/1
f 13/3/1 4/3/1 12/3/1
f 14/3/1 6/3/1 5/3/1
f 15/3/1 6/3/1 14/3/1
f 16/3/1 6/3/1 15/3/1
f 17/3/1 6/3/1 16/3/1
f 18/3/1 10/3/1 9/3/1
f 18/3/1 9/3/1 8/3/1
f 19/3/1 10/3/1 18/3/1
f 20/3/1 10/3/1 19/3/1
f 21/3/1 10/3/1 20/3/1
f 22/1/1 11/1/1 10/1/1
f 22/3/1 10/3/1 21/3/1
f 23/1/1 11/1/1 22/1/1
f 24/3/1 12/3/1 11/3/1
f 24/1/1 11/1/1 23/1/1
f 25/3/1 12/3/1 24/3/1
f 26/3/1 16/3/1 15/3/1
f 27/1/1 17/1/1 16/1/1
f 27/3/1 16/3/1 26/3/1
f 28/3/1 20/3/1 19/3/1
f 29/3/1 20/3/1 28/3/1
f 30/2/1 21/2/1 20/2/1
f 30/3/1 20/3/1 29/3/1
f 31/2/1 21/2/1 30/2/1
f 32/3/1 23/3/1 22/3/1
f 32/2/1 21/2/1 31/2/1
f 32/3/1 22/3/1 21/3/1
f 33/3/1 23/3/1 32/3/1
f 34/1/1 25/1/1 24/1/1
f 34/3/1 23/3/1 33/3/1
f 34/1/1 24/1/1 23/1/1
f 35/1/1 25/1/1 34/1/1
f 36/1/1 25/1/1 35/1/1
f 37/3/1 26/3/1 15/3/1
f 37/1/1 27/1/1 26/1/1
f 38/1/1 17/1/1 27/1/1
f 38/1/1 27/1/1 37/1/1
f 39/3/1 31/3/1 30/3/1
f 39/3/1 30/3/1 29/3/1
f 40/3/1 31/3/1 39/3/1
f 41/2/1 33/2/1 32/2/1
f 41/3/1 31/3/1 40/3/1
f 41/2/1 32/2/1 31/2/1
f 42/2/1 33/2/1 41/2/1
f 43/1/1 35/1/1 34/1/1
f 43/2/1 33/2/1 42/2/1
f 43/1/1 34/1/1 33/1/1
f 44/1/1 35/1/1 43/1/1
f 45/3/1 36/3/1 35/3/1
f 45/1/1 35/1/1 44/1/1
f 46/3/1 36/3/1 45/3/1
f 47/3/1 38/3/1 37/3/1
f 47/3/1 37/3/1 15/3/1
f 48/1/1 17/1/1 38/1/1
f 48/3/1 38/3/1 47/3/1
f 49/1/1 17/1/1 48/1/1
f 50/3/1 42/3/1 41/3/1
f 50/3/1 41/3/1 40/3/1
f 51/3/1 42/3/1 50/3/1
f 52/2/1 44/2/1 43/2/1
f 52/3/1 42/3/1 51/3/1
f 52/2/1 43/2/1 42/2/1
f 53/2/1 44/2/1 52/2/1
f 54/1/1 46/1/1 45/1/1
f 54/2/1 44/2/1 53/2/1
f 54/1/1 45/1/1 44/1/1
f 55/1/1 46/1/1 54/1/1
f 56/1/1 46/1/1 55/1/1
f 57/2/1 48/2/1 47/2/1
f 58/3/1 49/3/1 48/3/1
f 58/2/1 48/2/1 57/2/1
f 59/3/1 49/3/1 58/3/1
f 60/3/1 53/3/1 52/3/1
f 60/3/1 52/3/1 51/3/1
f 61/3/1 53/3/1 60/3/1
f 62/2/1 54/2/1 53/2/1
f 62/3/1 53/3/1 61/3/1
f 62/2/1 55/2/1 54/2/1
f 63/3/1 56/3/1 55/3/1
f 63/2/1 55/2/1 62/2/1
f 64/3/1 56/3/1 63/3/1
f 65/3/1 58/3/1 57/3/1
f 66/2/1 59/2/1 58/2/1
f 66/3/1 58/3/1 65/3/1
f 67/2/1 59/2/1 66/2/1
f 68/3/1 62/3/1 61/3/1
f 68/3/1 63/3/1 62/3/1
f 69/3/1 63/3/1 68/3/1
f 70/3/1 63/3/1 69/3/1
f 71/1/1 64/1/1 63/1/1
f 71/3/1 63/3/1 70/3/1
f 72/2/1 66/2/1 65/2/1
f 73/3/1 67/3/1 66/3/1
f 73/2/1 66/2/1 72/2/1
f 74/3/1 67/3/1 73/3/1
f 75/3/1 70/3/1 69/3/1
f 76/1/1 71/1/1 70/1/1
f 76/3/1 70/3/1 75/3/1
f 77/1/1 64/1/1 71/1/1
f 77/1/1 71/1/1 76/1/1
f 80/3/1 73/3/1 72/3/1
f 81/3/1 73/3/1 80/3/1
f 82/1/1 74/1/1 73/1/1
f 82/3/1 73/3/1 81/3/1
f 83/3/1 78/3/1 77/3/1
f 83/3/1 77/3/1 76/3/1
f 84/3/1 78/3/1 83/3/1
f 85/3/1 78/3/1 84/3/1
f 88/3/1 81/3/1 80/3/1
f 88/3/1 80/3/1 79/3/1
f 89/3/1 81/3/1 88/3/1
f 90/1/1 82/1/1 81/1/1
f 90/3/1 81/3/1 89/3/1
f 91/1/1 74/1/1 82/1/1
f 91/1/1 82/1/1 90/1/1
f 92/1/1 74/1/1 91/1/1
f 93/3/1 86/3/1 85/3/1
f 93/3/1 85/3/1 84/3/1
f 94/3/1 86/3/1 93/3/1
f 95/1/1 87/1/1 86/1/1
f 95/3/1 86/3/1 94/3/1
f 96/3/1 89/3/1 88/3/1
f 96/1/1 87/1/1 95/1/1
f 96/3/1 88/3/1 87/3/1
f 97/3/1 89/3/1 96/3/1
f 98/1/1 90/1/1 89/1/1
f 98/3/1 89/3/1 97/3/1
f 98/1/1 91/1/1 90/1/1
f 99/1/1 91/1/1 98/1/1
f 100/3/1 92/3/1 91/3/1
f 100/1/1 91/1/1 99/1/1
f 101/3/1 92/3/1 100/3/1
f 102/3/1 97/3/1 96/3/1
f 102/3/1 95/3/1 94/3/1
f 102/3/1 96/3/1 95/3/1
f 103/3/1 97/3/1 102/3/1
f 104/3/1 97/3/1 103/3/1
f 105/1/1 98/1/1 97/1/1
f 105/3/1 97/3/1 104/3/1
f 106/1/1 98/1/1 105/1/1
f 107/3/1 99/3/1 98/3/1
f 107/1/1 98/1/1 106/1/1
f 108/1/1 101/1/1 100/1/1
f 108/3/1 99/3/1 107/3/1
f 108/1/1 100/1/1 99/1/1
f 109/1/1 101/1/1 108/1/1
f 110/3/1 104/3/1 103/3/1
f 111/3/1 104/3/1 110/3/1
f 112/2/1 105/2/1 104/2/1
f 112/3/1 104/3/1 111/3/1
f 112/2/1 106/2/1 105/2/1
f 113/3/1 107/3/1 106/3/1
f 113/2/1 106/2/1 112/2/1
f 113/3/1 109/3/1 108/3/1
f 113/3/1 108/3/1 107/3/1
f 114/3/1 109/3/1 113/3/1
f 115/1/1 101/1/1 109/1/1
f 115/3/1 109/3/1 114/3/1
f 116/3/1 112/3/1 111/3/1
f 116/3/1 114/3/1 113/3/1
f 116/3/1 113/3/1 112/3/1
f 117/3/1 114/3/1 116/3/1
f 118/3/1 114/3/1 117/3/1
f 119/1/1 115/1/1 114/1/1
f 119/3/1 114/3/1 118/3/1
f 120/1/1 101/1/1 115/1/1
f 120/1/1 115/1/1 119/1/1
f 121/1/1 101/1/1 120/1/1
f 122/3/1 118/3/1 117/3/1
f 123/3/1 118/3/1 122/3/1
f 124/2/1 119/2/1 118/2/1
f 124/3/1 118/3/1 123/3/1
f 125/2/1 119/2/1 124/2/1
f 126/1/1 120/1/1 119/1/1
f 126/2/1 119/2/1 125/2/1
f 127/3/1 125/3/1 124/3/1
f 127/3/1 124/3/1 123/3/1
f 128/3/1 125/3/1 127/3/1
f 129/1/1 126/1/1 125/1/1
f 129/3/1 125/3/1 128/3/1
f 130/1/1 120/1/1 126/1/1
f 130/1/1 126/1/1 129/1/1
f 130/3/1 121/3/1 120/3/1
f 131/3/1 121/3/1 130/3/1
f 132/3/1 129/3/1 128/3/1
f 132/3/1 130/3/1 129/3/1
f 133/3/1 130/3/1 132/3/1
f 134/2/1 131/2/1 130/2/1
f 134/3/1 130/3/1 133/3/1
f 135/2/1 131/2/1 134/2/1
f 136/3/1 134/3/1 133/3/1
f 136/3/1 135/3/1 134/3/1
f 137/3/1 135/3/1 136/3/1
f 138/3/1 135/3/1 137/3/1
f 139/3/1 135/3/1 138/3/1
f 140/3/1 135/3/1 139/3/1
f 141/3/1 135/3/1 140/3/1
f 142/3/1 135/3/1 141/3/1
f 143/3/1 135/3/1 142/3/1
f 144/3/2 145/3/2 150/3/2
f 150/3/2 145/3/2 151/3/2
f 145/2/2 146/2/2 152/2/2
f 151/3/2 145/3/2 152/3/2
f 152/2/2 146/2/2 153/2/2
f 146/3/2 147/3/2 154/3/2
f 153/2/2 146/2/2 154/2/2
f 154/3/2 147/3/2 155/3/2
f 155/3/2 147/3/2 156/3/2
f 148/3/2 149/3/2 157/3/2
f 157/3/2 149/3/2 158/3/2
f 158/3/2 149/3/2 159/3/2
f 159/3/2 149/3/2 160/3/2
f 152/3/2 153/3/2 161/3/2
f 151/3/2 152/3/2 161/3/2
f 161/3/2 153/3/2 162/3/2
f 162/3/2 153/3/2 163/3/2
f 163/3/2 153/3/2 164/3/2
f 153/1/2 154/1/2 165/1/2
f 164/3/2 153/3/2 165/3/2
f 165/1/2 154/1/2 166/1/2
f 154/3/2 155/3/2 167/3/2
f 166/1/2 154/1/2 167/1/2
f 167/3/2 155/3/2 168/3/2
f 158/3/2 159/3/2 169/3/2
f 159/1/2 160/1/2 170/1/2
f 169/3/2 159/3/2 170/3/2
f 162/3/2 163/3/2 171/3/2
f 171/3/2 163/3/2 172/3/2
f 163/2/2 164/2/2 173/2/2
f 172/3/2 163/3/2 173/3/2
f 173/2/2 164/2/2 174/2/2
f 165/3/2 166/3/2 175/3/2
f 174/2/2 164/2/2 175/2/2
f 164/3/2 165/3/2 175/3/2
f 175/3/2 166/3/2 176/3/2
f 167/1/2 168/1/2 177/1/2
f 176/3/2 166/3/2 177/3/2
f 166/1/2 167/1/2 177/1/2
f 177/1/2 168/1/2 178/1/2
f 178/1/2 168/1/2 179/1/2
f 158/3/2 169/3/2 180/3/2
f 169/1/2 170/1/2 180/1/2
f 170/1/2 160/1/2 181/1/2
f 180/1/2 170/1/2 181/1/2
f 173/3/2 174/3/2 182/3/2
f 172/3/2 173/3/2 182/3/2
f 182/3/2 174/3/2 183/3/2
f 175/2/2 176/2/2 184/2/2
f 183/3/2 174/3/2 184/3/2
f 174/2/2 175/2/2 184/2/2
f 184/2/2 176/2/2 185/2/2
f 177/1/2 178/1/2 186/1/2
f 185/2/2 176/2/2 186/2/2
f 176/1/2 177/1/2 186/1/2
f 186/1/2 178/1/2 187/1/2
f 178/3/2 179/3/2 188/3/2
f 187/1/2 178/1/2 188/1/2
f 188/3/2 179/3/2 189/3/2
f 180/3/2 181/3/2 190/3/2
f 158/3/2 180/3/2 190/3/2
f 181/1/2 160/1/2 191/1/2
f 190/3/2 181/3/2 191/3/2
f 191/1/2 160/1/2 192/1/2
f 184/3/2 185/3/2 193/3/2
f 183/3/2 184/3/2 193/3/2
f 193/3/2 185/3/2 194/3/2
f 186/2/2 187/2/2 195/2/2
f 194/3/2 185/3/2 195/3/2
f 185/2/2 186/2/2 195/2/2
f 195/2/2 187/2/2 196/2/2
f 188/1/2 189/1/2 197/1/2
f 196/2/2 187/2/2 197/2/2
f 187/1/2 188/1/2 197/1/2
f 197/1/2 189/1/2 198/1/2
f 198/1/2 189/1/2 199/1/2
f 190/2/2 191/2/2 200/2/2
f 191/3/2 192/3/2 201/3/2
f 200/2/2 191/2/2 201/2/2
f 201/3/2 192/3/2 202/3/2
f 195/3/2 196/3/2 203/3/2
f 194/3/2 195/3/2 203/3/2
f 203/3/2 196/3/2 204/3/2
f 196/2/2 197/2/2 205/2/2
f 204/3/2 196/3/2 205/3/2
f 197/2/2 198/2/2 205/2/2
f 198/3/2 199/3/2 206/3/2
f 205/2/2 198/2/2 206/2/2
f 206/3/2 199/3/2 207/3/2
f 200/3/2 201/3/2 208/3/2
f 201/2/2 202/2/2 209/2/2
f 208/3/2 201/3/2 209/3/2
f 209/2/2 202/2/2 210/2/2
f 204/3/2 205/3/2 211/3/2
f 205/3/2 206/3/2 211/3/2
f 211/3/2 206/3/2 212/3/2
f 212/3/2 206/3/2 213/3/2
f 206/1/2 207/1/2 214/1/2
f 213/3/2 206/3/2 214/3/2
f 208/2/2 209/2/2 215/2/2
f 209/3/2 210/3/2 216/3/2
f 215/2/2 209/2/2 216/2/2
f 216/3/2 210/3/2 217/3/2
f 212/3/2 213/3/2 218/3/2
f 213/1/2 214/1/2 219/1/2
f 218/3/2 213/3/2 219/3/2
f 214/1/2 207/1/2 220/1/2
f 219/1/2 214/1/2 220/1/2
f 215/3/2 216/3/2 223/3/2
f 223/3/2 216/3/2 224/3/2
f 216/1/2 217/1/2 225/1/2
f 224/3/2 216/3/2 225/3/2
f 220/3/2 221/3/2 226/3/2
f 219/3/2 220/3/2 226/3/2
f 226/3/2 221/3/2 227/3/2
f 227/3/2 221/3/2 228/3/2
f 223/3/2 224/3/2 231/3/2
f 222/3/2 223/3/2 231/3/2
f 231/3/2 224/3/2 232/3/2
f 224/1/2 225/1/2 233/1/2
f 232/3/2 224/3/2 233/3/2
f 225/1/2 217/1/2 234/1/2
f 233/1/2 225/1/2 234/1/2
f 234/1/2 217/1/2 235/1/2
f 228/3/2 229/3/2 236/3/2
f 227/3/2 228/3/2 236/3/2
f 236/3/2 229/3/2 237/3/2
f 229/1/2 230/1/2 238/1/2
f 237/3/2 229/3/2 238/3/2
f 231/3/2 232/3/2 239/3/2
f 238/1/2 230/1/2 239/1/2
f 230/3/2 231/3/2 239/3/2
f 239/3/2 232/3/2 240/3/2
f 232/1/2 233/1/2 241/1/2
f 240/3/2 232/3/2 241/3/2
f 233/1/2 234/1/2 241/1/2
f 241/1/2 234/1/2 242/1/2
f 234/3/2 235/3/2 243/3/2
f 242/1/2 234/1/2 243/1/2
f 243/3/2 235/3/2 244/3/2
f 239/3/2 240/3/2 245/3/2
f 237/3/2 238/3/2 245/3/2
f 238/3/2 239/3/2 245/3/2
f 245/3/2 240/3/2 246/3/2
f 246/3/2 240/3/2 247/3/2
f 240/1/2 241/1/2 248/1/2
f 247/3/2 240/3/2 248/3/2
f 248/1/2 241/1/2 249/1/2
f 241/3/2 242/3/2 250/3/2
f 249/1/2 241/1/2 250/1/2
f 243/1/2 244/1/2 251/1/2
f 250/3/2 242/3/2 251/3/2
f 242/1/2 243/1/2 251/1/2
f 251/1/2 244/1/2 252/1/2
f 246/3/2 247/3/2 253/3/2
f 253/3/2 247/3/2 254/3/2
f 247/2/2 248/2/2 255/2/2
f 254/3/2 247/3/2 255/3/2
f 248/2/2 249/2/2 255/2/2
f 249/3/2 250/3/2 256/3/2
f 255/2/2 249/2/2 256/2/2
f 251/3/2 252/3/2 256/3/2
f 250/3/2 251/3/2 256/3/2
f 256/3/2 252/3/2 257/3/2
f 252/1/2 244/1/2 258/1/2
f 257/3/2 252/3/2 258/3/2
f 254/3/2 255/3/2 259/3/2
f 256/3/2 257/3/2 259/3/2
f 255/3/2 256/3/2 259/3/2
f 259/3/2 257/3/2 260/3/2
f 260/3/2 257/3/2 261/3/2
f 257/1/2 258/1/2 262/1/2
f 261/3/2 257/3/2 262/3/2
f 258/1/2 244/1/2 263/1/2
f 262/1/2 258/1/2 263/1/2
f 263/1/2 244/1/2 264/1/2
f 260/3/2 261/3/2 265/3/2
f 265/3/2 261/3/2 266/3/2
f 261/2/2 262/2/2 267/2/2
f 266/3/2 261/3/2 267/3/2
f 267/2/2 262/2/2 268/2/2
f 262/1/2 263/1/2 269/1/2
f 268/2/2 262/2/2 269/2/2
f 267/3/2 268/3/2 270/3/2
f 266/3/2 267/3/2 270/3/2
f 270/3/2 268/3/2 271/3/2
f 268/1/2 269/1/2 272/1/2
f 271/3/2 268/3/2 272/3/2
f 269/1/2 263/1/2 273/1/2
f 272/1/2 269/1/2 273/1/2
f 263/3/2 264/3/2 273/3/2
f 273/3/2 264/3/2 274/3/2
f 271/3/2 272/3/2 275/3/2
f 272/3/2 273/3/2 275/3/2
f 275/3/2 273/3/2 276/3/2
f 273/2/2 274/2/2 277/2/2
f 276/3/2 273/3/2 277/3/2
f 277/2/2 274/2/2 278/2/2
f 276/3/2 277/3/2 279/3/2
f 277/3/2 278/3/2 279/3/2
f 279/3/2 278/3/2 280/3/2
f 280/3/2 278/3/2 281/3/2
f 281/3/2 278/3/2 282/3/2
f 282/3/2 278/3/2 283/3/2
f 283/3/2 278/3/2 284/3/2
f 284/3/2 278/3/2 285/3/2
f 285/3/2 278/3/2 286/3/2
f 289/3/3 288/3/3 287/3/3
f 290/3/3 288/3/3 289/3/3
f 293/3/3 292/3/3 291/3/3
f 294/3/3 292/3/3 293/3/3
f 297/3/3 296/3/3 295/3/3
f 298/3/3 296/3/3 297/3/3
f 301/3/3 300/3/3 299/3/3
f 302/3/3 300/3/3 301/3/3
f 305/3/3 304/3/3 303/3/3
f 306/3/3 304/3/3 305/3/3
f 309/3/3 308/3/3 307/3/3
f 310/3/3 308/3/3 309/3/3
f 313/3/3 312/3/3 311/3/3
f 314/3/3 312/3/3 313/3/3
f 317/3/3 316/3/3 315/3/3
f 318/3/3 316/3/3 317/3/3
f 321/3/3 320/3/3 319/3/3
f 322/3/3 320/3/3 321/3/3
f 325/3/3 324/3/3 323/3/3
f 326/3/3 324/3/3 325/3/3
f 329/3/3 328/3/3 327/3/3
f 330/3/3 328/3/3 329/3/3
f 333/3/3 332/3/3 331/3/3
f 334/3/3 332/3/3 333/3/3
f 337/3/3 336/3/3 335/3/3
f 338/3/3 336/3/3 337/3/3
f 341/3/3 340/3/3 339/3/3
f 342/3/3 340/3/3 341/3/3
f 345/3/3 344/3/3 343/3/3
f 346/3/3 344/3/3 345/3/3
f 349/3/3 348/3/3 347/3/3
f 350/3/3 348/3/3 349/3/3
f 357/3/3 352/3/3 351/3/3
f 358/3/3 352/3/3 357/3/3
f 359/3/3 354/3/3 353/3/3
f 360/3/3 354/3/3 359/3/3
f 361/3/3 356/3/3 355/3/3
f 362/3/3 356/3/3 361/3/3
f 371/3/3 364/3/3 363/3/3
f 372/2/3 365/2/3 364/2/3
f 372/3/3 364/3/3 371/3/3
f 373/3/3 366/3/3 365/3/3
f 373/2/3 365/2/3 372/2/3
f 374/2/3 367/2/3 366/2/3
f 374/3/3 366/3/3 373/3/3
f 375/3/3 368/3/3 367/3/3
f 375/2/3 367/2/3 374/2/3
f 376/3/3 368/3/3 375/3/3
f 377/3/3 370/3/3 369/3/3
f 378/3/3 370/3/3 377/3/3
f 381/3/3 380/3/3 379/3/3
f 382/3/3 380/3/3 381/3/3
f 385/3/3 384/3/3 383/3/3
f 386/3/3 384/3/3 385/3/3
f 387/3/4 388/3/4 394/3/4
f 388/1/4 389/1/4 395/1/4
f 394/3/4 388/3/4 395/3/4
f 389/3/4 390/3/4 396/3/4
f 395/1/4 389/1/4 396/1/4
f 390/1/4 391/1/4 397/1/4
f 396/3/4 390/3/4 397/3/4
f 391/3/4 392/3/4 398/3/4
f 397/1/4 391/1/4 398/1/4
f 392/1/4 393/1/4 399/1/4
f 398/3/4 392/3/4 399/3/4
f 399/1/4 393/1/4 400/1/4
f 401/3/4 402/3/4 405/3/4
f 405/3/4 402/3/4 406/3/4
f 403/3/4 404/3/4 407/3/4
f 407/3/4 404/3/4 408/3/4
f 409/3/4 410/3/4 421/3/4
f 410/1/4 411/1/4 422/1/4
f 421/3/4 410/3/4 422/3/4
f 411/3/4 412/3/4 423/3/4
f 422/1/4 411/1/4 423/1/4
f 412/2/4 413/2/4 424/2/4
f 423/3/4 412/3/4 424/3/4
f 413/3/4 414/3/4 425/3/4
f 424/2/4 413/2/4 425/2/4
f 414/1/4 415/1/4 426/1/4
f 425/3/4 414/3/4 426/3/4
f 415/3/4 416/3/4 427/3/4
f 426/1/4 415/1/4 427/1/4
f 416/1/4 417/1/4 428/1/4
f 427/3/4 416/3/4 428/3/4
f 417/3/4 418/3/4 429/3/4
f 428/1/4 417/1/4 429/1/4
f 418/2/4 419/2/4 430/2/4
f 429/3/4 418/3/4 430/3/4
f 419/3/4 420/3/4 431/3/4
f 430/2/4 419/2/4 431/2/4
f 431/3/4 420/3/4 432/3/4
f 435/3/5 434/3/5 433/3/5
f 436/3/5 434/3/5 435/3/5
f 437/2/5 436/2/5 435/2/5
f 438/2/5 436/2/5 437/2/5
f 439/3/5 438/3/5 437/3/5
f 440/3/5 438/3/5 439/3/5
f 443/3/5 442/3/5 441/3/5
f 444/3/5 442/3/5 443/3/5
f 447/3/5 446/3/5 445/3/5
f 448/3/5 446/3/5 447/3/5
f 451/3/5 450/3/5 449/3/5
f 452/3/5 450/3/5 451/3/5
f 455/3/5 454/3/5 453/3/5
f 456/3/5 454/3/5 455/3/5
f 457/1/5 456/1/5 455/1/5
f 458/1/5 456/1/5 457/1/5
f 459/3/5 458/3/5 457/3/5
f 460/3/5 458/3/5 459/3/5
f 461/3/6 462/3/6 463/3/6
f 463/3/6 462/3/6 464/3/6
f 465/3/6 466/3/6 467/3/6
f 467/3/6 466/3/6 468/3/6
f 469/3/6 470/3/6 471/3/6
f 471/3/6 470/3/6 472/3/6
f 473/3/6 474/3/6 475/3/6
f 475/3/6 474/3/6 476/3/6
f 477/3/6 478/3/6 479/3/6
f 479/3/6 478/3/6 480/3/6
f 481/3/6 482/3/6 483/3/6
f 483/3/6 482/3/6 484/3/6
f 485/3/6 486/3/6 487/3/6
f 487/3/6 486/3/6 488/3/6
f 489/3/6 490/3/6 491/3/6
f 491/3/6 490/3/6 492/3/6
f 493/3/6 494/3/6 495/3/6
f 495/3/6 494/3/6 496/3/6
f 497/3/6 498/3/6 499/3/6
f 499/3/6 498/3/6 500/3/6
f 501/3/6 502/3/6 503/3/6
f 503/3/6 502/3/6 504/3/6
f 505/3/6 506/3/6 507/3/6
f 507/3/6 506/3/6 508/3/6
f 509/3/6 510/3/6 511/3/6
f 511/3/6 510/3/6 512/3/6
f 513/3/6 514/3/6 515/3/6
f 515/3/6 514/3/6 516/3/6
f 517/3/6 518/3/6 519/3/6
f 519/3/6 518/3/6 520/3/6
f 521/3/6 522/3/6 523/3/6
f 523/3/6 522/3/6 524/3/6
f 525/3/6 526/3/6 527/3/6
f 527/3/6 526/3/6 528/3/6
f 529/3/6 530/3/6 531/3/6
f 531/3/6 530/3/6 532/3/6
f 533/3/6 534/3/6 535/3/6
f 535/3/6 534/3/6 536/3/6
f 537/3/6 538/3/6 539/3/6
f 539/3/6 538/3/6 540/3/6
f 541/3/6 542/3/6 543/3/6
f 543/3/6 542/3/6 544/3/6
f 545/3/6 546/3/6 547/3/6
f 547/3/6 546/3/6 548/3/6
