# MagicaVoxel @ Ephtracy

# group
o 

# material
mtllib house-1_v4-39.mtl
usemtl palette

# normals
vn -1 0 0
vn 1 0 0
vn 0 0 1
vn 0 0 -1
vn 0 -1 0
vn 0 1 0

# texcoords
vt 0.892578 0.5
vt 0.916016 0.5
vt 0.919922 0.5
vt 0.923828 0.5

# verts
v -2.8 0.3 -0.6
v -2.8 0.3 -0.7
v -2.8 0.4 -0.6
v -2.8 0.4 -0.7
v -2.8 0.5 -0.6
v -2.8 0.5 -0.7
v -2.8 0.6 -0.6
v -2.8 0.6 -0.7
v -2.8 0.7 -0.6
v -2.8 0.7 -0.7
v -2.8 0.8 -0.6
v -2.8 0.8 -0.7
v -2.8 0.9 -0.6
v -2.8 0.9 -0.7
v -2.8 1 -0.6
v -2.8 1 -0.7
v -2.8 1.1 -0.6
v -2.8 1.1 -0.7
v -2.8 1.2 -0.6
v -2.8 1.2 -0.7
v -2.8 1.3 -0.6
v -2.8 1.3 -0.7
v -2.8 1.4 -0.6
v -2.8 1.4 -0.7
v -1.7 0.5 -0.6
v -1.7 0.5 -0.7
v -1.7 0.6 -0.6
v -1.7 0.6 -0.7
v -1.7 0.7 -0.6
v -1.7 0.7 -0.7
v -1.7 1 -0.6
v -1.7 1 -0.7
v -1.6 0.4 -0.6
v -1.6 0.4 -0.7
v -1.6 0.5 -0.6
v -1.6 0.5 -0.7
v -1.6 1 -0.6
v -1.6 1 -0.7
v -1.6 1.1 -0.6
v -1.6 1.1 -0.7
v -1.3 0.3 -0.6
v -1.3 0.3 -0.7
v -1.3 0.4 -0.6
v -1.3 0.4 -0.7
v -1.3 1.1 -0.6
v -1.3 1.1 -0.7
v -1.3 1.2 -0.6
v -1.3 1.2 -0.7
v -1.3 1.3 -0.6
v -1.3 1.3 -0.7
v -1.3 1.4 -0.6
v -1.3 1.4 -0.7
v -2.8 0.3 -0.6
v -2.8 0.4 -0.6
v -2.8 0.5 -0.6
v -2.8 0.6 -0.6
v -2.8 0.7 -0.6
v -2.8 0.8 -0.6
v -2.8 0.9 -0.6
v -2.8 1 -0.6
v -2.8 1.1 -0.6
v -2.8 1.2 -0.6
v -2.8 1.3 -0.6
v -2.8 1.4 -0.6
v -2.7 0.3 -0.6
v -2.7 0.4 -0.6
v -2.7 0.5 -0.6
v -2.7 0.6 -0.6
v -2.7 0.7 -0.6
v -2.7 0.8 -0.6
v -2.7 0.9 -0.6
v -2.7 1 -0.6
v -2.7 1.1 -0.6
v -2.7 1.2 -0.6
v -2.7 1.3 -0.6
v -2.7 1.4 -0.6
v -2.6 0.9 -0.6
v -2.6 1 -0.6
v -2.6 1.1 -0.6
v -2.5 0.3 -0.6
v -2.5 0.4 -0.6
v -2.5 0.5 -0.6
v -2.5 0.6 -0.6
v -2.5 0.7 -0.6
v -2.5 0.8 -0.6
v -2.5 0.9 -0.6
v -2.5 1 -0.6
v -2.5 1.1 -0.6
v -2.5 1.2 -0.6
v -2.4 0.3 -0.6
v -2.4 0.4 -0.6
v -2.4 0.5 -0.6
v -2.4 0.8 -0.6
v -2.4 0.9 -0.6
v -2.4 1.1 -0.6
v -2.4 1.2 -0.6
v -2.3 0.7 -0.6
v -2.3 0.8 -0.6
v -2.3 0.9 -0.6
v -2.3 1 -0.6
v -2.3 1.1 -0.6
v -2.2 0.3 -0.6
v -2.2 0.4 -0.6
v -2.2 0.5 -0.6
v -2.2 0.7 -0.6
v -2.2 0.8 -0.6
v -2.2 1.1 -0.6
v -2.2 1.2 -0.6
v -2.1 0.8 -0.6
v -2.1 0.9 -0.6
v -2.1 1.1 -0.6
v -2.1 1.2 -0.6
v -2 0.3 -0.6
v -2 0.4 -0.6
v -2 0.5 -0.6
v -2 0.6 -0.6
v -2 0.7 -0.6
v -2 0.8 -0.6
v -2 1 -0.6
v -2 1.1 -0.6
v -1.9 0.3 -0.6
v -1.9 0.4 -0.6
v -1.9 0.6 -0.6
v -1.9 0.7 -0.6
v -1.9 0.8 -0.6
v -1.9 0.9 -0.6
v -1.9 1.1 -0.6
v -1.9 1.2 -0.6
v -1.9 1.3 -0.6
v -1.8 0.7 -0.6
v -1.8 0.8 -0.6
v -1.8 1 -0.6
v -1.8 1.1 -0.6
v -1.7 0.5 -0.6
v -1.7 0.6 -0.6
v -1.7 0.7 -0.6
v -1.7 1 -0.6
v -1.7 1.2 -0.6
v -1.7 1.3 -0.6
v -1.6 0.4 -0.6
v -1.6 0.5 -0.6
v -1.6 1 -0.6
v -1.6 1.1 -0.6
v -1.5 1.2 -0.6
v -1.5 1.3 -0.6
v -1.4 0.3 -0.6
v -1.4 0.4 -0.6
v -1.3 0.3 -0.6
v -1.3 0.4 -0.6
v -1.3 1.1 -0.6
v -1.3 1.2 -0.6
v -1.3 1.3 -0.6
v -1.3 1.4 -0.6
v -2.8 0.3 -0.7
v -2.8 0.4 -0.7
v -2.8 0.5 -0.7
v -2.8 0.6 -0.7
v -2.8 0.7 -0.7
v -2.8 0.8 -0.7
v -2.8 0.9 -0.7
v -2.8 1 -0.7
v -2.8 1.1 -0.7
v -2.8 1.2 -0.7
v -2.8 1.3 -0.7
v -2.8 1.4 -0.7
v -2.7 0.3 -0.7
v -2.7 0.4 -0.7
v -2.7 0.5 -0.7
v -2.7 0.6 -0.7
v -2.7 0.7 -0.7
v -2.7 0.8 -0.7
v -2.7 0.9 -0.7
v -2.7 1 -0.7
v -2.7 1.1 -0.7
v -2.7 1.2 -0.7
v -2.7 1.3 -0.7
v -2.7 1.4 -0.7
v -2.6 0.9 -0.7
v -2.6 1 -0.7
v -2.6 1.1 -0.7
v -2.5 0.3 -0.7
v -2.5 0.4 -0.7
v -2.5 0.5 -0.7
v -2.5 0.6 -0.7
v -2.5 0.7 -0.7
v -2.5 0.8 -0.7
v -2.5 0.9 -0.7
v -2.5 1 -0.7
v -2.5 1.1 -0.7
v -2.5 1.2 -0.7
v -2.4 0.3 -0.7
v -2.4 0.4 -0.7
v -2.4 0.5 -0.7
v -2.4 0.8 -0.7
v -2.4 0.9 -0.7
v -2.4 1.1 -0.7
v -2.4 1.2 -0.7
v -2.3 0.7 -0.7
v -2.3 0.8 -0.7
v -2.3 0.9 -0.7
v -2.3 1 -0.7
v -2.3 1.1 -0.7
v -2.2 0.3 -0.7
v -2.2 0.4 -0.7
v -2.2 0.5 -0.7
v -2.2 0.7 -0.7
v -2.2 0.8 -0.7
v -2.2 1.1 -0.7
v -2.2 1.2 -0.7
v -2.1 0.8 -0.7
v -2.1 0.9 -0.7
v -2.1 1.1 -0.7
v -2.1 1.2 -0.7
v -2 0.3 -0.7
v -2 0.4 -0.7
v -2 0.5 -0.7
v -2 0.6 -0.7
v -2 0.7 -0.7
v -2 0.8 -0.7
v -2 1 -0.7
v -2 1.1 -0.7
v -1.9 0.3 -0.7
v -1.9 0.4 -0.7
v -1.9 0.6 -0.7
v -1.9 0.7 -0.7
v -1.9 0.8 -0.7
v -1.9 0.9 -0.7
v -1.9 1.1 -0.7
v -1.9 1.2 -0.7
v -1.9 1.3 -0.7
v -1.8 0.7 -0.7
v -1.8 0.8 -0.7
v -1.8 1 -0.7
v -1.8 1.1 -0.7
v -1.7 0.5 -0.7
v -1.7 0.6 -0.7
v -1.7 0.7 -0.7
v -1.7 1 -0.7
v -1.7 1.2 -0.7
v -1.7 1.3 -0.7
v -1.6 0.4 -0.7
v -1.6 0.5 -0.7
v -1.6 1 -0.7
v -1.6 1.1 -0.7
v -1.5 1.2 -0.7
v -1.5 1.3 -0.7
v -1.4 0.3 -0.7
v -1.4 0.4 -0.7
v -1.3 0.3 -0.7
v -1.3 0.4 -0.7
v -1.3 1.1 -0.7
v -1.3 1.2 -0.7
v -1.3 1.3 -0.7
v -1.3 1.4 -0.7
v -2.8 0.3 -0.6
v -2.7 0.3 -0.6
v -2.5 0.3 -0.6
v -2.4 0.3 -0.6
v -2.2 0.3 -0.6
v -2 0.3 -0.6
v -1.9 0.3 -0.6
v -1.4 0.3 -0.6
v -1.3 0.3 -0.6
v -2.8 0.3 -0.7
v -2.7 0.3 -0.7
v -2.5 0.3 -0.7
v -2.4 0.3 -0.7
v -2.2 0.3 -0.7
v -2 0.3 -0.7
v -1.9 0.3 -0.7
v -1.4 0.3 -0.7
v -1.3 0.3 -0.7
v -1.7 1 -0.6
v -1.6 1 -0.6
v -1.7 1 -0.7
v -1.6 1 -0.7
v -1.6 1.1 -0.6
v -1.3 1.1 -0.6
v -1.6 1.1 -0.7
v -1.3 1.1 -0.7
v -1.6 0.4 -0.6
v -1.4 0.4 -0.6
v -1.3 0.4 -0.6
v -1.6 0.4 -0.7
v -1.4 0.4 -0.7
v -1.3 0.4 -0.7
v -1.7 0.5 -0.6
v -1.6 0.5 -0.6
v -1.7 0.5 -0.7
v -1.6 0.5 -0.7
v -2.8 1.4 -0.6
v -2.7 1.4 -0.6
v -1.3 1.4 -0.6
v -2.8 1.4 -0.7
v -2.7 1.4 -0.7
v -1.3 1.4 -0.7

# faces
f 3/1/1 2/1/1 1/1/1
f 4/1/1 2/1/1 3/1/1
f 5/4/1 4/4/1 3/4/1
f 6/4/1 4/4/1 5/4/1
f 7/1/1 6/1/1 5/1/1
f 8/1/1 6/1/1 7/1/1
f 9/4/1 8/4/1 7/4/1
f 10/4/1 8/4/1 9/4/1
f 11/1/1 10/1/1 9/1/1
f 12/1/1 10/1/1 11/1/1
f 13/4/1 12/4/1 11/4/1
f 14/4/1 12/4/1 13/4/1
f 15/1/1 14/1/1 13/1/1
f 16/1/1 14/1/1 15/1/1
f 17/4/1 16/4/1 15/4/1
f 18/4/1 16/4/1 17/4/1
f 19/1/1 18/1/1 17/1/1
f 20/1/1 18/1/1 19/1/1
f 21/4/1 20/4/1 19/4/1
f 22/4/1 20/4/1 21/4/1
f 23/1/1 22/1/1 21/1/1
f 24/1/1 22/1/1 23/1/1
f 25/1/2 26/1/2 27/1/2
f 27/1/2 26/1/2 28/1/2
f 27/2/2 28/2/2 29/2/2
f 29/2/2 28/2/2 30/2/2
f 29/4/2 30/4/2 31/4/2
f 31/4/2 30/4/2 32/4/2
f 33/4/2 34/4/2 35/4/2
f 35/4/2 34/4/2 36/4/2
f 37/4/2 38/4/2 39/4/2
f 39/4/2 38/4/2 40/4/2
f 41/1/2 42/1/2 43/1/2
f 43/1/2 42/1/2 44/1/2
f 45/4/2 46/4/2 47/4/2
f 47/4/2 46/4/2 48/4/2
f 47/2/2 48/2/2 49/2/2
f 49/2/2 48/2/2 50/2/2
f 49/3/2 50/3/2 51/3/2
f 51/3/2 50/3/2 52/3/2
f 65/1/3 54/1/3 53/1/3
f 66/4/3 55/4/3 54/4/3
f 66/1/3 54/1/3 65/1/3
f 67/1/3 56/1/3 55/1/3
f 67/4/3 55/4/3 66/4/3
f 68/4/3 57/4/3 56/4/3
f 68/1/3 56/1/3 67/1/3
f 69/1/3 58/1/3 57/1/3
f 69/4/3 57/4/3 68/4/3
f 70/4/3 59/4/3 58/4/3
f 70/1/3 58/1/3 69/1/3
f 71/1/3 60/1/3 59/1/3
f 71/4/3 59/4/3 70/4/3
f 72/4/3 61/4/3 60/4/3
f 72/1/3 60/1/3 71/1/3
f 73/1/3 62/1/3 61/1/3
f 73/4/3 61/4/3 72/4/3
f 74/4/3 63/4/3 62/4/3
f 74/1/3 62/1/3 73/1/3
f 75/1/3 64/1/3 63/1/3
f 75/4/3 63/4/3 74/4/3
f 76/1/3 64/1/3 75/1/3
f 77/4/3 70/4/3 69/4/3
f 77/4/3 71/4/3 70/4/3
f 77/4/3 72/4/3 71/4/3
f 77/4/3 73/4/3 72/4/3
f 78/4/3 73/4/3 77/4/3
f 79/2/3 74/2/3 73/2/3
f 79/4/3 73/4/3 78/4/3
f 80/2/3 66/2/3 65/2/3
f 81/1/3 67/1/3 66/1/3
f 81/2/3 66/2/3 80/2/3
f 82/4/3 68/4/3 67/4/3
f 82/1/3 67/1/3 81/1/3
f 83/1/3 69/1/3 68/1/3
f 83/4/3 68/4/3 82/4/3
f 84/4/3 77/4/3 69/4/3
f 84/1/3 69/1/3 83/1/3
f 85/4/3 77/4/3 84/4/3
f 86/2/3 78/2/3 77/2/3
f 86/4/3 77/4/3 85/4/3
f 87/1/3 79/1/3 78/1/3
f 87/2/3 78/2/3 86/2/3
f 88/2/3 74/2/3 79/2/3
f 88/1/3 79/1/3 87/1/3
f 89/4/3 75/4/3 74/4/3
f 89/2/3 74/2/3 88/2/3
f 90/4/3 81/4/3 80/4/3
f 90/4/3 82/4/3 81/4/3
f 90/4/3 83/4/3 82/4/3
f 90/4/3 84/4/3 83/4/3
f 91/4/3 84/4/3 90/4/3
f 92/4/3 84/4/3 91/4/3
f 93/1/3 85/1/3 84/1/3
f 93/4/3 87/4/3 86/4/3
f 93/4/3 86/4/3 85/4/3
f 94/4/3 87/4/3 93/4/3
f 95/4/3 89/4/3 88/4/3
f 95/1/3 88/1/3 87/1/3
f 96/4/3 75/4/3 89/4/3
f 96/4/3 89/4/3 95/4/3
f 97/4/3 84/4/3 92/4/3
f 97/1/3 93/1/3 84/1/3
f 98/2/3 94/2/3 93/2/3
f 98/1/3 93/1/3 97/1/3
f 99/4/3 87/4/3 94/4/3
f 99/2/3 94/2/3 98/2/3
f 100/1/3 95/1/3 87/1/3
f 100/4/3 87/4/3 99/4/3
f 100/1/3 96/1/3 95/1/3
f 101/1/3 96/1/3 100/1/3
f 102/1/3 91/1/3 90/1/3
f 103/2/3 92/2/3 91/2/3
f 103/1/3 91/1/3 102/1/3
f 104/4/3 97/4/3 92/4/3
f 104/2/3 92/2/3 103/2/3
f 105/2/3 98/2/3 97/2/3
f 105/4/3 97/4/3 104/4/3
f 106/4/3 99/4/3 98/4/3
f 106/2/3 98/2/3 105/2/3
f 106/4/3 100/4/3 99/4/3
f 106/4/3 101/4/3 100/4/3
f 107/1/3 96/1/3 101/1/3
f 107/4/3 101/4/3 106/4/3
f 108/4/3 75/4/3 96/4/3
f 108/1/3 96/1/3 107/1/3
f 109/4/3 107/4/3 106/4/3
f 109/4/3 105/4/3 104/4/3
f 109/4/3 108/4/3 107/4/3
f 109/4/3 104/4/3 103/4/3
f 109/4/3 106/4/3 105/4/3
f 110/4/3 108/4/3 109/4/3
f 111/4/3 108/4/3 110/4/3
f 112/4/3 75/4/3 108/4/3
f 112/4/3 108/4/3 111/4/3
f 113/2/3 103/2/3 102/2/3
f 114/4/3 109/4/3 103/4/3
f 114/2/3 103/2/3 113/2/3
f 115/4/3 109/4/3 114/4/3
f 116/4/3 109/4/3 115/4/3
f 117/4/3 109/4/3 116/4/3
f 118/2/3 110/2/3 109/2/3
f 118/4/3 109/4/3 117/4/3
f 119/4/3 111/4/3 110/4/3
f 120/2/3 112/2/3 111/2/3
f 120/4/3 111/4/3 119/4/3
f 121/1/3 114/1/3 113/1/3
f 122/4/3 115/4/3 114/4/3
f 122/1/3 114/1/3 121/1/3
f 123/4/3 117/4/3 116/4/3
f 123/1/3 116/1/3 115/1/3
f 124/1/3 118/1/3 117/1/3
f 124/4/3 117/4/3 123/4/3
f 125/2/3 110/2/3 118/2/3
f 125/1/3 118/1/3 124/1/3
f 126/4/3 119/4/3 110/4/3
f 126/2/3 110/2/3 125/2/3
f 127/2/3 112/2/3 120/2/3
f 127/1/3 120/1/3 119/1/3
f 128/4/3 75/4/3 112/4/3
f 128/2/3 112/2/3 127/2/3
f 129/3/3 76/3/3 75/3/3
f 129/4/3 75/4/3 128/4/3
f 130/2/3 124/2/3 123/2/3
f 130/1/3 125/1/3 124/1/3
f 131/4/3 126/4/3 125/4/3
f 131/1/3 125/1/3 130/1/3
f 132/1/3 127/1/3 119/1/3
f 132/4/3 126/4/3 131/4/3
f 132/4/3 119/4/3 126/4/3
f 133/4/3 128/4/3 127/4/3
f 133/1/3 127/1/3 132/1/3
f 134/4/3 115/4/3 122/4/3
f 134/4/3 122/4/3 121/4/3
f 134/1/3 123/1/3 115/1/3
f 135/2/3 130/2/3 123/2/3
f 135/1/3 123/1/3 134/1/3
f 136/4/3 131/4/3 130/4/3
f 136/2/3 130/2/3 135/2/3
f 136/4/3 132/4/3 131/4/3
f 136/4/3 133/4/3 132/4/3
f 137/4/3 133/4/3 136/4/3
f 138/4/3 128/4/3 133/4/3
f 138/4/3 133/4/3 137/4/3
f 138/1/3 129/1/3 128/1/3
f 139/3/3 76/3/3 129/3/3
f 139/1/3 129/1/3 138/1/3
f 140/4/3 134/4/3 121/4/3
f 141/4/3 134/4/3 140/4/3
f 142/4/3 138/4/3 137/4/3
f 142/4/3 139/4/3 138/4/3
f 143/4/3 139/4/3 142/4/3
f 144/4/3 139/4/3 143/4/3
f 145/3/3 76/3/3 139/3/3
f 145/4/3 139/4/3 144/4/3
f 146/4/3 140/4/3 121/4/3
f 147/4/3 140/4/3 146/4/3
f 148/1/3 147/1/3 146/1/3
f 149/1/3 147/1/3 148/1/3
f 150/4/3 144/4/3 143/4/3
f 151/2/3 145/2/3 144/2/3
f 151/4/3 144/4/3 150/4/3
f 152/3/3 76/3/3 145/3/3
f 152/2/3 145/2/3 151/2/3
f 153/3/3 76/3/3 152/3/3
f 154/1/4 155/1/4 166/1/4
f 155/4/4 156/4/4 167/4/4
f 166/1/4 155/1/4 167/1/4
f 156/1/4 157/1/4 168/1/4
f 167/4/4 156/4/4 168/4/4
f 157/4/4 158/4/4 169/4/4
f 168/1/4 157/1/4 169/1/4
f 158/1/4 159/1/4 170/1/4
f 169/4/4 158/4/4 170/4/4
f 159/4/4 160/4/4 171/4/4
f 170/1/4 159/1/4 171/1/4
f 160/1/4 161/1/4 172/1/4
f 171/4/4 160/4/4 172/4/4
f 161/4/4 162/4/4 173/4/4
f 172/1/4 161/1/4 173/1/4
f 162/1/4 163/1/4 174/1/4
f 173/4/4 162/4/4 174/4/4
f 163/4/4 164/4/4 175/4/4
f 174/1/4 163/1/4 175/1/4
f 164/1/4 165/1/4 176/1/4
f 175/4/4 164/4/4 176/4/4
f 176/1/4 165/1/4 177/1/4
f 170/4/4 171/4/4 178/4/4
f 171/4/4 172/4/4 178/4/4
f 172/4/4 173/4/4 178/4/4
f 173/4/4 174/4/4 178/4/4
f 178/4/4 174/4/4 179/4/4
f 174/2/4 175/2/4 180/2/4
f 179/4/4 174/4/4 180/4/4
f 166/2/4 167/2/4 181/2/4
f 167/1/4 168/1/4 182/1/4
f 181/2/4 167/2/4 182/2/4
f 168/4/4 169/4/4 183/4/4
f 182/1/4 168/1/4 183/1/4
f 169/1/4 170/1/4 184/1/4
f 183/4/4 169/4/4 184/4/4
f 170/4/4 178/4/4 185/4/4
f 184/1/4 170/1/4 185/1/4
f 185/4/4 178/4/4 186/4/4
f 178/2/4 179/2/4 187/2/4
f 186/4/4 178/4/4 187/4/4
f 179/1/4 180/1/4 188/1/4
f 187/2/4 179/2/4 188/2/4
f 180/2/4 175/2/4 189/2/4
f 188/1/4 180/1/4 189/1/4
f 175/4/4 176/4/4 190/4/4
f 189/2/4 175/2/4 190/2/4
f 181/4/4 182/4/4 191/4/4
f 182/4/4 183/4/4 191/4/4
f 183/4/4 184/4/4 191/4/4
f 184/4/4 185/4/4 191/4/4
f 191/4/4 185/4/4 192/4/4
f 192/4/4 185/4/4 193/4/4
f 185/1/4 186/1/4 194/1/4
f 187/4/4 188/4/4 194/4/4
f 186/4/4 187/4/4 194/4/4
f 194/4/4 188/4/4 195/4/4
f 189/4/4 190/4/4 196/4/4
f 188/1/4 189/1/4 196/1/4
f 190/4/4 176/4/4 197/4/4
f 196/4/4 190/4/4 197/4/4
f 193/4/4 185/4/4 198/4/4
f 185/1/4 194/1/4 198/1/4
f 194/2/4 195/2/4 199/2/4
f 198/1/4 194/1/4 199/1/4
f 195/4/4 188/4/4 200/4/4
f 199/2/4 195/2/4 200/2/4
f 188/1/4 196/1/4 201/1/4
f 200/4/4 188/4/4 201/4/4
f 196/1/4 197/1/4 201/1/4
f 201/1/4 197/1/4 202/1/4
f 191/1/4 192/1/4 203/1/4
f 192/2/4 193/2/4 204/2/4
f 203/1/4 192/1/4 204/1/4
f 193/4/4 198/4/4 205/4/4
f 204/2/4 193/2/4 205/2/4
f 198/2/4 199/2/4 206/2/4
f 205/4/4 198/4/4 206/4/4
f 199/4/4 200/4/4 207/4/4
f 206/2/4 199/2/4 207/2/4
f 200/4/4 201/4/4 207/4/4
f 201/4/4 202/4/4 207/4/4
f 202/1/4 197/1/4 208/1/4
f 207/4/4 202/4/4 208/4/4
f 197/4/4 176/4/4 209/4/4
f 208/1/4 197/1/4 209/1/4
f 207/4/4 208/4/4 210/4/4
f 205/4/4 206/4/4 210/4/4
f 208/4/4 209/4/4 210/4/4
f 204/4/4 205/4/4 210/4/4
f 206/4/4 207/4/4 210/4/4
f 210/4/4 209/4/4 211/4/4
f 211/4/4 209/4/4 212/4/4
f 209/4/4 176/4/4 213/4/4
f 212/4/4 209/4/4 213/4/4
f 203/2/4 204/2/4 214/2/4
f 204/4/4 210/4/4 215/4/4
f 214/2/4 204/2/4 215/2/4
f 215/4/4 210/4/4 216/4/4
f 216/4/4 210/4/4 217/4/4
f 217/4/4 210/4/4 218/4/4
f 210/2/4 211/2/4 219/2/4
f 218/4/4 210/4/4 219/4/4
f 211/4/4 212/4/4 220/4/4
f 212/2/4 213/2/4 221/2/4
f 220/4/4 212/4/4 221/4/4
f 214/1/4 215/1/4 222/1/4
f 215/4/4 216/4/4 223/4/4
f 222/1/4 215/1/4 223/1/4
f 217/4/4 218/4/4 224/4/4
f 216/1/4 217/1/4 224/1/4
f 218/1/4 219/1/4 225/1/4
f 224/4/4 218/4/4 225/4/4
f 219/2/4 211/2/4 226/2/4
f 225/1/4 219/1/4 226/1/4
f 211/4/4 220/4/4 227/4/4
f 226/2/4 211/2/4 227/2/4
f 221/2/4 213/2/4 228/2/4
f 220/1/4 221/1/4 228/1/4
f 213/4/4 176/4/4 229/4/4
f 228/2/4 213/2/4 229/2/4
f 176/3/4 177/3/4 230/3/4
f 229/4/4 176/4/4 230/4/4
f 224/2/4 225/2/4 231/2/4
f 225/1/4 226/1/4 231/1/4
f 226/4/4 227/4/4 232/4/4
f 231/1/4 226/1/4 232/1/4
f 220/1/4 228/1/4 233/1/4
f 232/4/4 227/4/4 233/4/4
f 227/4/4 220/4/4 233/4/4
f 228/4/4 229/4/4 234/4/4
f 233/1/4 228/1/4 234/1/4
f 223/4/4 216/4/4 235/4/4
f 222/4/4 223/4/4 235/4/4
f 216/1/4 224/1/4 235/1/4
f 224/2/4 231/2/4 236/2/4
f 235/1/4 224/1/4 236/1/4
f 231/4/4 232/4/4 237/4/4
f 236/2/4 231/2/4 237/2/4
f 232/4/4 233/4/4 237/4/4
f 233/4/4 234/4/4 237/4/4
f 237/4/4 234/4/4 238/4/4
f 234/4/4 229/4/4 239/4/4
f 238/4/4 234/4/4 239/4/4
f 229/1/4 230/1/4 239/1/4
f 230/3/4 177/3/4 240/3/4
f 239/1/4 230/1/4 240/1/4
f 222/4/4 235/4/4 241/4/4
f 241/4/4 235/4/4 242/4/4
f 238/4/4 239/4/4 243/4/4
f 239/4/4 240/4/4 243/4/4
f 243/4/4 240/4/4 244/4/4
f 244/4/4 240/4/4 245/4/4
f 240/3/4 177/3/4 246/3/4
f 245/4/4 240/4/4 246/4/4
f 222/4/4 241/4/4 247/4/4
f 247/4/4 241/4/4 248/4/4
f 247/1/4 248/1/4 249/1/4
f 249/1/4 248/1/4 250/1/4
f 244/4/4 245/4/4 251/4/4
f 245/2/4 246/2/4 252/2/4
f 251/4/4 245/4/4 252/4/4
f 246/3/4 177/3/4 253/3/4
f 252/2/4 246/2/4 253/2/4
f 253/3/4 177/3/4 254/3/4
f 264/1/5 256/1/5 255/1/5
f 265/2/5 257/2/5 256/2/5
f 265/1/5 256/1/5 264/1/5
f 266/4/5 258/4/5 257/4/5
f 266/2/5 257/2/5 265/2/5
f 267/1/5 259/1/5 258/1/5
f 267/4/5 258/4/5 266/4/5
f 268/2/5 260/2/5 259/2/5
f 268/1/5 259/1/5 267/1/5
f 269/1/5 261/1/5 260/1/5
f 269/2/5 260/2/5 268/2/5
f 270/4/5 262/4/5 261/4/5
f 270/1/5 261/1/5 269/1/5
f 271/1/5 263/1/5 262/1/5
f 271/4/5 262/4/5 270/4/5
f 272/1/5 263/1/5 271/1/5
f 275/4/5 274/4/5 273/4/5
f 276/4/5 274/4/5 275/4/5
f 279/4/5 278/4/5 277/4/5
f 280/4/5 278/4/5 279/4/5
f 281/4/6 282/4/6 284/4/6
f 282/1/6 283/1/6 285/1/6
f 284/4/6 282/4/6 285/4/6
f 285/1/6 283/1/6 286/1/6
f 287/4/6 288/4/6 289/4/6
f 289/4/6 288/4/6 290/4/6
f 291/1/6 292/1/6 294/1/6
f 292/3/6 293/3/6 295/3/6
f 294/1/6 292/1/6 295/1/6
f 295/3/6 293/3/6 296/3/6
