# MagicaVoxel @ Ephtracy

# group
o 

# material
mtllib house-1_v4-42.mtl
usemtl palette

# normals
vn -1 0 0
vn 1 0 0
vn 0 0 1
vn 0 0 -1
vn 0 -1 0
vn 0 1 0

# texcoords
vt 0.505859 0.5
vt 0.958984 0.5
vt 0.994141 0.5

# verts
v 1.6 1.6 -1.1
v 1.6 1.6 -1.3
v 1.6 2.3 -1.1
v 1.6 2.3 -1.3
v 1.7 1.5 -1.1
v 1.7 1.5 -1.3
v 1.7 1.6 -1.1
v 1.7 1.6 -1.3
v 1.7 2.3 -1.1
v 1.7 2.3 -1.3
v 1.7 2.4 -1.1
v 1.7 2.4 -1.3
v 2.2 1.6 -1.1
v 2.2 1.6 -1.2
v 2.2 1.7 -1.2
v 2.2 2 -1.2
v 2.2 2.1 -1.2
v 2.2 2.3 -1.1
v 2.2 2.3 -1.2
v 1.7 1.6 -1.1
v 1.7 1.6 -1.2
v 1.7 1.9 -1.2
v 1.7 2 -1.2
v 1.7 2.1 -1.2
v 1.7 2.2 -1.2
v 1.7 2.3 -1.1
v 1.7 2.3 -1.2
v 2.2 1.5 -1.1
v 2.2 1.5 -1.3
v 2.2 1.6 -1.1
v 2.2 1.6 -1.3
v 2.2 2.3 -1.1
v 2.2 2.3 -1.3
v 2.2 2.4 -1.1
v 2.2 2.4 -1.3
v 2.3 1.6 -1.1
v 2.3 1.6 -1.3
v 2.3 2.3 -1.1
v 2.3 2.3 -1.3
v 1.6 1.6 -1.1
v 1.6 2.3 -1.1
v 1.7 1.5 -1.1
v 1.7 1.6 -1.1
v 1.7 2.3 -1.1
v 1.7 2.4 -1.1
v 2.2 1.5 -1.1
v 2.2 1.6 -1.1
v 2.2 2.3 -1.1
v 2.2 2.4 -1.1
v 2.3 1.6 -1.1
v 2.3 2.3 -1.1
v 1.7 1.6 -1.2
v 1.7 1.9 -1.2
v 1.7 2 -1.2
v 1.7 2.1 -1.2
v 1.7 2.2 -1.2
v 1.7 2.3 -1.2
v 1.8 1.6 -1.2
v 1.8 1.7 -1.2
v 1.8 1.9 -1.2
v 1.8 2 -1.2
v 1.8 2.1 -1.2
v 1.8 2.2 -1.2
v 1.8 2.3 -1.2
v 1.9 1.6 -1.2
v 1.9 1.7 -1.2
v 1.9 1.8 -1.2
v 1.9 2 -1.2
v 1.9 2.1 -1.2
v 1.9 2.2 -1.2
v 1.9 2.3 -1.2
v 2 1.7 -1.2
v 2 1.8 -1.2
v 2 2 -1.2
v 2 2.1 -1.2
v 2 2.2 -1.2
v 2 2.3 -1.2
v 2.1 1.6 -1.2
v 2.1 1.7 -1.2
v 2.1 1.8 -1.2
v 2.1 2 -1.2
v 2.1 2.1 -1.2
v 2.1 2.2 -1.2
v 2.1 2.3 -1.2
v 2.2 1.6 -1.2
v 2.2 1.7 -1.2
v 2.2 2 -1.2
v 2.2 2.1 -1.2
v 2.2 2.3 -1.2
v 1.6 1.6 -1.3
v 1.6 2.3 -1.3
v 1.7 1.5 -1.3
v 1.7 1.6 -1.3
v 1.7 1.9 -1.3
v 1.7 2 -1.3
v 1.7 2.1 -1.3
v 1.7 2.2 -1.3
v 1.7 2.3 -1.3
v 1.7 2.4 -1.3
v 1.8 1.6 -1.3
v 1.8 1.7 -1.3
v 1.8 1.9 -1.3
v 1.8 2 -1.3
v 1.8 2.1 -1.3
v 1.8 2.2 -1.3
v 1.8 2.3 -1.3
v 1.9 1.6 -1.3
v 1.9 1.7 -1.3
v 1.9 1.8 -1.3
v 1.9 2 -1.3
v 1.9 2.1 -1.3
v 1.9 2.2 -1.3
v 1.9 2.3 -1.3
v 2 1.7 -1.3
v 2 1.8 -1.3
v 2 2 -1.3
v 2 2.1 -1.3
v 2 2.2 -1.3
v 2 2.3 -1.3
v 2.1 1.6 -1.3
v 2.1 1.7 -1.3
v 2.1 1.8 -1.3
v 2.1 2 -1.3
v 2.1 2.1 -1.3
v 2.1 2.2 -1.3
v 2.1 2.3 -1.3
v 2.2 1.5 -1.3
v 2.2 1.6 -1.3
v 2.2 1.7 -1.3
v 2.2 2 -1.3
v 2.2 2.1 -1.3
v 2.2 2.3 -1.3
v 2.2 2.4 -1.3
v 2.3 1.6 -1.3
v 2.3 2.3 -1.3
v 1.7 1.5 -1.1
v 2.2 1.5 -1.1
v 1.7 1.5 -1.3
v 2.2 1.5 -1.3
v 1.6 1.6 -1.1
v 1.7 1.6 -1.1
v 2.2 1.6 -1.1
v 2.3 1.6 -1.1
v 1.6 1.6 -1.3
v 1.7 1.6 -1.3
v 2.2 1.6 -1.3
v 2.3 1.6 -1.3
v 1.7 2.3 -1.1
v 2.2 2.3 -1.1
v 1.7 2.3 -1.2
v 1.8 2.3 -1.2
v 1.9 2.3 -1.2
v 2 2.3 -1.2
v 2.1 2.3 -1.2
v 2.2 2.3 -1.2
v 1.7 1.6 -1.1
v 2.2 1.6 -1.1
v 1.7 1.6 -1.2
v 1.8 1.6 -1.2
v 1.9 1.6 -1.2
v 2.1 1.6 -1.2
v 2.2 1.6 -1.2
v 1.6 2.3 -1.1
v 1.7 2.3 -1.1
v 2.2 2.3 -1.1
v 2.3 2.3 -1.1
v 1.6 2.3 -1.3
v 1.7 2.3 -1.3
v 2.2 2.3 -1.3
v 2.3 2.3 -1.3
v 1.7 2.4 -1.1
v 2.2 2.4 -1.1
v 1.7 2.4 -1.3
v 2.2 2.4 -1.3

# faces
f 3/1/1 2/1/1 1/1/1
f 4/1/1 2/1/1 3/1/1
f 7/1/1 6/1/1 5/1/1
f 8/1/1 6/1/1 7/1/1
f 11/1/1 10/1/1 9/1/1
f 12/1/1 10/1/1 11/1/1
f 15/1/1 14/1/1 13/1/1
f 16/1/1 15/1/1 13/1/1
f 17/1/1 16/1/1 13/1/1
f 18/1/1 17/1/1 13/1/1
f 19/1/1 17/1/1 18/1/1
f 20/1/2 21/1/2 22/1/2
f 20/1/2 22/1/2 23/1/2
f 20/1/2 23/1/2 24/1/2
f 20/1/2 24/1/2 25/1/2
f 20/1/2 25/1/2 26/1/2
f 26/1/2 25/1/2 27/1/2
f 28/1/2 29/1/2 30/1/2
f 30/1/2 29/1/2 31/1/2
f 32/1/2 33/1/2 34/1/2
f 34/1/2 33/1/2 35/1/2
f 36/1/2 37/1/2 38/1/2
f 38/1/2 37/1/2 39/1/2
f 43/1/3 41/1/3 40/1/3
f 44/1/3 41/1/3 43/1/3
f 46/1/3 43/1/3 42/1/3
f 47/1/3 43/1/3 46/1/3
f 48/1/3 45/1/3 44/1/3
f 49/1/3 45/1/3 48/1/3
f 50/1/3 48/1/3 47/1/3
f 51/1/3 48/1/3 50/1/3
f 58/3/3 53/3/3 52/3/3
f 59/3/3 53/3/3 58/3/3
f 60/2/3 54/2/3 53/2/3
f 60/3/3 53/3/3 59/3/3
f 61/3/3 55/3/3 54/3/3
f 61/2/3 54/2/3 60/2/3
f 62/2/3 56/2/3 55/2/3
f 62/3/3 55/3/3 61/3/3
f 63/3/3 57/3/3 56/3/3
f 63/2/3 56/2/3 62/2/3
f 64/3/3 57/3/3 63/3/3
f 65/2/3 59/2/3 58/2/3
f 66/3/3 60/3/3 59/3/3
f 66/2/3 59/2/3 65/2/3
f 66/3/3 61/3/3 60/3/3
f 67/3/3 61/3/3 66/3/3
f 68/2/3 62/2/3 61/2/3
f 68/3/3 61/3/3 67/3/3
f 69/3/3 63/3/3 62/3/3
f 69/2/3 62/2/3 68/2/3
f 70/2/3 64/2/3 63/2/3
f 70/3/3 63/3/3 69/3/3
f 71/2/3 64/2/3 70/2/3
f 72/2/3 67/2/3 66/2/3
f 72/3/3 66/3/3 65/3/3
f 73/3/3 69/3/3 68/3/3
f 73/2/3 67/2/3 72/2/3
f 73/3/3 68/3/3 67/3/3
f 74/3/3 69/3/3 73/3/3
f 75/2/3 70/2/3 69/2/3
f 75/3/3 69/3/3 74/3/3
f 76/3/3 71/3/3 70/3/3
f 76/2/3 70/2/3 75/2/3
f 77/3/3 71/3/3 76/3/3
f 78/3/3 72/3/3 65/3/3
f 78/3/3 73/3/3 72/3/3
f 79/3/3 73/3/3 78/3/3
f 80/2/3 74/2/3 73/2/3
f 80/3/3 73/3/3 79/3/3
f 81/3/3 75/3/3 74/3/3
f 81/2/3 74/2/3 80/2/3
f 81/3/3 76/3/3 75/3/3
f 82/3/3 76/3/3 81/3/3
f 83/2/3 77/2/3 76/2/3
f 83/3/3 76/3/3 82/3/3
f 84/2/3 77/2/3 83/2/3
f 85/2/3 79/2/3 78/2/3
f 86/3/3 80/3/3 79/3/3
f 86/2/3 79/2/3 85/2/3
f 86/3/3 81/3/3 80/3/3
f 87/2/3 82/2/3 81/2/3
f 87/3/3 81/3/3 86/3/3
f 88/3/3 84/3/3 83/3/3
f 88/2/3 82/2/3 87/2/3
f 88/3/3 83/3/3 82/3/3
f 89/3/3 84/3/3 88/3/3
f 90/1/4 91/1/4 93/1/4
f 93/1/4 91/1/4 94/1/4
f 94/1/4 91/1/4 95/1/4
f 95/1/4 91/1/4 96/1/4
f 96/1/4 91/1/4 97/1/4
f 97/1/4 91/1/4 98/1/4
f 92/1/4 93/1/4 100/1/4
f 93/3/4 94/3/4 100/3/4
f 100/3/4 94/3/4 101/3/4
f 94/2/4 95/2/4 102/2/4
f 101/3/4 94/3/4 102/3/4
f 95/3/4 96/3/4 103/3/4
f 102/2/4 95/2/4 103/2/4
f 96/2/4 97/2/4 104/2/4
f 103/3/4 96/3/4 104/3/4
f 97/3/4 98/3/4 105/3/4
f 104/2/4 97/2/4 105/2/4
f 98/1/4 99/1/4 106/1/4
f 105/3/4 98/3/4 106/3/4
f 100/2/4 101/2/4 107/2/4
f 92/1/4 100/1/4 107/1/4
f 101/3/4 102/3/4 108/3/4
f 107/2/4 101/2/4 108/2/4
f 102/3/4 103/3/4 108/3/4
f 108/3/4 103/3/4 109/3/4
f 103/2/4 104/2/4 110/2/4
f 109/3/4 103/3/4 110/3/4
f 104/3/4 105/3/4 111/3/4
f 110/2/4 104/2/4 111/2/4
f 105/2/4 106/2/4 112/2/4
f 111/3/4 105/3/4 112/3/4
f 106/1/4 99/1/4 113/1/4
f 112/2/4 106/2/4 113/2/4
f 108/2/4 109/2/4 114/2/4
f 107/3/4 108/3/4 114/3/4
f 109/3/4 110/3/4 115/3/4
f 114/2/4 109/2/4 115/2/4
f 110/3/4 111/3/4 115/3/4
f 115/3/4 111/3/4 116/3/4
f 111/2/4 112/2/4 117/2/4
f 116/3/4 111/3/4 117/3/4
f 112/3/4 113/3/4 118/3/4
f 117/2/4 112/2/4 118/2/4
f 113/1/4 99/1/4 119/1/4
f 118/3/4 113/3/4 119/3/4
f 107/3/4 114/3/4 120/3/4
f 92/1/4 107/1/4 120/1/4
f 114/3/4 115/3/4 120/3/4
f 120/3/4 115/3/4 121/3/4
f 115/2/4 116/2/4 122/2/4
f 121/3/4 115/3/4 122/3/4
f 117/3/4 118/3/4 123/3/4
f 122/2/4 116/2/4 123/2/4
f 116/3/4 117/3/4 123/3/4
f 123/3/4 118/3/4 124/3/4
f 118/2/4 119/2/4 125/2/4
f 124/3/4 118/3/4 125/3/4
f 119/1/4 99/1/4 126/1/4
f 125/2/4 119/2/4 126/2/4
f 92/1/4 120/1/4 127/1/4
f 120/2/4 121/2/4 128/2/4
f 127/1/4 120/1/4 128/1/4
f 121/3/4 122/3/4 129/3/4
f 128/2/4 121/2/4 129/2/4
f 122/3/4 123/3/4 129/3/4
f 123/2/4 124/2/4 130/2/4
f 129/3/4 123/3/4 130/3/4
f 124/3/4 125/3/4 131/3/4
f 130/2/4 124/2/4 131/2/4
f 125/3/4 126/3/4 131/3/4
f 126/1/4 99/1/4 132/1/4
f 131/3/4 126/3/4 132/3/4
f 132/1/4 99/1/4 133/1/4
f 129/1/4 130/1/4 134/1/4
f 131/1/4 132/1/4 134/1/4
f 130/1/4 131/1/4 134/1/4
f 128/1/4 129/1/4 134/1/4
f 134/1/4 132/1/4 135/1/4
f 138/1/5 137/1/5 136/1/5
f 139/1/5 137/1/5 138/1/5
f 144/1/5 141/1/5 140/1/5
f 145/1/5 141/1/5 144/1/5
f 146/1/5 143/1/5 142/1/5
f 147/1/5 143/1/5 146/1/5
f 150/1/5 149/1/5 148/1/5
f 151/1/5 149/1/5 150/1/5
f 152/1/5 149/1/5 151/1/5
f 153/1/5 149/1/5 152/1/5
f 154/1/5 149/1/5 153/1/5
f 155/1/5 149/1/5 154/1/5
f 156/1/6 157/1/6 158/1/6
f 158/1/6 157/1/6 159/1/6
f 159/1/6 157/1/6 160/1/6
f 160/1/6 157/1/6 161/1/6
f 161/1/6 157/1/6 162/1/6
f 163/1/6 164/1/6 167/1/6
f 167/1/6 164/1/6 168/1/6
f 165/1/6 166/1/6 169/1/6
f 169/1/6 166/1/6 170/1/6
f 171/1/6 172/1/6 173/1/6
f 173/1/6 172/1/6 174/1/6
