# MagicaVoxel @ Ephtracy

# group
o 

# material
mtllib house-1_v4-43.mtl
usemtl palette

# normals
vn -1 0 0
vn 1 0 0
vn 0 0 1
vn 0 0 -1
vn 0 -1 0
vn 0 1 0

# texcoords
vt 0.505859 0.5
vt 0.923828 0.5
vt 0.958984 0.5
vt 0.994141 0.5

# verts
v 0.2 1.3 -1.1
v 0.2 1.3 -1.2
v 0.2 1.3 -1.3
v 0.2 1.7 -1.1
v 0.2 1.7 -1.2
v 0.2 1.7 -1.3
v 0.6 1.3 -1.1
v 0.6 1.3 -1.2
v 0.6 1.4 -1.2
v 0.6 1.7 -1.1
v 0.6 1.7 -1.2
v 0.3 1.3 -1.1
v 0.3 1.3 -1.2
v 0.3 1.5 -1.2
v 0.3 1.6 -1.2
v 0.3 1.7 -1.1
v 0.3 1.7 -1.2
v 0.7 1.3 -1.1
v 0.7 1.3 -1.2
v 0.7 1.3 -1.3
v 0.7 1.7 -1.1
v 0.7 1.7 -1.2
v 0.7 1.7 -1.3
v 0.2 1.3 -1.1
v 0.2 1.7 -1.1
v 0.3 1.3 -1.1
v 0.3 1.7 -1.1
v 0.6 1.3 -1.1
v 0.6 1.7 -1.1
v 0.7 1.3 -1.1
v 0.7 1.7 -1.1
v 0.3 1.3 -1.2
v 0.3 1.5 -1.2
v 0.3 1.6 -1.2
v 0.3 1.7 -1.2
v 0.4 1.5 -1.2
v 0.4 1.6 -1.2
v 0.4 1.7 -1.2
v 0.5 1.3 -1.2
v 0.5 1.4 -1.2
v 0.5 1.6 -1.2
v 0.5 1.7 -1.2
v 0.6 1.3 -1.2
v 0.6 1.4 -1.2
v 0.6 1.7 -1.2
v 0.2 1.3 -1.3
v 0.2 1.7 -1.3
v 0.3 1.3 -1.3
v 0.3 1.5 -1.3
v 0.3 1.6 -1.3
v 0.3 1.7 -1.3
v 0.4 1.5 -1.3
v 0.4 1.6 -1.3
v 0.4 1.7 -1.3
v 0.5 1.3 -1.3
v 0.5 1.4 -1.3
v 0.5 1.6 -1.3
v 0.5 1.7 -1.3
v 0.6 1.3 -1.3
v 0.6 1.4 -1.3
v 0.6 1.7 -1.3
v 0.7 1.3 -1.3
v 0.7 1.7 -1.3
v 0.2 1.3 -1.1
v 0.3 1.3 -1.1
v 0.6 1.3 -1.1
v 0.7 1.3 -1.1
v 0.2 1.3 -1.2
v 0.3 1.3 -1.2
v 0.5 1.3 -1.2
v 0.6 1.3 -1.2
v 0.7 1.3 -1.2
v 0.2 1.3 -1.3
v 0.3 1.3 -1.3
v 0.5 1.3 -1.3
v 0.6 1.3 -1.3
v 0.7 1.3 -1.3
v 0.2 1.7 -1.1
v 0.3 1.7 -1.1
v 0.6 1.7 -1.1
v 0.7 1.7 -1.1
v 0.2 1.7 -1.2
v 0.3 1.7 -1.2
v 0.4 1.7 -1.2
v 0.5 1.7 -1.2
v 0.6 1.7 -1.2
v 0.7 1.7 -1.2
v 0.2 1.7 -1.3
v 0.3 1.7 -1.3
v 0.4 1.7 -1.3
v 0.5 1.7 -1.3
v 0.6 1.7 -1.3
v 0.7 1.7 -1.3

# faces
f 4/1/1 2/1/1 1/1/1
f 5/2/1 3/2/1 2/2/1
f 5/1/1 2/1/1 4/1/1
f 6/2/1 3/2/1 5/2/1
f 9/1/1 8/1/1 7/1/1
f 10/1/1 9/1/1 7/1/1
f 11/1/1 9/1/1 10/1/1
f 12/1/2 13/1/2 14/1/2
f 12/1/2 14/1/2 15/1/2
f 12/1/2 15/1/2 16/1/2
f 16/1/2 15/1/2 17/1/2
f 18/1/2 19/1/2 21/1/2
f 19/2/2 20/2/2 22/2/2
f 21/1/2 19/1/2 22/1/2
f 22/2/2 20/2/2 23/2/2
f 26/1/3 25/1/3 24/1/3
f 27/1/3 25/1/3 26/1/3
f 30/1/3 29/1/3 28/1/3
f 31/1/3 29/1/3 30/1/3
f 36/4/3 33/4/3 32/4/3
f 36/3/3 34/3/3 33/3/3
f 37/4/3 35/4/3 34/4/3
f 37/3/3 34/3/3 36/3/3
f 38/4/3 35/4/3 37/4/3
f 39/4/3 36/4/3 32/4/3
f 39/4/3 37/4/3 36/4/3
f 40/4/3 37/4/3 39/4/3
f 41/3/3 38/3/3 37/3/3
f 41/4/3 37/4/3 40/4/3
f 42/3/3 38/3/3 41/3/3
f 43/3/3 40/3/3 39/3/3
f 44/4/3 41/4/3 40/4/3
f 44/3/3 40/3/3 43/3/3
f 44/4/3 42/4/3 41/4/3
f 45/4/3 42/4/3 44/4/3
f 46/2/4 47/2/4 48/2/4
f 48/2/4 47/2/4 49/2/4
f 49/2/4 47/2/4 50/2/4
f 50/2/4 47/2/4 51/2/4
f 48/4/4 49/4/4 52/4/4
f 49/3/4 50/3/4 52/3/4
f 50/4/4 51/4/4 53/4/4
f 52/3/4 50/3/4 53/3/4
f 53/4/4 51/4/4 54/4/4
f 48/4/4 52/4/4 55/4/4
f 52/4/4 53/4/4 55/4/4
f 55/4/4 53/4/4 56/4/4
f 53/3/4 54/3/4 57/3/4
f 56/4/4 53/4/4 57/4/4
f 57/3/4 54/3/4 58/3/4
f 55/3/4 56/3/4 59/3/4
f 56/4/4 57/4/4 60/4/4
f 59/3/4 56/3/4 60/3/4
f 57/4/4 58/4/4 60/4/4
f 60/4/4 58/4/4 61/4/4
f 59/2/4 60/2/4 62/2/4
f 60/2/4 61/2/4 62/2/4
f 62/2/4 61/2/4 63/2/4
f 68/1/5 65/1/5 64/1/5
f 69/1/5 65/1/5 68/1/5
f 71/1/5 67/1/5 66/1/5
f 72/1/5 67/1/5 71/1/5
f 73/2/5 69/2/5 68/2/5
f 74/4/5 70/4/5 69/4/5
f 74/2/5 69/2/5 73/2/5
f 75/3/5 71/3/5 70/3/5
f 75/4/5 70/4/5 74/4/5
f 76/2/5 72/2/5 71/2/5
f 76/3/5 71/3/5 75/3/5
f 77/2/5 72/2/5 76/2/5
f 78/1/6 79/1/6 82/1/6
f 82/1/6 79/1/6 83/1/6
f 80/1/6 81/1/6 86/1/6
f 86/1/6 81/1/6 87/1/6
f 82/2/6 83/2/6 88/2/6
f 83/4/6 84/4/6 89/4/6
f 88/2/6 83/2/6 89/2/6
f 84/3/6 85/3/6 90/3/6
f 89/4/6 84/4/6 90/4/6
f 85/4/6 86/4/6 91/4/6
f 90/3/6 85/3/6 91/3/6
f 86/2/6 87/2/6 92/2/6
f 91/4/6 86/4/6 92/4/6
f 92/2/6 87/2/6 93/2/6
