# MagicaVoxel @ Ephtracy

# group
o 

# material
mtllib house-1_v4-35.mtl
usemtl palette

# normals
vn -1 0 0
vn 1 0 0
vn 0 0 1
vn 0 0 -1
vn 0 -1 0
vn 0 1 0

# texcoords
vt 0.271484 0.5
vt 0.892578 0.5
vt 0.916016 0.5
vt 0.919922 0.5
vt 0.923828 0.5
vt 0.978516 0.5

# verts
v -0.8 1.2 -1.2
v -0.8 1.2 -1.3
v -0.8 1.3 -1.2
v -0.8 1.3 -1.3
v -0.8 2.1 -1.2
v -0.8 2.1 -1.3
v -0.8 2.2 -1.2
v -0.8 2.2 -1.3
v -0.8 2.4 -1.2
v -0.8 2.4 -1.3
v -0.8 2.5 -1.2
v -0.8 2.5 -1.3
v -0.1 0.3 -1.2
v -0.1 0.3 -1.3
v -0.1 1.2 -1.2
v -0.1 1.2 -1.3
v -0.1 1.3 -1.2
v -0.1 1.3 -1.3
v -0.1 1.5 -1.2
v -0.1 1.5 -1.3
v 0 1.5 -1.2
v 0 1.5 -1.3
v 0 2.1 -1.2
v 0 2.1 -1.3
v 0.7 0.8 -1.2
v 0.7 0.8 -1.3
v 0.7 0.9 -1.2
v 0.7 0.9 -1.3
v 0.7 1.3 -1.2
v 0.7 1.3 -1.3
v 0.7 1.4 -1.2
v 0.7 1.4 -1.3
v 0.7 1.5 -1.2
v 0.7 1.5 -1.3
v 0.7 1.7 -1.2
v 0.7 1.7 -1.3
v 0.7 1.9 -1.2
v 0.7 1.9 -1.3
v 0.7 2.3 -1.2
v 0.7 2.3 -1.3
v 0.8 0.3 -1.2
v 0.8 0.3 -1.3
v 0.8 0.8 -1.2
v 0.8 0.8 -1.3
v 0.1 0.3 -1.2
v 0.1 0.3 -1.3
v 0.1 0.8 -1.2
v 0.1 0.8 -1.3
v 0.2 0.8 -1.2
v 0.2 0.8 -1.3
v 0.2 0.9 -1.2
v 0.2 0.9 -1.3
v 0.2 1.3 -1.2
v 0.2 1.3 -1.3
v 0.2 1.7 -1.2
v 0.2 1.7 -1.3
v 0.2 1.9 -1.2
v 0.2 1.9 -1.3
v 0.2 2.3 -1.2
v 0.2 2.3 -1.3
v 1 0.3 -1.2
v 1 0.3 -1.3
v 1 0.4 -1.2
v 1 0.4 -1.3
v 1 0.5 -1.2
v 1 0.5 -1.3
v 1 0.8 -1.2
v 1 0.8 -1.3
v 1 0.9 -1.2
v 1 0.9 -1.3
v 1 1 -1.2
v 1 1 -1.3
v 1 1.2 -1.2
v 1 1.2 -1.3
v 1 1.3 -1.2
v 1 1.3 -1.3
v 1 1.4 -1.2
v 1 1.4 -1.3
v 1 1.5 -1.2
v 1 1.5 -1.3
v 1 1.7 -1.2
v 1 1.7 -1.3
v 1 1.8 -1.2
v 1 1.8 -1.3
v 1 2 -1.2
v 1 2 -1.3
v 1 2.1 -1.2
v 1 2.1 -1.3
v 1 2.2 -1.2
v 1 2.2 -1.3
v 1 2.4 -1.2
v 1 2.4 -1.3
v 1 2.5 -1.2
v 1 2.5 -1.3
v -0.8 1.2 -1.2
v -0.8 1.3 -1.2
v -0.8 2.1 -1.2
v -0.8 2.2 -1.2
v -0.8 2.4 -1.2
v -0.8 2.5 -1.2
v -0.7 2.2 -1.2
v -0.7 2.3 -1.2
v -0.5 2.2 -1.2
v -0.5 2.3 -1.2
v -0.3 2.3 -1.2
v -0.3 2.4 -1.2
v -0.1 0.3 -1.2
v -0.1 1.2 -1.2
v -0.1 1.3 -1.2
v -0.1 1.5 -1.2
v -0.1 2.3 -1.2
v -0.1 2.4 -1.2
v 0 1.5 -1.2
v 0 2.1 -1.2
v 0 2.2 -1.2
v 0.1 0.3 -1.2
v 0.1 0.8 -1.2
v 0.1 0.9 -1.2
v 0.2 0.8 -1.2
v 0.2 0.9 -1.2
v 0.2 1.1 -1.2
v 0.2 1.2 -1.2
v 0.2 1.3 -1.2
v 0.2 1.7 -1.2
v 0.2 1.9 -1.2
v 0.2 2.3 -1.2
v 0.3 1.8 -1.2
v 0.3 1.9 -1.2
v 0.4 1.1 -1.2
v 0.4 1.2 -1.2
v 0.4 1.7 -1.2
v 0.4 1.8 -1.2
v 0.5 0.9 -1.2
v 0.5 1.1 -1.2
v 0.5 1.8 -1.2
v 0.5 1.9 -1.2
v 0.6 0.9 -1.2
v 0.6 1 -1.2
v 0.6 1.1 -1.2
v 0.6 1.2 -1.2
v 0.6 1.7 -1.2
v 0.6 1.8 -1.2
v 0.7 0.8 -1.2
v 0.7 0.9 -1.2
v 0.7 1 -1.2
v 0.7 1.1 -1.2
v 0.7 1.2 -1.2
v 0.7 1.3 -1.2
v 0.7 1.4 -1.2
v 0.7 1.5 -1.2
v 0.7 1.7 -1.2
v 0.7 1.9 -1.2
v 0.7 2.3 -1.2
v 0.8 0.3 -1.2
v 0.8 0.8 -1.2
v 0.8 1.1 -1.2
v 0.8 1.2 -1.2
v 0.8 1.3 -1.2
v 0.8 1.4 -1.2
v 0.8 1.5 -1.2
v 0.8 1.6 -1.2
v 0.8 1.8 -1.2
v 0.8 1.9 -1.2
v 0.8 2 -1.2
v 0.8 2.1 -1.2
v 0.9 0.4 -1.2
v 0.9 0.5 -1.2
v 0.9 0.8 -1.2
v 0.9 0.9 -1.2
v 0.9 1 -1.2
v 0.9 1.1 -1.2
v 0.9 1.2 -1.2
v 0.9 1.3 -1.2
v 0.9 1.4 -1.2
v 0.9 1.5 -1.2
v 0.9 1.6 -1.2
v 0.9 1.7 -1.2
v 0.9 1.8 -1.2
v 0.9 1.9 -1.2
v 0.9 2 -1.2
v 0.9 2.1 -1.2
v 0.9 2.2 -1.2
v 1 0.3 -1.2
v 1 0.4 -1.2
v 1 0.5 -1.2
v 1 0.8 -1.2
v 1 0.9 -1.2
v 1 1 -1.2
v 1 1.2 -1.2
v 1 1.3 -1.2
v 1 1.4 -1.2
v 1 1.5 -1.2
v 1 1.7 -1.2
v 1 1.8 -1.2
v 1 2 -1.2
v 1 2.1 -1.2
v 1 2.2 -1.2
v 1 2.4 -1.2
v 1 2.5 -1.2
v -0.8 1.2 -1.3
v -0.8 1.3 -1.3
v -0.8 2.1 -1.3
v -0.8 2.2 -1.3
v -0.8 2.4 -1.3
v -0.8 2.5 -1.3
v -0.7 2.2 -1.3
v -0.7 2.3 -1.3
v -0.5 2.2 -1.3
v -0.5 2.3 -1.3
v -0.3 2.3 -1.3
v -0.3 2.4 -1.3
v -0.1 0.3 -1.3
v -0.1 1.2 -1.3
v -0.1 1.3 -1.3
v -0.1 1.5 -1.3
v -0.1 2.3 -1.3
v -0.1 2.4 -1.3
v 0 1.5 -1.3
v 0 2.1 -1.3
v 0 2.2 -1.3
v 0.1 0.3 -1.3
v 0.1 0.8 -1.3
v 0.1 0.9 -1.3
v 0.2 0.8 -1.3
v 0.2 0.9 -1.3
v 0.2 1.1 -1.3
v 0.2 1.2 -1.3
v 0.2 1.3 -1.3
v 0.2 1.7 -1.3
v 0.2 1.9 -1.3
v 0.2 2.3 -1.3
v 0.3 1.8 -1.3
v 0.3 1.9 -1.3
v 0.4 1.1 -1.3
v 0.4 1.2 -1.3
v 0.4 1.7 -1.3
v 0.4 1.8 -1.3
v 0.5 0.9 -1.3
v 0.5 1.1 -1.3
v 0.5 1.8 -1.3
v 0.5 1.9 -1.3
v 0.6 0.9 -1.3
v 0.6 1 -1.3
v 0.6 1.1 -1.3
v 0.6 1.2 -1.3
v 0.6 1.7 -1.3
v 0.6 1.8 -1.3
v 0.7 0.8 -1.3
v 0.7 0.9 -1.3
v 0.7 1 -1.3
v 0.7 1.1 -1.3
v 0.7 1.2 -1.3
v 0.7 1.3 -1.3
v 0.7 1.4 -1.3
v 0.7 1.5 -1.3
v 0.7 1.7 -1.3
v 0.7 1.9 -1.3
v 0.7 2.3 -1.3
v 0.8 0.3 -1.3
v 0.8 0.8 -1.3
v 0.8 1.1 -1.3
v 0.8 1.2 -1.3
v 0.8 1.3 -1.3
v 0.8 1.4 -1.3
v 0.8 1.5 -1.3
v 0.8 1.6 -1.3
v 0.8 1.8 -1.3
v 0.8 1.9 -1.3
v 0.8 2 -1.3
v 0.8 2.1 -1.3
v 0.9 0.4 -1.3
v 0.9 0.5 -1.3
v 0.9 0.8 -1.3
v 0.9 0.9 -1.3
v 0.9 1 -1.3
v 0.9 1.1 -1.3
v 0.9 1.2 -1.3
v 0.9 1.3 -1.3
v 0.9 1.4 -1.3
v 0.9 1.5 -1.3
v 0.9 1.6 -1.3
v 0.9 1.7 -1.3
v 0.9 1.8 -1.3
v 0.9 1.9 -1.3
v 0.9 2 -1.3
v 0.9 2.1 -1.3
v 0.9 2.2 -1.3
v 1 0.3 -1.3
v 1 0.4 -1.3
v 1 0.5 -1.3
v 1 0.8 -1.3
v 1 0.9 -1.3
v 1 1 -1.3
v 1 1.2 -1.3
v 1 1.3 -1.3
v 1 1.4 -1.3
v 1 1.5 -1.3
v 1 1.7 -1.3
v 1 1.8 -1.3
v 1 2 -1.3
v 1 2.1 -1.3
v 1 2.2 -1.3
v 1 2.4 -1.3
v 1 2.5 -1.3
v -0.1 0.3 -1.2
v 0.1 0.3 -1.2
v 0.8 0.3 -1.2
v 1 0.3 -1.2
v -0.1 0.3 -1.3
v 0.1 0.3 -1.3
v 0.8 0.3 -1.3
v 1 0.3 -1.3
v 0.1 0.8 -1.2
v 0.2 0.8 -1.2
v 0.7 0.8 -1.2
v 0.8 0.8 -1.2
v 0.1 0.8 -1.3
v 0.2 0.8 -1.3
v 0.7 0.8 -1.3
v 0.8 0.8 -1.3
v 0.2 0.9 -1.2
v 0.5 0.9 -1.2
v 0.6 0.9 -1.2
v 0.7 0.9 -1.2
v 0.2 0.9 -1.3
v 0.5 0.9 -1.3
v 0.6 0.9 -1.3
v 0.7 0.9 -1.3
v -0.8 1.2 -1.2
v -0.1 1.2 -1.2
v -0.8 1.2 -1.3
v -0.1 1.2 -1.3
v 0.2 1.7 -1.2
v 0.4 1.7 -1.2
v 0.6 1.7 -1.2
v 0.7 1.7 -1.2
v 0.2 1.7 -1.3
v 0.4 1.7 -1.3
v 0.6 1.7 -1.3
v 0.7 1.7 -1.3
v -0.8 2.1 -1.2
v 0 2.1 -1.2
v -0.8 2.1 -1.3
v 0 2.1 -1.3
v 0.2 2.3 -1.2
v 0.7 2.3 -1.2
v 0.2 2.3 -1.3
v 0.7 2.3 -1.3
v -0.8 1.3 -1.2
v -0.1 1.3 -1.2
v 0.2 1.3 -1.2
v 0.7 1.3 -1.2
v -0.8 1.3 -1.3
v -0.1 1.3 -1.3
v 0.2 1.3 -1.3
v 0.7 1.3 -1.3
v -0.1 1.5 -1.2
v 0 1.5 -1.2
v -0.1 1.5 -1.3
v 0 1.5 -1.3
v 0.2 1.9 -1.2
v 0.3 1.9 -1.2
v 0.5 1.9 -1.2
v 0.7 1.9 -1.2
v 0.2 1.9 -1.3
v 0.3 1.9 -1.3
v 0.5 1.9 -1.3
v 0.7 1.9 -1.3
v -0.8 2.5 -1.2
v 1 2.5 -1.2
v -0.8 2.5 -1.3
v 1 2.5 -1.3

# faces
f 3/1/1 2/1/1 1/1/1
f 4/1/1 2/1/1 3/1/1
f 7/6/1 6/6/1 5/6/1
f 8/6/1 6/6/1 7/6/1
f 9/5/1 8/5/1 7/5/1
f 10/5/1 8/5/1 9/5/1
f 11/4/1 10/4/1 9/4/1
f 12/4/1 10/4/1 11/4/1
f 15/5/1 14/5/1 13/5/1
f 16/5/1 14/5/1 15/5/1
f 19/5/1 18/5/1 17/5/1
f 20/5/1 18/5/1 19/5/1
f 23/5/1 22/5/1 21/5/1
f 24/5/1 22/5/1 23/5/1
f 27/5/1 26/5/1 25/5/1
f 28/5/1 26/5/1 27/5/1
f 31/5/1 30/5/1 29/5/1
f 32/5/1 30/5/1 31/5/1
f 33/2/1 32/2/1 31/2/1
f 34/2/1 32/2/1 33/2/1
f 35/5/1 34/5/1 33/5/1
f 36/5/1 34/5/1 35/5/1
f 39/5/1 38/5/1 37/5/1
f 40/5/1 38/5/1 39/5/1
f 43/5/1 42/5/1 41/5/1
f 44/5/1 42/5/1 43/5/1
f 45/5/2 46/5/2 47/5/2
f 47/5/2 46/5/2 48/5/2
f 49/3/2 50/3/2 51/3/2
f 51/3/2 50/3/2 52/3/2
f 53/5/2 54/5/2 55/5/2
f 55/5/2 54/5/2 56/5/2
f 57/5/2 58/5/2 59/5/2
f 59/5/2 58/5/2 60/5/2
f 61/5/2 62/5/2 63/5/2
f 63/5/2 62/5/2 64/5/2
f 63/3/2 64/3/2 65/3/2
f 65/3/2 64/3/2 66/3/2
f 65/5/2 66/5/2 67/5/2
f 67/5/2 66/5/2 68/5/2
f 67/3/2 68/3/2 69/3/2
f 69/3/2 68/3/2 70/3/2
f 69/5/2 70/5/2 71/5/2
f 71/5/2 70/5/2 72/5/2
f 71/2/2 72/2/2 73/2/2
f 73/2/2 72/2/2 74/2/2
f 73/3/2 74/3/2 75/3/2
f 75/3/2 74/3/2 76/3/2
f 75/2/2 76/2/2 77/2/2
f 77/2/2 76/2/2 78/2/2
f 77/5/2 78/5/2 79/5/2
f 79/5/2 78/5/2 80/5/2
f 79/2/2 80/2/2 81/2/2
f 81/2/2 80/2/2 82/2/2
f 81/3/2 82/3/2 83/3/2
f 83/3/2 82/3/2 84/3/2
f 83/2/2 84/2/2 85/2/2
f 85/2/2 84/2/2 86/2/2
f 85/3/2 86/3/2 87/3/2
f 87/3/2 86/3/2 88/3/2
f 87/2/2 88/2/2 89/2/2
f 89/2/2 88/2/2 90/2/2
f 89/5/2 90/5/2 91/5/2
f 91/5/2 90/5/2 92/5/2
f 91/4/2 92/4/2 93/4/2
f 93/4/2 92/4/2 94/4/2
f 101/6/3 98/6/3 97/6/3
f 101/5/3 99/5/3 98/5/3
f 102/5/3 99/5/3 101/5/3
f 103/6/3 101/6/3 97/6/3
f 103/3/3 102/3/3 101/3/3
f 104/5/3 99/5/3 102/5/3
f 104/3/3 102/3/3 103/3/3
f 105/5/3 104/5/3 103/5/3
f 105/5/3 99/5/3 104/5/3
f 106/4/3 100/4/3 99/4/3
f 106/5/3 99/5/3 105/5/3
f 108/1/3 96/1/3 95/1/3
f 109/1/3 96/1/3 108/1/3
f 111/5/3 105/5/3 103/5/3
f 111/3/3 106/3/3 105/3/3
f 112/4/3 100/4/3 106/4/3
f 112/3/3 106/3/3 111/3/3
f 113/5/3 110/5/3 109/5/3
f 113/5/3 109/5/3 108/5/3
f 113/5/3 108/5/3 107/5/3
f 114/6/3 103/6/3 97/6/3
f 115/5/3 111/5/3 103/5/3
f 115/5/3 112/5/3 111/5/3
f 115/6/3 103/6/3 114/6/3
f 116/5/3 114/5/3 113/5/3
f 116/5/3 113/5/3 107/5/3
f 116/5/3 115/5/3 114/5/3
f 117/5/3 115/5/3 116/5/3
f 118/5/3 115/5/3 117/5/3
f 119/3/3 118/3/3 117/3/3
f 120/5/3 115/5/3 118/5/3
f 120/3/3 118/3/3 119/3/3
f 121/5/3 115/5/3 120/5/3
f 122/5/3 115/5/3 121/5/3
f 123/5/3 115/5/3 122/5/3
f 124/5/3 115/5/3 123/5/3
f 125/5/3 115/5/3 124/5/3
f 126/5/3 112/5/3 115/5/3
f 126/5/3 115/5/3 125/5/3
f 127/5/3 125/5/3 124/5/3
f 128/5/3 125/5/3 127/5/3
f 129/5/3 121/5/3 120/5/3
f 129/3/3 122/3/3 121/3/3
f 130/5/3 123/5/3 122/5/3
f 130/3/3 122/3/3 129/3/3
f 131/5/3 127/5/3 124/5/3
f 132/2/3 128/2/3 127/2/3
f 132/5/3 127/5/3 131/5/3
f 133/5/3 129/5/3 120/5/3
f 134/2/3 130/2/3 129/2/3
f 134/5/3 129/5/3 133/5/3
f 135/2/3 128/2/3 132/2/3
f 135/3/3 132/3/3 131/3/3
f 136/2/3 128/2/3 135/2/3
f 137/2/3 134/2/3 133/2/3
f 138/2/3 134/2/3 137/2/3
f 139/2/3 130/2/3 134/2/3
f 139/2/3 134/2/3 138/2/3
f 140/5/3 123/5/3 130/5/3
f 140/2/3 130/2/3 139/2/3
f 141/3/3 135/3/3 131/3/3
f 142/5/3 136/5/3 135/5/3
f 142/3/3 135/3/3 141/3/3
f 144/5/3 138/5/3 137/5/3
f 145/2/3 139/2/3 138/2/3
f 145/5/3 138/5/3 144/5/3
f 146/5/3 140/5/3 139/5/3
f 146/2/3 139/2/3 145/2/3
f 147/5/3 123/5/3 140/5/3
f 147/5/3 140/5/3 146/5/3
f 148/5/3 123/5/3 147/5/3
f 151/5/3 142/5/3 141/5/3
f 152/5/3 136/5/3 142/5/3
f 152/5/3 142/5/3 151/5/3
f 153/5/3 112/5/3 126/5/3
f 155/5/3 144/5/3 143/5/3
f 155/5/3 146/5/3 145/5/3
f 155/5/3 145/5/3 144/5/3
f 155/5/3 147/5/3 146/5/3
f 156/5/3 147/5/3 155/5/3
f 157/2/3 148/2/3 147/2/3
f 157/5/3 147/5/3 156/5/3
f 158/5/3 149/5/3 148/5/3
f 158/2/3 148/2/3 157/2/3
f 159/2/3 150/2/3 149/2/3
f 159/5/3 149/5/3 158/5/3
f 160/5/3 152/5/3 151/5/3
f 160/2/3 150/2/3 159/2/3
f 160/5/3 151/5/3 150/5/3
f 160/5/3 153/5/3 152/5/3
f 161/5/3 153/5/3 160/5/3
f 162/5/3 153/5/3 161/5/3
f 163/5/3 153/5/3 162/5/3
f 164/5/3 153/5/3 163/5/3
f 165/5/3 153/5/3 164/5/3
f 166/5/3 155/5/3 154/5/3
f 166/5/3 156/5/3 155/5/3
f 167/5/3 156/5/3 166/5/3
f 168/5/3 156/5/3 167/5/3
f 169/5/3 156/5/3 168/5/3
f 170/5/3 156/5/3 169/5/3
f 171/2/3 159/2/3 158/2/3
f 171/5/3 156/5/3 170/5/3
f 171/2/3 157/2/3 156/2/3
f 171/2/3 158/2/3 157/2/3
f 171/2/3 160/2/3 159/2/3
f 171/2/3 161/2/3 160/2/3
f 172/2/3 161/2/3 171/2/3
f 173/2/3 161/2/3 172/2/3
f 174/2/3 161/2/3 173/2/3
f 175/2/3 161/2/3 174/2/3
f 176/5/3 162/5/3 161/5/3
f 176/2/3 161/2/3 175/2/3
f 177/5/3 162/5/3 176/5/3
f 178/2/3 163/2/3 162/2/3
f 178/5/3 162/5/3 177/5/3
f 179/5/3 164/5/3 163/5/3
f 179/2/3 163/2/3 178/2/3
f 180/3/3 165/3/3 164/3/3
f 180/5/3 164/5/3 179/5/3
f 181/5/3 153/5/3 165/5/3
f 181/3/3 165/3/3 180/3/3
f 182/5/3 153/5/3 181/5/3
f 183/5/3 166/5/3 154/5/3
f 184/3/3 167/3/3 166/3/3
f 184/5/3 166/5/3 183/5/3
f 185/5/3 168/5/3 167/5/3
f 185/3/3 167/3/3 184/3/3
f 186/3/3 169/3/3 168/3/3
f 186/5/3 168/5/3 185/5/3
f 187/5/3 170/5/3 169/5/3
f 187/3/3 169/3/3 186/3/3
f 188/2/3 171/2/3 170/2/3
f 188/5/3 170/5/3 187/5/3
f 188/2/3 172/2/3 171/2/3
f 189/3/3 173/3/3 172/3/3
f 189/2/3 172/2/3 188/2/3
f 190/2/3 174/2/3 173/2/3
f 190/3/3 173/3/3 189/3/3
f 191/5/3 175/5/3 174/5/3
f 191/2/3 174/2/3 190/2/3
f 192/2/3 177/2/3 176/2/3
f 192/5/3 175/5/3 191/5/3
f 192/2/3 176/2/3 175/2/3
f 193/3/3 178/3/3 177/3/3
f 193/2/3 177/2/3 192/2/3
f 194/2/3 180/2/3 179/2/3
f 194/3/3 178/3/3 193/3/3
f 194/2/3 179/2/3 178/2/3
f 195/3/3 181/3/3 180/3/3
f 195/2/3 180/2/3 194/2/3
f 196/2/3 182/2/3 181/2/3
f 196/3/3 181/3/3 195/3/3
f 197/5/3 153/5/3 182/5/3
f 197/2/3 182/2/3 196/2/3
f 198/4/3 100/4/3 112/4/3
f 198/5/3 153/5/3 197/5/3
f 198/5/3 112/5/3 153/5/3
f 199/4/3 100/4/3 198/4/3
f 202/6/4 203/6/4 206/6/4
f 203/5/4 204/5/4 206/5/4
f 206/5/4 204/5/4 207/5/4
f 202/6/4 206/6/4 208/6/4
f 206/3/4 207/3/4 208/3/4
f 207/5/4 204/5/4 209/5/4
f 208/3/4 207/3/4 209/3/4
f 208/5/4 209/5/4 210/5/4
f 209/5/4 204/5/4 210/5/4
f 204/4/4 205/4/4 211/4/4
f 210/5/4 204/5/4 211/5/4
f 200/1/4 201/1/4 213/1/4
f 213/1/4 201/1/4 214/1/4
f 208/5/4 210/5/4 216/5/4
f 210/3/4 211/3/4 216/3/4
f 211/4/4 205/4/4 217/4/4
f 216/3/4 211/3/4 217/3/4
f 214/5/4 215/5/4 218/5/4
f 213/5/4 214/5/4 218/5/4
f 212/5/4 213/5/4 218/5/4
f 202/6/4 208/6/4 219/6/4
f 208/5/4 216/5/4 220/5/4
f 216/5/4 217/5/4 220/5/4
f 219/6/4 208/6/4 220/6/4
f 218/5/4 219/5/4 221/5/4
f 212/5/4 218/5/4 221/5/4
f 219/5/4 220/5/4 221/5/4
f 221/5/4 220/5/4 222/5/4
f 222/5/4 220/5/4 223/5/4
f 222/3/4 223/3/4 224/3/4
f 223/5/4 220/5/4 225/5/4
f 224/3/4 223/3/4 225/3/4
f 225/5/4 220/5/4 226/5/4
f 226/5/4 220/5/4 227/5/4
f 227/5/4 220/5/4 228/5/4
f 228/5/4 220/5/4 229/5/4
f 229/5/4 220/5/4 230/5/4
f 220/5/4 217/5/4 231/5/4
f 230/5/4 220/5/4 231/5/4
f 229/5/4 230/5/4 232/5/4
f 232/5/4 230/5/4 233/5/4
f 225/5/4 226/5/4 234/5/4
f 226/3/4 227/3/4 234/3/4
f 227/5/4 228/5/4 235/5/4
f 234/3/4 227/3/4 235/3/4
f 229/5/4 232/5/4 236/5/4
f 232/2/4 233/2/4 237/2/4
f 236/5/4 232/5/4 237/5/4
f 225/5/4 234/5/4 238/5/4
f 234/2/4 235/2/4 239/2/4
f 238/5/4 234/5/4 239/5/4
f 237/2/4 233/2/4 240/2/4
f 236/3/4 237/3/4 240/3/4
f 240/2/4 233/2/4 241/2/4
f 238/2/4 239/2/4 242/2/4
f 242/2/4 239/2/4 243/2/4
f 239/2/4 235/2/4 244/2/4
f 243/2/4 239/2/4 244/2/4
f 235/5/4 228/5/4 245/5/4
f 244/2/4 235/2/4 245/2/4
f 236/3/4 240/3/4 246/3/4
f 240/5/4 241/5/4 247/5/4
f 246/3/4 240/3/4 247/3/4
f 242/5/4 243/5/4 249/5/4
f 243/2/4 244/2/4 250/2/4
f 249/5/4 243/5/4 250/5/4
f 244/5/4 245/5/4 251/5/4
f 250/2/4 244/2/4 251/2/4
f 245/5/4 228/5/4 252/5/4
f 251/5/4 245/5/4 252/5/4
f 252/5/4 228/5/4 253/5/4
f 246/5/4 247/5/4 256/5/4
f 247/5/4 241/5/4 257/5/4
f 256/5/4 247/5/4 257/5/4
f 231/5/4 217/5/4 258/5/4
f 248/5/4 249/5/4 260/5/4
f 250/5/4 251/5/4 260/5/4
f 249/5/4 250/5/4 260/5/4
f 251/5/4 252/5/4 260/5/4
f 260/5/4 252/5/4 261/5/4
f 252/2/4 253/2/4 262/2/4
f 261/5/4 252/5/4 262/5/4
f 253/5/4 254/5/4 263/5/4
f 262/2/4 253/2/4 263/2/4
f 254/2/4 255/2/4 264/2/4
f 263/5/4 254/5/4 264/5/4
f 256/5/4 257/5/4 265/5/4
f 264/2/4 255/2/4 265/2/4
f 255/5/4 256/5/4 265/5/4
f 257/5/4 258/5/4 265/5/4
f 265/5/4 258/5/4 266/5/4
f 266/5/4 258/5/4 267/5/4
f 267/5/4 258/5/4 268/5/4
f 268/5/4 258/5/4 269/5/4
f 269/5/4 258/5/4 270/5/4
f 259/5/4 260/5/4 271/5/4
f 260/5/4 261/5/4 271/5/4
f 271/5/4 261/5/4 272/5/4
f 272/5/4 261/5/4 273/5/4
f 273/5/4 261/5/4 274/5/4
f 274/5/4 261/5/4 275/5/4
f 263/2/4 264/2/4 276/2/4
f 275/5/4 261/5/4 276/5/4
f 261/2/4 262/2/4 276/2/4
f 262/2/4 263/2/4 276/2/4
f 264/2/4 265/2/4 276/2/4
f 265/2/4 266/2/4 276/2/4
f 276/2/4 266/2/4 277/2/4
f 277/2/4 266/2/4 278/2/4
f 278/2/4 266/2/4 279/2/4
f 279/2/4 266/2/4 280/2/4
f 266/5/4 267/5/4 281/5/4
f 280/2/4 266/2/4 281/2/4
f 281/5/4 267/5/4 282/5/4
f 267/2/4 268/2/4 283/2/4
f 282/5/4 267/5/4 283/5/4
f 268/5/4 269/5/4 284/5/4
f 283/2/4 268/2/4 284/2/4
f 269/3/4 270/3/4 285/3/4
f 284/5/4 269/5/4 285/5/4
f 270/5/4 258/5/4 286/5/4
f 285/3/4 270/3/4 286/3/4
f 286/5/4 258/5/4 287/5/4
f 259/5/4 271/5/4 288/5/4
f 271/3/4 272/3/4 289/3/4
f 288/5/4 271/5/4 289/5/4
f 272/5/4 273/5/4 290/5/4
f 289/3/4 272/3/4 290/3/4
f 273/3/4 274/3/4 291/3/4
f 290/5/4 273/5/4 291/5/4
f 274/5/4 275/5/4 292/5/4
f 291/3/4 274/3/4 292/3/4
f 275/2/4 276/2/4 293/2/4
f 292/5/4 275/5/4 293/5/4
f 276/2/4 277/2/4 293/2/4
f 277/3/4 278/3/4 294/3/4
f 293/2/4 277/2/4 294/2/4
f 278/2/4 279/2/4 295/2/4
f 294/3/4 278/3/4 295/3/4
f 279/5/4 280/5/4 296/5/4
f 295/2/4 279/2/4 296/2/4
f 281/2/4 282/2/4 297/2/4
f 296/5/4 280/5/4 297/5/4
f 280/2/4 281/2/4 297/2/4
f 282/3/4 283/3/4 298/3/4
f 297/2/4 282/2/4 298/2/4
f 284/2/4 285/2/4 299/2/4
f 298/3/4 283/3/4 299/3/4
f 283/2/4 284/2/4 299/2/4
f 285/3/4 286/3/4 300/3/4
f 299/2/4 285/2/4 300/2/4
f 286/2/4 287/2/4 301/2/4
f 300/3/4 286/3/4 301/3/4
f 287/5/4 258/5/4 302/5/4
f 301/2/4 287/2/4 302/2/4
f 217/4/4 205/4/4 303/4/4
f 302/5/4 258/5/4 303/5/4
f 258/5/4 217/5/4 303/5/4
f 303/4/4 205/4/4 304/4/4
f 309/5/5 306/5/5 305/5/5
f 310/5/5 306/5/5 309/5/5
f 311/5/5 308/5/5 307/5/5
f 312/5/5 308/5/5 311/5/5
f 317/3/5 314/3/5 313/3/5
f 318/3/5 314/3/5 317/3/5
f 319/5/5 316/5/5 315/5/5
f 320/5/5 316/5/5 319/5/5
f 325/5/5 322/5/5 321/5/5
f 326/2/5 323/2/5 322/2/5
f 326/5/5 322/5/5 325/5/5
f 327/5/5 324/5/5 323/5/5
f 327/2/5 323/2/5 326/2/5
f 328/5/5 324/5/5 327/5/5
f 331/1/5 330/1/5 329/1/5
f 332/1/5 330/1/5 331/1/5
f 337/5/5 334/5/5 333/5/5
f 338/3/5 335/3/5 334/3/5
f 338/5/5 334/5/5 337/5/5
f 339/5/5 336/5/5 335/5/5
f 339/3/5 335/3/5 338/3/5
f 340/5/5 336/5/5 339/5/5
f 343/6/5 342/6/5 341/6/5
f 344/6/5 342/6/5 343/6/5
f 347/5/5 346/5/5 345/5/5
f 348/5/5 346/5/5 347/5/5
f 349/1/6 350/1/6 353/1/6
f 353/1/6 350/1/6 354/1/6
f 351/5/6 352/5/6 355/5/6
f 355/5/6 352/5/6 356/5/6
f 357/5/6 358/5/6 359/5/6
f 359/5/6 358/5/6 360/5/6
f 361/5/6 362/5/6 365/5/6
f 362/2/6 363/2/6 366/2/6
f 365/5/6 362/5/6 366/5/6
f 363/5/6 364/5/6 367/5/6
f 366/2/6 363/2/6 367/2/6
f 367/5/6 364/5/6 368/5/6
f 369/4/6 370/4/6 371/4/6
f 371/4/6 370/4/6 372/4/6
